<?xml version="1.0" encoding="UTF-8"?>
<svg width="24px" height="24px" viewBox="0 0 24 24" version="1.1" xmlns="http://www.w3.org/2000/svg" xmlns:xlink="http://www.w3.org/1999/xlink">
    <g id="Symbols" stroke="none" stroke-width="1" fill="none" fill-rule="evenodd">
        <g id="Data-Display/Icons/cancel" fill="currentColor">
            <path d="M19.0742438,4.92574392 C15.1724148,1.02475203 8.82694036,1.02475203 4.92511138,4.92574392 C1.02496287,8.82673582 1.02496287,15.173825 4.92511138,19.0748169 C6.87602587,21.0249025 9.43804713,21.9994959 12.0001075,21.9994959 C14.5621678,21.9994959 17.1233293,21.0248634 19.0742438,19.0748169 C22.9752521,15.1738641 22.9752521,8.82673582 19.0742438,4.92574392 Z M16.9514186,15.5375449 C17.3425864,15.9287127 17.3425864,16.5610247 16.9514186,16.9521924 C16.7563272,17.1472839 16.5002228,17.2453455 16.2440714,17.2453455 C15.987967,17.2453455 15.7318157,17.1472839 15.5367242,16.9521924 L12.0000821,13.4145185 L8.46442473,16.9511607 C8.26834844,17.1462521 8.01219712,17.2443137 7.75707754,17.2443137 C7.50097311,17.2443137 7.24482179,17.1462521 7.04973034,16.9511607 C6.65856261,16.559993 6.65856261,15.9266961 7.04973034,15.5365132 L10.5853877,11.999871 L7.04874551,8.46322886 C6.65757777,8.07206112 6.65757777,7.43876426 7.04874551,7.04858137 C7.4389284,6.65741363 8.07222526,6.65741363 8.463393,7.04858137 L12.0000352,10.5852235 L15.5366773,7.04858137 C15.9278451,6.65741363 16.5601571,6.65741363 16.9513248,7.04858137 C17.3424926,7.43876426 17.3424926,8.07206112 16.9513248,8.46322886 L13.4146827,11.999871 L16.9514186,15.5375449 Z" id="Shape"></path>
        </g>
    </g>
</svg>