<svg xmlns="http://www.w3.org/2000/svg" viewBox="0 0 20 20"><path d="M9 18v1a1 1 0 0 0 2 0v-1a1 1 0 0 0-2 0Zm8.07-2.34-.7-.71a1 1 0 1 0-1.42 1.41l.7.71a1 1 0 0 0 1.42-1.41Zm-13.43-.71-.71.7a1 1 0 0 0 1.41 1.42l.71-.7a1 1 0 1 0-1.41-1.42ZM10 4a6 6 0 1 0 0 12 6 6 0 0 0 0-12Zm0 2a4 4 0 1 1 0 8 4 4 0 0 1 0-8Zm9 3h-1a1 1 0 0 0 0 2h1a1 1 0 0 0 0-2ZM2 9H1a1 1 0 0 0 0 2h1a1 1 0 0 0 0-2Zm3.05-5.36-.7-.71a1 1 0 0 0-1.42 1.41l.7.71a1 1 0 1 0 1.42-1.41Zm10.6-.71-.7.7a1 1 0 1 0 1.41 1.42l.71-.7a1 1 0 0 0-1.41-1.42ZM9 1v1a1 1 0 0 0 2 0V1a1 1 0 0 0-2 0Z" fill="currentColor" fill-rule="evenodd"/></svg>