<svg width="16" height="20" xmlns="http://www.w3.org/2000/svg"><path d="M6.63.54a2 2 0 0 1 2.74 0c4.54 4.24 6.35 7.28 6.61 11.32a7.29 7.29 0 0 1-1.92 5.54A8.2 8.2 0 0 1 8 20a8.2 8.2 0 0 1-6.05-2.6 7.29 7.29 0 0 1-1.93-5.54C.28 7.82 2.09 4.79 6.63.54ZM8 2c-4.23 3.95-5.77 6.56-5.99 9.98a5.36 5.36 0 0 0 1.4 4.07A6.2 6.2 0 0 0 8 18a6.2 6.2 0 0 0 4.58-1.95 5.36 5.36 0 0 0 1.4-4.07C13.78 8.56 12.24 5.95 8 2Zm-3.36 8.34h.12a1 1 0 0 1 .89 1.1c-.15 1.33.61 2.52 2.14 2.68a1 1 0 0 1-.2 2 4.3 4.3 0 0 1-3.93-4.89 1 1 0 0 1 .98-.9Z" fill="currentColor" fill-rule="evenodd"/></svg>