<svg height="185" viewBox="0 0 243 231" width="195" xmlns="http://www.w3.org/2000/svg"><g fill="none" fill-rule="evenodd"><path d="M207.67 212.49c0-10.46-39.74-18.94-88.76-18.94s-88.76 8.48-88.76 18.94 39.74 18.94 88.76 18.94 88.76-8.48 88.76-18.94" fill="#dde2f8"/><path d="M242.5 96.92a42.93 42.93 0 0 1-1.02 4.32 93.09 93.09 0 0 1-1.46 4.45 179.33 179.33 0 0 1-5.14 12.55l-.02.01-1.27 2.73a374.69 374.69 0 0 1-9.29 18.1l-2.16 3.96a510.08 510.08 0 0 1-17.02 28.64 326.73 326.73 0 0 1-12.62 18.56 171.78 171.78 0 0 1-5.08 6.58c-.27.35-.56.69-.83 1.02a57.18 57.18 0 0 1-7.08 7.54c-2.75 2.33-6.1 3.74-9.44 5.06-11.27 4.51-23.55 6.09-35.6 6.72-16.47.86-33.07-.1-49.2-3.67a97 97 0 0 1-18.39-5.74c-.55-.24-1.07-.5-1.58-.8-.25-.16-.51-.3-.76-.48a19.5 19.5 0 0 1-1.46-1.04l-.63-.53-.15-.12a31.3 31.3 0 0 1-1.17-1.07 47.05 47.05 0 0 1-2.76-2.91 125.03 125.03 0 0 1-2.17-2.56l-.16-.19-.54-.67a8.36 8.36 0 0 1-.41-.5l-.44-.54-.42-.53a49.15 49.15 0 0 0-.84-1.02 225.16 225.16 0 0 1-11.16-15.46 56.1 56.1 0 0 1-.94-1.42l-.01-.03a458.03 458.03 0 0 1-10.04-16.06 490.97 490.97 0 0 1-9.83-17.02 412.33 412.33 0 0 1-10.48-20.16 412.83 412.83 0 0 1-2.5-5.3 188.41 188.41 0 0 1-4.45-10.46C2.46 105 1 101.03.32 96.92c-.34-1.93 2.6-2.75 2.93-.81l.1.4s239.48-1.52 239.15.4" fill="#8090ff"/><path d="M242.5 96.92a42.93 42.93 0 0 1-1.02 4.32c-.44 1.5-.6 3.16-1.46 4.45-17.42 25.7-60.86 39.22-120.69 44.34-43.54 3.73-82.11 1.25-97.92-5.23a412.33 412.33 0 0 1-10.48-20.16 412.83 412.83 0 0 1-2.5-5.3 188.41 188.41 0 0 1-4.45-10.46C2.46 105 1 101.03.32 96.92c-.34-1.93 2.6-2.75 2.93-.81l.1.4s239.48-1.52 239.15.4" fill="#9fafff"/><path d="M67.87 126.08c30.27 4.35 61.17 6.45 91.73 4.18 24.75-1.84 53.21-5.73 75.38-23.03 2.6-2.03 5.86-6.15 6.82-9.33 1.77-5.9-13.6-25.49-117.2-28.7C74.05 67.63 23.83 75.6 5.83 87.97c-13 8.93 3.57 18.15 10.66 22.21 9.55 5.48 20.25 8.76 30.9 11.47 6.76 1.72 13.56 3.43 20.48 4.43" fill="#1841d3"/><path d="M67.55 126.99c25.61 3.67 51.5 5.76 77.4 4.97 21.35-.65 43.52-2.47 63.8-9.65 5-1.76 9.89-3.88 14.55-6.4 4.58-2.47 9.34-5.28 13.2-8.8 2.54-2.31 5.45-5.74 6.2-9.2a4.62 4.62 0 0 0 .02-1.74c-.54-3.38-3.66-6-6.28-7.85-6.14-4.37-13.62-6.93-20.8-9.02-13.7-4-27.92-6.14-42.07-7.73a535.18 535.18 0 0 0-68.88-3.43c-22.9.39-46.05 2.35-68.4 7.46-8.07 1.85-16.12 4.11-23.67 7.54-5.25 2.38-14.16 6.6-12.4 13.73.84 3.38 3.71 6.04 6.35 8.1 2.86 2.25 6 4.1 9.14 5.9 10.48 5.98 22.06 9.34 33.68 12.27 6 1.52 12.03 2.95 18.16 3.85 1.18.17 1.68-1.63.5-1.8-6.13-.9-12.16-2.33-18.16-3.85a212.7 212.7 0 0 1-16.84-4.8c-8.81-3.02-17.75-7.13-25.16-12.89-2.53-1.96-5.73-4.72-6-8.15-.31-3.76 3.46-6.27 6.28-7.96 6.2-3.71 13.21-6.04 20.13-7.99 20.36-5.72 41.74-8.04 62.8-9.1 23.21-1.15 46.54-.25 69.68 1.72 15.6 1.33 31.23 3.24 46.48 6.85 8.4 2 16.96 4.43 24.56 8.62 3.36 1.85 7.09 4.25 8.7 7.64.07.16.11.22.23.63.07.23.12.47.16.71-.04-.25.02.27.02.47-.02.44.05 0-.05.4-1.01 3.89-4.36 7.38-7.47 9.74a87.11 87.11 0 0 1-13.3 8.25c-18.3 9.24-38.97 12.2-59.19 13.75-24.79 1.92-49.7 1-74.4-1.7a561.9 561.9 0 0 1-18.47-2.34c-1.18-.17-1.68 1.63-.5 1.8" fill="#1841d3"/><path d="M232.81 95.2c5.3 4.9-5.73 11.67-15.66 15.53-34.08 13.26-61.45 16.36-97.73 15.56-23.12-.5-56.54-6.35-72.9-10.08-15.02-3.43-37.31-13.14-37.91-21.14.6-7.59 34.12-17.23 60.15-19.76 31.56-3.07 71.17-4.97 126.66 6.22 14.64 2.95 31.25 8 37.4 13.68z" fill="#fff"/><path d="M12.04 120.35c9.16 5.97 19.74 9.37 29.95 13.07 1.13.4 1.62-1.4.5-1.8-10.07-3.64-20.48-7-29.5-12.88-1.01-.66-1.95.96-.95 1.61m6.05 13.08c17.06 8.48 36.11 13.72 54.96 16.26 1.18.16 1.68-1.64.5-1.8-18.68-2.52-37.6-7.66-54.52-16.07-1.07-.53-2.02 1.08-.94 1.61m32.93 2.38a271.2 271.2 0 0 0 27 5.18c1.18.16 1.7-1.63.5-1.8-9.07-1.3-18.1-2.96-27-5.18-1.16-.29-1.66 1.51-.5 1.8" fill="#5165f7"/><path d="M40.43 177.47c.15.2.3.43.43.65a1.4 1.4 0 0 1-.17-.21l-.01-.02a4.41 4.41 0 0 1-.25-.42" fill="#6e86ff"/><path d="M182.19 202.87a36.33 36.33 0 0 1-2.68 2.5c-2.75 2.34-6.1 3.75-9.44 5.07-11.27 4.51-23.55 6.09-35.6 6.72-16.47.86-33.07-.1-49.2-3.66a97 97 0 0 1-18.39-5.75c-4.33-1.9-7.69-5.93-10.68-9.51 1.55 1.65 12.66 12.33 44.32 14.61 34.36 2.46 62.82 1.23 81.64-9.97l.03-.01" fill="#1841d3"/><g fill="#1841d3"><rect height="20" rx="4" width="8" x="143" y="146"/><rect height="20" rx="4" width="8" x="92" y="146"/></g><path d="M87 193.14c11.15-10.1 22.55-15.14 34.2-15.14s23.24 5.04 34.8 15.14" stroke="#1841d3" stroke-linecap="round" stroke-width="4"/></g></svg>