<svg width="21" height="20" xmlns="http://www.w3.org/2000/svg"><path d="M11 0a10 10 0 1 1 0 20 1 1 0 0 1 0-2 8 8 0 1 0 0-16 1 1 0 0 1 0-2Zm0 5a1 1 0 0 1 1 1v3.59l2.7 2.7a1 1 0 0 1-1.4 1.42l-3-3A1 1 0 0 1 10 10V6a1 1 0 0 1 1-1ZM6.29 18.89a1 1 0 1 1 .75-1.85l.92.37a1 1 0 1 1-.75 1.86l-.92-.38Zm-4-3.85a1 1 0 0 1 1.62-1.17l.58.8a1 1 0 1 1-1.62 1.18l-.59-.81ZM.93 9.68a1 1 0 1 1 1.99-.13l.07 1a1 1 0 1 1-2 .13l-.07-1Zm1.7-5.3a1 1 0 1 1 1.76.95l-.47.88a1 1 0 1 1-1.76-.94l.47-.88ZM6.91.82a1 1 0 0 1 .99 1.74l-.87.5a1 1 0 1 1-.99-1.75l.87-.49Z" fill="currentColor" fill-rule="evenodd"/></svg>