<svg width="18" height="18" xmlns="http://www.w3.org/2000/svg" xmlns:xlink="http://www.w3.org/1999/xlink"><defs><path id="a" d="M0 0h1600v5824H0z"/></defs><g fill="none" fill-rule="evenodd"><path d="M-895-538H705V764H-895z"/><use fill="#EEF3FD" fill-opacity="0" xlink:href="#a" transform="translate(-895 -538)"/><g transform="translate(-307 -378)"><rect width="424" height="596" rx="16"/><path d="M311.5 386.34a4.54 4.54 0 0 1 7.45-2.76l-.58.58a.5.5 0 0 0 0 .7c.1.1.22.15.35.15h2.31a.5.5 0 0 0 .5-.5v-2.29a.5.5 0 0 0-.86-.35l-.65.65a6.09 6.09 0 0 0-8.54.48 5.97 5.97 0 0 0-1.47 3.12.76.76 0 0 0 .74.88c.38 0 .7-.28.75-.66Zm9.75.66c-.38 0-.7.28-.75.66a4.54 4.54 0 0 1-7.45 2.76l.58-.58a.5.5 0 0 0 0-.7.5.5 0 0 0-.35-.15h-2.31a.5.5 0 0 0-.5.5v2.29c0 .27.22.5.5.5a.5.5 0 0 0 .36-.15l.65-.65a6.09 6.09 0 0 0 8.54-.48 5.97 5.97 0 0 0 1.47-3.12.76.76 0 0 0-.74-.88Z" fill="currentColor"/></g></g></svg>