<svg width="20" height="18" xmlns="http://www.w3.org/2000/svg"><g transform="translate(-10 -11)" fill="none" fill-rule="evenodd"><rect width="40" height="40" rx="12"/><path d="M24 24a1 1 0 0 0-.88-1H13l2.29-2.3a1 1 0 0 0 0-1.41 1 1 0 0 0-1.32-.07l-.1.08-3.28 3.3a2 2 0 0 0-.58 1.22L10 24v.18a2 2 0 0 0 .47 1.1l.12.13 3.29 3.3a1 1 0 0 0 1.5-1.32l-.09-.1-2.3-2.29H23a1 1 0 0 0 1-1Zm6-8v-.17a2 2 0 0 0-.47-1.1l-.12-.14-3.29-3.3a1 1 0 0 0-1.5 1.32l.09.1 2.3 2.3H17a1 1 0 0 0-.12 1.99H27l-2.29 2.3a1 1 0 0 0 0 1.42 1 1 0 0 0 1.32.07l.1-.08 3.28-3.3a2 2 0 0 0 .58-1.23L30 16Z" fill="currentColor"/></g></svg>