<svg width="18" height="18" xmlns="http://www.w3.org/2000/svg"><g transform="translate(-11 -11)" fill="none" fill-rule="evenodd"><rect width="40" height="40" rx="12"/><path d="M28 22.33a1 1 0 0 0-1 1v2c0 .92-.75 1.67-1.67 1.67h-2a1 1 0 0 0 0 2h2A3.67 3.67 0 0 0 29 25.33v-2a1 1 0 0 0-1-1ZM16.67 11h-2A3.67 3.67 0 0 0 11 14.67v2a1 1 0 1 0 2 0v-2c0-.92.75-1.67 1.67-1.67h2a1 1 0 0 0 0-2Zm0 16h-2c-.92 0-1.67-.75-1.67-1.67v-2a1 1 0 0 0-2 0v2A3.67 3.67 0 0 0 14.67 29h2a1 1 0 0 0 0-2Zm8.66-16h-2a1 1 0 0 0 0 2h2c.92 0 1.67.75 1.67 1.67v2a1 1 0 0 0 2 0v-2A3.67 3.67 0 0 0 25.53 11l-.2-.01Z" fill="currentColor"/></g></svg>