<svg width="18" height="14" xmlns="http://www.w3.org/2000/svg"><g transform="translate(-11 -13)" fill="none" fill-rule="evenodd"><rect width="40" height="40" rx="12"/><path d="M28 15h-3.18A3 3 0 0 0 22 13a3 3 0 0 0-2.82 2H12a1 1 0 0 0-1 .98V16a1 1 0 0 0 1 1h7.18A3 3 0 0 0 22 19a3 3 0 0 0 2.82-2H28a1 1 0 0 0 1-.98V16a1 1 0 0 0-.98-1H28Zm-6 2a1 1 0 0 1 0-2 1 1 0 0 1 0 2Zm6 6h-7.18A3 3 0 0 0 18 21a3 3 0 0 0-2.82 2H12a1 1 0 0 0-1 .98V24a1 1 0 0 0 1 1h3.18A3 3 0 0 0 18 27a3 3 0 0 0 2.82-2H28a1 1 0 0 0 1-.98V24a1 1 0 0 0-.98-1H28Zm-10 2a1 1 0 0 1 0-2 1 1 0 0 1 0 2Z" fill="currentColor"/></g></svg>