<svg width="20" height="20" xmlns="http://www.w3.org/2000/svg"><path d="M5.91 18.32a1.68 1.68 0 0 1-1.65-1.95l.65-3.97-2.77-2.86a1.68 1.68 0 0 1 .95-2.82l3.74-.58 1.65-3.53a1.69 1.69 0 0 1 3.03 0l1.65 3.53 3.75.58a1.68 1.68 0 0 1 .95 2.82L15.1 12.4l.64 3.98a1.67 1.67 0 0 1-2.47 1.74L10 16.29l-3.27 1.82a1.67 1.67 0 0 1-.82.21Zm4.09-3.7c.28 0 .56.08.81.22l3.27 1.81-.63-3.98a1.69 1.69 0 0 1 .45-1.44l2.76-2.85-3.75-.6a1.67 1.67 0 0 1-1.26-.94l-1.64-3.52-1.66 3.52a1.67 1.67 0 0 1-1.26.95l-3.75.57 2.76 2.87c.37.38.54.91.45 1.44l-.64 3.97 3.28-1.8c.25-.14.53-.21.81-.22Z" fill="currentColor" fill-rule="evenodd"/></svg>