<svg fill="none" height="32" width="32" xmlns="http://www.w3.org/2000/svg"><g fill="#ff6100"><path d="m8.294347 8.926188 8.436-8.559c.576-.63.783-.57.98.153l.075 6.105c-.021.954-.09 1.366-.377 1.76l-5.123 5.278001c-.669.828-.578 1.159-.602 1.528-.023.369.648 1.445 1.807 1.527h3.465c.33 0 .562.531 0 1.08l-7.08 7.095c-.876.827-1.373.825-2.26.535-1.36-.764-1.386-1.467-1.434-2.697v-7.845c-.043-2.484.313-3.809 2.113-5.96z"/><path d="m23.571347 22.943189-8.693 8.555c-.593.63-.807.57-1.007-.153l-.079-6.112c.021-.954.093-1.366.386-1.756l5.279-5.273c.688-.828.595-1.158.62-1.527.023-.37-.672-1.446-1.863-1.528h-3.57c-.339 0-.578-.531 0-1.08l7.29-7.095c.904-.827 1.414-.824 2.329-.535 1.405.764 1.428 1.47 1.474 2.697v7.847c.054 2.484-.313 3.807-2.167 5.958z"/></g></svg>