<svg fill="none" height="50" viewBox="0 0 57.5 50" width="57.5" xmlns:xlink="http://www.w3.org/1999/xlink"><linearGradient id="a"><stop offset="0" stop-color="#00e0a4"/><stop offset="1" stop-color="#00182e"/></linearGradient><linearGradient id="b" gradientUnits="userSpaceOnUse" x1="22.952499" x2="22.952499" xlink:href="#a" y1="21.4578" y2="53.907799"/><linearGradient id="c" gradientUnits="userSpaceOnUse" x1="10177.2" x2="10177.2" xlink:href="#a" y1="-20838.9" y2="-2692.8501"/><linearGradient id="d" gradientUnits="userSpaceOnUse" x1="28.7001" x2="28.7001" y1="55.445499" y2="32.284302"><stop offset="0" stop-color="#00e0b5"/><stop offset="1" stop-color="#000b08"/></linearGradient><linearGradient id="e"><stop offset="0" stop-color="#00917b"/><stop offset="1" stop-color="#00bd86"/></linearGradient><linearGradient id="f" gradientUnits="userSpaceOnUse" x1="32.017101" x2="35.0751" xlink:href="#e" y1="26.014799" y2="29.561199"/><linearGradient id="g"><stop offset="0" stop-color="#004f75"/><stop offset="1" stop-color="#006186"/></linearGradient><linearGradient id="h" gradientUnits="userSpaceOnUse" x1="42.2523" x2="45.070999" xlink:href="#g" y1="25.9422" y2="27.978201"/><linearGradient id="i"><stop offset="0" stop-color="#00e0a3"/><stop offset="1" stop-color="#00298f"/></linearGradient><linearGradient id="j" gradientUnits="userSpaceOnUse" x1="33.892899" x2="40.101398" xlink:href="#i" y1="32.222301" y2="27.153"/><linearGradient id="k"><stop offset="0" stop-color="#00e094"/><stop offset="1" stop-color="#000051"/></linearGradient><linearGradient id="l" gradientUnits="userSpaceOnUse" x1="36.676701" x2="47.1656" xlink:href="#k" y1="32.598701" y2="24.0343"/><linearGradient id="m"><stop offset="0" stop-color="#005773"/><stop offset="1" stop-color="#003b1b"/></linearGradient><linearGradient id="n" gradientUnits="userSpaceOnUse" x1="35.267399" x2="33.438" xlink:href="#m" y1="33.672298" y2="34.190899"/><linearGradient id="o" gradientUnits="userSpaceOnUse" x1="50278.398" x2="50335.801" xlink:href="#k" y1="-39389.398" y2="-39254.801"/><linearGradient id="p"><stop offset="0" stop-color="#000700"/><stop offset="1" stop-color="#002b16"/></linearGradient><linearGradient id="q" gradientUnits="userSpaceOnUse" x1="33.534599" x2="34.988499" xlink:href="#p" y1="34.414799" y2="36.4034"/><linearGradient id="r"><stop offset="0" stop-color="#00abb5"/><stop offset="1" stop-color="#00ad95"/></linearGradient><linearGradient id="s" gradientUnits="userSpaceOnUse" x1="31.4387" x2="35.896" xlink:href="#r" y1="26.4835" y2="29.810699"/><linearGradient id="t"><stop offset="0" stop-color="#00c77a"/><stop offset="1" stop-color="#00c797"/></linearGradient><linearGradient id="u" gradientUnits="userSpaceOnUse" x1="32.669201" x2="35.0658" xlink:href="#t" y1="31.8491" y2="34.364399"/><linearGradient id="v"><stop offset="0" stop-color="#00d4b0"/><stop offset="1" stop-color="#00a1b5"/></linearGradient><linearGradient id="w" gradientUnits="userSpaceOnUse" x1="32.690102" x2="35.445099" xlink:href="#v" y1="29.713301" y2="32.604801"/><linearGradient id="x"><stop offset="0" stop-color="#00e088"/><stop offset="1" stop-color="#00e0b5"/></linearGradient><linearGradient id="y" gradientUnits="userSpaceOnUse" x1="25.9793" x2="34.162998" xlink:href="#x" y1="39.5187" y2="32.8368"/><linearGradient id="z"><stop offset="0" stop-color="#00e094"/><stop offset="1" stop-color="#00e0b5"/></linearGradient><linearGradient id="A" gradientUnits="userSpaceOnUse" x1="30.205601" x2="35.0816" xlink:href="#z" y1="40.383999" y2="35.883099"/><linearGradient id="B" gradientUnits="userSpaceOnUse" x1="4415.9502" x2="5082.6401" xlink:href="#t" y1="-943.56598" y2="-1285.54"/><linearGradient id="C" gradientUnits="userSpaceOnUse" x1="-150874" x2="-151447" xlink:href="#e" y1="-241291" y2="-240751"/><linearGradient id="D" gradientUnits="userSpaceOnUse" x1="-81194" x2="-81558.797" xlink:href="#g" y1="-220572" y2="-220392"/><linearGradient id="E" gradientUnits="userSpaceOnUse" x1="-24146.199" x2="-25591.4" xlink:href="#i" y1="-5412.1001" y2="-6242.8701"/><linearGradient id="F" gradientUnits="userSpaceOnUse" x1="-57084.898" x2="-60415.199" xlink:href="#k" y1="-3955.9399" y2="-7556.4399"/><linearGradient id="G" gradientUnits="userSpaceOnUse" x1="3148.0901" x2="3281.0901" xlink:href="#m" y1="-1462.58" y2="-1370.84"/><linearGradient id="H" gradientUnits="userSpaceOnUse" x1="-57891.398" x2="-57970" xlink:href="#k" y1="-39033.199" y2="-38852.602"/><linearGradient id="I" gradientUnits="userSpaceOnUse" x1="-55633.5" x2="-55728.199" xlink:href="#p" y1="-42563.199" y2="-42375.5"/><linearGradient id="J" gradientUnits="userSpaceOnUse" x1="-186319" x2="-187179" xlink:href="#r" y1="-579591" y2="-579209"/><linearGradient id="K" gradientUnits="userSpaceOnUse" x1="-77920.797" x2="-78240.703" xlink:href="#t" y1="-126465" y2="-126180"/><linearGradient id="L" gradientUnits="userSpaceOnUse" x1="-81116.5" x2="-81535.797" xlink:href="#v" y1="-156543" y2="-156233"/><linearGradient id="M" gradientUnits="userSpaceOnUse" x1="-15702.2" x2="-17284.199" xlink:href="#x" y1="-4921.1802" y2="-5440.2598"/><linearGradient id="N" gradientUnits="userSpaceOnUse" x1="-123404" x2="-123528" xlink:href="#z" y1="-68624.398" y2="-68253"/><linearGradient id="O" gradientUnits="userSpaceOnUse" x1="4384.3198" x2="5432.5298" xlink:href="#z" y1="-3835.6899" y2="-4438.8701"/><linearGradient id="P" gradientUnits="userSpaceOnUse" x1="-15245.6" x2="-15938" xlink:href="#t" y1="-1344.62" y2="-1717.02"/><linearGradient id="Q" gradientUnits="userSpaceOnUse" x1="4903.8101" x2="4998.9199" xlink:href="#t" y1="-880.21301" y2="-1046.79"/><linearGradient id="R" gradientUnits="userSpaceOnUse" x1="31.3092" x2="26.4797" y1="42.1064" y2="42.1064"><stop offset="0" stop-color="#004d45"/><stop offset=".11" stop-color="#003630"/><stop offset=".24" stop-color="#00221e"/><stop offset=".37" stop-color="#001613"/><stop offset=".5" stop-color="#00120f"/><stop offset=".67" stop-color="#001512"/><stop offset=".78" stop-color="#001e1a"/><stop offset=".88" stop-color="#002d28"/><stop offset=".97" stop-color="#00423b"/><stop offset="1" stop-color="#004d45"/></linearGradient><linearGradient id="S" gradientUnits="userSpaceOnUse" x1="28.795401" x2="28.795401" y1="39.8381" y2="31.940001"><stop offset="0" stop-color="#00c584"/><stop offset="1" stop-color="#00e0a9"/></linearGradient><linearGradient id="T" gradientUnits="userSpaceOnUse" x1="28.761999" x2="29.0825" y1="32.625301" y2="24.6129"><stop offset="0" stop-color="#00c7b5"/><stop offset="1" stop-color="#00abb5"/></linearGradient><linearGradient id="U"><stop offset="0" stop-color="#007f9b"/><stop offset="1" stop-color="#00c693"/></linearGradient><linearGradient id="V" gradientUnits="userSpaceOnUse" x1="32.4109" x2="32.4109" xlink:href="#U" y1="45.028999" y2="39.611801"/><linearGradient id="W" gradientUnits="userSpaceOnUse" x1="4075.03" x2="4075.03" xlink:href="#U" y1="-3634.24" y2="-4968.3101"/><linearGradient id="X"><stop offset="0" stop-color="#00c696"/><stop offset="1" stop-color="#00959b"/></linearGradient><linearGradient id="Y" gradientUnits="userSpaceOnUse" x1="28.1196" x2="19.7267" xlink:href="#X" y1="41.141399" y2="34.371601"/><linearGradient id="Z" gradientUnits="userSpaceOnUse" x1="7000.8799" x2="9095.3203" xlink:href="#X" y1="-3451.53" y2="-4364.6602"/><linearGradient id="aa" gradientUnits="userSpaceOnUse" x1="109139" x2="109265" xlink:href="#z" y1="-69737.5" y2="-69366.203"/><linearGradient id="ab" gradientUnits="userSpaceOnUse" x1="5507.3501" x2="5519.5601" xlink:href="#z" y1="-1992.25" y2="-1907.61"/><linearGradient id="ac" gradientUnits="userSpaceOnUse" x1="76269.898" x2="76269.898" xlink:href="#k" y1="-44735.199" y2="-100815"/><linearGradient id="ad" gradientUnits="userSpaceOnUse" x1="33133.102" x2="33133.102" xlink:href="#k" y1="-44559.102" y2="-100418"/><linearGradient id="ae"><stop offset="0" stop-color="#00e0ab"/><stop offset="1" stop-color="#00182e"/></linearGradient><linearGradient id="af" gradientUnits="userSpaceOnUse" x1="23.9268" x2="23.9268" xlink:href="#ae" y1="51.3484" y2="35.001801"/><linearGradient id="ag" gradientUnits="userSpaceOnUse" x1="11103.3" x2="11103.3" xlink:href="#ae" y1="-6029.9102" y2="-19339.301"/><path d="m25.0289 49.6562c-.5359-.0989-1.0662-.2205-1.5889-.3612-.1938-.0532-.3858-.1064-.5759-.1653-.1406-.0418-.2794-.0855-.42-.1311-.0988-.0324-.1996-.0666-.2984-.1008-.1539-.0532-.306-.1064-.458-.1634-.1635-.0609-.325-.1217-.4847-.1863l-.3269-5.9945.7032-3.3793 3.4078 10.3564z" fill="url(#b)"/><path d="m36.7542 42.5534-.3479 5.9603c-.1634.0665-.3269.1292-.4903.192-.1635.0627-.3288.1216-.4942.1786-.0817.0285-.1653.057-.249.0836-.1406.0476-.2831.0913-.4257.135-.7236.2218-1.459.4032-2.2028.5436l.0114-.0381.0038-.0152 3.4496-10.5749z" fill="url(#c)"/><path d="m33.2863 46.8616-1.8436 2.9612-.0931.0114c-.0343.0038-.0685.0095-.1027.0133-.0285.0038-.0589.0076-.0874.0095l-.192.0228c-.1368.0152-.2718.0285-.4086.0399-.5829.0513-1.1708.0779-1.7638.0798h-.0342c-.5873 0-1.1726-.0247-1.7523-.076-.1274-.0114-.2547-.0228-.3821-.0361-.057-.0057-.1159-.0114-.1729-.019l-.0931-.0114-.0894-.0114-.0988-.0114-1.8398-2.9745-.4067-7.2622 1.9367 5.259 2.3035.4162 1.4597-.0038 2.1857-.4295 1.663-5.0461z" fill="url(#d)"/><path d="m31.4708 26.3651 2.9422 1.6934.0076 1.9462z" fill="url(#f)"/><path d="m41.7733 27.2051 2.0375-.498-.9617 3.2462z" fill="url(#h)"/><path d="m34.4207 30.0046.3002 3.1607 1.4407-2.0982 1.6896-2.6685z" fill="url(#j)"/><path d="m41.7734 27.2052-2.4176.6386-1.5053.555-1.6896 2.6684-1.4407 2.0983 1.99.1026 3.7403-.7032 2.3986-2.6114z" fill="url(#l)"/><path d="m33.2897 34.3698 1.4311-1.205.4163 1.2069z" fill="url(#n)"/><path d="m34.7202 33.1648 1.99.1026-1.5738 1.1043z" fill="url(#o)"/><path d="m33.2885 34.3707 1.8474.0019-1.9786 1.433z" fill="url(#q)"/><path d="m31.4708 26.3651 2.9498 3.6396-1.8151 1.779z" fill="url(#s)"/><path d="m33.2885 34.3708 1.4311-1.2049-2.1154-1.3818z" fill="url(#u)"/><path d="m34.4193 30.0052.3003 3.1607-2.1154-1.3817z" fill="url(#w)"/><path d="m32.6053 31.7841-1.76 5.2704 2.3131-1.2487.1311-1.435z" fill="url(#y)"/><path d="m32.7535 37.5681.4049-1.7618-2.3131 1.2487 1.0055 2.8357 1.4957.3326z" fill="url(#A)"/><path d="m31.4762 41.8932-1.4767 2.1705-.3725 1.205 2.1857-.4296z" fill="url(#B)"/><path d="m23.1458 30.0236-.0152-1.9462 2.9231-1.7049z" fill="url(#C)"/><path d="m14.6899 30.0021-1.0092-3.2501 2.0545.4923z" fill="url(#D)"/><path d="m23.1455 30.0238-.3193 3.1645-1.4121-2.0963-1.7277-2.6647z" fill="url(#E)"/><path d="m15.7359 27.2439 2.4347.6329 1.5166.5512 1.7277 2.6646 1.4121 2.0964-1.9348.1102-3.7632-.6899-2.4384-2.6076z" fill="url(#F)"/><path d="m22.4802 34.4004.3459-1.2107 1.5053 1.1993z" fill="url(#G)"/><path d="m22.48 34.4004-1.5889-1.1004 1.9348-.1103z" fill="url(#H)"/><path d="m24.4816 35.825-2.0014-1.4254 1.8512-.0114z" fill="url(#I)"/><path d="m24.9853 31.7988-1.8398-1.7752 2.9079-3.6511z" fill="url(#J)"/><path d="m24.985 31.7991-2.1591 1.3893 1.5053 1.1993z" fill="url(#K)"/><path d="m24.985 31.8004-2.1591 1.3893.3193-3.1645z" fill="url(#L)"/><path d="m24.984 31.7991 1.7087 5.2381-2.2124-1.2126-.1501-1.4369z" fill="url(#M)"/><path d="m26.2398 41.9091-.3991-2.0033 3.022.2376z" fill="url(#N)"/><path d="m24.4816 35.825.4847 1.6687-.8458 2.8034 1.72-.3915.8534-2.868z" fill="url(#O)"/><path d="m26.2395 41.9094 1.4292 2.161.498 1.205-2.3035-.4181z" fill="url(#P)"/><path d="m29.9997 44.064-1.1499-.116v-.0038l-.0152.0019-.0152-.0019v.0038l-1.1498.1217.4979 1.205 1.4597-.0057z" fill="url(#Q)"/><path d="m31.4764 41.8935-2.6133-1.7296v-.0209l-.0152.0095-.0152-.0095v.0209l-2.5925 1.7448 1.4293 2.161 1.1651-.1236 1.165.1179z" fill="url(#R)"/><path d="m30.8452 37.0545 1.7599-5.2704-3.8069.2357-3.8126-.2205 1.7086 5.2381-.8533 2.868 2.9915.2357v.0019l.0152-.0019.0152.0019v-.0019l2.9878-.2509z" fill="url(#S)"/><path d="m28.8134 32.0194 3.7917-.2357-1.1346-5.4186-2.7179.6329-2.6989-.6253-1.0681 5.4262 3.7974.2205v.0019l.0152-.0019.0152.0019z" fill="url(#T)"/><path d="m31.8502 39.8896-.3744 2.0033.3364 2.9459 1.5338-4.6166z" fill="url(#V)"/><path d="m25.8405 39.9058-1.72.3916 1.7428 4.5595.3764-2.9478z" fill="url(#W)"/><path d="m25.8405 39.9055-1.7201.3915-1.6402-5.8976 2.0014 1.4255 1.3095 1.6763z" fill="url(#Y)"/><path d="m31.8502 39.8894 1.4958.3326 1.7904-5.8501-1.9786 1.4331-1.2563 1.931z" fill="url(#Z)"/><path d="m28.8318 40.1424 3.0181-.2528-.3744 2.0033z" fill="url(#aa)"/><path d="m27.5859 40.9736h2.6894l-1.4426-.8306z" fill="url(#ab)"/><path d="m49.8615 22.7921-1.1423.4428-.2813-.268.0893-.6956 5.069-5.6239 3.9266-8.02625-.7602-.19576-3.2615 6.35371.0913-1.0111 1.1346-7.19-.8439-6.376536-.7032-.201464.3041 5.56117-2.0032 9.48783-2.5753 3.4819-.2946-2.332 1.6668-4.1434.3459-5.63715-.5873-.02471-.4257 4.05776-1.5585 3.8222-.6291.5834-.4124-.7032-.0723-4.0901-.6158.0589-.1691 5.1203.171 4.3086-1.8588 1.6022-3.5313 1.5814-2.5791.3193 2.8585-3.7823-.1863-2.14-.2584.0285-.2091.9465-4.0597 5.3882-2.1401.574-2.8756 2.3225 2.9269 1.6669 1.3191-1.5795 1.3665-.3763 2.9079-.5188 1.7391-.3098 3.2063-.1882 3.6092-.211 5.871-4.3467-.4637-.7184z" fill="url(#ac)"/><path d="m20.9523 23.5175-4.0787-5.3788-.2148-.9427-.2566-.0285-.171 2.1325 2.8699 3.7746-2.5696-.3212-3.518-1.5794-1.8569-1.5984.1406-4.2916-.2015-5.0993-.612-.057-.0437 4.073-.4029.6994-.6291-.5797-1.5699-3.8012-.44854-4.04069-.58159.02661.38012 5.60868 1.68014 4.1224-.27939 2.3226-2.57152-3.4667-2.04505-9.43275.26228-5.530764-.69182.203365-.79445 6.342329 1.17077 7.14632.09503 1.0054-3.26334-6.31194-.75074.19576 3.93426 7.97308 5.05371 5.5992.09313.6918-.27559.2661-1.13466-.441-4.08441-2.9706-.45234.7146 5.84056 4.3296 3.58264.2186 3.1854.1919 1.7315.3136 2.9003.5227 1.3646.3782 1.3913 1.5794 2.9231-1.7048-2.9649-2.2789z" fill="url(#ad)"/><path d="m26.2721 49.8475-.0988-.0114c-.2604-.0342-.5189-.0723-.7755-.1141-.038-.0057-.076-.0133-.114-.019l-.2528-.0456c-.536-.0988-1.0662-.2205-1.5889-.3611-.1938-.0532-.3858-.1064-.5759-.1654-.1406-.0418-.2794-.0855-.42-.1311l-.5854-2.9231-.2794-6.8992.9009-4.7744 1.6402 5.8976.2129 6.5647z" fill="url(#af)"/><path d="m36.0385 39.1729-.2793 6.8992-.0115.0114-.5777 2.8813c-.1407.0475-.2832.0912-.4258.1349-.7236.2218-1.459.4033-2.2028.5436-.0855.0152-.171.0323-.2566.0475l-.0608.0114c-.0038 0-.0057.0019-.0095.0019-.2566.0437-.515.0837-.7754.1179l-.0932.0114 1.9349-2.9745.0589-6.6388 1.7923-5.8482.8742 4.647z" fill="url(#ag)"/></svg>