<svg viewBox="0 0 500 500" width="500" xmlns="http://www.w3.org/2000/svg"><g fill="#349ea3"><path d="m130.77 110.64-8.29-8.51a16.86 16.86 0 0 1-14.23 15.36l8.49 7.91 304.54 283.91zm20.1 82.28v169.49a16.75 16.75 0 0 1 22.64-1.51V247.19L357 426.1h31.62zm213.75-39.15a16.85 16.85 0 0 1-11.72-4.71v114.71L172.76 84.87h-34.89l237.69 232.67V149.71a16.75 16.75 0 0 1-10.94 4.06z"/><path d="M105.68 73.9a26.95 26.95 0 1 0 26.93 27 27 27 0 0 0-26.93-27zm2.57 43.54a15.81 15.81 0 0 1-2.57.2 16.87 16.87 0 1 1 16.85-16.88v1.32a16.86 16.86 0 0 1-14.28 15.36zM364.62 110a26.95 26.95 0 0 0 0 53.88 26.45 26.45 0 0 0 10.94-2.33A26.93 26.93 0 0 0 364.62 110zm10.94 39.74a16.85 16.85 0 1 1 5.91-12.81 16.84 16.84 0 0 1-5.91 12.78zM173.55 349.26A27 27 0 1 0 190 374.08a26.95 26.95 0 0 0-16.44-24.82zM163 390.93a16.85 16.85 0 1 1 16.86-16.85A16.85 16.85 0 0 1 163 390.93z"/></g></svg>