<?xml version="1.0" standalone="no"?>
<!DOCTYPE svg PUBLIC "-//W3C//DTD SVG 20010904//EN"
 "http://www.w3.org/TR/2001/REC-SVG-20010904/DTD/svg10.dtd">
<svg version="1.0" xmlns="http://www.w3.org/2000/svg"
 width="400.000000pt" height="400.000000pt" viewBox="0 0 400.000000 400.000000"
 preserveAspectRatio="xMidYMid meet">
<metadata>
Created by potrace 1.16, written by Peter Selinger 2001-2019
</metadata>
<g transform="translate(0.000000,400.000000) scale(0.100000,-0.100000)"
fill="#000000" stroke="none">
<path d="M0 2000 l0 -2000 2000 0 2000 0 0 2000 0 2000 -2000 0 -2000 0 0
-2000z m2270 1221 c381 -87 682 -322 853 -668 62 -123 93 -219 77 -238 -17
-20 -373 -22 -390 -2 -6 6 -32 50 -58 96 -54 98 -176 233 -265 293 -436 296
-1022 143 -1261 -329 -14 -29 -35 -57 -45 -63 -12 -6 -93 -10 -194 -10 -209 0
-210 0 -182 88 54 174 164 351 305 492 203 203 435 316 745 364 69 10 332 -4
415 -23z m-17 -932 c14 -6 30 -22 36 -36 14 -30 15 -471 2 -506 -17 -44 -49
-48 -310 -45 -241 3 -243 3 -262 27 -18 21 -19 42 -19 268 0 254 3 277 43 293
33 13 481 12 510 -1z m-1077 -595 c13 -3 29 -23 40 -47 49 -108 142 -228 238
-305 130 -106 295 -175 456 -190 276 -27 519 64 712 266 70 74 168 219 168
250 0 24 53 32 224 32 211 0 208 1 175 -97 -85 -256 -260 -486 -484 -635 -150
-100 -290 -158 -480 -200 -92 -20 -370 -16 -475 6 -430 92 -770 381 -925 783
-39 101 -41 113 -23 131 13 13 331 18 374 6z"/>
</g>
</svg>
