<svg width="119" viewBox="0 0 119 121" xmlns="http://www.w3.org/2000/svg"><g fill="none" fill-rule="evenodd"><path d="M92.22 6.84c14.5 6.06 32.38 26.3 25.1 63.01-4.7 23.65-20.04 53.33-61.96 51.02-29.54-1.63-72.92-44.72-47.87-76.92C17.51 31.08 28 35.08 42.06 22.88 56.86 10.07 72.14-1.54 92.22 6.84z" fill="currentColor"/><g fill-rule="nonzero"><path d="M61.94 87.68H42.67a1 1 0 1 0 0 2h8.97v4.01c0 .19-.14.34-.33.34H33.46a1 1 0 1 0 0 1.99h17.85a2.33 2.33 0 0 0 2.33-2.33v-4.02h8.3a1 1 0 1 0 0-2zm28.6.1H72.69a.33.33 0 0 1-.33-.33v-4.02H80a1 1 0 1 0 0-2H62.06a1 1 0 1 0 0 2h8.3v4.02a2.33 2.33 0 0 0 2.33 2.33h17.85a1 1 0 1 0 0-2zm-54-16.71h15.1v4.03c0 .18-.14.33-.33.33h-3.33a1 1 0 1 0 0 2h3.33a2.33 2.33 0 0 0 2.33-2.33v-4.03h22.25a1 1 0 1 0 0-2h-3.66v-4.02c0-.19.15-.34.33-.34h17.98a1 1 0 1 0 0-1.99H72.56a2.33 2.33 0 0 0-2.33 2.33v4.02h-8.3l-.13.01H36.54a1 1 0 1 0 0 2z" fill="#C3CEE3"/><path d="M40.43 85.45a3.22 3.22 0 1 1 0 6.45 3.22 3.22 0 0 1 0-6.45z" fill="#FFBE40"/><path d="M31.22 91.8a3.22 3.22 0 1 1 0 6.45 3.22 3.22 0 0 1 0-6.45z" fill="#17D746"/><path d="M82.24 79.2a3.22 3.22 0 1 0 0 6.45 3.22 3.22 0 0 0 0-6.44z" fill="#FFBE40"/><path d="M92.78 85.56a3.22 3.22 0 1 0 0 6.44 3.22 3.22 0 0 0 0-6.44z" fill="#17D746"/><path d="M34.3 66.85a3.22 3.22 0 1 1 0 6.45 3.22 3.22 0 0 1 0-6.45z" fill="#FFBE40"/><path d="M45.74 73.2a3.22 3.22 0 1 1 0 6.45 3.22 3.22 0 0 1 0-6.45zm32.39.1a3.22 3.22 0 1 1 0-6.46 3.22 3.22 0 0 1 0 6.45z" fill="#17D746"/><path d="M92.78 66.94a3.22 3.22 0 1 1 0-6.45 3.22 3.22 0 0 1 0 6.45zM72.35 33h-20.7a5.66 5.66 0 0 0-5.67 5.65v12.17a5.66 5.66 0 0 0 5.67 5.65h4.8a2.16 2.16 0 0 0-2.15 2.26 2.2 2.2 0 0 0 2.22 2.05h1.18v33.96c0 .38.15.74.41 1L61 98.62c.55.55 1.45.55 2 0l2.88-2.88c.27-.26.42-.62.42-1V60.79h1.18a2.2 2.2 0 0 0 2.22-2.05 2.16 2.16 0 0 0-2.16-2.26h4.81a5.66 5.66 0 0 0 5.67-5.65V38.65A5.66 5.66 0 0 0 72.35 33zm-6.24 10.45H57.9a2.69 2.69 0 1 1 0-5.37h8.22a2.69 2.69 0 1 1 0 5.37z" fill="#FFBE40"/><path d="M72.35 56.47a5.66 5.66 0 0 0 5.67-5.65V38.65A5.66 5.66 0 0 0 72.35 33h-5.31a5.66 5.66 0 0 1 5.67 5.65v12.17a5.66 5.66 0 0 1-5.67 5.65h5.31zm-6.05 4.31v33.96c0 .38-.15.74-.41 1L63 98.62c-.55.55-1.45.55-2 0l-1.66-1.65 1.23-1.23c.27-.26.42-.62.42-1V66.1a5.31 5.31 0 0 1 5.31-5.31z" fill="#FF9F40"/><path d="M62 77.1a1 1 0 0 0-1 1v14.69a1 1 0 1 0 2 0V78.1a1 1 0 0 0-1-1zm0-12.2a1 1 0 0 0-1 .99v8.38a1 1 0 1 0 2 0v-8.38a1 1 0 0 0-1-1z" fill="#FFF4CA"/></g><path d="M32.93 20.86c6-4.15 11.72-12.63 9.63-17.95-2.08-5.31-14-2.75-21.53 2.82-7.54 5.56-9.62 13.85-6.87 17.34S26.93 25 32.93 20.86z" fill="currentColor"/></g></svg>