<svg viewBox="0 0 243 231" xmlns="http://www.w3.org/2000/svg"><g fill="none" fill-rule="evenodd"><path d="M207.7 212.5c0-10.5-39.8-19-88.8-19s-88.8 8.5-88.8 19 39.8 19 88.8 19 88.8-8.5 88.8-19" fill="currentColor"/><path d="M242.5 97a43 43 0 0 1-1 4.2 93 93 0 0 1-1.5 4.5 179.3 179.3 0 0 1-5.1 12.5l-1.3 2.8a306 306 0 0 1-9.3 18l-2.2 4a510 510 0 0 1-17 28.7 287 287 0 0 1-12.6 18.5 171.8 171.8 0 0 1-5 6.6l-1 1a57.2 57.2 0 0 1-7 7.6 32.7 32.7 0 0 1-9.4 5 114 114 0 0 1-35.6 6.8c-16.5.8-33.1-.1-49.2-3.7a97 97 0 0 1-20-6.6l-.8-.4a19.5 19.5 0 0 1-1.4-1l-.6-.6-.2-.1a31.3 31.3 0 0 1-1.2-1 47 47 0 0 1-2.7-3 125 125 0 0 1-2.2-2.6l-.2-.1c0-.2-.3-.4-.5-.7l-.4-.5-.5-.6-.4-.5a49.1 49.1 0 0 0-.8-1c-4-5-7.6-10.2-11.2-15.5a56.1 56.1 0 0 1-1-1.4 458 458 0 0 1-10-16 491 491 0 0 1-9.8-17.1A412.3 412.3 0 0 1 11 124.6a412.8 412.8 0 0 1-2.5-5.3c-1.6-3.4-3-6.9-4.4-10.4a61 61 0 0 1-3.7-12c-.3-2 2.6-2.7 3-.8v.4s239.5-1.5 239.2.4" fill="#8090FF"/><path d="m234.9 118.3-1.3 2.7a306 306 0 0 1-9.3 18l-2.2 4a510 510 0 0 1-17 28.7 287 287 0 0 1-12.6 18.5 171.8 171.8 0 0 1-5 6.6l-1 1a57.2 57.2 0 0 1-7 7.6 32.7 32.7 0 0 1-9.4 5 111.3 111.3 0 0 1-35.6 6.8c-16.5.8-33.1-.1-49.2-3.7a97 97 0 0 1-20-6.6l-.8-.4a19.5 19.5 0 0 1-1.4-1l-.6-.6-.2-.1a31.3 31.3 0 0 1-1.2-1 47 47 0 0 1-2.7-3 125 125 0 0 1-2.2-2.6l-.2-.1c0-.2-.3-.4-.5-.7l-.4-.5a16.4 16.4 0 0 1-.5-.6l-.4-.5a49.1 49.1 0 0 0-.8-1c83.4-5 164.2-49.7 181.5-76.5" fill="#5165F7"/><path d="M242.5 97a43 43 0 0 1-1 4.2c-.5 1.5-.6 3.2-1.5 4.5-17.4 25.7-60.8 39.2-120.7 44.3-43.5 3.8-82 1.3-97.9-5.2A412.3 412.3 0 0 1 11 124.6a412.8 412.8 0 0 1-2.5-5.3c-1.6-3.4-3-6.9-4.4-10.4a61 61 0 0 1-3.7-12c-.3-2 2.6-2.7 3-.8v.4s239.5-1.5 239.2.4" fill="#9FAFFF"/><path d="M67.8 126a425 425 0 0 0 91.7 4.3c24.8-1.9 53.2-5.8 75.4-23a22 22 0 0 0 6.8-9.4c1.8-5.9-13.6-25.5-117.2-28.7C74 67.6 23.8 75.6 5.8 88c-13 9 3.5 18.1 10.6 22.2 9.6 5.5 20.3 8.7 31 11.5a200 200 0 0 0 20.4 4.4" fill="#1841D3"/><path d="M67.6 127a445 445 0 0 0 77.3 5c21.4-.7 43.6-2.5 63.8-9.7 5-1.8 10-3.9 14.6-6.4a69 69 0 0 0 13.2-8.8c2.5-2.3 5.4-5.7 6.2-9.2a4.6 4.6 0 0 0 0-1.7c-.5-3.4-3.6-6-6.3-7.9a69 69 0 0 0-20.8-9c-13.7-4-27.9-6.1-42-7.7-22.8-2.6-46-3.9-69-3.5-22.8.4-46 2.4-68.3 7.5-8 1.8-16.1 4.1-23.7 7.5C7.4 85.5-1.5 89.7.2 97c.9 3.4 3.7 6 6.4 8a68 68 0 0 0 9.1 6c10.5 6 22 9.3 33.7 12.2 6 1.6 12 3 18.2 3.9 1.1.2 1.6-1.6.4-1.8-6-1-12.1-2.3-18.1-3.9a190 190 0 0 1-16.8-4.8 87 87 0 0 1-25.2-12.8c-2.5-2-5.7-4.8-6-8.2-.3-3.8 3.5-6.3 6.3-8 6.2-3.7 13.2-6 20.1-8 20.4-5.7 41.7-8 62.8-9 23.2-1.2 46.5-.3 69.7 1.7a319 319 0 0 1 46.5 6.8c8.4 2 17 4.4 24.5 8.6 3.4 1.9 7.1 4.3 8.7 7.7l.2.6.2.7v.9c-1 3.9-4.4 7.4-7.5 9.7a87.1 87.1 0 0 1-13.3 8.3c-18.3 9.2-39 12.2-59.2 13.7-24.8 2-49.7 1-74.4-1.7a561.9 561.9 0 0 1-18.5-2.3c-1.1-.2-1.6 1.6-.4 1.8" fill="#1841D3"/><path d="M195.4 81.5c14.7 3 31.3 8 37.4 13.7 5.3 4.9-5.7 11.7-15.7 15.5-34 13.3-61.4 16.4-97.7 15.6a437 437 0 0 1-72.9-10C31.5 112.7 9.2 103 8.6 95c.6-7.6 34.1-17.3 60.2-19.8 31.5-3 71.1-5 126.6 6.2" fill="#FFF"/><path d="M12 120.3c9.2 6 19.8 9.4 30 13.1 1.1.4 1.6-1.4.5-1.8-10-3.6-20.5-7-29.5-12.9-1-.6-2 1-1 1.7m6 13a180.6 180.6 0 0 0 55 16.3c1.2.1 1.7-1.6.5-1.8a176.4 176.4 0 0 1-54.5-16c-1-.6-2 1-1 1.5m33 2.4c9 2.2 18 3.9 27 5.2 1.2.2 1.7-1.6.5-1.8-9-1.3-18-3-27-5.2-1.1-.3-1.6 1.5-.5 1.8" fill="#5165F7"/><path d="m122.2 83.4 1.3-.9c.2 0 .3-.2.4-.4.2-.1.3-.3.3-.5V81l-.1-.6-.3-.3a1.6 1.6 0 0 0-.7-.4 346.6 346.6 0 0 1-.4 0 1.6 1.6 0 0 0-.8.2l-1.3.8c-.2 0-.3.2-.4.4l-.3.5a1.2 1.2 0 0 0 0 .6c0 .2 0 .4.2.6l.2.3.7.4h.4l.8-.1m7.6 5.7 1.3-.9c.2 0 .4-.2.5-.4l.3-.5v-.6c0-.2 0-.4-.2-.6l-.2-.3a1.6 1.6 0 0 0-.7-.4h-.4c-.3 0-.6 0-.8.2l-1.3.8c-.2 0-.4.2-.5.4l-.2.5a1.2 1.2 0 0 0 0 .6l.1.6.3.3c.1.2.4.3.6.4h.5l.7-.1m38.3 13 1.3-.8c.2 0 .3-.2.4-.4.2-.1.3-.3.3-.5v-.6c0-.2 0-.4-.2-.6l-.2-.3a1.6 1.6 0 0 0-.7-.4h-.4c-.3 0-.5 0-.8.2l-1.3.8a1.2 1.2 0 0 0-.4.4c-.2.1-.3.3-.3.5a1.2 1.2 0 0 0 0 .6c0 .2 0 .4.2.6l.2.3.7.4h.4l.8-.1m4.2 5.5 1.3-.9c.2 0 .4-.2.5-.4l.2-.5a1.2 1.2 0 0 0 0-.6 1.2 1.2 0 0 0-.1-.6l-.3-.3a1.6 1.6 0 0 0-.6-.4 41.4 41.4 0 0 0-.5 0c-.2 0-.5 0-.7.2l-1.4.8a1.2 1.2 0 0 0-.4.4l-.3.5a1.2 1.2 0 0 0 0 .6c0 .2 0 .4.2.6l.2.3.7.4h.4l.8-.1" fill="#8090FF"/><path d="M114.3 49.9a11 11 0 0 1-1.7 3c-2 3-5 6.7-7.7 7.4-5.3 1.3-13.4-1.4-19-5.5-3.2-2.5-7-6.8-7.4-10a19.2 19.2 0 0 1 5-14.9l1.4-1.2.5-.5c1.9-1.5 4.3-2 7.5-1.5A24 24 0 0 1 113.1 41c1.3 2.8 2 6 1.2 8.9" fill="#FFE2A9"/><path d="m74.8 19.2-4-7.3c-.5-.7-1.5-1-2.2-.6-.7.5-1 1.4-.5 2.1l4 7.4c.4.7 1.5 1 2.1.5.8-.4 1-1.3.6-2.1m9.5-5.3-.5-7c0-.8-.6-1.5-1.5-1.5-.8 0-1.6.7-1.6 1.5l.5 7c0 .9.7 1.6 1.6 1.6.8 0 1.6-.7 1.5-1.6M68.3 26c-3-1.3-6-2.2-9.2-2.8-.8-.2-1.7.2-1.9 1-.2.8.2 1.8 1.1 2a42.3 42.3 0 0 1 6.6 1.7 45.7 45.7 0 0 1 1.5.6l.3.1c.2.1.2.1.1 0 .8.4 1.7.3 2.1-.5.4-.6.3-1.8-.5-2.1" fill="#ED9F00"/><path d="M138.3 105a9.3 9.3 0 0 1-3 4.5c-4 3.1-9.6 2.9-14.4 2.6-1.1 0-2.6-.1-3.8-.6l-1.1-.7c-1.3-1.2-1-2.8-.1-4.1 0-.2.2-.3.4-.4.7-.9 1.7-1.3 2.7-2 .9-.5 1.5-1.2 2.2-2 1.6-1.7 3.4-3.4 5.5-4.4 1.1-.6 2.2-1 3.5-1 1.1-.1 2.4.2 3.5.4 1.7.2 3.5.7 4.5 2.2l.3.5c.6 1.5.3 3.5-.2 5" fill="#FFE2A9"/><path d="M138.3 105a9.3 9.3 0 0 1-3 4.5c-4 3.1-9.6 2.9-14.4 2.6-1.1 0-2.6-.1-3.8-.6 10.5-2.8 13-10.1 21.4-11.5.6 1.5.3 3.5-.2 5" fill="#E8C079"/><path d="M144 109.9a9.3 9.3 0 0 0 3 4.5c4 3.1 9.5 2.9 14.3 2.6a10 10 0 0 0 3.8-.6l1.1-.7c1.3-1.2 1-2.8.1-4.1a1.6 1.6 0 0 0-.3-.4c-.8-.9-1.8-1.3-2.8-2-.8-.5-1.5-1.2-2.2-2a20.2 20.2 0 0 0-5.5-4.4c-1.1-.6-2.2-1-3.5-1-1.1-.1-2.4.2-3.5.4-1.7.2-3.5.7-4.5 2.2 0 .2-.2.3-.3.5-.6 1.5-.3 3.5.2 5" fill="#FFE2A9"/><path d="M144 109.9a9.3 9.3 0 0 0 3 4.5c4 3.1 9.5 2.9 14.3 2.6a10 10 0 0 0 3.8-.6c-10.5-2.8-13-10.1-21.4-11.5-.6 1.5-.3 3.5.2 5" fill="#E8C079"/><path d="M148.5 22.2a9.5 9.5 0 0 1-19 0c0-5.3 9.5-20.7 9.5-20.7s9.5 15.4 9.5 20.7" fill="#83C7FF"/><path d="M147 22.2a8 8 0 0 1-7.3 7.9 8 8 0 0 1-8.5-6.7c-.4-2.5.8-5.1 1.8-7.4 1.3-3 2.9-5.9 4.5-8.7a142.2 142.2 0 0 1 2.9-5h-2.7a144 144 0 0 1 4.6 8l3.2 6.6c.6 1.7 1.4 3.5 1.5 5.3 0 2 3.1 2 3 0 0-2-.7-3.9-1.4-5.7-1-2.4-2.1-4.8-3.3-7.1a142.9 142.9 0 0 0-5-8.6 1.6 1.6 0 0 0-2.6 0c-3.1 5-6 10.2-8.3 15.7-1.4 3.5-2 6.9-.3 10.4a11 11 0 0 0 11.4 6.2c5.5-.7 9.5-5.5 9.6-11 0-2-3-2-3.1 0" fill="#83C7FF"/><path d="M143.2 22.7a6.2 6.2 0 0 1 0 .7V23a5.6 5.6 0 0 1-.2.9l-.1.4s.1-.4 0-.1v.2a5.6 5.6 0 0 1-.5.7V25v.2a5.4 5.4 0 0 1-.7.6h-.1c-.1.2.3-.2 0 0a6.5 6.5 0 0 1-.6.4l-.2.1c-.2.1-.4.1 0 0l-.3.1a5.7 5.7 0 0 1-1 .2h.5a6 6 0 0 1-.8 0c-.8 0-1.6.7-1.5 1.6 0 .8.7 1.5 1.5 1.5a7.2 7.2 0 0 0 5-2 7.2 7.2 0 0 0 2.1-5c0-.8-.7-1.6-1.5-1.6-.9 0-1.6.7-1.6 1.6" fill="#187EB7"/><path d="M230.9 73.3a30 30 0 0 1-6 13.5 57 57 0 0 1-37 21.6c-1.8.5-3 0-3.7-.4l-.7-.7a66.7 66.7 0 0 1-2.8-33.3c1-5.5 2.7-11 6-15.5 3.5-4.4 9-7.6 14.5-7.4 2.7.2 5.3 1 7.8 2.2 2.6 1.1 5.2 2.5 8 3.3 3.2 1.1 6.7 1.6 9.4 3.5 4 2.9 5.4 8.4 4.5 13.2M64.4 86.6c1.2 1.9 1.7 5 .5 6.8-1.2 1.9-4 3.9-6.4 3.1-.2 2.3-1.7 7.5-6.5 8.3a7.9 7.9 0 0 1-6.3-2c-1.5 2-5 2-7.8.6-1.7-.7-5.3-4.3-4.6-8-1.8 2-6.2 1.6-8.6-.2-2-1.4-2.3-4.8-1.8-6.7a8.2 8.2 0 0 1 3.4-5h-.5S25 82 25 80.1a6.5 6.5 0 0 1 .8-3l10.6-4.6 7-11.2 1.3-2a5.7 5.7 0 0 1 3.7-3.1c1.7-.5 3.7-.4 5.3-.1 3 .6 4.8 4.2 4.3 7.2 3-1.3 7.3-.3 8.9 2.5 1.6 2.8.8 6.8-1.9 8.7 1.3-.3 5 1 5.9 3.3 1.7 4.9-2.5 10-6.5 8.7" fill="#FF5A5A"/><path d="M64.4 86.6c1.3 1.9 1.7 5 .5 6.8-1.2 1.9-4 3.9-6.4 3.1-.2 2.3-1.8 7.5-6.5 8.3a8 8 0 0 1-6.2-1.9c.8-1.1 2-2 3-3a3 3 0 0 0 1.4-1.3c.4-1-.1-2-.1-3.2 0-2 1.9-3.6 3.6-4.8 1.8-1.1 3.8-2.5 4-4.6.2-2-1.2-3.6-2.3-5.1-1.2-1.5-2.3-3.5-1.5-5.3.6-1.2 1.8-1.9 2.3-3 .6-1.5 0-3.1-1.1-4.2-1-1-2.6-1.5-4-1.9-1.5-.3-3-.6-4.3-1.3a7.7 7.7 0 0 1-3.4-3.8l1.3-2c1.7-3.7 6-3.8 9-3.2 3 .6 4.8 4.2 4.3 7.2 3-1.3 7.3-.3 8.9 2.5 1.6 2.8.8 6.8-1.9 8.7 1.3-.3 5 1 5.9 3.3 1.7 4.9-2.5 10-6.5 8.7" fill="#EF4848"/><path d="M43 78a9.4 9.4 0 0 0-5.5 8.2c0 3.3 1.9 6.8 4.9 8.3 3.3 1.8 7.9 1.2 10-2.2a9 9 0 0 0 1.1-5.1c0-1.8-.5-3.5-1.3-5.1a8.5 8.5 0 0 0-3.3-3.7c-1.7-1-3.7-1-5.6-.6-1.9.6-1 3.6.9 3 2.1-.5 3.8.4 5 2.1a9 9 0 0 1 .9 7c-.7 2.3-3.7 3-5.7 2.1-2.1-.8-3.6-3-3.8-5.2-.1-2.7 1.5-5 4-6.1.7-.4.9-1.5.5-2.1-.5-.8-1.4-1-2.1-.6m6.4-2.9a3 3 0 0 1 .2-.3l.2-.2a3.2 3.2 0 0 1 .2-.2l.5-.3a5 5 0 0 1 2.2-.5 6.5 6.5 0 0 1 2.8.6 6 6 0 0 1 2 1.4c.4.4.9 1.2 1.1 1.7a5.2 5.2 0 0 1 .3 1.2v1.3a6.7 6.7 0 0 1-.1.6l-.2.6c0 .2 0 .2 0 0a5.6 5.6 0 0 1-.2.3c0 .2-.2.4-.3.5 0 .2 0 .2 0 0a3.8 3.8 0 0 1-.4.5c.2-.1.2-.1 0 0l-.5.2c-.7.4-1 1.5-.5 2.1.4.8 1.3 1 2.1.6 1.6-.7 2.6-2.4 3-4 .5-1.8.3-3.6-.5-5.3a9.5 9.5 0 0 0-9.8-5.3c-1.9.3-4 1.2-4.8 3-.4.7-.2 1.7.5 2.1.7.4 1.8.2 2.2-.6m-1-18.8c-.2 1.8 0 9-5 16.6-5 7.8-14.7 7-18.4 7.3a6.5 6.5 0 0 1 .8-3l10.6-4.6 7-11.2 1.3-2a5.7 5.7 0 0 1 3.7-3.1" fill="#D81D1D"/><path d="M45 58.9c1.1-3.7 1.8-9.4-.9-13.1.2 3.9-2 5-4.4 6.9-2.3 1.8-4.1 2.5-5.8 6.4-.2-3-3.4-5-6.5-5.5-3-.6-6.2-.3-9-1.6-.4 8.8 9 8 7.6 15.4a6 6 0 0 0-5.8.6c-1.5 1-2.4 2.6-3.7 3.8-1.3 1.2-3.5 1.9-4.8.7 1.6 2.6 4.7 4.2 7.8 4.5 3.1.3 7.9 0 10.8-1 8-2.5 12-8.5 14.7-17.1" fill="#17CFE2"/><path d="M46.5 59.3c1.4-4.6 1.8-10.2-1-14.3-.9-1.2-3-.9-3 .8 0 3.1-2.2 4.6-4.5 6.3a15 15 0 0 0-5.4 6.2l2.9.8c-.4-3.2-2.7-5.3-5.6-6.4-3.5-1.4-7.5-.7-11-2.1-1-.4-2 .5-2 1.4-.1 3.6 1.3 6.4 3.9 8.7 2 1.8 4.2 3.3 3.7 6.3l2.3-.9a7.6 7.6 0 0 0-7.7.8c-1.2.9-4.4 6-6.3 4.5-1.3-1-3.5.2-2.5 1.8 2.5 3.8 6.6 5.3 10.9 5.4 4 .1 8.2-.4 12-2 7.2-3.2 11-10 13.3-17.3.6-2-2.4-2.8-3-.9-1.9 6.1-5 12-10.8 15a23 23 0 0 1-10.1 2.1c-3.6 0-7.4-.6-9.6-3.8l-2.4 1.9c2.2 1.7 5 1.1 7-.7 2.2-2 4-5.7 7.6-4.1.9.3 2.1.2 2.3-1 .6-3.3-.6-5.8-3.1-8-2.5-2.3-4.5-4.1-4.4-7.8l-2 1.5c3 1.2 6 1 9 1.6 2.1.4 5 1.5 5.4 4 .1 1.3 2.2 2.3 2.9.8.6-1.6 1.5-3 2.7-4 1.1-1 2.3-1.7 3.4-2.6 2.7-2 4.3-4 4.3-7.5l-3 .8c2.5 3.4 2 8 .8 11.8-.5 2 2.5 2.8 3 .9" fill="#17CFE2"/><path d="M112.4 99.2c-1.5 4.3-6.4 7.4-10.7 8.9-4.3 1.5-9 1.2-13.2-.5l-4.4-2a64.8 64.8 0 0 0-5.6-2.2 31 31 0 0 0-2.7-.9 13 13 0 0 0 3.2-6c.3-1.6.2-3.2.3-5a16.7 16.7 0 0 1 18.5-15.2 22.4 22.4 0 0 1 10.1 4.2 9.6 9.6 0 0 1 1.8 1.7l1 1.5h.1c2.6 5 3 11.5 1.6 15.5" fill="#EFB26A"/><path d="M114.4 97.7c-.8 4.7-4.4 8-8.4 10.2a21.2 21.2 0 0 1-15.4 2c-2.7-.6-5.2-2-7.7-3.1s-5-2-7.5-2.8c-2-.5-1.2-3.5.8-3l3.8 1.3c2.3-2.3 6-1.3 10.1-1.8 3.7-.4 10.2-2 12.9-4.6a10 10 0 0 0 3.4-8.6c0-1.5-.5-2.7-.2-4.2.1-.7 1.3-2 1.7-2.6a9.2 9.2 0 0 1 1.9 1.7l.1.3c.7-.6 1.8-.6 2.3.4l.2.6c2 4.4 3 9.4 2 14.2" fill="#E59E51"/><path d="M111.8 82.5c-1.7-3-5-4.8-8.2-6.1-6.8-2.9-14.7-2-20.2 3.1-2.8 2.6-4.7 6-5.4 9.8-.4 2-.2 4.1-.4 6.2-.2 2.2-1.3 4-2.7 5.7-.3.2-.5.5-.6.8v.2a1.6 1.6 0 0 0 .2 1l.1.3h.1l.1.2c.4.3.8.5 1.2.4 3.5.3 6.9 1.4 10.4 1.8 4 .4 8 .2 12-1.1 6.2-2 12.7-6 14.5-12.8a13 13 0 0 0-1-9.5" fill="#FFC98F"/><path d="M84.7 96.3 88 89c.5-1 1-2 1.7-3 2.4-2.6 6.7-2.5 9.7-4.6.2 2.5.5 5 0 7.3a8.7 8.7 0 0 1-3.8 6c-1 .5-2 .8-3.2 1.1-2.5.6-5.3.3-7.8.6" fill="#FDB"/><path d="m86 97.1 2.8-6c.7-1.6 1.4-3.6 2.9-4.7 1-.9 2.5-1.3 3.9-1.7 1.6-.5 3.3-1 4.7-2L98 81.3c.3 3.7.8 8.2-2 11a8.3 8.3 0 0 1-5 2.1c-2 .3-4.2.1-6.3.4-.9 0-1.6.6-1.6 1.5 0 .8.7 1.7 1.6 1.6 4.5-.6 10 .3 13.5-3.3 3.4-3.6 3.3-8.7 2.9-13.3-.1-1-1.3-2-2.4-1.3-2.9 1.9-6.5 2-9.2 4.2-1.6 1.3-2.4 3.2-3.2 5l-3 6.3c-.3.8-.2 1.7.6 2.2.7.4 1.8.2 2.1-.6" fill="#FDB"/><path d="m85.9 95.1 14.7-14.6s4.3 5.5.6 11.7c-3.7 6-14.4 5.6-16.5 5.5-2.2-.1 1.2-2.6 1.2-2.6" fill="#E59E51"/><path d="M230.9 73.3a30 30 0 0 1-6 13.5 57.1 57.1 0 0 1-37 21.6c-1.8.5-3 0-3.7-.4 5.6-3.4 33.7-21.5 28.6-38-1.3-4.2-5.8-5.6-9.5-8.4-5.3-4.2-9.8-8.8-6.8-9.8a18.6 18.6 0 0 1 8-.3c2.7 1.1 9.7 4.2 12.5 5.1 3.2 1.1 6.7 1.6 9.4 3.5 2.1 1.5 3.5 3.8 4.2 6.3.6 2.2.7 4.6.3 6.9" fill="#EF4848"/><path d="m197.9 66 .2-1.2v-.6c0-.2 0-.4-.2-.6a1.2 1.2 0 0 0-.4-.4 1.2 1.2 0 0 0-.5-.3 54.1 54.1 0 0 0-.4 0l-.8.1-.3.3a1.6 1.6 0 0 0-.4.7l-.2 1.2a1.2 1.2 0 0 0 0 .6l.1.6.4.4.5.3h.5c.2 0 .5 0 .7-.2l.4-.2a1.6 1.6 0 0 0 .4-.7m14.6 6.9 1.6-2.1c.2-.2.2-.4.2-.6a1.2 1.2 0 0 0 0-.6 1.2 1.2 0 0 0-.3-.6 1.2 1.2 0 0 0-.4-.4c-.4-.2-.8-.2-1.2-.1l-.4.1-.5.6-1.7 2.1a1.2 1.2 0 0 0-.2.6v.6l.4.6.4.4c.3.1.8.2 1.2.1l.4-.1.5-.6m-11.2 3.4-.6 3.4c-.1.4-.1.8.1 1.2.2.3.6.6 1 .7.3 0 .8 0 1.1-.2.4-.2.7-.5.8-1l.6-3.3c0-.4 0-.8-.2-1.1-.2-.4-.5-.7-.9-.8-.4 0-.8 0-1.2.2-.3.2-.6.5-.7 1M189.4 82a21 21 0 0 0-1.8 4c-.1.3 0 .8.2 1.2.2.3.5.6 1 .7.8.2 1.5-.3 1.8-1.1l.5-1.4-.1.4a19.1 19.1 0 0 1 1.1-2.2c.2-.4.3-.8.2-1.2-.1-.4-.4-.8-.8-1-.7-.3-1.6-.1-2 .6m19.3 1.9-.2.4.2-.4a4.3 4.3 0 0 1-.6 1l.3-.4-.1.1c-.2.2-.3.3-.3.5a1.2 1.2 0 0 0-.2.6 1.2 1.2 0 0 0 .2.6c0 .2.1.4.3.5l.3.3.8.2h.4l.7-.5.7-1a4.4 4.4 0 0 0 .2-.3c0-.3.2-.5.3-.8v-.6a1.2 1.2 0 0 0-.2-.6 1.2 1.2 0 0 0-.4-.4 1.2 1.2 0 0 0-.5-.3h-.4a1.6 1.6 0 0 0-.8.2l-.3.2a1.6 1.6 0 0 0-.4.7m-11.6 7-2.2 2c-.2.3-.4.8-.4 1.2l.1.6.3.5c.3.2.7.4 1.1.4.5 0 .8-.1 1.1-.4l2.2-2.1c.3-.3.4-.8.4-1.1a1.2 1.2 0 0 0-.1-.6 1.2 1.2 0 0 0-.3-.5 1.6 1.6 0 0 0-2.2 0" fill="#D81D1D"/><path d="M114.3 49.9a7.6 7.6 0 0 1-.8 1.8c.6.4 1 1.2.4 2a28.2 28.2 0 0 1-5.4 6.4 9.8 9.8 0 0 1-6.8 2c-9 0-19.5-5.8-23.7-14-2-4-1.3-8.8.3-12.8 1.4-3.3 3.4-5.8 6-8.2 1.5-1.4 3.7.8 2.3 2.2l-3 3c.3.1.5.3.7.6.8 1.2.7 2.8.8 4.2.3 2.8 1.7 5.5 3.7 7.5s4.6 3.2 7.1 4.4c4.2 2 11.2 1.5 12.4-.3 1.1-1.7 1-5.8 2.7-7a3 3 0 0 1 2-.7c1.4 2.8 2.2 6 1.3 8.9" fill="#ED9F00"/><path d="M92.9 26.7a24 24 0 0 1 19.5 13c1.7 3 3 6.7 1.9 10.2-1.2 4-5.2 6.5-9 6.9-4 .3-7.7-1-11.2-2.8a26 26 0 0 1-10.4-8.5 14 14 0 0 1-1.3-13.4C84.5 28 87.5 26 93 26.7" fill="#FFE2A9"/><path d="M92.9 28.3a21 21 0 0 1 14.5 7.1c3.7 4 8.2 11.4 4 16.5-4.3 5.4-11.7 3.2-17 .5C89.2 49.6 84 45.6 83 39.3a11 11 0 0 1 2.2-8.8c1.9-2.2 4.5-2.7 7.3-2.3 2 .3 2.8-2.7.8-3-3-.4-6.1-.3-8.7 1.6A13 13 0 0 0 80 35c-1.3 7.8 3.7 14.5 10 18.4 6.1 4 14.8 7.5 21.5 2.8 2.8-2 4.6-4.8 4.8-8.3.2-3.9-1.6-7.8-3.7-11A25.2 25.2 0 0 0 93 25.3c-2-.1-2 3 0 3" fill="#FFE2A9"/><path d="M162.6 59.2c-1.3 1.6-2.4 2.9-3 2.9-1.7 0-7.6-4-8.6-5a2 2 0 0 1-.7-1.6c0-1.2.6-2.7.6-4 0-.7.9-4.8 1.6-4.8.8 0 2.1 2.8 2.5 3.6.4.8 1.6 2.6 2.5 2.8 1.1.4 7.8-1.6 9-1.8 1.1 0-1.5 4.7-4 7.9" fill="#17CFE2"/><path d="M162.6 59.2c-1.3 1.6-2.4 2.9-3 2.9-1.7 0-7.6-4-8.6-5a2 2 0 0 1-.7-1.6c1.6-.7 5.8-1.6 12.3 3.7" fill="#00A5A5"/><path d="M161 81a19 19 0 0 1-11.6 5.8c-8.3.6-14.6-5.8-17-12.2-.8-2.3-1.2-4.6-1-6.6.5-3.5 2.4-6.8 5.3-9.3 5-4 10-3.5 14.6-2.8A17 17 0 0 1 165 69a14 14 0 0 1-4 12" fill="#CB6DFC"/><path d="M161 81a19 19 0 0 1-11.6 5.8c-8.3.6-14.6-5.8-17-12.2l.4-.2c.9-.1 1.8.3 2.6.7a21 21 0 0 0 6.2 1.6 16 16 0 0 0 11-1.7c2.3-1.3 5.2-5.1 6.5-8.6a8.8 8.8 0 0 1 2-3c.2-.3 1.2.2 1.5 0a18 18 0 0 1 2.3 5.6 14 14 0 0 1-4 12" fill="#B65EEF"/><path d="M144.5 81.4c1.5.5 3 .8 4.5 1 .3 0 .8-.3 1-.5.3-.3.5-.7.5-1.1 0-.4-.1-.8-.4-1.1-.4-.3-.7-.4-1.1-.5a21.4 21.4 0 0 1-3.7-.8c-.7-.3-1.7.3-1.9 1-.2 1 .3 1.7 1.1 2" fill="#6A10C1"/><path d="M91.6 34a65.3 65.3 0 0 1 3.4 6.3c.3.8 1.4 1 2 .6.9-.5 1-1.3.6-2.1a65.5 65.5 0 0 0-3.3-6.4c-.4-.7-1.4-1-2.1-.6-.7.5-1 1.4-.6 2.2m2.8 6.4a18.5 18.5 0 0 0-6.4-1.6c-.8 0-1.6.8-1.6 1.6 0 .9.7 1.5 1.6 1.5l1.1.1h-.4c.8 0 1.5.2 2.2.4a16.7 16.7 0 0 1 1.6.6h.2-.2l.3.1c.4.2.8.3 1.2.2.4-.1.8-.4 1-.8.3-.6.2-1.7-.6-2m13.3 1.2A50.9 50.9 0 0 1 102 40c-.3-.2-.8 0-1.2.1-.3.2-.6.6-.7 1 0 .3 0 .8.2 1.1.2.4.5.6 1 .8a51.2 51.2 0 0 0 5.6 1.8c.8.2 1.7-.2 2-1 .1-.9-.3-1.8-1.2-2m-10.8 2a45 45 0 0 0 4.8 6.6c.5.7 1.6.6 2.2 0 .6-.6.5-1.5 0-2.2l-1.2-1.4-.2-.2c-.1-.2.2.2 0 0l-.2-.3a42.9 42.9 0 0 1-2.7-4c-.4-.7-1.4-1-2.1-.6-.7.5-1 1.4-.6 2.2" fill="#ED9F00"/><path d="m40.4 177.5.5.6a1.4 1.4 0 0 1-.2-.2 4.4 4.4 0 0 1-.3-.4" fill="#6E86FF"/><path d="M160.8 156.1c-7.7.9-15.5 1.2-23.2 1.8-1.2 0-1.2 2 0 1.8 7.7-.5 15.5-.9 23.2-1.7 1.2-.2 1.2-2 0-1.9m49.7-13.3a174.7 174.7 0 0 1-38.9 11.8c-1.2.2-.7 2 .5 1.8a178 178 0 0 0 38.9-11.8c1-.5.6-2.3-.5-1.8m7 3.4a158 158 0 0 1-58.5 16.7c-1.2 0-1.2 2 0 1.9 20.9-1.5 40.8-8 59.5-17 1-.5.1-2.2-1-1.6m10.3-28.4A114.7 114.7 0 0 1 175 136c-1.2.2-1.2 2 0 1.9 19-2.5 37.9-7.3 53.7-18.6 1-.7 0-2.3-1-1.6" fill="#1841D3"/><path d="M223 127.7a83 83 0 0 1-22.6 10.6 171 171 0 0 1-28.3 6.2c-5.9.9-11.8 1.4-17.7 1.8-1.2 0-1.2 2 0 1.9 19.4-1.3 39.5-4.3 57.4-12.2 4.3-1.9 8.4-4 12.2-6.7 1-.7 0-2.3-1-1.6m-9.6 26.6a144.4 144.4 0 0 1-62.5 15.7c-1.2 0-1.2 1.9 0 1.9 22.2-.6 43.6-5.9 63.4-16 1-.5.1-2.1-1-1.6m-12.2 19.4c-6.2 3.1-13 5.2-19.8 6.9-8.5 2.1-17.1 3.7-25.8 4.4-4.7.4-9.5.5-14.3.3-1.2-.1-1.1 1.8 0 1.8a155.5 155.5 0 0 0 50.8-7.8 58 58 0 0 0 10-4c1.1-.5.2-2.2-1-1.6m-5.9 9.2a74 74 0 0 1-19.5 6.2 205 205 0 0 1-40.8 4.5c-1.2 0-1.2 1.8 0 1.8a190.4 190.4 0 0 0 51.5-7 54 54 0 0 0 9.7-3.9c1.1-.5.2-2.1-.9-1.6m11.8-18.3a77.1 77.1 0 0 1-20.2 7.3c-9 2.2-18 3.9-27.2 4.8-4.6.5-9.3.7-14 .6-1.1 0-1.1 1.8 0 1.9 8.9.2 17.7-.8 26.4-2.3a165 165 0 0 0 26-6.4c3.4-1.2 6.9-2.5 10-4.3 1-.6 0-2.2-1-1.6M179.4 195a143.2 143.2 0 0 1-46 7c-5.5.2-11 .2-16.4 0-1.2 0-1.2 2 0 2 16.9.2 34.1.2 50.7-3.6a108.8 108.8 0 0 0 12.2-3.6c1.1-.5.6-2.3-.5-1.8" fill="#1841D3"/><path d="M230.6 66.4c-6.8 1.6-13 1.6-23-4.6-4-2.6-5.6-7.9-6-10.6 1.7 0 3 .3 3 .3 2.6 1.1 9.6 4.2 12.4 5.1 3.2 1.1 6.7 1.6 9.4 3.5 2.1 1.5 3.5 3.8 4.2 6.3" fill="#D81D1D"/><path d="M235.7 63c-1.7 2-4.5 2.5-7 2.2a84.2 84.2 0 0 1-10.3-1.9 28 28 0 0 1-11.2-4.8 18.3 18.3 0 0 1-5.3-7.6 39 39 0 0 1-1.6-8.2c-.6-5.7 1.3-13.2 8-14.2 3.2-.5 5.8 1.2 7.4 3.8a11.4 11.4 0 0 1 1.7 5.4c.1 1.7-.1 3.4-.5 5a44.1 44.1 0 0 1-.6 2.5l-.5 2v.1l-.2.5.8-.4c.6-.4 1.2-1 1.6-1.5.8-1.1 1.3-2.3 2-3.5a9.2 9.2 0 0 1 6.5-4.5 6.8 6.8 0 0 1 7.7 5.4c.2 1.4 0 2.8-.8 4-1.3 2.1-3.6 3.2-5.7 4.2l-2 1c-.4.5-.5.5-.1.9.6.5 2.3.1 3 0 2.3 0 4.7.5 6.4 2l.8 1c1.5 2 1.7 4.7 0 6.6" fill="#17CFE2"/><path d="M217.4 37.7c.1 1.7-.1 3.4-.5 5a44.1 44.1 0 0 1-.6 2.5l-.5 2v.1l-.2.5s-1.7 2.8-3 1.5c-1.2-1.2 4.3-10.9 3.1-17a11.4 11.4 0 0 1 1.7 5.4" fill="#00A5A5"/><path d="m110 58.9-1.5 1.2a9.8 9.8 0 0 1-6.8 2c-9 0-19.5-5.8-23.7-14l1-.7s3 5.6 13.5 10.3c5.7 2.5 11.1 3 17.4 1.2" fill="#ED9F00"/><path d="M114.4 97.7c-.8 4.7-4.4 8-8.4 10.2a21.2 21.2 0 0 1-14.4 2.2c9.6-.2 16.7-6.3 20.3-13.5 2.5-5 1.2-10.6.5-13.1 2 4.4 3 9.4 2 14.2" fill="#CC823A"/><path d="M182.2 202.9a36.3 36.3 0 0 1-2.7 2.5 32.8 32.8 0 0 1-9.4 5 111.3 111.3 0 0 1-35.6 6.8c-16.5.8-33.1-.1-49.2-3.7a97 97 0 0 1-18.4-5.7c-4.4-2-7.7-6-10.7-9.6 1.5 1.7 12.7 12.4 44.3 14.7 34.4 2.4 62.8 1.2 81.7-10" fill="#1841D3"/><path d="M226.7 50.5c2.1-1.2 8-4 7.5-7v-.1c.2 1.3 0 2.7-.8 4-1.3 2-3.6 3.1-5.7 4.1l-2 1c-.4.5-3.1 1.8-3.1.6 0-1.3 2-1.5 4.1-2.6" fill="#00A5A5"/></g></svg>