<svg height="123" width="117" xmlns="http://www.w3.org/2000/svg"><mask id="a" fill="#fff"><path d="M0 0h59.2v111.1H0z" fill-rule="evenodd"/></mask><mask id="b" fill="#fff"><path d="M0 0h95v110.9H0z" fill-rule="evenodd"/></mask><mask id="c" fill="#fff"><path d="M0 0h95v110.9H0z" fill-rule="evenodd"/></mask><g fill="none" fill-rule="evenodd"><path d="M49.1 56.9A59.7 59.7 0 0 0 34.5 15C26.5 6 15.5.4 3.4 0l10 .3c12.1.4 23 6 31.2 15a59.7 59.7 0 0 1 14.6 41.9c-1 30.6-23 54.7-49.2 54l-10-.4c26.2.8 48.2-23.4 49.1-54" fill="#ed9f00" mask="url(#a)" transform="rotate(6 -25.1 550.3)"/><path d="M95 53.2V53l-.1-1v-1.2a36 36 0 0 0-.2-1.1v-.4l-.1-1.3-.1-.9v-.4l-.1-.5a387 387 0 0 0-.2-1.3v-.3l-.2-1a.5.5 0 0 0 0-.2 12.2 12.2 0 0 0-.2-.7l-.2-1a7 7 0 0 0-.1-.4l-.1-.6a38 38 0 0 0-.3-1v-.3l-.4-1.4a17.5 17.5 0 0 0-.3-1 5.5 5.5 0 0 0-.1-.4 1.6 1.6 0 0 0 0-.3 27.3 27.3 0 0 0-.4-.9 7.5 7.5 0 0 0-.2-.7 38 38 0 0 0-.5-1.3 8.7 8.7 0 0 0-.2-.5 26.5 26.5 0 0 0-.4-1 31.6 31.6 0 0 0-.4-1.1l-.2-.4c0-.3-.2-.5-.3-.8l-.3-.7-.4-.9-.5-1-.7-1.2-.6-1.1-.6-1.1-.6-1-.2-.4-.5-.8-.3-.3a8.4 8.4 0 0 0-.4-.6l-.5-.7a23.1 23.1 0 0 0-.8-1 1.5 1.5 0 0 0-.1-.3l-.7-.9a39 39 0 0 0-1.2-1.5h-.1l-.3-.4a25 25 0 0 0-.6-.6l-.7-.9-.3-.3-.7-.7-.8-.7-.4-.4-.7-.7a26.9 26.9 0 0 0-1.2-1A43.4 43.4 0 0 0 72 7.7l-1-.6a18.9 18.9 0 0 0-2-1.2l-.7-.5-.4-.2a33.4 33.4 0 0 0-.9-.5l-.6-.3-.5-.2-1-.5a16 16 0 0 0-.9-.4l-.8-.3-1.2-.5-.6-.2a25.1 25.1 0 0 0-1.2-.4H60a4.7 4.7 0 0 0-.5-.2 19.2 19.2 0 0 0-.8-.2 30.3 30.3 0 0 0-1.4-.4L55.9.8 54.7.6h-.2a31.1 31.1 0 0 0-2.1-.3 20.8 20.8 0 0 0-1.2-.2h-2a41 41 0 0 0-8.4.5l-1.1.2a41.3 41.3 0 0 0-7 2l-.8.4a40.2 40.2 0 0 0-2.2 1 31.8 31.8 0 0 0-5 2.9 62 62 0 0 0-2.1 1.4l-.9.6-1 .8a40 40 0 0 0-1.7 1.5l-1 .8-.8.9-.8.8-1.3 1.3-.4.5-.8 1-.8.8v.1l-.8 1a31.4 31.4 0 0 0-2.8 4l-.7 1-.6 1.2-.6 1L7 27a51.2 51.2 0 0 0-1.2 2.3l-.5 1.1a64.2 64.2 0 0 0-1.9 4.9L3 36.6a61.6 61.6 0 0 0-1.1 3.8 79.4 79.4 0 0 0-.6 2.4 10 10 0 0 1 0 .2c0 .5-.2.9-.3 1.4a66.3 66.3 0 0 0-.7 5.4A65 65 0 0 0 0 54a62.2 62.2 0 0 0 0 2 84.2 84.2 0 0 0 0 3.3l.1.2.1 1.5.1 1.2.4 3.3.2 1a62.5 62.5 0 0 0 2.6 10.2 62.3 62.3 0 0 0 1.7 4.4l.7 1.6.8 1.5.8 1.6a39.5 39.5 0 0 0 1 1.7l.8 1.2a47.2 47.2 0 0 0 4 5.5 51.5 51.5 0 0 0 2.4 2.7 30 30 0 0 0 3.4 3.3l1.3 1a28.7 28.7 0 0 0 4 2.9l1.3.8 1.4.8a49.5 49.5 0 0 0 2.6 1.3 40.8 40.8 0 0 0 3.4 1.4l1.4.5a30.2 30.2 0 0 0 4.6 1.2l1.1.2.8.1 1.2.2a33.4 33.4 0 0 0 1.8.1h.2l1.6.1a41.2 41.2 0 0 0 11.6-1.3 44.4 44.4 0 0 0 2.4-.7c.4 0 .7-.2 1.1-.4a44.3 44.3 0 0 0 5.4-2.3 41.4 41.4 0 0 0 2-1 53.7 53.7 0 0 0 2-1.3l1-.7 1-.7 1-.7a29.6 29.6 0 0 0 3.6-3 30 30 0 0 0 1.8-1.9l.7-.7.8-.9a57 57 0 0 0 1.6-2l.8-.9.5-.6 1.8-2.6.6-.8.5-1 .6-.9.6-1 .2-.4 1-2 .3-.5.4-1a35.3 35.3 0 0 0 1-2l.2-.7a10 10 0 0 1 .5-1.1l.3-.8.2-.5.2-.6v-.3l.4-1a1 1 0 0 1 0-.2l.4-1V73l.4-1.2a1 1 0 0 1 0-.1l.3-1.2v-.1l.6-2.5v-.2l.5-2.5a.4.4 0 0 0 0-.1 22.6 22.6 0 0 0 .5-3.2V61a68 68 0 0 0 .4-6.3v-1.6" fill="#fcba06" mask="url(#b)" transform="rotate(6 -1.9 113.4)"/><path d="M27.3 67.9a1 1 0 0 0-.1-.1.7.7 0 0 0-.4-.2.7.7 0 0 0-.5.3l-1 1-6.4 7h-4.7l-1.2-.1c-.4 0-.7.4-.7.9v.3c.1.3.4.5.7.5l6.5.2 7.8-8.6a1 1 0 0 0 0-1.2zm-.7-8.3a.7.7 0 0 0-.6-.3.7.7 0 0 0-.5.3l-4.4 4.9L9.5 64c-.4 0-.7.4-.7.9 0 .4.3.8.7.9l12.1.3 5-5.3a1 1 0 0 0 0-1.3zm46 27.8a.7.7 0 0 0-.5-.3.7.7 0 0 0-.6.2c-7 7.2-16 11-25.3 10.8a34 34 0 0 1-24.7-12.3.7.7 0 0 0-1 0 1 1 0 0 0 0 1.2 35 35 0 0 0 25.6 12.8c9.7.3 19.1-3.7 26.4-11.2a1 1 0 0 0 .1-1.2zm8-9.5-5.8-.2-7-8.6a.7.7 0 0 0-.4-.2.7.7 0 0 0-.6.2 1 1 0 0 0 0 1.2l7.3 9.1 6.5.2c.4 0 .7-.4.7-.8 0-.5-.3-1-.7-1zm4.2-11.5-11.5-.3-4.1-5.2a.7.7 0 0 0-.6-.3l-.5.3a1 1 0 0 0 0 1.2l4.5 5.7 12.2.4c.4 0 .7-.4.7-.9s-.3-.9-.7-.9zm3.4-10.6-18.6-.6c-.5 0-.8.4-.8.9s.3.8.7.9l18.7.5c.4 0 .7-.3.8-.8a1 1 0 0 0-.8-1zm-6-22.4a.5.5 0 0 0-.2 0l-6.5-.3-7.8 8.6a1 1 0 0 0-.2.9.8.8 0 0 0 .1.3.7.7 0 0 0 .6.3.7.7 0 0 0 .5-.2l2.4-2.7 5-5.4h3.6l2.2.1c.4 0 .8-.3.8-.8 0-.4-.2-.7-.5-.8zM25.4 53.9l-18.6-.6c-.4 0-.8.4-.8.9 0 .4.3.8.7.9l18.7.5c.4 0 .8-.3.8-.8s-.3-1-.8-1zm0 0-18.6-.6c-.4 0-.8.4-.8.9 0 .4.3.8.7.9l18.7.5c.4 0 .8-.3.8-.8s-.3-1-.8-1zm1.2 5.7a.7.7 0 0 0-.6-.3.7.7 0 0 0-.5.3l-4.4 4.9L9.5 64c-.4 0-.7.4-.7.9 0 .4.3.8.7.9l12.1.3 5-5.3a1 1 0 0 0 0-1.3zm.3-10.9-4.6-5.6-12.1-.4c-.4 0-.8.4-.8.9 0 .4.3.8.7.8l11.6.4 4.1 5.1c.1.2.3.3.5.3s.4 0 .5-.2a1 1 0 0 0 0-1.3zm.4 19.2a1 1 0 0 0-.1-.1.7.7 0 0 0-.4-.2.7.7 0 0 0-.5.3l-1 1-6.4 7h-4.7l-1.2-.1c-.4 0-.7.4-.7.9v.3c.1.3.4.5.7.5l6.5.2 7.8-8.6a1 1 0 0 0 0-1.2zm.9-27.4-7.3-9-6.5-.3c-.4 0-.8.4-.8.9s.3.9.7.9l5.9.2 6.9 8.5c.1.2.3.3.5.3a.7.7 0 0 0 .5-.3 1 1 0 0 0 0-1.2zm44.4 46.9a.7.7 0 0 0-.5-.3.7.7 0 0 0-.6.2c-7 7.2-16 11-25.3 10.8a34 34 0 0 1-24.7-12.3.7.7 0 0 0-1 0 1 1 0 0 0 0 1.2 35 35 0 0 0 25.6 12.8c9.7.3 19.1-3.7 26.4-11.2a1 1 0 0 0 .1-1.2zm1.9-63.6A35 35 0 0 0 48.8 11c-9.7-.3-19 3.7-26.4 11.3a1 1 0 0 0 0 1.2c0 .2.3.3.5.3a.7.7 0 0 0 .5-.2c7-7.3 16-11.1 25.4-10.8 9.3.2 18 4.6 24.6 12.3l.5.2a.7.7 0 0 0 .6-.2 1 1 0 0 0 0-1.3zm6.1 54-5.8-.1-7-8.6a.7.7 0 0 0-.4-.2.7.7 0 0 0-.6.2 1 1 0 0 0 0 1.2l7.3 9.1 6.5.2c.4 0 .7-.4.7-.8 0-.5-.3-1-.7-1zm1.6-44.4a.5.5 0 0 0-.2 0l-6.5-.3-7.8 8.6a1 1 0 0 0-.2.9.8.8 0 0 0 .1.3.7.7 0 0 0 .6.3.7.7 0 0 0 .5-.2l2.4-2.7 5-5.4h3.6l2.2.1c.4 0 .8-.3.8-.8 0-.4-.2-.7-.5-.8zm2.6 33-11.5-.3-4.1-5.2a.7.7 0 0 0-.6-.3l-.5.3a1 1 0 0 0 0 1.2l4.5 5.7 12.2.4c.4 0 .7-.4.7-.9s-.3-.9-.7-.9zm.7-21.4-12.2-.4-4.8 5.4a1 1 0 0 0 0 1.2.7.7 0 0 0 .4.3.7.7 0 0 0 .6-.2l4.4-5 11.5.4c.4 0 .8-.3.8-.8s-.3-.9-.7-.9zm2.7 10.8-18.6-.6c-.5 0-.8.4-.8.9s.3.8.7.9l18.7.5c.4 0 .7-.3.8-.8a1 1 0 0 0-.8-1zm0 0-18.6-.6c-.5 0-.8.4-.8.9s.3.8.7.9l18.7.5c.4 0 .7-.3.8-.8a1 1 0 0 0-.8-1zM85.5 45l-12.2-.4-4.8 5.4a1 1 0 0 0 0 1.2.7.7 0 0 0 .4.3.7.7 0 0 0 .6-.2l4.4-5 11.5.4c.4 0 .8-.3.8-.8s-.3-.9-.7-.9zm-.7 21.4-11.5-.3-4.1-5.2a.7.7 0 0 0-.6-.3l-.5.3a1 1 0 0 0 0 1.2l4.5 5.7 12.2.4c.4 0 .7-.4.7-.9s-.3-.9-.7-.9zm-2.6-33a.5.5 0 0 0-.2 0l-6.5-.3-7.8 8.6a1 1 0 0 0-.2.9.8.8 0 0 0 .1.3.7.7 0 0 0 .6.3.7.7 0 0 0 .5-.2l2.4-2.7 5-5.4h3.6l2.2.1c.4 0 .8-.3.8-.8 0-.4-.2-.7-.5-.8zm-1.6 44.5-5.8-.2-7-8.6a.7.7 0 0 0-.4-.2.7.7 0 0 0-.6.2 1 1 0 0 0 0 1.2l7.3 9.1 6.5.2c.4 0 .7-.4.7-.8 0-.5-.3-1-.7-1zm-6.1-54c-6.8-8-16-12.6-25.7-12.9-9.7-.3-19 3.7-26.4 11.3a1 1 0 0 0 0 1.2c0 .2.3.3.5.3a.7.7 0 0 0 .5-.2c7-7.3 16-11.1 25.4-10.8 9.3.2 18 4.6 24.6 12.3l.5.2a.7.7 0 0 0 .6-.2 1 1 0 0 0 0-1.3zm-1.9 63.5a.7.7 0 0 0-.5-.3.7.7 0 0 0-.6.2c-7 7.2-16 11-25.3 10.8a34 34 0 0 1-24.7-12.3.7.7 0 0 0-1 0 1 1 0 0 0 0 1.2 35 35 0 0 0 25.6 12.8c9.7.3 19.1-3.7 26.4-11.2a1 1 0 0 0 .1-1.2zM28.2 40.5l-7.3-9-6.5-.3c-.4 0-.8.4-.8.9s.3.9.7.9l5.9.2 6.9 8.5c.1.2.3.3.5.3a.7.7 0 0 0 .5-.3 1 1 0 0 0 0-1.2zM27.3 68a1 1 0 0 0-.1-.1.7.7 0 0 0-.4-.2.7.7 0 0 0-.5.3l-1 1-6.4 7h-4.7l-1.2-.1c-.4 0-.7.4-.7.9v.3c.1.3.4.5.7.5l6.5.2 7.8-8.6a1 1 0 0 0 0-1.2zM27 48.7l-4.6-5.6-12.1-.4c-.4 0-.8.4-.8.9 0 .4.3.8.7.8l11.6.4 4.1 5.1c.1.2.3.3.5.3s.4 0 .5-.2a1 1 0 0 0 0-1.3zm-.3 11a.7.7 0 0 0-.6-.4.7.7 0 0 0-.5.3l-4.4 4.9L9.5 64c-.4 0-.7.4-.7.9 0 .4.3.8.7.9l12.1.3 5-5.3a1 1 0 0 0 0-1.3zm-1.2-5.8-18.6-.6c-.4 0-.8.4-.8.9 0 .4.3.8.7.9l18.7.5c.4 0 .8-.3.8-.8s-.3-1-.8-1zm0 0-18.6-.6c-.4 0-.8.4-.8.9 0 .4.3.8.7.9l18.7.5c.4 0 .8-.3.8-.8s-.3-1-.8-1zm1.2 5.7a.7.7 0 0 0-.6-.3.7.7 0 0 0-.5.3l-4.4 4.9L9.5 64c-.4 0-.7.4-.7.9 0 .4.3.8.7.9l12.1.3 5-5.3a1 1 0 0 0 0-1.3zm.3-10.9-4.6-5.6-12.1-.4c-.4 0-.8.4-.8.9 0 .4.3.8.7.8l11.6.4 4.1 5.1c.1.2.3.3.5.3s.4 0 .5-.2a1 1 0 0 0 0-1.3zm.4 19.2a1 1 0 0 0-.1-.1.7.7 0 0 0-.4-.2.7.7 0 0 0-.5.3l-1 1-6.4 7h-4.7l-1.2-.1c-.4 0-.7.4-.7.9v.3c.1.3.4.5.7.5l6.5.2 7.8-8.6a1 1 0 0 0 0-1.2zm.9-27.4-7.3-9-6.5-.3c-.4 0-.8.4-.8.9s.3.9.7.9l5.9.2 6.9 8.5c.1.2.3.3.5.3a.7.7 0 0 0 .5-.3 1 1 0 0 0 0-1.2zm44.4 46.9a.7.7 0 0 0-.5-.3.7.7 0 0 0-.6.2c-7 7.2-16 11-25.3 10.8a34 34 0 0 1-24.7-12.3.7.7 0 0 0-1 0 1 1 0 0 0 0 1.2 35 35 0 0 0 25.6 12.8c9.7.3 19.1-3.7 26.4-11.2a1 1 0 0 0 .1-1.2zm1.9-63.6A35 35 0 0 0 48.9 11c-9.7-.3-19 3.7-26.4 11.3a1 1 0 0 0 0 1.2c0 .2.3.3.5.3a.7.7 0 0 0 .5-.2c7-7.3 16-11.1 25.4-10.8 9.3.2 18 4.6 24.6 12.3l.5.2a.7.7 0 0 0 .6-.2 1 1 0 0 0 0-1.3zm6.1 54-5.8-.1-7-8.6a.7.7 0 0 0-.4-.2.7.7 0 0 0-.6.2 1 1 0 0 0 0 1.2l7.3 9.1 6.5.2c.4 0 .7-.4.7-.8 0-.5-.3-1-.7-1zm1.6-44.4a.5.5 0 0 0-.2 0l-6.5-.3-7.8 8.6a1 1 0 0 0-.2.9.8.8 0 0 0 .1.3.7.7 0 0 0 .6.3.7.7 0 0 0 .5-.2l2.4-2.7 5-5.4h3.6l2.2.1c.4 0 .8-.3.8-.8 0-.4-.2-.7-.5-.8zm2.6 33-11.5-.3-4.1-5.2a.7.7 0 0 0-.6-.3l-.5.3a1 1 0 0 0 0 1.2l4.5 5.7 12.2.4c.4 0 .7-.4.7-.9s-.3-.9-.7-.9zm.7-21.4-12.2-.4-4.9 5.4a1 1 0 0 0 0 1.2.7.7 0 0 0 .5.3.7.7 0 0 0 .6-.2l4.4-5 11.5.4c.4 0 .8-.3.8-.8s-.3-.9-.7-.9zm2.7 10.8-18.6-.6c-.5 0-.8.4-.8.9s.3.8.7.9l18.7.5c.4 0 .7-.3.8-.8a1 1 0 0 0-.8-1zm0 0-18.6-.6c-.5 0-.8.4-.8.9s.3.8.7.9l18.7.5c.4 0 .7-.3.8-.8a1 1 0 0 0-.8-1zM85.5 45l-12.2-.4-4.9 5.4a1 1 0 0 0 0 1.2.7.7 0 0 0 .5.3.7.7 0 0 0 .6-.2l4.4-5 11.5.4c.4 0 .8-.3.8-.8s-.3-.9-.7-.9zm-.7 21.4-11.5-.3-4.1-5.2a.7.7 0 0 0-.6-.3l-.5.3a1 1 0 0 0 0 1.2l4.5 5.7 12.2.4c.4 0 .7-.4.7-.9s-.3-.9-.7-.9zm-2.6-33a.5.5 0 0 0-.2 0l-6.5-.3-7.8 8.6a1 1 0 0 0-.2.9.8.8 0 0 0 .1.3.7.7 0 0 0 .6.3.7.7 0 0 0 .5-.2l2.4-2.7 5-5.4h3.6l2.2.1c.4 0 .8-.3.8-.8 0-.4-.2-.7-.5-.8zm-1.6 44.5-5.8-.2-7-8.6a.7.7 0 0 0-.4-.2.7.7 0 0 0-.6.2 1 1 0 0 0 0 1.2l7.3 9.1 6.5.2c.4 0 .7-.4.7-.8 0-.5-.3-1-.7-1zm-6.1-54c-6.8-8-16-12.6-25.7-12.9-9.7-.3-19 3.7-26.4 11.3a1 1 0 0 0 0 1.2c0 .2.3.3.5.3a.7.7 0 0 0 .5-.2c7-7.3 16-11.1 25.4-10.8 9.3.2 18 4.6 24.6 12.3l.5.2a.7.7 0 0 0 .6-.2 1 1 0 0 0 0-1.3zm-1.9 63.5a.7.7 0 0 0-.5-.3.7.7 0 0 0-.6.2c-7 7.2-16 11-25.3 10.8a34 34 0 0 1-24.7-12.3.7.7 0 0 0-1 0 1 1 0 0 0 0 1.2 35 35 0 0 0 25.6 12.8c9.7.3 19.1-3.7 26.4-11.2a1 1 0 0 0 .1-1.2zM28.2 40.5l-7.3-9-6.5-.3c-.4 0-.8.4-.8.9s.3.9.7.9l5.9.2 6.9 8.5c.1.2.3.3.5.3a.7.7 0 0 0 .5-.3 1 1 0 0 0 0-1.2zM27.3 68a1 1 0 0 0-.1-.1.7.7 0 0 0-.4-.2.7.7 0 0 0-.5.3l-1 1-6.4 7h-4.7l-1.2-.1c-.4 0-.7.4-.7.9v.3c.1.3.4.5.7.5l6.5.2 7.8-8.6a1 1 0 0 0 0-1.2zM27 48.7l-4.6-5.6-12.1-.4c-.4 0-.8.4-.8.9 0 .4.3.8.7.8l11.6.4 4.1 5.1c.1.2.3.3.5.3s.4 0 .5-.2a1 1 0 0 0 0-1.3zm-.3 11a.7.7 0 0 0-.6-.4.7.7 0 0 0-.5.3l-4.4 4.9L9.5 64c-.4 0-.7.4-.7.9 0 .4.3.8.7.9l12.1.3 5-5.3a1 1 0 0 0 0-1.3zm-1.2-5.8-18.6-.6c-.4 0-.8.4-.8.9 0 .4.3.8.7.9l18.7.5c.4 0 .8-.3.8-.8s-.3-1-.8-1zm.8.9c0-.5-.3-1-.8-1l-18.6-.5c-.4 0-.8.4-.8.9 0 .4.3.8.7.9l18.7.5c.4 0 .8-.3.8-.8zm.3 6a1 1 0 0 0 0-1.2.7.7 0 0 0-.5-.3.7.7 0 0 0-.5.3l-4.4 4.9L9.5 64c-.4 0-.7.4-.7.9 0 .4.3.8.7.9l12.1.3zM10.1 44.5l11.6.4 4.1 5.1c.1.2.3.3.5.3s.4 0 .5-.2a1 1 0 0 0 0-1.3l-4.5-5.6-12.1-.4c-.4 0-.8.4-.8.9 0 .4.3.8.7.8zM27.3 68a1 1 0 0 0-.1-.1.7.7 0 0 0-.4-.2.7.7 0 0 0-.5.3l-1 1-6.4 7h-4.7l-1.2-.1c-.4 0-.7.4-.7.9v.3c.1.3.4.5.7.5l6.5.2 7.8-8.6a1 1 0 0 0 0-1.2zm-13-35 5.9.3 6.9 8.5c.1.2.3.3.5.3a.7.7 0 0 0 .5-.3 1 1 0 0 0 0-1.2l-7.2-9-6.5-.3c-.4 0-.8.4-.8.9s.3.9.7.9zm57.8 54.2a.7.7 0 0 0-.6.2c-7 7.2-16 11-25.3 10.8a34 34 0 0 1-24.7-12.3.7.7 0 0 0-1 0 1 1 0 0 0 0 1.2 35 35 0 0 0 25.6 12.8c9.7.3 19.1-3.7 26.4-11.2a1 1 0 0 0 .1-1.2.7.7 0 0 0-.5-.3zM22.9 23.8a.7.7 0 0 0 .5-.2c7-7.3 16-11.1 25.4-10.8 9.3.2 18 4.6 24.6 12.3.2.2.4.2.5.2a.7.7 0 0 0 .6-.2 1 1 0 0 0 0-1.3A35 35 0 0 0 48.8 11c-9.7-.3-19 3.7-26.4 11.3a1 1 0 0 0 0 1.2c0 .2.3.3.5.3zm57.7 54-5.8-.1-7-8.6a.7.7 0 0 0-.4-.2.7.7 0 0 0-.6.2 1 1 0 0 0 0 1.2l7.3 9.1 6.5.2c.4 0 .7-.4.7-.8 0-.5-.3-1-.7-1zM67.5 42.7a.8.8 0 0 0 .1.3.7.7 0 0 0 .6.3.7.7 0 0 0 .5-.2l2.4-2.7 5-5.4h3.6l2.2.1c.4 0 .8-.3.8-.8 0-.4-.2-.7-.5-.8a.5.5 0 0 0-.2 0l-6.5-.3-7.8 8.6a1 1 0 0 0-.2.9zm17.3 23.8-11.5-.3-4.1-5.2a.7.7 0 0 0-.6-.3l-.5.3a1 1 0 0 0 0 1.2l4.5 5.7 12.2.4c.4 0 .7-.4.7-.9s-.3-.9-.7-.9zM68.5 50a1 1 0 0 0 0 1.2.7.7 0 0 0 .4.3.7.7 0 0 0 .6-.2l4.4-5 11.5.4c.4 0 .8-.3.8-.8s-.3-.9-.7-.9l-12.2-.4-4.8 5.4zm19.7 5.8-18.6-.6c-.5 0-.8.4-.8.9s.3.8.7.9l18.7.5c.4 0 .7-.3.8-.8a1 1 0 0 0-.8-1zm2.1 3.6h-.7a59.2 59.2 0 0 1-1 6.7l.8.2a57.4 57.4 0 0 1-1.8 6.6l-.6-.3a56.5 56.5 0 0 1-2.5 6.3l.6.4A53.8 53.8 0 0 1 82 85l-.6-.5a47.1 47.1 0 0 1-3.8 5.2l.5.6a46.7 46.7 0 0 1-4.4 4.7l-.5-.7a45 45 0 0 1-4.9 3.8l.4.7a43.2 43.2 0 0 1-5.4 3l-.3-.7a38.9 38.9 0 0 1-5.5 2.1l.1.8c-1.9.6-3.8 1-5.8 1.2l-.1-.8a38.1 38.1 0 0 1-5.6.3l-.3.8a37.5 37.5 0 0 1-5.9-.7l.1-.8a37 37 0 0 1-5.6-1.6l-.3.8a38.5 38.5 0 0 1-5.5-2.6l.4-.8a41 41 0 0 1-5-3.3l-.5.7a43.4 43.4 0 0 1-4.7-4.3l.5-.6a48.4 48.4 0 0 1-4-4.9l-.6.6a49.5 49.5 0 0 1-3.5-5.6l.6-.4a48.1 48.1 0 0 1-1.8-3.6A47.5 47.5 0 0 1 9 76l-.7.3a55 55 0 0 1-2-6.5l.7-.2A58 58 0 0 1 5.6 63l-.7.2a56.7 56.7 0 0 1-.4-7h.7v-2c0-1.6.2-3.2.4-4.8h-.7c.2-2.4.6-4.7 1.1-7l.7.3a51.3 51.3 0 0 1 2-6.4l-.7-.4a54.6 54.6 0 0 1 2.7-6.2l.7.5a49.3 49.3 0 0 1 3.3-5.6l-.5-.6a49.7 49.7 0 0 1 4-5l.5.6a44.4 44.4 0 0 1 4.6-4.4l-.4-.7a41.3 41.3 0 0 1 5-3.6l.4.8a38 38 0 0 1 5.4-2.8l-.2-.8a38.8 38.8 0 0 1 5.7-1.9l.2.9a36.7 36.7 0 0 1 5.8-1v-.8a38.3 38.3 0 0 1 5.9 0v1c1.8 0 3.8.4 5.7.9l.1-.9a37.6 37.6 0 0 1 5.7 2l-.2.8a40.6 40.6 0 0 1 5.3 2.8l.3-.8a40.3 40.3 0 0 1 5 3.7l-.4.7a47.7 47.7 0 0 1 4.5 4.4l.5-.7a48 48 0 0 1 4 5.2l-.6.5a52.3 52.3 0 0 1 3.2 5.7l.6-.5.6 1.3a53.4 53.4 0 0 1 2 5l-.7.3a55.7 55.7 0 0 1 1.8 6.5l.7-.2a55.4 55.4 0 0 1 1 6.8h-.7c.2 2.3.3 4.6.2 7h.8a54.1 54.1 0 0 1-.2 2.6zm4.6-6.2v-2.4a36.2 36.2 0 0 0-.2-1.1v-.4l-.1-1.3-.2-1.3v-.5a387 387 0 0 0-.2-1.3v-.3l-.2-1a.5.5 0 0 0 0-.2 12 12 0 0 0-.2-.7l-.2-1a6.6 6.6 0 0 0-.1-.4 8.8 8.8 0 0 0-.1-.6 38 38 0 0 0-.3-1v-.3l-.4-1.4a19 19 0 0 0-.3-1 6.7 6.7 0 0 0-.1-.4v-.3a29.6 29.6 0 0 0-.4-.9 7.8 7.8 0 0 0-.2-.7 12.9 12.9 0 0 0-.2-.6 9 9 0 0 0-.3-.7c0-.2 0-.3-.2-.5l-.4-1a31.6 31.6 0 0 0-.4-1.1l-.2-.4c0-.3-.2-.5-.3-.8a24 24 0 0 0-.3-.7L89 28l-.5-1-.7-1.2a.6.6 0 0 0 0-.2 19 19 0 0 0-.6-1l-.6-1-.6-1-.2-.4a19 19 0 0 0-.5-.8 24 24 0 0 0-1.2-1.6 23.1 23.1 0 0 0-.8-1l-.1-.3-.4-.5a3 3 0 0 0-.3-.4 39 39 0 0 0-1.2-1.5l-.4-.4a25 25 0 0 0-.6-.6l-.7-.9-.3-.3-.7-.7-.8-.7-.4-.4-.7-.7a26.9 26.9 0 0 0-1.2-1A43.2 43.2 0 0 0 72 7.7l-1-.6a18.5 18.5 0 0 0-2-1.2l-.7-.5-.4-.2a33.4 33.4 0 0 0-.9-.5l-.6-.3-.4-.2-1-.5a16 16 0 0 0-1-.4l-.8-.3-1.2-.5-.6-.2a25.1 25.1 0 0 0-1.2-.4H60a4.7 4.7 0 0 0-.5-.2 4.7 4.7 0 0 0-.5-.1l-.3-.1a7.3 7.3 0 0 0-.8-.2 7 7 0 0 0-.6-.2 24 24 0 0 0-1.5-.3L54.7.6h-.2l-.7-.2-1.4-.1-1.2-.2h-2a41 41 0 0 0-8.4.5l-1.1.2a41.3 41.3 0 0 0-7 2l-.8.4a41.1 41.1 0 0 0-9.3 5.3l-.9.6-1 .8a40.5 40.5 0 0 0-1.7 1.5l-1 .8-.8.9-.8.8-1.3 1.3-.4.5-.8 1-.8.8v.1l-.8 1-.7 1a28.8 28.8 0 0 0-2.1 3l-.7 1-.6 1.2-.6 1L7 27a51.2 51.2 0 0 0-1.2 2.3A57 57 0 0 0 3 36.6a54.6 54.6 0 0 0-1.1 3.8l-.6 2.4v.2a66.4 66.4 0 0 0-1 6.8A65.7 65.7 0 0 0 0 56a84.2 84.2 0 0 0 0 3.3l.1.2.1 1.5.1 1.2.4 3.3.2 1a62.5 62.5 0 0 0 2.6 10.2 62.1 62.1 0 0 0 1.7 4.4l.7 1.6.8 1.5.8 1.6a39.5 39.5 0 0 0 1 1.7l.8 1.2a51.6 51.6 0 0 0 3 4.2 51.9 51.9 0 0 0 3.4 4 30 30 0 0 0 3.4 3.3l1.3 1a28.7 28.7 0 0 0 4 2.9l1.3.8a48.9 48.9 0 0 0 3 1.6l1 .5a41.3 41.3 0 0 0 3.4 1.4l1.4.5a30.7 30.7 0 0 0 4.6 1.2l1.1.2.9.1a38.2 38.2 0 0 0 4.7.4 41.1 41.1 0 0 0 11.6-1.3 43.6 43.6 0 0 0 2.4-.7c.4 0 .7-.2 1.1-.4a44.3 44.3 0 0 0 5.4-2.3l.8-.4 1.2-.7a54.9 54.9 0 0 0 2-1.2l1-.7.7-.5.3-.2 1-.7.9-.7.6-.5.3-.3.9-.8.6-.5.3-.3a10.3 10.3 0 0 0 .8-.8 19.8 19.8 0 0 0 1.4-1.4l.3-.3.5-.6.3-.3a53.3 53.3 0 0 0 1.6-2 21.1 21.1 0 0 0 .8-.9l.5-.6 1.8-2.6.4-.5c0-.1 0-.2.2-.3l.5-1 .6-.9.6-1 .2-.4.4-.6.6-1.4.3-.5.4-1a35.3 35.3 0 0 0 1.7-3.8l.3-.8.2-.5.2-.6v-.2l.4-1a.9.9 0 0 1 0-.3l.4-1 .4-1.4v-.1l.3-1.2v-.1a45.2 45.2 0 0 0 1.1-5.2v-.1l.2-1.3.3-1.9v-.9a68 68 0 0 0 .4-6.3v-1.6zm-68.7 1.6c0-.5-.3-1-.8-1l-18.6-.5c-.4 0-.8.4-.8.9 0 .4.3.8.7.9l18.7.5c.4 0 .8-.3.8-.8zm.3 6a1 1 0 0 0 0-1.2.7.7 0 0 0-.5-.3.7.7 0 0 0-.5.3l-4.4 4.9L9.5 64c-.4 0-.7.4-.7.9 0 .4.3.8.7.9l12.1.3zM10.1 44.5l11.6.4 4.1 5.1c.1.2.3.3.5.3s.4 0 .5-.2a1 1 0 0 0 0-1.3l-4.5-5.6-12.1-.4c-.4 0-.8.4-.8.9 0 .4.3.8.7.8zM27.3 68a1 1 0 0 0-.1-.1.7.7 0 0 0-.4-.2.7.7 0 0 0-.5.3l-1 1-6.4 7h-4.7l-1.2-.1c-.4 0-.7.4-.7.9v.3c.1.3.4.5.7.5l6.5.2 7.8-8.6a1 1 0 0 0 0-1.2zm-13-35 5.9.3 6.9 8.5c.1.2.3.3.5.3a.7.7 0 0 0 .5-.3 1 1 0 0 0 0-1.2l-7.2-9-6.5-.3c-.4 0-.8.4-.8.9s.3.9.7.9zm57.8 54.2a.7.7 0 0 0-.6.2c-7 7.2-16 11-25.3 10.8a34 34 0 0 1-24.7-12.3.7.7 0 0 0-1 0 1 1 0 0 0 0 1.2 35 35 0 0 0 25.6 12.8c9.7.3 19.1-3.7 26.4-11.2a1 1 0 0 0 .1-1.2.7.7 0 0 0-.5-.3zM22.9 23.8a.7.7 0 0 0 .5-.2c7-7.3 16-11.1 25.4-10.8 9.3.2 18 4.6 24.6 12.3.2.2.4.2.5.2a.7.7 0 0 0 .6-.2 1 1 0 0 0 0-1.3A35 35 0 0 0 48.8 11c-9.7-.3-19 3.7-26.4 11.3a1 1 0 0 0 0 1.2c0 .2.3.3.5.3zm57.7 54-5.8-.1-7-8.6a.7.7 0 0 0-.4-.2.7.7 0 0 0-.6.2 1 1 0 0 0 0 1.2l7.3 9.1 6.5.2c.4 0 .7-.4.7-.8 0-.5-.3-1-.7-1zM67.5 42.7a.8.8 0 0 0 .1.3.7.7 0 0 0 .6.3.7.7 0 0 0 .5-.2l2.4-2.7 5-5.4h3.6l2.2.1c.4 0 .8-.3.8-.8 0-.4-.2-.7-.5-.8a.5.5 0 0 0-.2 0l-6.5-.3-7.8 8.6a1 1 0 0 0-.2.9zm17.3 23.8-11.5-.3-4.1-5.2a.7.7 0 0 0-.6-.3l-.5.3a1 1 0 0 0 0 1.2l4.5 5.7 12.2.4c.4 0 .7-.4.7-.9s-.3-.9-.7-.9zM68.5 50a1 1 0 0 0 0 1.2.7.7 0 0 0 .4.3.7.7 0 0 0 .6-.2l4.4-5 11.5.4c.4 0 .8-.3.8-.8s-.3-.9-.7-.9l-12.2-.4-4.8 5.4zm19.7 5.8-18.6-.6c-.5 0-.8.4-.8.9s.3.8.7.9l18.7.5c.4 0 .7-.3.8-.8a1 1 0 0 0-.8-1zm0 0-18.6-.6c-.5 0-.8.4-.8.9s.3.8.7.9l18.7.5c.4 0 .7-.3.8-.8a1 1 0 0 0-.8-1zM85.5 45l-12.2-.4-4.8 5.4a1 1 0 0 0 0 1.2.7.7 0 0 0 .4.3.7.7 0 0 0 .6-.2l4.4-5 11.5.4c.4 0 .8-.3.8-.8s-.3-.9-.7-.9zm-.7 21.4-11.5-.3-4.1-5.2a.7.7 0 0 0-.6-.3l-.5.3a1 1 0 0 0 0 1.2l4.5 5.7 12.2.4c.4 0 .7-.4.7-.9s-.3-.9-.7-.9zm-2.6-33a.5.5 0 0 0-.2 0l-6.5-.3-7.8 8.6a1 1 0 0 0-.2.9.8.8 0 0 0 .1.3.7.7 0 0 0 .6.3.7.7 0 0 0 .5-.2l2.4-2.7 5-5.4h3.6l2.2.1c.4 0 .8-.3.8-.8 0-.4-.2-.7-.5-.8zm-1.6 44.5-5.8-.2-7-8.6a.7.7 0 0 0-.4-.2.7.7 0 0 0-.6.2 1 1 0 0 0 0 1.2l7.3 9.1 6.5.2c.4 0 .7-.4.7-.8 0-.5-.3-1-.7-1zm-6.1-54c-6.8-8-16-12.6-25.7-12.9-9.7-.3-19 3.7-26.4 11.3a1 1 0 0 0 0 1.2c0 .2.3.3.5.3a.7.7 0 0 0 .5-.2c7-7.3 16-11.1 25.4-10.8 9.3.2 18 4.6 24.6 12.3l.5.2a.7.7 0 0 0 .6-.2 1 1 0 0 0 0-1.3zm-1.9 63.5a.7.7 0 0 0-.5-.3.7.7 0 0 0-.6.2c-7 7.2-16 11-25.3 10.8a34 34 0 0 1-24.7-12.3.7.7 0 0 0-1 0 1 1 0 0 0 0 1.2 35 35 0 0 0 25.6 12.8c9.7.3 19.1-3.7 26.4-11.2a1 1 0 0 0 .1-1.2zM28.2 40.5l-7.3-9-6.5-.3c-.4 0-.8.4-.8.9s.3.9.7.9l5.9.2 6.9 8.5c.1.2.3.3.5.3a.7.7 0 0 0 .5-.3 1 1 0 0 0 0-1.2zM27.3 68a1 1 0 0 0-.1-.1.7.7 0 0 0-.4-.2.7.7 0 0 0-.5.3l-1 1-6.4 7h-4.7l-1.2-.1c-.4 0-.7.4-.7.9v.3c.1.3.4.5.7.5l6.5.2 7.8-8.6a1 1 0 0 0 0-1.2zM27 48.7l-4.6-5.6-12.1-.4c-.4 0-.8.4-.8.9 0 .4.3.8.7.8l11.6.4 4.1 5.1c.1.2.3.3.5.3s.4 0 .5-.2a1 1 0 0 0 0-1.3zm-.3 11a.7.7 0 0 0-.6-.4.7.7 0 0 0-.5.3l-4.4 4.9L9.5 64c-.4 0-.7.4-.7.9 0 .4.3.8.7.9l12.1.3 5-5.3a1 1 0 0 0 0-1.3zm-1.2-5.8-18.6-.6c-.4 0-.8.4-.8.9 0 .4.3.8.7.9l18.7.5c.4 0 .8-.3.8-.8s-.3-1-.8-1zm0 0-18.6-.6c-.4 0-.8.4-.8.9 0 .4.3.8.7.9l18.7.5c.4 0 .8-.3.8-.8s-.3-1-.8-1zm1.2 5.7a.7.7 0 0 0-.6-.3.7.7 0 0 0-.5.3l-4.4 4.9L9.5 64c-.4 0-.7.4-.7.9 0 .4.3.8.7.9l12.1.3 5-5.3a1 1 0 0 0 0-1.3zm.3-10.9-4.6-5.6-12.1-.4c-.4 0-.8.4-.8.9 0 .4.3.8.7.8l11.6.4 4.1 5.1c.1.2.3.3.5.3s.4 0 .5-.2a1 1 0 0 0 0-1.3zm.4 19.2a1 1 0 0 0-.1-.1.7.7 0 0 0-.4-.2.7.7 0 0 0-.5.3l-1 1-6.4 7h-4.7l-1.2-.1c-.4 0-.7.4-.7.9v.3c.1.3.4.5.7.5l6.5.2 7.8-8.6a1 1 0 0 0 0-1.2zm.9-27.4-7.3-9-6.5-.3c-.4 0-.8.4-.8.9s.3.9.7.9l5.9.2 6.9 8.5c.1.2.3.3.5.3a.7.7 0 0 0 .5-.3 1 1 0 0 0 0-1.2zm44.4 46.9a.7.7 0 0 0-.5-.3.7.7 0 0 0-.6.2c-7 7.2-16 11-25.3 10.8a34 34 0 0 1-24.7-12.3.7.7 0 0 0-1 0 1 1 0 0 0 0 1.2 35 35 0 0 0 25.6 12.8c9.7.3 19.1-3.7 26.4-11.2a1 1 0 0 0 .1-1.2zm1.9-63.6A35 35 0 0 0 48.9 11c-9.7-.3-19 3.7-26.4 11.3a1 1 0 0 0 0 1.2c0 .2.3.3.5.3a.7.7 0 0 0 .5-.2c7-7.3 16-11.1 25.4-10.8 9.3.2 18 4.6 24.6 12.3l.5.2a.7.7 0 0 0 .6-.2 1 1 0 0 0 0-1.3zm6.1 54-5.8-.1-7-8.6a.7.7 0 0 0-.4-.2.7.7 0 0 0-.6.2 1 1 0 0 0 0 1.2l7.3 9.1 6.5.2c.4 0 .7-.4.7-.8 0-.5-.3-1-.7-1zm1.6-44.4a.5.5 0 0 0-.2 0l-6.5-.3-7.8 8.6a1 1 0 0 0-.2.9.8.8 0 0 0 .1.3.7.7 0 0 0 .6.3.7.7 0 0 0 .5-.2l2.4-2.7 5-5.4h3.6l2.2.1c.4 0 .8-.3.8-.8 0-.4-.2-.7-.5-.8zm2.6 33-11.5-.3-4.1-5.2a.7.7 0 0 0-.6-.3l-.5.3a1 1 0 0 0 0 1.2l4.5 5.7 12.2.4c.4 0 .7-.4.7-.9s-.3-.9-.7-.9zm.7-21.4-12.2-.4-4.9 5.4a1 1 0 0 0 0 1.2.7.7 0 0 0 .5.3.7.7 0 0 0 .6-.2l4.4-5 11.5.4c.4 0 .8-.3.8-.8s-.3-.9-.7-.9zm2.7 10.8-18.6-.6c-.5 0-.8.4-.8.9s.3.8.7.9l18.7.5c.4 0 .7-.3.8-.8a1 1 0 0 0-.8-1zm0 0-18.6-.6c-.5 0-.8.4-.8.9s.3.8.7.9l18.7.5c.4 0 .7-.3.8-.8a1 1 0 0 0-.8-1zM85.5 45l-12.2-.4-4.9 5.4a1 1 0 0 0 0 1.2.7.7 0 0 0 .5.3.7.7 0 0 0 .6-.2l4.4-5 11.5.4c.4 0 .8-.3.8-.8s-.3-.9-.7-.9zm-.7 21.4-11.5-.3-4.1-5.2a.7.7 0 0 0-.6-.3l-.5.3a1 1 0 0 0 0 1.2l4.5 5.7 12.2.4c.4 0 .7-.4.7-.9s-.3-.9-.7-.9zm-2.6-33a.5.5 0 0 0-.2 0l-6.5-.3-7.8 8.6a1 1 0 0 0-.2.9.8.8 0 0 0 .1.3.7.7 0 0 0 .6.3.7.7 0 0 0 .5-.2l2.4-2.7 5-5.4h3.6l2.2.1c.4 0 .8-.3.8-.8 0-.4-.2-.7-.5-.8zm-1.6 44.5-5.8-.2-7-8.6a.7.7 0 0 0-.4-.2.7.7 0 0 0-.6.2 1 1 0 0 0 0 1.2l7.3 9.1 6.5.2c.4 0 .7-.4.7-.8 0-.5-.3-1-.7-1zm-6.1-54c-6.8-8-16-12.6-25.7-12.9-9.7-.3-19 3.7-26.4 11.3a1 1 0 0 0 0 1.2c0 .2.3.3.5.3a.7.7 0 0 0 .5-.2c7-7.3 16-11.1 25.4-10.8 9.3.2 18 4.6 24.6 12.3l.5.2a.7.7 0 0 0 .6-.2 1 1 0 0 0 0-1.3zm-1.9 63.5a.7.7 0 0 0-.5-.3.7.7 0 0 0-.6.2c-7 7.2-16 11-25.3 10.8a34 34 0 0 1-24.7-12.3.7.7 0 0 0-1 0 1 1 0 0 0 0 1.2 35 35 0 0 0 25.6 12.8c9.7.3 19.1-3.7 26.4-11.2a1 1 0 0 0 .1-1.2zM28.2 40.5l-7.3-9-6.5-.3c-.4 0-.8.4-.8.9s.3.9.7.9l5.9.2 6.9 8.5c.1.2.3.3.5.3a.7.7 0 0 0 .5-.3 1 1 0 0 0 0-1.2zM27.3 68a1 1 0 0 0-.1-.1.7.7 0 0 0-.4-.2.7.7 0 0 0-.5.3l-1 1-6.4 7h-4.7l-1.2-.1c-.4 0-.7.4-.7.9v.3c.1.3.4.5.7.5l6.5.2 7.8-8.6a1 1 0 0 0 0-1.2zM27 48.7l-4.6-5.6-12.1-.4c-.4 0-.8.4-.8.9 0 .4.3.8.7.8l11.6.4 4.1 5.1c.1.2.3.3.5.3s.4 0 .5-.2a1 1 0 0 0 0-1.3zm-.3 11a.7.7 0 0 0-.6-.4.7.7 0 0 0-.5.3l-4.4 4.9L9.5 64c-.4 0-.7.4-.7.9 0 .4.3.8.7.9l12.1.3 5-5.3a1 1 0 0 0 0-1.3zm-1.2-5.8-18.6-.6c-.4 0-.8.4-.8.9 0 .4.3.8.7.9l18.7.5c.4 0 .8-.3.8-.8s-.3-1-.8-1zm0 0-18.6-.6c-.4 0-.8.4-.8.9 0 .4.3.8.7.9l18.7.5c.4 0 .8-.3.8-.8s-.3-1-.8-1zm1.2 5.7a.7.7 0 0 0-.6-.3.7.7 0 0 0-.5.3l-4.4 4.9L9.5 64c-.4 0-.7.4-.7.9 0 .4.3.8.7.9l12.1.3 5-5.3a1 1 0 0 0 0-1.3zm.3-10.9-4.6-5.6-12.1-.4c-.4 0-.8.4-.8.9 0 .4.3.8.7.8l11.6.4 4.1 5.1c.1.2.3.3.5.3s.4 0 .5-.2a1 1 0 0 0 0-1.3zm.4 19.2a1 1 0 0 0-.1-.1.7.7 0 0 0-.4-.2.7.7 0 0 0-.5.3l-1 1-6.4 7h-4.7l-1.2-.1c-.4 0-.7.4-.7.9v.3c.1.3.4.5.7.5l6.5.2 7.8-8.6a1 1 0 0 0 0-1.2zm.9-27.4-7.3-9-6.5-.3c-.4 0-.8.4-.8.9s.3.9.7.9l5.9.2 6.9 8.5c.1.2.3.3.5.3a.7.7 0 0 0 .5-.3 1 1 0 0 0 0-1.2zm44.4 46.9a.7.7 0 0 0-.5-.3.7.7 0 0 0-.6.2c-7 7.2-16 11-25.3 10.8a34 34 0 0 1-24.7-12.3.7.7 0 0 0-1 0 1 1 0 0 0 0 1.2 35 35 0 0 0 25.6 12.8c9.7.3 19.1-3.7 26.4-11.2a1 1 0 0 0 .1-1.2zm1.9-63.6A35 35 0 0 0 48.9 11c-9.7-.3-19 3.7-26.4 11.3a1 1 0 0 0 0 1.2c0 .2.3.3.5.3a.7.7 0 0 0 .5-.2c7-7.3 16-11.1 25.4-10.8 9.3.2 18 4.6 24.6 12.3l.5.2a.7.7 0 0 0 .6-.2 1 1 0 0 0 0-1.3zm6.1 54-5.8-.1-7-8.6a.7.7 0 0 0-.4-.2.7.7 0 0 0-.6.2 1 1 0 0 0 0 1.2l7.3 9.1 6.5.2c.4 0 .7-.4.7-.8 0-.5-.3-1-.7-1zm1.6-44.4a.5.5 0 0 0-.2 0l-6.5-.3-7.8 8.6a1 1 0 0 0-.2.9.8.8 0 0 0 .1.3.7.7 0 0 0 .6.3.7.7 0 0 0 .5-.2l2.4-2.7 5-5.4h3.6l2.2.1c.4 0 .8-.3.8-.8 0-.4-.2-.7-.5-.8zm2.6 33-11.5-.3-4.1-5.2a.7.7 0 0 0-.6-.3l-.5.3a1 1 0 0 0 0 1.2l4.5 5.7 12.2.4c.4 0 .7-.4.7-.9s-.3-.9-.7-.9zm.7-21.4-12.2-.4-4.9 5.4a1 1 0 0 0 0 1.2.7.7 0 0 0 .5.3.7.7 0 0 0 .6-.2l4.4-5 11.5.4c.4 0 .8-.3.8-.8s-.3-.9-.7-.9zm2.7 10.8-18.6-.6c-.5 0-.8.4-.8.9s.3.8.7.9l18.7.5c.4 0 .7-.3.8-.8a1 1 0 0 0-.8-1zm-61.3-7L22.3 43l-12.1-.4c-.4 0-.8.4-.8.9 0 .4.3.8.7.8l11.6.4 4.1 5.1c.1.2.3.3.5.3s.4 0 .5-.2a1 1 0 0 0 0-1.3zm1.3-8.3-7.3-9-6.5-.3c-.4 0-.8.4-.8.9s.3.9.7.9l5.9.2 6.9 8.5c.1.2.3.3.5.3a.7.7 0 0 0 .5-.3 1 1 0 0 0 0-1.2zM85.5 45l-12.2-.4-4.9 5.4a1 1 0 0 0 0 1.2.7.7 0 0 0 .5.3.7.7 0 0 0 .6-.2l4.4-5 11.5.4c.4 0 .8-.3.8-.8s-.3-.9-.7-.9zm-11-21.2A35 35 0 0 0 48.8 11c-9.7-.3-19 3.7-26.4 11.3a1 1 0 0 0 0 1.2c0 .2.3.3.5.3a.7.7 0 0 0 .5-.2c7-7.3 16-11.1 25.4-10.8 9.3.2 18 4.6 24.6 12.3.2.2.4.2.5.2a.7.7 0 0 0 .6-.2 1 1 0 0 0 0-1.3z" fill="#ffd03e" mask="url(#c)" transform="rotate(6 -1.9 113.4)"/><path d="m48.6 39.8-1.5 12L58 53c2.8.4 5.4-2 5.8-5.3.5-3.3-1.5-6.3-4.3-6.6zm5.7 41.6c5 .7 9.8-3.6 10.6-9.6C65.6 66 62 60.5 57 60l-10.7-1.3L43.5 80zm11.2-24.6c3.8 3.7 6 9.5 5.1 15.8-1 8.8-7.7 15.5-15.2 15.7L55 92l-5-.6.4-3.6-4.7-.6-.4 3.6-5-.6.5-3.6-6.5-.8.9-6.8 2.6.4 5-40.3-2.6-.3.9-6.8 6.5.8.4-3.6 5 .7-.5 3.5 4.7.6.5-3.5 5 .6-.5 3.8c5 1.7 8.1 7.4 7.3 13.6a14 14 0 0 1-4 8.3z" fill="#e19100"/><path d="m52.2 80.1-10.7-1.3L43 65.5l1-8.3 11 1.4a8.2 8.2 0 0 1 1.7.4c4.1 1.4 6.8 6.2 6.2 11.5-.8 6-5.5 10.3-10.6 9.6zm-5.7-41.6 10.8 1.3c2.8.4 4.8 3.4 4.4 6.7-.5 3.3-3.1 5.7-6 5.3L45 50.5zm17 17c2-2 3.5-5 4-8.3.7-6.2-2.5-12-7.4-13.6l.5-3.8-5-.7-.5 3.6-4.7-.6.5-3.6-5-.6-.4 3.6-6.5-.8-.8 6.7 2.6.4-4 30.8-1.1 9.4-2.6-.3-.9 6.8 6.5.8-.4 3.5 5 .7.3-3.6 4.8.6-.5 3.6 5 .6.5-3.8c7.4-.2 14-6.8 15.2-15.7.7-6.2-1.3-12-5.1-15.6z" fill="#ffe950"/><path d="m16.9 77.6 1.2.1-2 1a1 1 0 0 1 0-.4c0-.5.4-.8.8-.7m-3.9-23L31.5 57c.4 0 .7.4.7 1a1 1 0 0 1-.9.7l-18.5-2.5c-.4 0-.7-.5-.7-1 .1-.5.5-.8 1-.7M31.8 64l-5.4 5-12-1.6c-.4 0-.7-.5-.6-1 0-.4.4-.8.8-.7L26.1 67l4.9-4.4a.7.7 0 0 1 .5-.1.7.7 0 0 1 .5.3c.3.4.2.9-.1 1.2M17.3 46c-.4 0-.7-.5-.6-1 0-.5.4-.8.8-.8l12 1.7 4 6.1a1 1 0 0 1-.2 1.2l-.5.2a.7.7 0 0 1-.5-.3l-3.6-5.6L17.3 46zm14.1 24.8.4.1-2 1 1-1a.7.7 0 0 1 .6-.1M35.6 44c.3.3.2.9-.2 1.2a.7.7 0 0 1-.5.2.7.7 0 0 1-.5-.4l-6-9.2-5.8-.8c-.3 0-.6-.5-.6-1 .1-.4.5-.8.9-.7l6.4.9 6.3 9.8z" fill="#f9dc66"/><path d="M55.8 51.8 45 50.5l1.5-12 10.8 1.3c2.8.4 4.8 3.4 4.4 6.7-.5 3.3-3.1 5.7-6 5.3m11.7-4.6c.8-6.2-2.4-12-7.3-13.6l.5-3.8-5-.7-.5 3.6-4.7-.6.5-3.6-5-.6-.4 3.6-6.5-.8-.8 6.7 2.6.4-4 30.8 6.3-3 1-8.4L55 58.6a8.2 8.2 0 0 1 1.7.4l6.9-3.4c2-2.1 3.5-5 4-8.4" fill="#fbee90"/><path d="M32.1 26.9a.6.6 0 0 1-.5-.4 1 1 0 0 1 .2-1.2c8-6.7 17.8-9.7 27.5-8.4a35.1 35.1 0 0 1 24.1 15.4c.3.4.2 1 0 1.3a.7.7 0 0 1-.7.1.7.7 0 0 1-.4-.3A33.8 33.8 0 0 0 59 18.6a33.7 33.7 0 0 0-26.3 8.1.7.7 0 0 1-.6.2m58 15.7-2.7 1.3-3.5-.5-5.6 5-3.8 1.8c0-.3 0-.6.3-.8l8.7-7.8 6.4 1a.5.5 0 0 1 .2 0" fill="#f9dc66"/><path d="m97.7 39-4.2 2a41.6 41.6 0 0 0-.4-1.3l-.7.3a52.3 52.3 0 0 0-2.6-6l.6-.4a48 48 0 0 0-3.4-5.5l-.6.5a47.7 47.7 0 0 0-4-4.8l.6-.6a40.4 40.4 0 0 0-4.6-4.2l-.5.7a40.6 40.6 0 0 0-5-3.3l.4-.8a37.6 37.6 0 0 0-5.5-2.5l-.2.8a39.5 39.5 0 0 0-5.7-1.6l.2-.8a32.5 32.5 0 0 0-2-.4 38.2 38.2 0 0 0-4-.3v.9a36.7 36.7 0 0 0-5.9.3v-1a38.8 38.8 0 0 0-6 1.3l.2.8a38.2 38.2 0 0 0-5.6 2.2l-.3-.8a41.4 41.4 0 0 0-5.4 3l.3.8a44.4 44.4 0 0 0-5 3.8l-.4-.7a49.7 49.7 0 0 0-4.6 4.7l.5.6A49.2 49.2 0 0 0 20 32l-.6-.5a54.6 54.6 0 0 0-3.3 5.9l.6.4A51.3 51.3 0 0 0 14 44l-.7-.3a55 55 0 0 0-1.9 6.7l.7.2a55.9 55.9 0 0 0-.8 4.6l-.3 2.1h-.7a56.6 56.6 0 0 0-.3 6.8h.8c0 2.3.2 4.5.5 6.7l-.7.2a55 55 0 0 0 1.4 6.7l.7-.3.7 2.5-3.4 1.7-1.6.4a62.5 62.5 0 0 1 16.8-64.5A44.2 44.2 0 0 1 60.7 6a46.7 46.7 0 0 1 37 33" fill="#fbee90"/></g></svg>