<svg viewBox="0 0 229.5 235.4" xmlns="http://www.w3.org/2000/svg"><path d="M186.8 26.8a93.8 93.8 0 0 0-9.2-5.7l-12.2-7q2.3 1.4 4.5 3c47 32.9 56.6 102.4 21.5 155.3-33.1 50-94.4 67.2-140.7 41.3l15.1 8.6 3.3 2 .4.1c46 24.5 106.2 7 138.9-42.2 35.1-53 25.5-122.5-21.6-155.4z" fill="#f89b00"/><path d="M169.9 17C122.9-15.8 56.2.4 21 53.3S-4.3 175.7 42.7 208.7s113.6 16.6 148.7-36.3S217 50 170 17.1z" fill="#ffb700"/><path d="M169.9 17C122.9-15.8 56.2.4 21 53.3S-4.3 175.7 42.7 208.7s113.6 16.6 148.7-36.3S217 50 170 17.1zM180 164.5q-2.5 3.8-5.3 7.4l-1.2-1a110.8 110.8 0 0 1-8.7 9.7l1 1.2a105.5 105.5 0 0 1-10 8.7l-.8-1.4a97.8 97.8 0 0 1-10.7 7.2l.6 1.4a98.7 98.7 0 0 1-11.5 5.8l-.5-1.6a95.5 95.5 0 0 1-11.8 4l.2 1.6a90.5 90.5 0 0 1-12.3 2.4v-1.6a85.5 85.5 0 0 1-12.2.6l-.1 1.7a84.2 84.2 0 0 1-12.2-1.2l.4-1.6a79 79 0 0 1-11.6-2.8l-.6 1.5a80.6 80.6 0 0 1-11.2-4.5l.8-1.5a80.4 80.4 0 0 1-10-6l-.2-.2-1 1.4a82.6 82.6 0 0 1-9.3-7.7l1-1.2a82.3 82.3 0 0 1-8-9l-1.3 1.2a87.1 87.1 0 0 1-6.8-10.3l1.3-1a88.5 88.5 0 0 1-5.3-11l-1.5.7a94.5 94.5 0 0 1-3.9-12l1.5-.6a98.5 98.5 0 0 1-2.2-12.5l-1.6.4a102 102 0 0 1-.6-13l1.5-.1a101.8 101.8 0 0 1 1-13h-1.5a106.3 106.3 0 0 1 2.7-13l1.5.3a107.4 107.4 0 0 1 4.2-12.5l-1.4-.5A108.8 108.8 0 0 1 28 68.7l1.3.7a108 108 0 0 1 4.5-7.2 107.4 107.4 0 0 1 7.9-10.5l-1.2-1A107.2 107.2 0 0 1 50 41l1 1.2a102.8 102.8 0 0 1 10-8l-.7-1.4a101.2 101.2 0 0 1 11-6.9l.7 1.5a95 95 0 0 1 11.5-5.2l-.4-1.5a93 93 0 0 1 12.2-3.5l.2 1.6a87.4 87.4 0 0 1 12.1-1.8v-1.6a86 86 0 0 1 12.3-.1l-.1 1.6a82.3 82.3 0 0 1 11.8 1.7l.5-1.6a81.7 81.7 0 0 1 11.6 3.4l-.6 1.6a80.2 80.2 0 0 1 10.8 5l.8-1.5a82.5 82.5 0 0 1 10 6.7l-1 1.4a81.2 81.2 0 0 1 9 8l1-1.2a83.8 83.8 0 0 1 7.8 9.5l-1.2 1a87.2 87.2 0 0 1 6.3 10.4l1.4-.8a91.1 91.1 0 0 1 5 11.5l-1.5.7a92 92 0 0 1 3.4 12l1.5-.4a98.8 98.8 0 0 1 1.7 12.8l-1.5.3a100.3 100.3 0 0 1 0 12.9h1.6a107 107 0 0 1-1.5 13H195a106 106 0 0 1-3 12.7l1.5.4a110 110 0 0 1-4.8 12.5l-1.4-.6A107.3 107.3 0 0 1 181 160l1.3.8-2.3 3.7z" fill="#ffcf00"/><path d="M142 59a1.6 1.6 0 0 0 2.2-.5l12.5-19a1.6 1.6 0 0 0-.3-2.2 1.6 1.6 0 0 0-2.1.5l-12.6 19a1.6 1.6 0 0 0 .3 2.3zm-.2-29.6a1.5 1.5 0 0 0-.3-.1 1.6 1.6 0 0 0-2 1l-8.8 21a1.6 1.6 0 0 0 .5 2l.2.1a1.6 1.6 0 0 0 2-1l9-21a1.6 1.6 0 0 0-.6-2zM125.7 25a1.3 1.3 0 0 0-.6-.2 1.7 1.7 0 0 0-1.9 1.4l-4.7 22a1.6 1.6 0 0 0 .6 1.7 1.4 1.4 0 0 0 .6.3 1.7 1.7 0 0 0 1.8-1.4l4.7-22.1a1.6 1.6 0 0 0-.5-1.7zM151 67.1l.2.2a1.5 1.5 0 0 0 2-.2L169 50.9a1.7 1.7 0 0 0 .1-2.3 1.2 1.2 0 0 0-.2-.2 1.5 1.5 0 0 0-2 .3l-15.8 16.1a1.7 1.7 0 0 0-.1 2.3zm7.1 10a1.5 1.5 0 0 0 2.2.4L178.7 65a1.8 1.8 0 0 0 .6-2.3 1.4 1.4 0 0 0-.5-.5 1.5 1.5 0 0 0-1.7 0l-18.3 12.6a1.8 1.8 0 0 0-.6 2.3zm-118.7-9L56.3 80a1.6 1.6 0 0 0 2.2-.5 1.6 1.6 0 0 0-.3-2.3L41.3 65.3a1.6 1.6 0 0 0-2.1.6 1.6 1.6 0 0 0 .3 2.2zm-8.8 16.3.3.1L50 92.2a1.6 1.6 0 0 0 2-1 1.6 1.6 0 0 0-.4-2 1.3 1.3 0 0 0-.3-.2l-19.1-7.5a1.7 1.7 0 0 0-1.6 2.9zm17.5 19.5a1.6 1.6 0 0 0-.6-1.6 1.5 1.5 0 0 0-.6-.2l-20.5-3.2a1.7 1.7 0 0 0-1.9 1.4 1.6 1.6 0 0 0 .6 1.6 1.4 1.4 0 0 0 .6.3l20.5 3.1a1.7 1.7 0 0 0 1.9-1.4zm2.6-50.3 13.9 15.5.2.2a1.5 1.5 0 0 0 2-.3 1.7 1.7 0 0 0 .1-2.3L53.1 51.3a1.2 1.2 0 0 0-.2-.2 1.5 1.5 0 0 0-2 .2 1.7 1.7 0 0 0-.1 2.3zm24 6.5a1.6 1.6 0 0 0 .4.5 1.5 1.5 0 0 0 1.7 0 1.8 1.8 0 0 0 .6-2.3L67.2 39.8a1.5 1.5 0 0 0-.4-.4 1.5 1.5 0 0 0-1.7 0 1.8 1.8 0 0 0-.6 2.2zm-4.2 106.5a1.6 1.6 0 0 0-2.2.6l-12.5 19a1.6 1.6 0 0 0 .3 2.2 1.6 1.6 0 0 0 2.1-.5l12.6-19a1.6 1.6 0 0 0-.3-2.3zm10.9 6a1.2 1.2 0 0 0-.3-.2 1.6 1.6 0 0 0-2 1l-8.9 21a1.6 1.6 0 0 0 .5 2l.3.1a1.6 1.6 0 0 0 2-1l8.9-21a1.6 1.6 0 0 0-.5-2zm12 3.2a1.3 1.3 0 0 0-.6-.2A1.7 1.7 0 0 0 91 177l-4.8 22.1a1.6 1.6 0 0 0 .6 1.7 1.3 1.3 0 0 0 .6.2 1.7 1.7 0 0 0 1.9-1.4l4.7-22.1a1.6 1.6 0 0 0-.6-1.7zm-32-17.2a1.4 1.4 0 0 0-.2-.2 1.5 1.5 0 0 0-2 .2l-15.8 16.2a1.8 1.8 0 0 0-.1 2.3l.2.2a1.5 1.5 0 0 0 2-.3l15.8-16a1.7 1.7 0 0 0 .1-2.4zm-7.2-10a1.5 1.5 0 0 0-.4-.5 1.5 1.5 0 0 0-1.7 0l-18.3 12.6a1.8 1.8 0 0 0-.6 2.3 1.3 1.3 0 0 0 .4.5 1.5 1.5 0 0 0 1.7 0l18.3-12.6a1.8 1.8 0 0 0 .7-2.3zm118.8 9-16.9-11.8a1.6 1.6 0 0 0-2.1.5 1.6 1.6 0 0 0 .3 2.3l16.8 11.8a1.6 1.6 0 0 0 2.2-.6 1.6 1.6 0 0 0-.3-2.2zm8.7-16.3a1.5 1.5 0 0 0-.2-.1l-19.1-7.7a1.6 1.6 0 0 0-2 1 1.6 1.6 0 0 0 .4 2l.3.2 19 7.6a1.7 1.7 0 0 0 1.6-3zm5.6-17.5a1.3 1.3 0 0 0-.6-.3l-20.5-3.1a1.7 1.7 0 0 0-1.9 1.4 1.6 1.6 0 0 0 .6 1.6 1.6 1.6 0 0 0 .6.2l20.5 3.2a1.7 1.7 0 0 0 1.9-1.4 1.6 1.6 0 0 0-.6-1.6zM161.8 172l-14-15.5a1.6 1.6 0 0 0-.2-.2 1.5 1.5 0 0 0-1.9.3 1.8 1.8 0 0 0-.1 2.3l13.9 15.4.2.2a1.5 1.5 0 0 0 2-.2 1.7 1.7 0 0 0 .1-2.3zm-24-6.5a1.4 1.4 0 0 0-.5-.5 1.4 1.4 0 0 0-1.7 0 1.8 1.8 0 0 0-.6 2.3l10.4 18.5a1.6 1.6 0 0 0 .4.4 1.5 1.5 0 0 0 1.7 0 1.8 1.8 0 0 0 .6-2.3zm-32-127a2.9 2.9 0 0 0 4-1 3 3 0 0 0-.5-4.2 2.9 2.9 0 0 0-4 1.1 3 3 0 0 0 .6 4zm-11.6 1.8a2.4 2.4 0 0 0 .4.3 3.1 3.1 0 0 0 3-5.4 2.5 2.5 0 0 0-.4-.3 3.1 3.1 0 0 0-3 5.4zm-11.4 3.8a2.6 2.6 0 0 0 .8.4 3.1 3.1 0 0 0 3.6-2.3 2.9 2.9 0 0 0-1-3.2 2.5 2.5 0 0 0-1-.4 3.1 3.1 0 0 0-3.5 2.3 2.9 2.9 0 0 0 1 3.2zM36 119.6a3 3 0 0 0-.6-4.1h-.1a2.9 2.9 0 0 0-4 1 3 3 0 0 0 .6 4.2 3 3 0 0 0 4-1.1zm.1 8.2a2.3 2.3 0 0 0-.4-.3 3 3 0 0 0-3.9 1.8 3 3 0 0 0 .9 3.6 2.6 2.6 0 0 0 .5.3 3.1 3.1 0 0 0 3-5.4zm3.6 15a3 3 0 0 0-1-3.2 2.6 2.6 0 0 0-.8-.4 3.1 3.1 0 0 0-3.6 2.3 3 3 0 0 0 1 3.2 2.5 2.5 0 0 0 .9.4 3.1 3.1 0 0 0 3.5-2.3zm67 44.3a2.9 2.9 0 0 0-4 1 3 3 0 0 0 .6 4.2 2.9 2.9 0 0 0 4-1 3 3 0 0 0-.7-4.2zm11.6-1.8a2.3 2.3 0 0 0-.4-.3 3.1 3.1 0 0 0-3 5.4 2.3 2.3 0 0 0 .4.2 3.1 3.1 0 0 0 3-5.3zm11.4-3.8a2.6 2.6 0 0 0-.8-.4 3.1 3.1 0 0 0-3.6 2.3 2.9 2.9 0 0 0 1 3.2 2.4 2.4 0 0 0 .9.4 3.1 3.1 0 0 0 3.5-2.3 3 3 0 0 0-1-3.2zm46.7-75.4a3 3 0 0 0 .6 4.1 2.9 2.9 0 0 0 4-1 3 3 0 0 0-.6-4.1 2.9 2.9 0 0 0-4 1zm-.1-8.1a3.1 3.1 0 0 0 .4.3 3.1 3.1 0 0 0 3-5.4 2.5 2.5 0 0 0-.4-.3 3.1 3.1 0 0 0-3 5.4zm-3.7-15a3 3 0 0 0 1 3.1 2.5 2.5 0 0 0 1 .4 3.1 3.1 0 0 0 3.5-2.3 3 3 0 0 0-1-3.2 2.6 2.6 0 0 0-.9-.4 3.2 3.2 0 0 0-3.6 2.3z" fill="#ffcf00"/><path d="M79.8 114.6a6.8 6.8 0 0 0 6.4 7.6h.4a7.7 7.7 0 0 0 7.6-7.2 6.8 6.8 0 0 0-6.8-7.2 7.7 7.7 0 0 0-7.6 6.8zm8.4-29a3.7 3.7 0 0 0 1.8-4.8 3.5 3.5 0 0 0-4.7-1.6 3.7 3.7 0 0 0-1.8 4.8 3.5 3.5 0 0 0 4.7 1.6zm1.4 18a7 7 0 0 0 9.5 3.1 7.5 7.5 0 0 0 3.7-9.7 6.8 6.8 0 0 0-6.2-4 7.7 7.7 0 0 0-7.6 7.3 7 7 0 0 0 .6 3.2zm11 30a7 7 0 0 0-1.6-10 7.4 7.4 0 0 0-10 2 7 7 0 0 0 1.5 10 7 7 0 0 0 3.8 1.2 7.6 7.6 0 0 0 6.2-3.2z" fill="#ec8d00"/><path d="m97.7 122.2 2.5 2.4L89.6 135l-2.6-2.6zm-18.5-4.7 2.7 2.8L92 109.6l-2.7-2.6zm9-15 2.6 2.9L101.4 95l-2.9-2.8z" fill="#ec8d00"/><path d="M77.7 112.4A6.8 6.8 0 0 0 84 120h.4a7.7 7.7 0 0 0 7.6-7.2 6.8 6.8 0 0 0-6.8-7.2 7.7 7.7 0 0 0-7.5 6.8zm8.3-29a3.7 3.7 0 0 0 1.8-4.8 3.5 3.5 0 0 0-4.7-1.6 3.7 3.7 0 0 0-1.8 4.8 3.5 3.5 0 0 0 4.7 1.6z" fill="#ffe90a"/><path d="M77 104a4.3 4.3 0 0 0 6-1.2 4.1 4.1 0 0 0-1-5.8 4.3 4.3 0 0 0-6 1.2 4.2 4.2 0 0 0 1 5.8z" fill="#ec8d00"/><path d="m74 101 2.4 2.5 6.2-6-2.1-2.2z" fill="#ec8d00"/><path d="M74.9 101.8a4.3 4.3 0 0 0 5.9-1.2 4.1 4.1 0 0 0-1-5.8A4.3 4.3 0 0 0 74 96a4.1 4.1 0 0 0 1 5.8zm12.5-.5a7 7 0 0 0 9.5 3.2 7.5 7.5 0 0 0 3.7-9.6 6.8 6.8 0 0 0-6.2-4 7.7 7.7 0 0 0-7.5 7.2 6.8 6.8 0 0 0 .5 3.2z" fill="#ffe90a"/><path d="M107.3 96.3a7 7 0 0 0 1.6 10 7.4 7.4 0 0 0 10-2.1 7 7 0 0 0-1.5-10 7 7 0 0 0-3.9-1.2 7.7 7.7 0 0 0-6.2 3.3z" fill="#ec8d00"/><path d="m115.8 92.5 2.8 2.8-10.7 10.1-3-3z" fill="#ec8d00"/><path d="M105.2 94.1a7 7 0 0 0 1.5 10 7.4 7.4 0 0 0 10-2.1 7 7 0 0 0-1.5-10 7 7 0 0 0-3.9-1.1 7.6 7.6 0 0 0-6.1 3.2z" fill="#ffe90a"/><path d="M115 111a7 7 0 0 0 1.6 10 7.4 7.4 0 0 0 10-2.1 7 7 0 0 0-1.5-10 7 7 0 0 0-3.9-1.2 7.6 7.6 0 0 0-6.1 3.3z" fill="#ec8d00"/><path d="m123.5 107.1 2.9 2.9-10.8 10-2.9-3z" fill="#ec8d00"/><path d="M112.9 108.8a7 7 0 0 0 1.6 10 7.4 7.4 0 0 0 10-2.1 7 7 0 0 0-1.6-10 7 7 0 0 0-3.9-1.2 7.7 7.7 0 0 0-6.1 3.3z" fill="#ffe90a"/><path d="M105.8 125.6a7 7 0 0 0 1.6 10 7.4 7.4 0 0 0 10-2.1 7 7 0 0 0-1.6-10 7 7 0 0 0-3.8-1.1 7.6 7.6 0 0 0-6.2 3.2z" fill="#ec8d00"/><path d="m114.3 121.8 2.9 2.9-10.8 10-2.9-3z" fill="#ec8d00"/><path d="M103.7 123.5a7 7 0 0 0 1.5 10 7.4 7.4 0 0 0 10-2.2 7 7 0 0 0-1.5-9.9 7 7 0 0 0-3.8-1.2 7.6 7.6 0 0 0-6.2 3.3zm-5.3 7.9a7 7 0 0 0-1.6-10 7.4 7.4 0 0 0-10 2 7 7 0 0 0 1.5 10 7 7 0 0 0 3.9 1.2 7.6 7.6 0 0 0 6.2-3.2z" fill="#ffe90a"/><path d="M101.6 158.3a3.1 3.1 0 0 0-3.2 2.8 2.8 2.8 0 0 0 2.6 3.1 3.2 3.2 0 0 0 3.3-2.7 2.8 2.8 0 0 0-2.7-3.2z" fill="#ec8d00"/><path d="m96.8 161.1 2.2 2.2 4.4-4.2-2-2z" fill="#ec8d00"/><path d="M99.5 156.2a3.1 3.1 0 0 0-3.3 2.8 2.8 2.8 0 0 0 2.6 3.1 3.2 3.2 0 0 0 3.3-2.7 2.8 2.8 0 0 0-2.6-3.2z" fill="#ffe90a"/><path d="M119.7 144.3a3.7 3.7 0 0 0-1.8 4.8 3.5 3.5 0 0 0 4.7 1.6 3.7 3.7 0 0 0 1.8-4.8 3.5 3.5 0 0 0-4.7-1.6z" fill="#ec8d00"/><path d="m116.3 147.8 2.1 2.2 5.2-5.2-2-2z" fill="#ec8d00"/><path d="M117.5 142.1a3.7 3.7 0 0 0-1.8 4.9 3.5 3.5 0 0 0 4.7 1.5 3.7 3.7 0 0 0 1.9-4.8 3.5 3.5 0 0 0-4.8-1.6z" fill="#ffe90a"/><path d="M176.5 106.2a3 3 0 0 0 .6 4 2.9 2.9 0 0 0 4-1 3 3 0 0 0-.6-4.1 2.9 2.9 0 0 0-4 1zm-34.7-76.8a1.5 1.5 0 0 0-.3-.1 1.6 1.6 0 0 0-2 1l-8.8 21a1.6 1.6 0 0 0 .4 2l.3.1a1.6 1.6 0 0 0 2-1l9-21a1.6 1.6 0 0 0-.6-2zm37.5 33.3a1.4 1.4 0 0 0-.5-.5 1.5 1.5 0 0 0-1.7 0l-18.3 12.6a1.8 1.8 0 0 0-.6 2.3 1.5 1.5 0 0 0 2.2.5L178.7 65a1.8 1.8 0 0 0 .6-2.3zM177.2 81a2.6 2.6 0 0 0-.9-.4 3.1 3.1 0 0 0-3.6 2.4 3 3 0 0 0 1 3.1 2.5 2.5 0 0 0 1 .4 3.1 3.1 0 0 0 3.5-2.3 3 3 0 0 0-1-3.2zm2.6 11.9a2.5 2.5 0 0 0-.4-.3 3.1 3.1 0 0 0-3 5.4 3.1 3.1 0 0 0 .4.3 3.1 3.1 0 0 0 3-5.4zm-15.4 29a1.6 1.6 0 0 0 .6 1.6 1.6 1.6 0 0 0 .6.2l2.7.4 11.9-1.5-14-2.1a1.7 1.7 0 0 0-1.8 1.3zM83.6 44.6a3.1 3.1 0 0 0 3.6-2.3 2.9 2.9 0 0 0-1-3.2 2.5 2.5 0 0 0-1-.4 3.1 3.1 0 0 0-3.5 2.3 3 3 0 0 0 1 3.2 2.6 2.6 0 0 0 1 .4zm22.3-6a2.9 2.9 0 0 0 4-1 3 3 0 0 0-.6-4.2 2.9 2.9 0 0 0-4 1.1 3 3 0 0 0 .5 4.1zm-11.3 2a3.1 3.1 0 0 0 3-5.3 2.5 2.5 0 0 0-.4-.3 3.1 3.1 0 0 0-3 5.4 2.4 2.4 0 0 0 .4.3zm31-15.6a1.3 1.3 0 0 0-.5-.2 1.7 1.7 0 0 0-1.9 1.4l-4.7 22a1.6 1.6 0 0 0 .6 1.7 1.4 1.4 0 0 0 .6.3 1.7 1.7 0 0 0 1.8-1.4l4.7-22.1a1.6 1.6 0 0 0-.5-1.7zm-74 64.2a1.3 1.3 0 0 0-.2-.1l-19.1-7.6a1.6 1.6 0 0 0-2 1 1.6 1.6 0 0 0 .5 2l.2.1 19.1 7.7a1.6 1.6 0 0 0 2.1-1 1.6 1.6 0 0 0-.5-2zm-14.5 42.2a3 3 0 0 0-.9-3.6 2.3 2.3 0 0 0-.5-.3 3 3 0 0 0-3.8 1.8 3 3 0 0 0 .9 3.6 2.6 2.6 0 0 0 .4.3 3 3 0 0 0 3.9-1.8zm10.5-29a1.5 1.5 0 0 0-.6-.3l-20.5-3.2a1.7 1.7 0 0 0-1.9 1.4 1.6 1.6 0 0 0 .6 1.6 1.4 1.4 0 0 0 .6.3l20.5 3.1a1.7 1.7 0 0 0 1.9-1.4 1.5 1.5 0 0 0-.6-1.6zM36 119.5a3 3 0 0 0-.6-4.1h-.1a2.9 2.9 0 0 0-4 1 3 3 0 0 0 .6 4.1 3 3 0 0 0 4-1zM169.9 17C122.9-16 56.2.2 21 53.1a123.3 123.3 0 0 0-18.8 92.2l16.1-2.1a98.6 98.6 0 0 1-1.9-11l-1.5.3a102 102 0 0 1-.7-13l1.6-.1a101.8 101.8 0 0 1 1-13h-1.6a106.3 106.3 0 0 1 2.7-13l1.5.3a107.4 107.4 0 0 1 4.2-12.5l-1.4-.5A108.8 108.8 0 0 1 28 68.6l1.3.7a108 108 0 0 1 4.5-7.2 107.4 107.4 0 0 1 7.9-10.5l-1.2-1A107.2 107.2 0 0 1 50 41l1 1.2a102.8 102.8 0 0 1 10-8l-.8-1.4a101.2 101.2 0 0 1 11-6.8l.7 1.5a95 95 0 0 1 11.5-5.2l-.4-1.5a93 93 0 0 1 12.2-3.5l.1 1.6a87.4 87.4 0 0 1 12.2-1.8v-1.7a86 86 0 0 1 12.3 0l-.1 1.6a82.3 82.3 0 0 1 11.8 1.7l.5-1.6a81.7 81.7 0 0 1 11.6 3.4l-.6 1.6a80.2 80.2 0 0 1 10.7 5l.9-1.5a95 95 0 0 1 6.7 4.3l3.3 2.4-1 1.4a81.2 81.2 0 0 1 9 8l1-1.2a83.8 83.8 0 0 1 7.9 9.5l-1.3 1a87.2 87.2 0 0 1 6.3 10.4l1.4-.8a91.1 91.1 0 0 1 5 11.5l-1.5.7a92 92 0 0 1 3.4 12l1.5-.4a98.8 98.8 0 0 1 1.7 12.8l-1.6.3a100.3 100.3 0 0 1 .1 12.9h1.6c-.2 3.3-.5 6.6-1 10l14.6-2c4.9-39.5-9.8-79-41.8-101.3zm-131 122.5a2.6 2.6 0 0 0-1-.4 3 3 0 0 0-3.4 2l5.1-.6a2.8 2.8 0 0 0-.8-1zM58.2 77 41.3 65.3a1.6 1.6 0 0 0-2.2.6 1.6 1.6 0 0 0 .3 2.2l17 11.8a1.6 1.6 0 0 0 2.1-.5 1.7 1.7 0 0 0-.3-2.3zm92.9-10 .2.3a1.5 1.5 0 0 0 2-.3l15.8-16a1.7 1.7 0 0 0 .1-2.4 1.2 1.2 0 0 0-.2-.2 1.5 1.5 0 0 0-2 .3l-15.8 16.1a1.7 1.7 0 0 0-.1 2.3zm5.3-29.8a1.6 1.6 0 0 0-2.2.6l-12.5 19a1.6 1.6 0 0 0 .3 2.2 1.6 1.6 0 0 0 2.1-.5l12.6-19a1.6 1.6 0 0 0-.3-2.3zM75.2 60.6a1.5 1.5 0 0 0 1.7 0 1.8 1.8 0 0 0 .6-2.3L67.2 39.8a1.5 1.5 0 0 0-.4-.4 1.5 1.5 0 0 0-1.7 0 1.8 1.8 0 0 0-.6 2.2l10.3 18.5a1.7 1.7 0 0 0 .4.5zM53 51.1a1.5 1.5 0 0 0-2 .2 1.7 1.7 0 0 0-.2 2.3l14 15.5.2.2a1.5 1.5 0 0 0 2-.3 1.7 1.7 0 0 0 .1-2.3l-14-15.4a1.2 1.2 0 0 0-.2-.2z" fill="#ffdd4b"/><path d="M75.6 133a4.3 4.3 0 0 0 5.9-1.2 4.1 4.1 0 0 0-1-5.9 4.3 4.3 0 0 0-5.8 1.3 4.1 4.1 0 0 0 .9 5.8z" fill="#ec8d00"/><path d="m72.6 130 2.3 2.5 6.3-6-2.2-2.2z" fill="#ec8d00"/><path d="M73.4 130.9a4.3 4.3 0 0 0 6-1.3 4.1 4.1 0 0 0-1-5.8 4.3 4.3 0 0 0-5.9 1.2 4.1 4.1 0 0 0 1 5.9z" fill="#ffe90a"/><path d="M99.7 147.5a4.3 4.3 0 0 0 5.9-1.2 4.1 4.1 0 0 0-1-5.9 4.3 4.3 0 0 0-5.8 1.2 4.1 4.1 0 0 0 .9 5.9z" fill="#ec8d00"/><path d="M96.7 144.5 99 147l6.3-6-2.2-2.2z" fill="#ec8d00"/><path d="M97.5 145.3a4.3 4.3 0 0 0 6-1.2 4.1 4.1 0 0 0-1-5.9 4.3 4.3 0 0 0-5.9 1.3 4.1 4.1 0 0 0 1 5.8z" fill="#ffe90a"/><path d="M125.8 133a4.3 4.3 0 0 0 6-1.3 4.1 4.1 0 0 0-1-5.9 4.3 4.3 0 0 0-5.9 1.3 4.1 4.1 0 0 0 1 5.8z" fill="#ec8d00"/><path d="m122.8 130 2.4 2.4 6.2-6-2.2-2.2z" fill="#ec8d00"/><path d="M123.7 130.8a4.3 4.3 0 0 0 5.9-1.3 4.1 4.1 0 0 0-1-5.8 4.3 4.3 0 0 0-5.8 1.2 4.1 4.1 0 0 0 .9 5.8z" fill="#ffe90a"/><path d="M127.3 103.9a4.3 4.3 0 0 0 5.9-1.2 4.1 4.1 0 0 0-1-5.9 4.3 4.3 0 0 0-5.8 1.2 4.2 4.2 0 0 0 .9 5.9z" fill="#ec8d00"/><path d="m124.3 101 2.4 2.4 6.2-6-2.2-2.2z" fill="#ec8d00"/><path d="M125.1 101.7a4.3 4.3 0 0 0 6-1.2 4.1 4.1 0 0 0-1-5.8 4.3 4.3 0 0 0-5.9 1.2 4.1 4.1 0 0 0 1 5.8z" fill="#ffe90a"/><path d="M102.9 89.5a4.3 4.3 0 0 0 5.9-1.3 4.1 4.1 0 0 0-1-5.8 4.3 4.3 0 0 0-5.8 1.2 4.2 4.2 0 0 0 1 5.9z" fill="#ec8d00"/><path d="m99.9 86.5 2.3 2.4 6.3-6-2.2-2.2z" fill="#ec8d00"/><path d="M100.7 87.3a4.3 4.3 0 0 0 6-1.2 4.1 4.1 0 0 0-1-5.9 4.3 4.3 0 0 0-5.9 1.2 4.1 4.1 0 0 0 1 5.9z" fill="#ffe90a"/><path d="M145.5 88.7a3.1 3.1 0 0 0-3.2 2.8 2.8 2.8 0 0 0 2.6 3.1 3.2 3.2 0 0 0 3.3-2.7 2.8 2.8 0 0 0-2.6-3.2z" fill="#ec8d00"/><path d="m140.8 91.5 2.1 2.2 4.4-4.2-2-2z" fill="#ec8d00"/><path d="M143.4 86.6a3.1 3.1 0 0 0-3.3 2.7 2.8 2.8 0 0 0 2.6 3.2 3.2 3.2 0 0 0 3.3-2.8 2.8 2.8 0 0 0-2.6-3.1z" fill="#ffe90a"/><path d="M106.6 65.6a3.1 3.1 0 0 0-3.3 2.8 2.8 2.8 0 0 0 2.6 3.1 3.2 3.2 0 0 0 3.3-2.7 2.8 2.8 0 0 0-2.6-3.2z" fill="#ec8d00"/><path d="m101.8 68.4 2.2 2.2 4.3-4.2-2-2z" fill="#ec8d00"/><path d="M104.4 63.5a3.1 3.1 0 0 0-3.3 2.7 2.8 2.8 0 0 0 2.7 3.2 3.2 3.2 0 0 0 3.2-2.8 2.8 2.8 0 0 0-2.6-3.1z" fill="#ffe90a"/><path d="M63 135.2a3.1 3.1 0 0 0-3.3 2.8 2.8 2.8 0 0 0 2.6 3.1 3.2 3.2 0 0 0 3.3-2.7 2.8 2.8 0 0 0-2.6-3.2z" fill="#ec8d00"/><path d="m58.2 138 2.1 2.2 4.4-4.2-2-2z" fill="#ec8d00"/><path d="M60.8 133a3.1 3.1 0 0 0-3.3 2.9 2.8 2.8 0 0 0 2.6 3.1 3.2 3.2 0 0 0 3.3-2.8 2.8 2.8 0 0 0-2.6-3.1z" fill="#ffe90a"/><path d="M65.3 88.9a3.1 3.1 0 0 0-3.3 2.8 2.8 2.8 0 0 0 2.6 3A3.2 3.2 0 0 0 68 92a2.8 2.8 0 0 0-2.6-3.1z" fill="#ec8d00"/><path d="m60.5 91.7 2.2 2.1 4.3-4.2-2-2z" fill="#ec8d00"/><path d="M63.1 86.7a3.1 3.1 0 0 0-3.3 2.8 2.8 2.8 0 0 0 2.7 3.1 3.2 3.2 0 0 0 3.2-2.7 2.8 2.8 0 0 0-2.6-3.2z" fill="#ffe90a"/><path d="M143 112a4.2 4.2 0 0 0-4.3 3.7 3.7 3.7 0 0 0 3.5 4 4.2 4.2 0 0 0 4.2-3.6 3.7 3.7 0 0 0-3.4-4.1z" fill="#ec8d00"/><path d="m136.7 115.6 2.9 2.9 5.7-5.6-2.6-2.6z" fill="#ec8d00"/><path d="M140.2 109.1a4.2 4.2 0 0 0-4.3 3.7 3.7 3.7 0 0 0 3.4 4 4.2 4.2 0 0 0 4.3-3.6 3.7 3.7 0 0 0-3.4-4s0-.1 0-.1z" fill="#ffe90a"/><path d="M82 144.4a3.7 3.7 0 0 0-1.8 4.8 3.5 3.5 0 0 0 4.7 1.6 3.7 3.7 0 0 0 1.9-4.8 3.5 3.5 0 0 0-4.8-1.6z" fill="#ec8d00"/><path d="m78.6 147.9 2.2 2.2 5.1-5.3L84 143z" fill="#ec8d00"/><path d="M79.8 142.2A3.7 3.7 0 0 0 78 147a3.5 3.5 0 0 0 4.8 1.6 3.7 3.7 0 0 0 1.8-4.8 3.5 3.5 0 0 0-4.8-1.6z" fill="#ffe90a"/><path d="M64.8 111.8a3.7 3.7 0 0 0-1.8 4.9 3.5 3.5 0 0 0 4.7 1.5 3.7 3.7 0 0 0 1.9-4.8 3.5 3.5 0 0 0-4.8-1.6z" fill="#ec8d00"/><path d="m61.4 115.4 2.2 2.1 5.1-5.2-1.9-2z" fill="#ec8d00"/><path d="M62.7 109.7a3.7 3.7 0 0 0-1.9 4.8 3.5 3.5 0 0 0 4.8 1.6 3.7 3.7 0 0 0 1.8-4.8 3.5 3.5 0 0 0-4.7-1.6z" fill="#ffe90a"/><path d="M123 79a3.7 3.7 0 0 0-1.9 5 3.5 3.5 0 0 0 4.8 1.5 3.7 3.7 0 0 0 1.8-4.8 3.5 3.5 0 0 0-4.8-1.6z" fill="#ec8d00"/><path d="m119.5 82.6 2.2 2.2 5.2-5.2-2-2z" fill="#ec8d00"/><path d="M120.8 77a3.7 3.7 0 0 0-1.8 4.8 3.5 3.5 0 0 0 4.8 1.5 3.7 3.7 0 0 0 1.8-4.8 3.5 3.5 0 0 0-4.8-1.6z" fill="#ffe90a"/><path d="M155 112.2a2.6 2.6 0 0 0-2.7 2.3 2.4 2.4 0 0 0 2.2 2.6 2.7 2.7 0 0 0 2.8-2.3 2.4 2.4 0 0 0-2.2-2.6z" fill="#ec8d00"/><path d="m151 114.5 1.9 1.8 3.7-3.5-1.7-1.7z" fill="#ec8d00"/><path d="M153.3 110.3a2.6 2.6 0 0 0-2.8 2.4 2.4 2.4 0 0 0 2.2 2.6 2.7 2.7 0 0 0 2.8-2.3 2.4 2.4 0 0 0-2.2-2.7z" fill="#ffe90a"/><path d="M143.5 135.2a3.3 3.3 0 0 0-3.4 3 3 3 0 0 0 2.7 3.2 3.3 3.3 0 0 0 3.5-3 3 3 0 0 0-2.8-3.2z" fill="#ec8d00"/><path d="m138.5 138 2.3 2.4 4.6-4.4-2.1-2.1z" fill="#ec8d00"/><path d="M141.3 132.9a3.3 3.3 0 0 0-3.5 3 3 3 0 0 0 2.8 3.2 3.3 3.3 0 0 0 3.4-2.9 3 3 0 0 0-2.7-3.3z" fill="#ffe90a"/><path d="M127.3 156.4a2.6 2.6 0 0 0-2.7 2.3 2.4 2.4 0 0 0 2.2 2.7 2.7 2.7 0 0 0 2.8-2.4 2.4 2.4 0 0 0-2.3-2.6z" fill="#ec8d00"/><path d="m123.3 158.8 1.8 1.8 3.7-3.6-1.6-1.6z" fill="#ec8d00"/><path d="M125.5 154.6a2.6 2.6 0 0 0-2.7 2.3 2.4 2.4 0 0 0 2.2 2.7 2.7 2.7 0 0 0 2.7-2.4 2.4 2.4 0 0 0-2.2-2.6z" fill="#ffe90a"/><path d="M76.3 156.5a2.6 2.6 0 0 0-2.8 2.4 2.4 2.4 0 0 0 2.3 2.6 2.7 2.7 0 0 0 2.7-2.3 2.4 2.4 0 0 0-2.2-2.7z" fill="#ec8d00"/><path d="m72.3 158.9 1.8 1.8 3.7-3.5-1.7-1.7z" fill="#ec8d00"/><path d="M74.5 154.7a2.6 2.6 0 0 0-2.8 2.4 2.4 2.4 0 0 0 2.2 2.6 2.7 2.7 0 0 0 2.8-2.3 2.4 2.4 0 0 0-2.2-2.7z" fill="#ffe90a"/><path d="M53 112.4a2.6 2.6 0 0 0-2.8 2.3 2.4 2.4 0 0 0 2.3 2.6 2.7 2.7 0 0 0 2.7-2.3 2.4 2.4 0 0 0-2.2-2.6z" fill="#ec8d00"/><path d="m49 114.7 1.8 1.8 3.7-3.5-1.7-1.6z" fill="#ec8d00"/><path d="M51.2 110.6a2.6 2.6 0 0 0-2.8 2.3 2.4 2.4 0 0 0 2.2 2.6 2.7 2.7 0 0 0 2.8-2.3 2.4 2.4 0 0 0-2.2-2.6z" fill="#ffe90a"/><path d="M80.7 68.1a2.6 2.6 0 0 0-2.7 2.4 2.4 2.4 0 0 0 2.2 2.6 2.7 2.7 0 0 0 2.8-2.3 2.4 2.4 0 0 0-2.3-2.7z" fill="#ec8d00"/><path d="m76.7 70.5 1.8 1.8 3.7-3.5-1.7-1.7z" fill="#ec8d00"/><path d="M78.9 66.3a2.6 2.6 0 0 0-2.8 2.4 2.4 2.4 0 0 0 2.3 2.6A2.7 2.7 0 0 0 81 69a2.4 2.4 0 0 0-2.2-2.6z" fill="#ffe90a"/><path d="M131.8 68a2.6 2.6 0 0 0-2.8 2.4 2.4 2.4 0 0 0 2.2 2.6 2.7 2.7 0 0 0 2.8-2.4 2.3 2.3 0 0 0-2.2-2.6z" fill="#ec8d00"/><path d="m127.8 70.3 1.8 1.9 3.7-3.6-1.7-1.6z" fill="#ec8d00"/><path d="M130 66.2a2.6 2.6 0 0 0-2.8 2.3 2.4 2.4 0 0 0 2.3 2.7 2.7 2.7 0 0 0 2.7-2.4 2.3 2.3 0 0 0-2.2-2.6z" fill="#ffe90a"/><path d="M50.6 115.5a2.3 2.3 0 0 1-2.2-2.6 2.6 2.6 0 0 1 2.8-2.3 2.3 2.3 0 0 1 2.2 2.6 2.6 2.6 0 0 1-2.8 2.3zm80.4-15a4.3 4.3 0 0 1-5.9 1.3 4.1 4.1 0 0 1-.9-5.9 4.3 4.3 0 0 1 6-1.2 4.1 4.1 0 0 1 .8 5.8zm22.3 9.9a2.3 2.3 0 0 1 2.2 2.6 2.6 2.6 0 0 1-2.8 2.3 2.3 2.3 0 0 1-2.2-2.6 2.7 2.7 0 0 1 2.8-2.4zm-13.2-21a3.1 3.1 0 0 1 3.3-2.8 2.8 2.8 0 0 1 2.6 3 3.1 3.1 0 0 1-3.3 2.9 2.8 2.8 0 0 1-2.6-3.2zm-4.3 23.4a4.2 4.2 0 0 1 4.3-3.7 3.7 3.7 0 0 1 3.5 4.1 4.1 4.1 0 0 1-4.3 3.7 3.6 3.6 0 0 1-3.5-4.1zM130 66.2a2.3 2.3 0 0 1 2.2 2.6 2.6 2.6 0 0 1-2.8 2.3 2.3 2.3 0 0 1-2.2-2.6 2.7 2.7 0 0 1 2.8-2.3zm-9.2 10.7a3.5 3.5 0 0 1 4.8 1.6 3.7 3.7 0 0 1-1.9 4.8 3.5 3.5 0 0 1-4.7-1.5 3.7 3.7 0 0 1 1.8-4.9zm-19.6-10.7a3.1 3.1 0 0 1 3.2-2.7 2.8 2.8 0 0 1 2.6 3.1 3.1 3.1 0 0 1-3.3 2.8 2.8 2.8 0 0 1-2.5-3.2zM83.2 77a3.5 3.5 0 0 1 4.7 1.6 3.7 3.7 0 0 1-1.9 4.8 3.5 3.5 0 0 1-4.7-1.6A3.7 3.7 0 0 1 83 77zm-4.3-10.7a2.3 2.3 0 0 1 2.2 2.7 2.6 2.6 0 0 1-2.7 2.3 2.3 2.3 0 0 1-2.3-2.6 2.7 2.7 0 0 1 2.8-2.4zM74 96a4.3 4.3 0 0 1 6-1.2 4.1 4.1 0 0 1 .8 5.8A4.3 4.3 0 0 1 75 102a4.2 4.2 0 0 1-1-6zm-14.2-6.5a3.1 3.1 0 0 1 3.3-2.8 2.8 2.8 0 0 1 2.6 3.2 3.1 3.1 0 0 1-3.2 2.7 2.8 2.8 0 0 1-2.7-3zm5.8 26.6a3.5 3.5 0 0 1-4.8-1.6 3.7 3.7 0 0 1 1.9-4.8 3.5 3.5 0 0 1 4.7 1.6 3.7 3.7 0 0 1-1.8 4.8zm13.7 13.6a4.3 4.3 0 0 1-5.9 1.2 4.1 4.1 0 0 1-.9-5.9 4.3 4.3 0 0 1 6-1.2 4.1 4.1 0 0 1 .8 5.9zm5.2-9.7H84a6.8 6.8 0 0 1-6.4-7.6 7.7 7.7 0 0 1 7.6-6.8 6.8 6.8 0 0 1 6.8 7.2 7.7 7.7 0 0 1-7.5 7.2zm12.4-15.5a6.8 6.8 0 0 1-10-6.4 7.7 7.7 0 0 1 7.5-7.2 6.8 6.8 0 0 1 6.2 4 7.5 7.5 0 0 1-3.7 9.6zm3.8-17.2a4.1 4.1 0 0 1-.9-5.9 4.3 4.3 0 0 1 6-1.2 4.1 4.1 0 0 1 .8 5.9 4.3 4.3 0 0 1-5.9 1.2zm6 16.8a7 7 0 0 1-1.5-10 7.6 7.6 0 0 1 6.2-3.2 7 7 0 0 1 3.8 1.2 7 7 0 0 1 1.6 9.9 7.3 7.3 0 0 1-10 2zm7.8 14.6a7 7 0 0 1-1.6-10 7.6 7.6 0 0 1 6.2-3.2 7 7 0 0 1 3.9 1.2 7 7 0 0 1 1.5 10 7.4 7.4 0 0 1-10 2z" fill="#ffdd4b"/><path d="M85.2 105.6a7.7 7.7 0 0 0-7.5 6.8A6.8 6.8 0 0 0 84 120h.4a7.7 7.7 0 0 0 7.6-7.2 6.8 6.8 0 0 0-6.8-7.2z" fill="#ffe90a"/><path d="M85.2 105.6a7.7 7.7 0 0 0-7.5 6.8A6.8 6.8 0 0 0 84 120h.4a7.7 7.7 0 0 0 7.6-7.2 6.8 6.8 0 0 0-6.8-7.2z" fill="#ffdd4b"/><path d="M81.3 81.8a3.5 3.5 0 0 0 4.7 1.6 3.7 3.7 0 0 0 1.8-4.8 3.5 3.5 0 0 0-4.7-1.6 3.7 3.7 0 0 0-1.8 4.8z" fill="#ffe90a"/><path d="M81.3 81.8a3.5 3.5 0 0 0 4.7 1.6 3.7 3.7 0 0 0 1.8-4.8 3.5 3.5 0 0 0-4.7-1.6 3.7 3.7 0 0 0-1.8 4.8z" fill="#ffdd4b"/><path d="M74.9 101.8a4.3 4.3 0 0 0 5.9-1.2 4.1 4.1 0 0 0-1-5.8A4.3 4.3 0 0 0 74 96a4.1 4.1 0 0 0 .9 5.8z" fill="#ffe90a"/><path d="M74.9 101.8a4.3 4.3 0 0 0 5.9-1.2 4.1 4.1 0 0 0-1-5.8A4.3 4.3 0 0 0 74 96a4.1 4.1 0 0 0 .9 5.8z" fill="#ffdd4b"/><path d="M94.4 91a7.7 7.7 0 0 0-7.6 7.1 6.8 6.8 0 0 0 10.1 6.4 7.5 7.5 0 0 0 3.7-9.6 6.8 6.8 0 0 0-6.2-4z" fill="#ffe90a"/><path d="M94.4 91a7.7 7.7 0 0 0-7.6 7.1 6.8 6.8 0 0 0 10.1 6.4 7.5 7.5 0 0 0 3.7-9.6 6.8 6.8 0 0 0-6.2-4z" fill="#ffdd4b"/><path d="M116.8 102a7 7 0 0 0-1.6-10 7 7 0 0 0-3.8-1.1 7.7 7.7 0 0 0-6.2 3.2 7 7 0 0 0 1.5 10 7.4 7.4 0 0 0 10-2.1z" fill="#ffe90a"/><path d="M116.8 102a7 7 0 0 0-1.6-10 7 7 0 0 0-3.8-1.1 7.7 7.7 0 0 0-6.2 3.2 7 7 0 0 0 1.5 10 7.4 7.4 0 0 0 10-2.1z" fill="#ffdd4b"/><path d="M124.5 116.7a7 7 0 0 0-1.6-10 7 7 0 0 0-3.8-1.2 7.7 7.7 0 0 0-6.2 3.3 7 7 0 0 0 1.6 10 7.4 7.4 0 0 0 10-2.1z" fill="#ffe90a"/><path d="M124.5 116.7a7 7 0 0 0-1.6-10 7 7 0 0 0-3.8-1.2 7.7 7.7 0 0 0-6.2 3.3 7 7 0 0 0 1.6 10 7.4 7.4 0 0 0 10-2.1z" fill="#ffdd4b"/><path d="M113.7 121.4a7 7 0 0 0-3.8-1.2 7.7 7.7 0 0 0-6.2 3.3 7.1 7.1 0 0 0 .3 8.8l11.6-1.5a7 7 0 0 0-1.9-9.4z" fill="#ffe90a"/><path d="M113.7 121.4a7 7 0 0 0-3.8-1.2 7.7 7.7 0 0 0-6.2 3.3 7.1 7.1 0 0 0 .3 8.8l11.6-1.5a7 7 0 0 0-1.9-9.4z" fill="#ffdd4b"/><path d="M98.4 131.4a7 7 0 0 0-1.6-10 7.4 7.4 0 0 0-10 2 7 7 0 0 0 1.5 10 6.8 6.8 0 0 0 1.4.7l6.7-.8a7.6 7.6 0 0 0 2-1.9z" fill="#ffe90a"/><path d="M98.4 131.4a7 7 0 0 0-1.6-10 7.4 7.4 0 0 0-10 2 7 7 0 0 0 1.5 10 6.8 6.8 0 0 0 1.4.7l6.7-.8a7.6 7.6 0 0 0 2-1.9z" fill="#ffdd4b"/><path d="M78.4 123.8a4.3 4.3 0 0 0-5.9 1.2 4.1 4.1 0 0 0 .9 5.8 4.3 4.3 0 0 0 6-1.2 4.1 4.1 0 0 0-1-5.8z" fill="#ffe90a"/><path d="M78.4 123.8a4.3 4.3 0 0 0-5.9 1.2 4.1 4.1 0 0 0 .9 5.8 4.3 4.3 0 0 0 6-1.2 4.1 4.1 0 0 0-1-5.8z" fill="#ffdd4b"/><path d="M128.7 123.7a4.3 4.3 0 0 0-6 1.2 4.2 4.2 0 0 0 0 5l7.2-1a4.1 4.1 0 0 0-1.2-5.2z" fill="#ffe90a"/><path d="M128.7 123.7a4.3 4.3 0 0 0-6 1.2 4.2 4.2 0 0 0 0 5l7.2-1a4.1 4.1 0 0 0-1.2-5.2z" fill="#ffdd4b"/><path d="M130.1 94.7a4.3 4.3 0 0 0-5.9 1.2 4.1 4.1 0 0 0 1 5.8 4.3 4.3 0 0 0 5.8-1.2 4.1 4.1 0 0 0-.9-5.8z" fill="#ffe90a"/><path d="M130.1 94.7a4.3 4.3 0 0 0-5.9 1.2 4.1 4.1 0 0 0 1 5.8 4.3 4.3 0 0 0 5.8-1.2 4.1 4.1 0 0 0-.9-5.8z" fill="#ffdd4b"/><path d="M106.6 86a4.1 4.1 0 0 0-.9-5.8 4.3 4.3 0 0 0-5.9 1.2 4.1 4.1 0 0 0 1 5.9 4.3 4.3 0 0 0 5.8-1.2z" fill="#ffe90a"/><path d="M106.6 86a4.1 4.1 0 0 0-.9-5.8 4.3 4.3 0 0 0-5.9 1.2 4.1 4.1 0 0 0 1 5.9 4.3 4.3 0 0 0 5.8-1.2z" fill="#ffdd4b"/><path d="M142.7 92.5a3.2 3.2 0 0 0 3.3-2.8 2.8 2.8 0 0 0-2.6-3.1 3.1 3.1 0 0 0-3.3 2.7 2.8 2.8 0 0 0 2.6 3.2z" fill="#ffe90a"/><path d="M142.7 92.5a3.2 3.2 0 0 0 3.3-2.8 2.8 2.8 0 0 0-2.6-3.1 3.1 3.1 0 0 0-3.3 2.7 2.8 2.8 0 0 0 2.6 3.2z" fill="#ffdd4b"/><path d="M103.8 69.4a3.2 3.2 0 0 0 3.2-2.8 2.8 2.8 0 0 0-2.6-3.1 3.1 3.1 0 0 0-3.3 2.8 2.8 2.8 0 0 0 2.7 3z" fill="#ffe90a"/><path d="M103.8 69.4a3.2 3.2 0 0 0 3.2-2.8 2.8 2.8 0 0 0-2.6-3.1 3.1 3.1 0 0 0-3.3 2.8 2.8 2.8 0 0 0 2.7 3z" fill="#ffdd4b"/><path d="M60.8 133a3.1 3.1 0 0 0-3.3 2.9 2.8 2.8 0 0 0 .8 2.3l4.6-.6a3 3 0 0 0 .5-1.4 2.8 2.8 0 0 0-2.6-3.1z" fill="#ffe90a"/><path d="M60.8 133a3.1 3.1 0 0 0-3.3 2.9 2.8 2.8 0 0 0 .8 2.3l4.6-.6a3 3 0 0 0 .5-1.4 2.8 2.8 0 0 0-2.6-3.1z" fill="#ffdd4b"/><path d="M65.7 89.9a2.8 2.8 0 0 0-2.6-3.2 3.1 3.1 0 0 0-3.2 2.8 2.8 2.8 0 0 0 2.6 3.1 3.1 3.1 0 0 0 3.2-2.7z" fill="#ffe90a"/><path d="M65.7 89.9a2.8 2.8 0 0 0-2.6-3.2 3.1 3.1 0 0 0-3.2 2.8 2.8 2.8 0 0 0 2.6 3.1 3.1 3.1 0 0 0 3.2-2.7z" fill="#ffdd4b"/><path d="M139.3 116.9a4.2 4.2 0 0 0 4.3-3.7 3.7 3.7 0 0 0-3.4-4 4.2 4.2 0 0 0-4.3 3.6 3.6 3.6 0 0 0 3.4 4z" fill="#ffe90a"/><path d="M139.3 116.9a4.2 4.2 0 0 0 4.3-3.7 3.7 3.7 0 0 0-3.4-4 4.2 4.2 0 0 0-4.3 3.6 3.6 3.6 0 0 0 3.4 4z" fill="#ffdd4b"/><path d="M62.7 109.7a3.7 3.7 0 0 0-1.9 4.8 3.5 3.5 0 0 0 4.8 1.6 3.7 3.7 0 0 0 1.8-4.9 3.4 3.4 0 0 0-4.7-1.5z" fill="#ffe90a"/><path d="M62.7 109.7a3.7 3.7 0 0 0-1.9 4.8 3.5 3.5 0 0 0 4.8 1.6 3.7 3.7 0 0 0 1.8-4.9 3.4 3.4 0 0 0-4.7-1.5z" fill="#ffdd4b"/><path d="M123.7 83.3a3.7 3.7 0 0 0 1.8-4.8 3.5 3.5 0 0 0-4.7-1.6 3.7 3.7 0 0 0-1.8 4.8 3.5 3.5 0 0 0 4.7 1.6z" fill="#ffe90a"/><path d="M123.7 83.3a3.7 3.7 0 0 0 1.8-4.8 3.5 3.5 0 0 0-4.7-1.6 3.7 3.7 0 0 0-1.8 4.8 3.5 3.5 0 0 0 4.7 1.6z" fill="#ffdd4b"/><path d="M152.7 115.3a2.7 2.7 0 0 0 2.8-2.3 2.3 2.3 0 0 0-2.2-2.6 2.6 2.6 0 0 0-2.8 2.3 2.4 2.4 0 0 0 2.2 2.6z" fill="#ffe90a"/><path d="M152.7 115.3a2.7 2.7 0 0 0 2.8-2.3 2.3 2.3 0 0 0-2.2-2.6 2.6 2.6 0 0 0-2.8 2.3 2.4 2.4 0 0 0 2.2 2.6z" fill="#ffdd4b"/><path d="M51.2 110.6a2.6 2.6 0 0 0-2.8 2.3 2.4 2.4 0 0 0 2.2 2.6 2.7 2.7 0 0 0 2.8-2.3 2.4 2.4 0 0 0-2.2-2.6z" fill="#ffe90a"/><path d="M51.2 110.6a2.6 2.6 0 0 0-2.8 2.3 2.4 2.4 0 0 0 2.2 2.6 2.7 2.7 0 0 0 2.8-2.3 2.4 2.4 0 0 0-2.2-2.6z" fill="#ffdd4b"/><path d="M78.3 71.3a2.7 2.7 0 0 0 2.8-2.3 2.3 2.3 0 0 0-2.2-2.6 2.6 2.6 0 0 0-2.8 2.3 2.3 2.3 0 0 0 2.2 2.6z" fill="#ffe90a"/><path d="M78.3 71.3a2.7 2.7 0 0 0 2.8-2.3 2.3 2.3 0 0 0-2.2-2.6 2.6 2.6 0 0 0-2.8 2.3 2.3 2.3 0 0 0 2.2 2.6z" fill="#ffdd4b"/><path d="M129.4 71.2a2.7 2.7 0 0 0 2.8-2.4 2.3 2.3 0 0 0-2.2-2.6 2.6 2.6 0 0 0-2.8 2.3 2.3 2.3 0 0 0 2.2 2.7z" fill="#ffe90a"/><path d="M129.4 71.2a2.7 2.7 0 0 0 2.8-2.4 2.3 2.3 0 0 0-2.2-2.6 2.6 2.6 0 0 0-2.8 2.3 2.3 2.3 0 0 0 2.2 2.7z" fill="#ffdd4b"/></svg>