<svg viewBox="0 0 206.1 218" xmlns="http://www.w3.org/2000/svg"><path d="M19.8 111.5a117 117 0 0 1 28.6-82A85.8 85.8 0 0 1 109.6.1L89.9.7A85.8 85.8 0 0 0 28.7 30 117 117 0 0 0 .1 112c1.8 60 45 107.4 96.4 105.9l19.7-.6c-51.4 1.5-94.6-45.8-96.4-105.8z" fill="#f89b00"/><path d="M109.6 0C161-1.5 204.2 45.9 206 105.8s-38.4 110-89.8 111.5-94.6-45.8-96.4-105.8S58.2 1.6 109.6 0z" fill="#ffb700"/><path d="m130.2 65-.6-8.7h-19c-10.7 0-13.5 1-13.5 1l-.6 9.8a9 9 0 0 1 1.3 1.3l-1.3-1.3s-11.8 15.2-14 21.7c-2.2 0-1.3 1.5-1.3 1.5s.4 44 0 56.8a107.4 107.4 0 0 0 30.6 13.5l33.5-7.6V89s-8.7-17.5-15.2-24z" fill="#ec8d00"/><path d="m180.5 148.6-11.5.4-14.5-15.9a1.4 1.4 0 0 0-1-.5 1.3 1.3 0 0 0-1 .6 1.9 1.9 0 0 0 0 2.4l15.4 16.8 12.8-.4a1.6 1.6 0 0 0 1.4-1.7 1.6 1.6 0 0 0-1.6-1.7zm6.9-22.9-22.7.7-8.7-9.5a1.3 1.3 0 0 0-1-.5 1.4 1.4 0 0 0-1 .5 2 2 0 0 0 0 2.4l9.6 10.6 23.8-.7a1.7 1.7 0 0 0 0-3.5zm-22.6 42a1.3 1.3 0 0 0-1 .5c-12.9 15-30 23.6-48.4 24.2s-36-7-49.8-21.2a1.3 1.3 0 0 0-1-.4 1.4 1.4 0 0 0-1 .5 2 2 0 0 0 .1 2.5 69 69 0 0 0 51.8 22 69 69 0 0 0 50.4-25.2 2 2 0 0 0 0-2.4 1.4 1.4 0 0 0-1-.5zM75 135.5a1.4 1.4 0 0 0-1-.5 1.3 1.3 0 0 0-1 .6l-13.5 16.7-11.5.4a1.6 1.6 0 0 0-1.4 1.7 1.6 1.6 0 0 0 1.5 1.7l12.7-.4L75 138a2 2 0 0 0 0-2.4zm-2.4-13.7a2 2 0 0 0 0-2.4 1.3 1.3 0 0 0-1.1-.5 1.4 1.4 0 0 0-1 .5l-8.2 10.1-22.6.7a1.7 1.7 0 0 0 .1 3.4l23.8-.7zM71 110a1.6 1.6 0 0 0-1.5-1.7l-36.7 1.2a1.7 1.7 0 0 0 0 3.4l36.8-1.2A1.6 1.6 0 0 0 71 110zM45.3 68.7l11.5-.3 14.5 15.9a1.4 1.4 0 0 0 1 .4 1.3 1.3 0 0 0 1-.5 2 2 0 0 0 0-2.4L57.8 64.9l-12.7.4a1.6 1.6 0 0 0-1.4 1.8 1.6 1.6 0 0 0 1.5 1.6zm147.5 35.8-36.7 1.2a1.7 1.7 0 0 0 .1 3.4L193 108a1.7 1.7 0 0 0-.1-3.4zm13.2 1.3c-.9-30-12.1-56.8-29.6-76S135.3-.7 109.6 0C58.2 1.6 18 51.5 19.8 111.5c.9 30 12 56.7 29.4 75.8s41.2 30.8 67 30c51.4-1.5 91.6-51.5 89.8-111.5zm-16.1 44-1.3-.7A104.7 104.7 0 0 1 183 161l1.3.9a99.7 99.7 0 0 1-7 11l-1-1.2a91.7 91.7 0 0 1-8 9.6l1 1.2a86.5 86.5 0 0 1-9.2 8.3l-.8-1.4a80.2 80.2 0 0 1-10 6.6l.7 1.5a76.3 76.3 0 0 1-10.8 5l-.5-1.6a72.5 72.5 0 0 1-11.1 3.2l.3 1.6a74 74 0 0 1-11.6 1.4l-.5-1.7a73.9 73.9 0 0 1-11-.5l-.2 1.7a72.9 72.9 0 0 1-11.5-2.4l.4-1.6a75.4 75.4 0 0 1-11-4.1L82 200a83.5 83.5 0 0 1-10.6-6l.8-1.5a85.5 85.5 0 0 1-9.6-7.4l-1 1.3a91.8 91.8 0 0 1-8.7-9l1-1.3a95 95 0 0 1-7.4-10.1l-1.2 1a102.8 102.8 0 0 1-6.3-11.6l1.3-.8a105.8 105.8 0 0 1-4.9-12.1l-1.3.5a113 113 0 0 1-3.5-13l1.5-.4a115.3 115.3 0 0 1-1.9-13.2l-1.4.1-.3-5.2H30a116.5 116.5 0 0 1 .3-13.4l-1.4-.2a111.3 111.3 0 0 1 2-13.4l1.4.4A111.3 111.3 0 0 1 35.8 72l-1.3-.6a103.8 103.8 0 0 1 5-12.2l1.3.8a97.6 97.6 0 0 1 6.4-11L46 48a95.4 95.4 0 0 1 7.8-10.2l1 1.3a91 91 0 0 1 8.7-8.6l-.8-1.5a83.2 83.2 0 0 1 9.8-7.2l.7 1.5a79.8 79.8 0 0 1 10.4-5.5l-.5-1.6a73 73 0 0 1 11.2-3.7l.3 1.6a74.8 74.8 0 0 1 11.4-1.9l-.1-1.7a60.4 60.4 0 0 1 4-.2 74.7 74.7 0 0 1 7.6.2v1.7a71.4 71.4 0 0 1 11.4 1.7l.2-1.6a76.5 76.5 0 0 1 11.3 3.7l-.5 1.6a76.5 76.5 0 0 1 10.6 5.3l.7-1.5a84 84 0 0 1 10 7.1l-.9 1.4a86.3 86.3 0 0 1 9 8.5l1-1.2a95.7 95.7 0 0 1 8 10l-1.1 1a101 101 0 0 1 6.6 11l1.2-.8a103.2 103.2 0 0 1 5.4 12.1l-1.3.7a103.7 103.7 0 0 1 3.8 12.6l1.4-.4a111.9 111.9 0 0 1 2.3 13.4l-1.4.2c.3 3 .5 6.1.6 9.2v4.1h1.5a112 112 0 0 1-1 13.6l-1.3-.3a111.7 111.7 0 0 1-2.5 13.1l1.4.5a106.1 106.1 0 0 1-4 12.7zm-36.6-54.2a1.9 1.9 0 0 0 0 2.4 1.3 1.3 0 0 0 2.1 0l8.2-10.1 22.6-.7a1.6 1.6 0 0 0 1.4-1.8 1.6 1.6 0 0 0-1.5-1.6l-23.8.7zM151 81.8a1.4 1.4 0 0 0 1 .5 1.3 1.3 0 0 0 1-.5L166.4 65l11.6-.3a1.6 1.6 0 0 0 1.4-1.8 1.6 1.6 0 0 0-1.5-1.6l-12.7.4-14.4 17.7a2 2 0 0 0 0 2.4zM38.4 91.6 61 91l8.7 9.6a1.3 1.3 0 0 0 1 .4 1.5 1.5 0 0 0 1-.5 1.9 1.9 0 0 0 0-2.4L62 87.6l-23.8.7a1.7 1.7 0 0 0 .1 3.4zm22.6-42a1.4 1.4 0 0 0 1-.4c12.8-15 30-23.6 48.4-24.2s36 7 49.7 21.2a1.4 1.4 0 0 0 1.1.4 1.3 1.3 0 0 0 1-.5 1.9 1.9 0 0 0-.1-2.5 69 69 0 0 0-51.8-22 69 69 0 0 0-50.4 25.2 1.9 1.9 0 0 0 0 2.4 1.4 1.4 0 0 0 1.1.5z" fill="#ffcf00"/><path d="m100.8 67 .7-9.8s2.7-.9 13.5-.9h19l.5 8.7-15.2 4.3z" fill="#ffe90a"/><path d="M86.9 88.8a122 122 0 0 1 14-21.7l15.3 16v14.3S84.5 96 87 88.8z" fill="#f89b00"/><path d="M149.7 89v64l-33.5 7.6v-56.2L135 92.7z" fill="#ffe90a"/><path d="M116.2 104.4v56.1s-18.9-4.8-30.6-13.4c.1-4.8.2-14 .1-23.7z" fill="#ffcf00"/><path d="M149.7 89 135 92.7l-18.8 4.7s-10.1-26-15.4-30.3c4.6.1 29.3-4.3 33.6-2.1a50.1 50.1 0 0 1 6.1 8l.3.5c1.5 2.3 3 4.7 4.2 7l4.7 8.5z" fill="#ffe90a"/><path d="M90.3 133v10.3l8 3.8v-11.5z" fill="#ec8d00"/><path d="m119.5 118.9.7-9.5 2.9-.7 1.5 1.5 1-1.5 2.6-.7 1.4 9.4-2.9.8-.7-1.5v1.5l-2.7.7-1-.7v.7zm11.1-10.9h2.4l.3 8.7-2.2.7zm4.1 0 2.9-.7v5.8h2v2.9l-4.2.7zm5.8-1.4h2.2v2.1l2-2.2 1.4 1.5-1.2 2.9 2.1 2.9-2.1 1.5-2-2.6-.2 2.6-1.5.7z" fill="#f89b00"/><path d="M31.5 111.2a1.6 1.6 0 0 0 1.5 1.6l36.7-1.1A1.6 1.6 0 0 0 71 110a1.6 1.6 0 0 0-1.5-1.7l-36.7 1.2a1.6 1.6 0 0 0-1.4 1.7zm129.7-64.6a1.3 1.3 0 0 0 1-.5 1.9 1.9 0 0 0-.1-2.4c-14.4-14.8-32.8-22.7-51.8-22s-37 9.4-50.4 25a1.9 1.9 0 0 0 0 2.5 1.3 1.3 0 0 0 1 .5 1.4 1.4 0 0 0 1-.5C75 34.2 92 25.6 110.5 25s36 7 49.7 21.2a1.4 1.4 0 0 0 1.1.4zm-116 22.1 11.6-.3 14.5 15.9a1.4 1.4 0 0 0 1 .4 1.3 1.3 0 0 0 1-.5 2 2 0 0 0 0-2.4L57.8 64.9l-12.7.4a1.6 1.6 0 0 0-1.4 1.8 1.6 1.6 0 0 0 1.5 1.6zM37 90a1.6 1.6 0 0 0 1.5 1.7L61 91l8.7 9.6a1.3 1.3 0 0 0 1 .5 1.5 1.5 0 0 0 1-.6 1.9 1.9 0 0 0 0-2.4L62 87.6l-23.8.7A1.6 1.6 0 0 0 37 90zm34.5 29a1.4 1.4 0 0 0-1 .5l-8.2 10-22.6.7a1.7 1.7 0 0 0 .1 3.4l23.8-.7 9-11a2 2 0 0 0 0-2.5 1.4 1.4 0 0 0-1.1-.5zm105-89a86.7 86.7 0 0 0-66.8-30C58.2 1.6 18 51.5 19.8 111.5A123.4 123.4 0 0 0 30.2 158l9-5.6a108 108 0 0 1-3.8-9.9l-1.4.6a113 113 0 0 1-3.3-13l1.4-.3a115.3 115.3 0 0 1-1.8-13.3l-1.5.1-.3-5.2H30a116.5 116.5 0 0 1 .4-13.4l-1.5-.2a111.3 111.3 0 0 1 2-13.4l1.4.4A111.3 111.3 0 0 1 35.8 72l-1.3-.7a103.8 103.8 0 0 1 5-12.2l1.3.8a97.6 97.6 0 0 1 6.4-11l-1.1-1a95.4 95.4 0 0 1 7.7-10.2l1 1.3a91 91 0 0 1 8.7-8.7l-.8-1.3a83.2 83.2 0 0 1 9.8-7.2l.7 1.5a79.8 79.8 0 0 1 10.4-5.5l-.5-1.6a73 73 0 0 1 11.2-3.7l.3 1.6a74.8 74.8 0 0 1 11.4-2l-.1-1.6a60.4 60.4 0 0 1 4-.2 74.7 74.7 0 0 1 7.6.2V12a71.4 71.4 0 0 1 11.4 1.8l.2-1.6a76.5 76.5 0 0 1 11.3 3.6l-.5 1.6a76.5 76.5 0 0 1 10.6 5.3l.7-1.4a84 84 0 0 1 10 7l-.9 1.4a86.3 86.3 0 0 1 9 8.5l1-1.2a95.7 95.7 0 0 1 8 10l-1.1 1a101 101 0 0 1 6.6 11l1.2-.8c.5.8.8 1.7 1.2 2.5L194 56a109.6 109.6 0 0 0-17.6-26.1zm1.5 31.3-12.8.4-14.3 17.7a1.9 1.9 0 0 0 0 2.5 1.3 1.3 0 0 0 1 .4l1.5-1 13-16.3 11.6-.3a1.7 1.7 0 0 0-.1-3.4z" fill="#ffdd4b"/><path d="M134.4 65a2 2 0 0 0-.4-.2 4.4 4.4 0 0 0-.7-.1 8.2 8.2 0 0 0-.8-.2 16.7 16.7 0 0 0-1.8 0h-3.5c-9 .3-23 2.6-26.4 2.5a.8.8 0 0 1 .2.2h-.1a.4.4 0 0 0-.1-.1l.6-9.9s2.8-.9 13.6-.9h19z" fill="#fff170"/><path d="M116.2 97.4s-25-6.5-29.4-8.6c2-6 12-19.3 13.8-21.4v-.2a.6.6 0 0 0 .2-.1.4.4 0 0 1 .1.1l1.2 1.2a8 8 0 0 0-1.2-1.2h.1c4.7 4 12.8 24.1 14.8 29.1 0 .2 0 .4.2.5l.2.6z" fill="#fbbb27"/><path d="M116.2 97.4v7l-30.4 19-.2-33-.1-.2a1 1 0 0 1 0-1h.2a1.9 1.9 0 0 1 1.1-.4c4.4 2.2 29.4 8.6 29.4 8.6z" fill="#ffde64"/><path d="M85.5 90.1a.8.8 0 0 1 0-.9 1 1 0 0 0 0 1zm.1.2.1 33.1-.1-33V90z" fill="#ffdd4b"/><path d="m135 92.7-18.8 11.7v-7zm12.5-7.8L135 92.7l-18.8 4.7-.2-.6a3.2 3.2 0 0 1-.2-.5c-2-5-10.5-24.8-15.2-29a1.4 1.4 0 0 0-.2-.1h.6c4.2-.1 17.5-2.3 26.2-2.8h3.5a14.6 14.6 0 0 1 1.8.2 8.2 8.2 0 0 1 .9 0l.6.2a2.7 2.7 0 0 1 .5.2l.6.7.6.7.6.7 2.4 3.2.6.9.7.9.6.9.3.5 2.5 4 1.7 3 .5.8a58.7 58.7 0 0 0 1.3 2.5 10.6 10.6 0 0 0 .6 1.1z" fill="#fff170"/></svg>