<svg viewBox="0 0 496 419" xmlns="http://www.w3.org/2000/svg"><g fill="none" fill-rule="evenodd"><g transform="translate(22.6 102)"><path d="M57.7 125c16 10.3 31.8 2 41.1-18.3-16.3-6.4-38.4-2.2-41.1 18.4" fill="#15b43c"/><ellipse cx="57.3" cy="192.4" fill="#5c6070" fill-opacity=".1" rx="24.9" ry="8"/><path d="M56.3 73.7h2.5V193h-2.5z" fill="#15b43c"/><path d="M58.3 156c-24.2 11.6-44.9-2.7-54.4-32.7 24-6 54.1 3.5 54.4 32.8" fill="#42d466"/><path d="M11 128.7c7.6 5.1 18 11 27.3 16.3 8 4.5 15.4 8.7 19.7 11.6.2.2.6 0 .8-.2.2-.3.1-.6-.2-.8-4.2-3-11.7-7.2-19.7-11.7a478.7 478.7 0 0 1-28.2-16.8.6.6 0 0 0-.7 1l1 .6" fill="#15b43c"/><path d="M29.6 38.2c-.3-11 3.5-21 9.8-28A28 28 0 0 1 60.2 0l-6.7.2a29 29 0 0 0-20.8 10.1c-6.3 7-10.1 17-9.8 28 .6 20.6 15.3 36.8 32.8 36.3l6.8-.2c-17.6.5-32.3-15.7-32.9-36.2" fill="#ed9f00"/><path d="M60.2 0C77.7-.5 92.4 15.7 93 36.2c.7 20.5-13 37.6-30.5 38.2-17.6.5-32.3-15.7-32.9-36.2C29 17.6 42.7.5 60.2 0" fill="#fcba06"/><path d="m67.2 22.2-.2-3h-6.4c-3.7 0-4.6.4-4.6.4l-.3 3.3.5.5-.5-.5s-4 5.3-4.7 7.5c-.7 0-.4.5-.4.5v19.4c4 3 10.4 4.6 10.4 4.6l11.4-2.6V30.5s-3-6-5.2-8.3" fill="#e19100"/><path d="M43.6 17c.2 0 .3 0 .4-.2 4.4-5.1 10.2-8 16.5-8.2 6.2-.2 12.2 2.3 17 7.2l.3.2.3-.2c.2-.3.2-.6 0-.9a24 24 0 0 0-17.7-7.5c-6.5.2-12.6 3.3-17.1 8.6-.2.2-.2.6 0 .8l.3.2zM36 31.4l7.7-.3 3 3.3.3.2.3-.2c.2-.3.2-.6 0-.8l-3.2-3.7-8.2.3c-.2 0-.5.3-.4.6 0 .3.2.6.5.6zM74.3 28l.3.2.4-.2 4.6-5.7 3.9-.2c.3 0 .5-.2.5-.6 0-.3-.3-.5-.5-.5H79l-4.8 6a1 1 0 0 0 0 1zm.8 4.7c-.2.2-.2.6 0 .8l.4.2c.1 0 .2 0 .3-.2l2.8-3.4 7.7-.3c.3 0 .5-.3.5-.6s-.3-.6-.5-.6L78 29l-3 3.8zm12.5 18.6L87 51c-.5 1.4-1.1 2.8-1.8 4l.4.4c-.7 1.3-1.5 2.5-2.4 3.7l-.3-.4C82 60 81.2 61 80.2 62l.4.4c-1 1-2 2-3.2 2.9l-.2-.5-3.4 2.3.2.5-3.7 1.7-.1-.6c-1.3.5-2.5.9-3.8 1.1v.6l-3.9.5-.2-.6c-1.2 0-2.5 0-3.7-.2v.6l-4-.8.1-.6c-1.2-.4-2.5-.8-3.7-1.4l-.2.5c-1.2-.6-2.4-1.2-3.6-2l.3-.5a21 21 0 0 1-3.3-2.6l-.3.5-3-3.1.4-.4a33 33 0 0 1-2.6-3.5l-.4.3c-.8-1.2-1.5-2.5-2.1-4l.4-.2-1.7-4.2-.4.2c-.5-1.4-.9-2.9-1.2-4.4l.5-.1a34 34 0 0 1-.6-4.6h-.5l-.1-1.7h.5l.1-4.6h-.5l.7-4.7.5.2c.3-1.5.7-3 1.2-4.4l-.5-.2 1.8-4.2.4.3a34 34 0 0 1 2.2-3.8l-.4-.3c.8-1.3 1.7-2.4 2.6-3.5l.4.4 3-3-.4-.4c1.1-.9 2.2-1.7 3.4-2.4l.2.5c1.2-.8 2.4-1.4 3.6-2l-.2-.4A17 17 0 0 1 55 4.3l.1.5 3.9-.6v-.6a21.3 21.3 0 0 1 4 0l-.1.5c1.3.1 2.6.3 3.9.7v-.6c1.4.3 2.7.7 3.9 1.2l-.2.6a26 26 0 0 1 3.6 1.8l.3-.5c1.2.7 2.3 1.5 3.4 2.4l-.3.5 3 3 .4-.5c1 1 1.9 2.2 2.7 3.4l-.4.4 2.3 3.7.4-.2a30 30 0 0 1 1.8 4.1l-.4.2a36 36 0 0 1 1.3 4.4l.4-.2c.4 1.5.7 3 .8 4.6h-.5a38.6 38.6 0 0 1 .3 4.6h.5a36 36 0 0 1-.3 4.7l-.5-.1-.8 4.5.4.1a32 32 0 0 1-1.3 4.4zm5.4-15a40.4 40.4 0 0 0-10-26C77 3.6 69-.4 60.2 0 42.7.5 29 17.6 29.6 38.2a40.5 40.5 0 0 0 10 25.9c6 6.6 14 10.5 22.9 10.3C80 73.8 93.7 56.7 93 36.2zm-4.5-.5-12.4.4c-.3 0-.5.2-.5.6 0 .3.2.5.5.5l12.5-.4c.3 0 .5-.2.5-.6 0-.3-.3-.5-.6-.5zM38.3 23.5l4-.1 4.9 5.4.3.2c.1 0 .3 0 .4-.2.2-.2.1-.6 0-.8l-5.3-5.8-4.3.1c-.3 0-.5.3-.5.6 0 .4.2.6.5.6zm8.8 14.1c0-.3-.2-.6-.5-.5l-12.5.3c-.3 0-.5.3-.5.6 0 .4.2.6.5.6l12.5-.4c.3 0 .5-.3.5-.6zm.5 4c.2-.2.1-.5 0-.7a.5.5 0 0 0-.4-.2c-.1 0-.3 0-.4.2l-2.7 3.4-7.7.3c-.3 0-.5.2-.5.6 0 .3.2.5.5.5l8.1-.2 3-3.8zm.8 4.8a.5.5 0 0 0-.4-.2s-.2 0-.3.2L43 52l-4 .1c-.2 0-.4.3-.4.6 0 .4.2.6.5.6l4.3-.1 5-6.1c.1-.2.1-.6-.1-.8zm30.6 11-.3.1a22.5 22.5 0 0 1-16.5 8.3c-6.2.2-12.3-2.4-17-7.2a.4.4 0 0 0-.3-.2c-.1 0-.3 0-.4.2-.1.2-.1.6 0 .8 5 5.1 11.2 7.8 17.7 7.6 6.5-.2 12.6-3.3 17.2-8.6.2-.3.2-.6 0-.9a.5.5 0 0 0-.4-.1zM86.7 43l-7.7.3-3-3.3a.5.5 0 0 0-.3-.2c-.2 0-.3 0-.4.2-.2.2-.2.6 0 .8l3.3 3.6 8.1-.2c.3 0 .5-.3.5-.6s-.2-.6-.5-.6zm-2.3 8h-4l-4.9-5.4a.5.5 0 0 0-.4-.1s-.2 0-.3.2c-.2.2-.2.6 0 .8l5.3 5.8 4.3-.2c.3 0 .5-.3.5-.6s-.3-.5-.5-.5z" fill="#ffd03e"/><path d="m57.2 23 .2-3.4s1-.3 4.7-.3h6.4l.2 3-5.2 1.4-6.3-.8z" fill="#ffe950"/><path d="M52.5 30.4c.7-2.2 4.7-7.5 4.7-7.5l5.3 5.5v5s-10.9-.5-10-3" fill="#ed9f00"/><path d="m62.5 55 11.4-2.7V30.5l-11.4 2.8z" fill="#ffe950"/><path d="M62.5 55S56 53.2 52 50.2C52.2 46 52 31 52 31s-.3-.5.5-.5c1.4.7 10 3 10 3V55z" fill="#ffd03e"/><path d="M62.5 33.3S59 24.4 57.2 23c1.6.1 10-1.4 11.5-.7a47 47 0 0 1 5.2 8.3l-11.4 2.8z" fill="#ffe950"/><path d="M53.6 45.5V49l2.8 1.3v-3.9z" fill="#e19100"/><path d="m63.6 40.7.2-3.3 1-.2.5.5.4-.5.8-.2.5 3.2-1 .2-.2-.5v.5l-1 .3-.2-.3v.3zm3.8-3.7h.8v3l-.7.2zm1.4 0 1-.3v2h.6v1l-1.4.2zm1.9-.5h.8v.7l.6-.7.6.5-.5 1 .8 1-.8.4-.7-.8v.8l-.5.3z" fill="#ed9f00"/><g fill="#fbee90"><path d="M83.5 21H79l-4.8 6a1 1 0 0 0 0 1h.3l.5-.3 4.5-5.5 3.9-.2c.3 0 .5-.2.5-.6 0-.3-.3-.5-.5-.5M83 10.2C77 3.7 69-.3 60.2 0 42.7.5 29 17.6 29.6 38.2A43 43 0 0 0 33.2 54l3-1.9-1.3-3.4-.4.2c-.5-1.4-.9-2.9-1.2-4.4l.5-.1a34 34 0 0 1-.6-4.6h-.5l-.1-1.7h.5l.1-4.6h-.5l.7-4.7.5.2c.3-1.5.7-3 1.2-4.4l-.5-.2 1.8-4.2.4.3c.6-1.3 1.4-2.6 2.2-3.8l-.4-.3c.8-1.3 1.7-2.4 2.6-3.5l.4.4 3-3-.4-.4c1.1-.9 2.2-1.7 3.4-2.4l.2.5c1.2-.8 2.4-1.4 3.6-2l-.2-.4A17 17 0 0 1 55 4.3l.1.5 3.9-.6v-.6a21.3 21.3 0 0 1 4 0l-.1.6c1.3 0 2.6.2 3.9.6v-.6c1.4.3 2.7.7 3.9 1.2l-.2.6a26 26 0 0 1 3.6 1.8l.3-.5c1.2.7 2.3 1.5 3.4 2.4l-.3.5 3 3 .4-.5c1 1 1.9 2.2 2.7 3.4l-.4.4 2.3 3.7.4-.2.4.8 2.6-1.6a37.5 37.5 0 0 0-6-9M47.3 40.7c-.1 0-.3 0-.4.2l-2.7 3.4-7.7.3c-.3 0-.5.2-.5.6 0 .3.2.5.5.5l8.1-.2 3-3.8c.3-.3.2-.6 0-.8a.5.5 0 0 0-.3-.2m-11.7-10c0 .4.2.7.5.7l7.7-.3 3 3.3.3.2.4-.2c.1-.3.1-.6 0-.8L44 29.9l-8.2.3c-.2 0-.5.3-.4.6m2.8-7.3 4-.1 4.9 5.4.3.2c.1 0 .3 0 .4-.2.2-.2.1-.6 0-.8l-5.3-5.8-4.3.1c-.3 0-.5.3-.5.6 0 .4.2.6.5.6M77.8 16l.3-.2c.2-.3.2-.6 0-.9a24 24 0 0 0-17.7-7.5c-6.5.2-12.6 3.3-17.1 8.6-.2.2-.2.6 0 .8l.3.2c.2 0 .3 0 .4-.2 4.4-5.1 10.2-8 16.5-8.2 6.2-.2 12.2 2.3 17 7.2l.3.2M33.6 38c0 .4.2.6.5.6l12.5-.4c.3 0 .5-.3.5-.6s-.2-.6-.5-.5l-12.5.3c-.3 0-.5.3-.5.6"/><path d="m73.1 29-21 13.2V31s-.4-.5.4-.5c.7-2.2 4.7-7.5 4.7-7.5l.4.5-.4-.5.2-3.3s1-.3 4.6-.3h6.5l.2 3 .2.2.2.2a27.6 27.6 0 0 1 4 6.4"/></g></g><g transform="translate(133.2 54.3)"><path d="M57.7 125c16 10.3 31.8 2 41.1-18.3-16.3-6.4-38.4-2.2-41.1 18.4" fill="#15b43c"/><ellipse cx="57.3" cy="192.4" fill="#5c6070" fill-opacity=".1" rx="24.9" ry="8"/><path d="M56.3 73.7h2.5V193h-2.5z" fill="#15b43c"/><path d="M58.3 156c-24.2 11.6-44.9-2.7-54.4-32.7 24-6 54.1 3.5 54.4 32.8" fill="#42d466"/><path d="M11 128.7c7.6 5.1 18 11 27.3 16.3 8 4.5 15.4 8.7 19.7 11.6.2.2.6 0 .8-.2.2-.3.1-.6-.2-.8-4.2-3-11.7-7.2-19.7-11.7a478.7 478.7 0 0 1-28.2-16.8.6.6 0 0 0-.7 1l1 .6" fill="#15b43c"/><path d="M29.6 38.2c-.3-11 3.5-21 9.8-28A28 28 0 0 1 60.2 0l-6.7.2a29 29 0 0 0-20.8 10.1c-6.3 7-10.1 17-9.8 28 .6 20.6 15.3 36.8 32.8 36.3l6.8-.2c-17.6.5-32.3-15.7-32.9-36.2" fill="#ed9f00"/><path d="M60.2 0C77.7-.5 92.4 15.7 93 36.2c.7 20.5-13 37.6-30.5 38.2-17.6.5-32.3-15.7-32.9-36.2C29 17.6 42.7.5 60.2 0" fill="#fcba06"/><path d="m67.2 22.2-.2-3h-6.4c-3.7 0-4.6.4-4.6.4l-.3 3.3.5.5-.5-.5s-4 5.3-4.7 7.5c-.7 0-.4.5-.4.5v19.4c4 3 10.4 4.6 10.4 4.6l11.4-2.6V30.5s-3-6-5.2-8.3" fill="#e19100"/><path d="M43.6 17c.2 0 .3 0 .4-.2 4.4-5.1 10.2-8 16.5-8.2 6.2-.2 12.2 2.3 17 7.2l.3.2.3-.2c.2-.3.2-.6 0-.9a24 24 0 0 0-17.7-7.5c-6.5.2-12.6 3.3-17.1 8.6-.2.2-.2.6 0 .8l.3.2zM36 31.4l7.7-.3 3 3.3.3.2.3-.2c.2-.3.2-.6 0-.8l-3.2-3.7-8.2.3c-.2 0-.5.3-.4.6 0 .3.2.6.5.6zM74.3 28l.3.2.4-.2 4.6-5.7 3.9-.2c.3 0 .5-.2.5-.6 0-.3-.3-.5-.5-.5H79l-4.8 6a1 1 0 0 0 0 1zm.8 4.7c-.2.2-.2.6 0 .8l.4.2c.1 0 .2 0 .3-.2l2.8-3.4 7.7-.3c.3 0 .5-.3.5-.6s-.3-.6-.5-.6L78 29l-3 3.8zm12.5 18.6L87 51c-.5 1.4-1.1 2.8-1.8 4l.4.4c-.7 1.3-1.5 2.5-2.4 3.7l-.3-.4C82 60 81.2 61 80.2 62l.4.4c-1 1-2 2-3.2 2.9l-.2-.5-3.4 2.3.2.5-3.7 1.7-.1-.6c-1.3.5-2.5.9-3.8 1.1v.6l-3.9.5-.2-.6c-1.2 0-2.5 0-3.7-.2v.6l-4-.8.1-.6c-1.2-.4-2.5-.8-3.7-1.4l-.2.5c-1.2-.6-2.4-1.2-3.6-2l.3-.5a21 21 0 0 1-3.3-2.6l-.3.5-3-3.1.4-.4a33 33 0 0 1-2.6-3.5l-.4.3c-.8-1.2-1.5-2.5-2.1-4l.4-.2-1.7-4.2-.4.2c-.5-1.4-.9-2.9-1.2-4.4l.5-.1a34 34 0 0 1-.6-4.6h-.5l-.1-1.7h.5l.1-4.6h-.5l.7-4.7.5.2c.3-1.5.7-3 1.2-4.4l-.5-.2 1.8-4.2.4.3a34 34 0 0 1 2.2-3.8l-.4-.3c.8-1.3 1.7-2.4 2.6-3.5l.4.4 3-3-.4-.4c1.1-.9 2.2-1.7 3.4-2.4l.2.5c1.2-.8 2.4-1.4 3.6-2l-.2-.4A17 17 0 0 1 55 4.3l.1.5 3.9-.6v-.6a21.3 21.3 0 0 1 4 0l-.1.5c1.3.1 2.6.3 3.9.7v-.6c1.4.3 2.7.7 3.9 1.2l-.2.6a26 26 0 0 1 3.6 1.8l.3-.5c1.2.7 2.3 1.5 3.4 2.4l-.3.5 3 3 .4-.5c1 1 1.9 2.2 2.7 3.4l-.4.4 2.3 3.7.4-.2a30 30 0 0 1 1.8 4.1l-.4.2a36 36 0 0 1 1.3 4.4l.4-.2c.4 1.5.7 3 .8 4.6h-.5a38.6 38.6 0 0 1 .3 4.6h.5a36 36 0 0 1-.3 4.7l-.5-.1-.8 4.5.4.1a32 32 0 0 1-1.3 4.4zm5.4-15a40.4 40.4 0 0 0-10-26C77 3.6 69-.4 60.2 0 42.7.5 29 17.6 29.6 38.2a40.5 40.5 0 0 0 10 25.9c6 6.6 14 10.5 22.9 10.3C80 73.8 93.7 56.7 93 36.2zm-4.5-.5-12.4.4c-.3 0-.5.2-.5.6 0 .3.2.5.5.5l12.5-.4c.3 0 .5-.2.5-.6 0-.3-.3-.5-.6-.5zM38.3 23.5l4-.1 4.9 5.4.3.2c.1 0 .3 0 .4-.2.2-.2.1-.6 0-.8l-5.3-5.8-4.3.1c-.3 0-.5.3-.5.6 0 .4.2.6.5.6zm8.8 14.1c0-.3-.2-.6-.5-.5l-12.5.3c-.3 0-.5.3-.5.6 0 .4.2.6.5.6l12.5-.4c.3 0 .5-.3.5-.6zm.5 4c.2-.2.1-.5 0-.7a.5.5 0 0 0-.4-.2c-.1 0-.3 0-.4.2l-2.7 3.4-7.7.3c-.3 0-.5.2-.5.6 0 .3.2.5.5.5l8.1-.2 3-3.8zm.8 4.8a.5.5 0 0 0-.4-.2s-.2 0-.3.2L43 52l-4 .1c-.2 0-.4.3-.4.6 0 .4.2.6.5.6l4.3-.1 5-6.1c.1-.2.1-.6-.1-.8zm30.6 11-.3.1a22.5 22.5 0 0 1-16.5 8.3c-6.2.2-12.3-2.4-17-7.2a.4.4 0 0 0-.3-.2c-.1 0-.3 0-.4.2-.1.2-.1.6 0 .8 5 5.1 11.2 7.8 17.7 7.6 6.5-.2 12.6-3.3 17.2-8.6.2-.3.2-.6 0-.9a.5.5 0 0 0-.4-.1zM86.7 43l-7.7.3-3-3.3a.5.5 0 0 0-.3-.2c-.2 0-.3 0-.4.2-.2.2-.2.6 0 .8l3.3 3.6 8.1-.2c.3 0 .5-.3.5-.6s-.2-.6-.5-.6zm-2.3 8h-4l-4.9-5.4a.5.5 0 0 0-.4-.1s-.2 0-.3.2c-.2.2-.2.6 0 .8l5.3 5.8 4.3-.2c.3 0 .5-.3.5-.6s-.3-.5-.5-.5z" fill="#ffd03e"/><path d="m57.2 23 .2-3.4s1-.3 4.7-.3h6.4l.2 3-5.2 1.4-6.3-.8z" fill="#ffe950"/><path d="M52.5 30.4c.7-2.2 4.7-7.5 4.7-7.5l5.3 5.5v5s-10.9-.5-10-3" fill="#ed9f00"/><path d="m62.5 55 11.4-2.7V30.5l-11.4 2.8z" fill="#ffe950"/><path d="M62.5 55S56 53.2 52 50.2C52.2 46 52 31 52 31s-.3-.5.5-.5c1.4.7 10 3 10 3V55z" fill="#ffd03e"/><path d="M62.5 33.3S59 24.4 57.2 23c1.6.1 10-1.4 11.5-.7a47 47 0 0 1 5.2 8.3l-11.4 2.8z" fill="#ffe950"/><path d="M53.6 45.5V49l2.8 1.3v-3.9z" fill="#e19100"/><path d="m63.6 40.7.2-3.3 1-.2.5.5.4-.5.8-.2.5 3.2-1 .2-.2-.5v.5l-1 .3-.2-.3v.3zm3.8-3.7h.8v3l-.7.2zm1.4 0 1-.3v2h.6v1l-1.4.2zm1.9-.5h.8v.7l.6-.7.6.5-.5 1 .8 1-.8.4-.7-.8v.8l-.5.3z" fill="#ed9f00"/><g fill="#fbee90"><path d="M83.5 21H79l-4.8 6a1 1 0 0 0 0 1h.3l.5-.3 4.5-5.5 3.9-.2c.3 0 .5-.2.5-.6 0-.3-.3-.5-.5-.5M83 10.2C77 3.7 69-.3 60.2 0 42.7.5 29 17.6 29.6 38.2A43 43 0 0 0 33.2 54l3-1.9-1.3-3.4-.4.2c-.5-1.4-.9-2.9-1.2-4.4l.5-.1a34 34 0 0 1-.6-4.6h-.5l-.1-1.7h.5l.1-4.6h-.5l.7-4.7.5.2c.3-1.5.7-3 1.2-4.4l-.5-.2 1.8-4.2.4.3c.6-1.3 1.4-2.6 2.2-3.8l-.4-.3c.8-1.3 1.7-2.4 2.6-3.5l.4.4 3-3-.4-.4c1.1-.9 2.2-1.7 3.4-2.4l.2.5c1.2-.8 2.4-1.4 3.6-2l-.2-.4A17 17 0 0 1 55 4.3l.1.5 3.9-.6v-.6a21.3 21.3 0 0 1 4 0l-.1.6c1.3 0 2.6.2 3.9.6v-.6c1.4.3 2.7.7 3.9 1.2l-.2.6a26 26 0 0 1 3.6 1.8l.3-.5c1.2.7 2.3 1.5 3.4 2.4l-.3.5 3 3 .4-.5c1 1 1.9 2.2 2.7 3.4l-.4.4 2.3 3.7.4-.2.4.8 2.6-1.6a37.5 37.5 0 0 0-6-9M47.3 40.7c-.1 0-.3 0-.4.2l-2.7 3.4-7.7.3c-.3 0-.5.2-.5.6 0 .3.2.5.5.5l8.1-.2 3-3.8c.3-.3.2-.6 0-.8a.5.5 0 0 0-.3-.2m-11.7-10c0 .4.2.7.5.7l7.7-.3 3 3.3.3.2.4-.2c.1-.3.1-.6 0-.8L44 29.9l-8.2.3c-.2 0-.5.3-.4.6m2.8-7.3 4-.1 4.9 5.4.3.2c.1 0 .3 0 .4-.2.2-.2.1-.6 0-.8l-5.3-5.8-4.3.1c-.3 0-.5.3-.5.6 0 .4.2.6.5.6M77.8 16l.3-.2c.2-.3.2-.6 0-.9a24 24 0 0 0-17.7-7.5c-6.5.2-12.6 3.3-17.1 8.6-.2.2-.2.6 0 .8l.3.2c.2 0 .3 0 .4-.2 4.4-5.1 10.2-8 16.5-8.2 6.2-.2 12.2 2.3 17 7.2l.3.2M33.6 38c0 .4.2.6.5.6l12.5-.4c.3 0 .5-.3.5-.6s-.2-.6-.5-.5l-12.5.3c-.3 0-.5.3-.5.6"/><path d="m73.1 29-21 13.2V31s-.4-.5.4-.5c.7-2.2 4.7-7.5 4.7-7.5l.4.5-.4-.5.2-3.3s1-.3 4.6-.3h6.5l.2 3 .2.2.2.2a27.6 27.6 0 0 1 4 6.4"/></g></g><g transform="translate(243.7 6.6)"><path d="M57.7 125c16 10.3 31.8 2 41.1-18.3-16.3-6.4-38.4-2.2-41.1 18.4" fill="#15b43c"/><ellipse cx="57.3" cy="192.4" fill="#5c6070" fill-opacity=".1" rx="24.9" ry="8"/><path d="M56.3 73.7h2.5V193h-2.5z" fill="#15b43c"/><path d="M58.3 156c-24.2 11.6-44.9-2.7-54.4-32.7 24-6 54.1 3.5 54.4 32.8" fill="#42d466"/><path d="M11 128.7c7.6 5.1 18 11 27.3 16.3 8 4.5 15.4 8.7 19.7 11.6.2.2.6 0 .8-.2.2-.3.1-.6-.2-.8-4.2-3-11.7-7.2-19.7-11.7a478.7 478.7 0 0 1-28.2-16.8.6.6 0 0 0-.7 1l1 .6" fill="#15b43c"/><path d="M29.6 38.2c-.3-11 3.5-21 9.8-28A28 28 0 0 1 60.2 0l-6.7.2a29 29 0 0 0-20.8 10.1c-6.3 7-10.1 17-9.8 28 .6 20.6 15.3 36.8 32.8 36.3l6.8-.2c-17.6.5-32.3-15.7-32.9-36.2" fill="#ed9f00"/><path d="M60.2 0C77.7-.5 92.4 15.7 93 36.2c.7 20.5-13 37.6-30.5 38.2-17.6.5-32.3-15.7-32.9-36.2C29 17.6 42.7.5 60.2 0" fill="#fcba06"/><path d="m67.2 22.2-.2-3h-6.4c-3.7 0-4.6.4-4.6.4l-.3 3.3.5.5-.5-.5s-4 5.3-4.7 7.5c-.7 0-.4.5-.4.5v19.4c4 3 10.4 4.6 10.4 4.6l11.4-2.6V30.5s-3-6-5.2-8.3" fill="#e19100"/><path d="M43.6 17c.2 0 .3 0 .4-.2 4.4-5.1 10.2-8 16.5-8.2 6.2-.2 12.2 2.3 17 7.2l.3.2.3-.2c.2-.3.2-.6 0-.9a24 24 0 0 0-17.7-7.5c-6.5.2-12.6 3.3-17.1 8.6-.2.2-.2.6 0 .8l.3.2zM36 31.4l7.7-.3 3 3.3.3.2.3-.2c.2-.3.2-.6 0-.8l-3.2-3.7-8.2.3c-.2 0-.5.3-.4.6 0 .3.2.6.5.6zM74.3 28l.3.2.4-.2 4.6-5.7 3.9-.2c.3 0 .5-.2.5-.6 0-.3-.3-.5-.5-.5H79l-4.8 6a1 1 0 0 0 0 1zm.8 4.7c-.2.2-.2.6 0 .8l.4.2c.1 0 .2 0 .3-.2l2.8-3.4 7.7-.3c.3 0 .5-.3.5-.6s-.3-.6-.5-.6L78 29l-3 3.8zm12.5 18.6L87 51c-.5 1.4-1.1 2.8-1.8 4l.4.4c-.7 1.3-1.5 2.5-2.4 3.7l-.3-.4C82 60 81.2 61 80.2 62l.4.4c-1 1-2 2-3.2 2.9l-.2-.5-3.4 2.3.2.5-3.7 1.7-.1-.6c-1.3.5-2.5.9-3.8 1.1v.6l-3.9.5-.2-.6c-1.2 0-2.5 0-3.7-.2v.6l-4-.8.1-.6c-1.2-.4-2.5-.8-3.7-1.4l-.2.5c-1.2-.6-2.4-1.2-3.6-2l.3-.5a21 21 0 0 1-3.3-2.6l-.3.5-3-3.1.4-.4a33 33 0 0 1-2.6-3.5l-.4.3c-.8-1.2-1.5-2.5-2.1-4l.4-.2-1.7-4.2-.4.2c-.5-1.4-.9-2.9-1.2-4.4l.5-.1a34 34 0 0 1-.6-4.6h-.5l-.1-1.7h.5l.1-4.6h-.5l.7-4.7.5.2c.3-1.5.7-3 1.2-4.4l-.5-.2 1.8-4.2.4.3a34 34 0 0 1 2.2-3.8l-.4-.3c.8-1.3 1.7-2.4 2.6-3.5l.4.4 3-3-.4-.4c1.1-.9 2.2-1.7 3.4-2.4l.2.5c1.2-.8 2.4-1.4 3.6-2l-.2-.4A17 17 0 0 1 55 4.3l.1.5 3.9-.6v-.6a21.3 21.3 0 0 1 4 0l-.1.5c1.3.1 2.6.3 3.9.7v-.6c1.4.3 2.7.7 3.9 1.2l-.2.6a26 26 0 0 1 3.6 1.8l.3-.5c1.2.7 2.3 1.5 3.4 2.4l-.3.5 3 3 .4-.5c1 1 1.9 2.2 2.7 3.4l-.4.4 2.3 3.7.4-.2a30 30 0 0 1 1.8 4.1l-.4.2a36 36 0 0 1 1.3 4.4l.4-.2c.4 1.5.7 3 .8 4.6h-.5a38.6 38.6 0 0 1 .3 4.6h.5a36 36 0 0 1-.3 4.7l-.5-.1-.8 4.5.4.1a32 32 0 0 1-1.3 4.4zm5.4-15a40.4 40.4 0 0 0-10-26C77 3.6 69-.4 60.2 0 42.7.5 29 17.6 29.6 38.2a40.5 40.5 0 0 0 10 25.9c6 6.6 14 10.5 22.9 10.3C80 73.8 93.7 56.7 93 36.2zm-4.5-.5-12.4.4c-.3 0-.5.2-.5.6 0 .3.2.5.5.5l12.5-.4c.3 0 .5-.2.5-.6 0-.3-.3-.5-.6-.5zM38.3 23.5l4-.1 4.9 5.4.3.2c.1 0 .3 0 .4-.2.2-.2.1-.6 0-.8l-5.3-5.8-4.3.1c-.3 0-.5.3-.5.6 0 .4.2.6.5.6zm8.8 14.1c0-.3-.2-.6-.5-.5l-12.5.3c-.3 0-.5.3-.5.6 0 .4.2.6.5.6l12.5-.4c.3 0 .5-.3.5-.6zm.5 4c.2-.2.1-.5 0-.7a.5.5 0 0 0-.4-.2c-.1 0-.3 0-.4.2l-2.7 3.4-7.7.3c-.3 0-.5.2-.5.6 0 .3.2.5.5.5l8.1-.2 3-3.8zm.8 4.8a.5.5 0 0 0-.4-.2s-.2 0-.3.2L43 52l-4 .1c-.2 0-.4.3-.4.6 0 .4.2.6.5.6l4.3-.1 5-6.1c.1-.2.1-.6-.1-.8zm30.6 11-.3.1a22.5 22.5 0 0 1-16.5 8.3c-6.2.2-12.3-2.4-17-7.2a.4.4 0 0 0-.3-.2c-.1 0-.3 0-.4.2-.1.2-.1.6 0 .8 5 5.1 11.2 7.8 17.7 7.6 6.5-.2 12.6-3.3 17.2-8.6.2-.3.2-.6 0-.9a.5.5 0 0 0-.4-.1zM86.7 43l-7.7.3-3-3.3a.5.5 0 0 0-.3-.2c-.2 0-.3 0-.4.2-.2.2-.2.6 0 .8l3.3 3.6 8.1-.2c.3 0 .5-.3.5-.6s-.2-.6-.5-.6zm-2.3 8h-4l-4.9-5.4a.5.5 0 0 0-.4-.1s-.2 0-.3.2c-.2.2-.2.6 0 .8l5.3 5.8 4.3-.2c.3 0 .5-.3.5-.6s-.3-.5-.5-.5z" fill="#ffd03e"/><path d="m57.2 23 .2-3.4s1-.3 4.7-.3h6.4l.2 3-5.2 1.4-6.3-.8z" fill="#ffe950"/><path d="M52.5 30.4c.7-2.2 4.7-7.5 4.7-7.5l5.3 5.5v5s-10.9-.5-10-3" fill="#ed9f00"/><path d="m62.5 55 11.4-2.7V30.5l-11.4 2.8z" fill="#ffe950"/><path d="M62.5 55S56 53.2 52 50.2C52.2 46 52 31 52 31s-.3-.5.5-.5c1.4.7 10 3 10 3V55z" fill="#ffd03e"/><path d="M62.5 33.3S59 24.4 57.2 23c1.6.1 10-1.4 11.5-.7a47 47 0 0 1 5.2 8.3l-11.4 2.8z" fill="#ffe950"/><path d="M53.6 45.5V49l2.8 1.3v-3.9z" fill="#e19100"/><path d="m63.6 40.7.2-3.3 1-.2.5.5.4-.5.8-.2.5 3.2-1 .2-.2-.5v.5l-1 .3-.2-.3v.3zm3.8-3.7h.8v3l-.7.2zm1.4 0 1-.3v2h.6v1l-1.4.2zm1.9-.5h.8v.7l.6-.7.6.5-.5 1 .8 1-.8.4-.7-.8v.8l-.5.3z" fill="#ed9f00"/><g fill="#fbee90"><path d="M83.5 21H79l-4.8 6a1 1 0 0 0 0 1h.3l.5-.3 4.5-5.5 3.9-.2c.3 0 .5-.2.5-.6 0-.3-.3-.5-.5-.5M83 10.2C77 3.7 69-.3 60.2 0 42.7.5 29 17.6 29.6 38.2A43 43 0 0 0 33.2 54l3-1.9-1.3-3.4-.4.2c-.5-1.4-.9-2.9-1.2-4.4l.5-.1a34 34 0 0 1-.6-4.6h-.5l-.1-1.7h.5l.1-4.6h-.5l.7-4.7.5.2c.3-1.5.7-3 1.2-4.4l-.5-.2 1.8-4.2.4.3c.6-1.3 1.4-2.6 2.2-3.8l-.4-.3c.8-1.3 1.7-2.4 2.6-3.5l.4.4 3-3-.4-.4c1.1-.9 2.2-1.7 3.4-2.4l.2.5c1.2-.8 2.4-1.4 3.6-2l-.2-.4A17 17 0 0 1 55 4.3l.1.5 3.9-.6v-.6a21.3 21.3 0 0 1 4 0l-.1.6c1.3 0 2.6.2 3.9.6v-.6c1.4.3 2.7.7 3.9 1.2l-.2.6a26 26 0 0 1 3.6 1.8l.3-.5c1.2.7 2.3 1.5 3.4 2.4l-.3.5 3 3 .4-.5c1 1 1.9 2.2 2.7 3.4l-.4.4 2.3 3.7.4-.2.4.8 2.6-1.6a37.5 37.5 0 0 0-6-9M47.3 40.7c-.1 0-.3 0-.4.2l-2.7 3.4-7.7.3c-.3 0-.5.2-.5.6 0 .3.2.5.5.5l8.1-.2 3-3.8c.3-.3.2-.6 0-.8a.5.5 0 0 0-.3-.2m-11.7-10c0 .4.2.7.5.7l7.7-.3 3 3.3.3.2.4-.2c.1-.3.1-.6 0-.8L44 29.9l-8.2.3c-.2 0-.5.3-.4.6m2.8-7.3 4-.1 4.9 5.4.3.2c.1 0 .3 0 .4-.2.2-.2.1-.6 0-.8l-5.3-5.8-4.3.1c-.3 0-.5.3-.5.6 0 .4.2.6.5.6M77.8 16l.3-.2c.2-.3.2-.6 0-.9a24 24 0 0 0-17.7-7.5c-6.5.2-12.6 3.3-17.1 8.6-.2.2-.2.6 0 .8l.3.2c.2 0 .3 0 .4-.2 4.4-5.1 10.2-8 16.5-8.2 6.2-.2 12.2 2.3 17 7.2l.3.2M33.6 38c0 .4.2.6.5.6l12.5-.4c.3 0 .5-.3.5-.6s-.2-.6-.5-.5l-12.5.3c-.3 0-.5.3-.5.6"/><path d="m73.1 29-21 13.2V31s-.4-.5.4-.5c.7-2.2 4.7-7.5 4.7-7.5l.4.5-.4-.5.2-3.3s1-.3 4.6-.3h6.5l.2 3 .2.2.2.2a27.6 27.6 0 0 1 4 6.4"/></g></g><g transform="translate(89.2 155.5)"><path d="M57.7 125c16 10.3 31.8 2 41.1-18.3-16.3-6.4-38.4-2.2-41.1 18.4" fill="#15b43c"/><ellipse cx="57.3" cy="192.4" fill="#5c6070" fill-opacity=".1" rx="24.9" ry="8"/><path d="M56.3 73.7h2.5V193h-2.5z" fill="#15b43c"/><path d="M58.3 156c-24.2 11.6-44.9-2.7-54.4-32.7 24-6 54.1 3.5 54.4 32.8" fill="#42d466"/><path d="M11 128.7c7.6 5.1 18 11 27.3 16.3 8 4.5 15.4 8.7 19.7 11.6.2.2.6 0 .8-.2.2-.3.1-.6-.2-.8-4.2-3-11.7-7.2-19.7-11.7a478.7 478.7 0 0 1-28.2-16.8.6.6 0 0 0-.7 1l1 .6" fill="#15b43c"/><path d="M29.6 38.2c-.3-11 3.5-21 9.8-28A28 28 0 0 1 60.2 0l-6.7.2a29 29 0 0 0-20.8 10.1c-6.3 7-10.1 17-9.8 28 .6 20.6 15.3 36.8 32.8 36.3l6.8-.2c-17.6.5-32.3-15.7-32.9-36.2" fill="#ed9f00"/><path d="M60.2 0C77.7-.5 92.4 15.7 93 36.2c.7 20.5-13 37.6-30.5 38.2-17.6.5-32.3-15.7-32.9-36.2C29 17.6 42.7.5 60.2 0" fill="#fcba06"/><path d="m67.2 22.2-.2-3h-6.4c-3.7 0-4.6.4-4.6.4l-.3 3.3.5.5-.5-.5s-4 5.3-4.7 7.5c-.7 0-.4.5-.4.5v19.4c4 3 10.4 4.6 10.4 4.6l11.4-2.6V30.5s-3-6-5.2-8.3" fill="#e19100"/><path d="M43.6 17c.2 0 .3 0 .4-.2 4.4-5.1 10.2-8 16.5-8.2 6.2-.2 12.2 2.3 17 7.2l.3.2.3-.2c.2-.3.2-.6 0-.9a24 24 0 0 0-17.7-7.5c-6.5.2-12.6 3.3-17.1 8.6-.2.2-.2.6 0 .8l.3.2zM36 31.4l7.7-.3 3 3.3.3.2.3-.2c.2-.3.2-.6 0-.8l-3.2-3.7-8.2.3c-.2 0-.5.3-.4.6 0 .3.2.6.5.6zM74.3 28l.3.2.4-.2 4.6-5.7 3.9-.2c.3 0 .5-.2.5-.6 0-.3-.3-.5-.5-.5H79l-4.8 6a1 1 0 0 0 0 1zm.8 4.7c-.2.2-.2.6 0 .8l.4.2c.1 0 .2 0 .3-.2l2.8-3.4 7.7-.3c.3 0 .5-.3.5-.6s-.3-.6-.5-.6L78 29l-3 3.8zm12.5 18.6L87 51c-.5 1.4-1.1 2.8-1.8 4l.4.4c-.7 1.3-1.5 2.5-2.4 3.7l-.3-.4C82 60 81.2 61 80.2 62l.4.4c-1 1-2 2-3.2 2.9l-.2-.5-3.4 2.3.2.5-3.7 1.7-.1-.6c-1.3.5-2.5.9-3.8 1.1v.6l-3.9.5-.2-.6c-1.2 0-2.5 0-3.7-.2v.6l-4-.8.1-.6c-1.2-.4-2.5-.8-3.7-1.4l-.2.5c-1.2-.6-2.4-1.2-3.6-2l.3-.5a21 21 0 0 1-3.3-2.6l-.3.5-3-3.1.4-.4a33 33 0 0 1-2.6-3.5l-.4.3c-.8-1.2-1.5-2.5-2.1-4l.4-.2-1.7-4.2-.4.2c-.5-1.4-.9-2.9-1.2-4.4l.5-.1a34 34 0 0 1-.6-4.6h-.5l-.1-1.7h.5l.1-4.6h-.5l.7-4.7.5.2c.3-1.5.7-3 1.2-4.4l-.5-.2 1.8-4.2.4.3a34 34 0 0 1 2.2-3.8l-.4-.3c.8-1.3 1.7-2.4 2.6-3.5l.4.4 3-3-.4-.4c1.1-.9 2.2-1.7 3.4-2.4l.2.5c1.2-.8 2.4-1.4 3.6-2l-.2-.4A17 17 0 0 1 55 4.3l.1.5 3.9-.6v-.6a21.3 21.3 0 0 1 4 0l-.1.5c1.3.1 2.6.3 3.9.7v-.6c1.4.3 2.7.7 3.9 1.2l-.2.6a26 26 0 0 1 3.6 1.8l.3-.5c1.2.7 2.3 1.5 3.4 2.4l-.3.5 3 3 .4-.5c1 1 1.9 2.2 2.7 3.4l-.4.4 2.3 3.7.4-.2a30 30 0 0 1 1.8 4.1l-.4.2a36 36 0 0 1 1.3 4.4l.4-.2c.4 1.5.7 3 .8 4.6h-.5a38.6 38.6 0 0 1 .3 4.6h.5a36 36 0 0 1-.3 4.7l-.5-.1-.8 4.5.4.1a32 32 0 0 1-1.3 4.4zm5.4-15a40.4 40.4 0 0 0-10-26C77 3.6 69-.4 60.2 0 42.7.5 29 17.6 29.6 38.2a40.5 40.5 0 0 0 10 25.9c6 6.6 14 10.5 22.9 10.3C80 73.8 93.7 56.7 93 36.2zm-4.5-.5-12.4.4c-.3 0-.5.2-.5.6 0 .3.2.5.5.5l12.5-.4c.3 0 .5-.2.5-.6 0-.3-.3-.5-.6-.5zM38.3 23.5l4-.1 4.9 5.4.3.2c.1 0 .3 0 .4-.2.2-.2.1-.6 0-.8l-5.3-5.8-4.3.1c-.3 0-.5.3-.5.6 0 .4.2.6.5.6zm8.8 14.1c0-.3-.2-.6-.5-.5l-12.5.3c-.3 0-.5.3-.5.6 0 .4.2.6.5.6l12.5-.4c.3 0 .5-.3.5-.6zm.5 4c.2-.2.1-.5 0-.7a.5.5 0 0 0-.4-.2c-.1 0-.3 0-.4.2l-2.7 3.4-7.7.3c-.3 0-.5.2-.5.6 0 .3.2.5.5.5l8.1-.2 3-3.8zm.8 4.8a.5.5 0 0 0-.4-.2s-.2 0-.3.2L43 52l-4 .1c-.2 0-.4.3-.4.6 0 .4.2.6.5.6l4.3-.1 5-6.1c.1-.2.1-.6-.1-.8zm30.6 11-.3.1a22.5 22.5 0 0 1-16.5 8.3c-6.2.2-12.3-2.4-17-7.2a.4.4 0 0 0-.3-.2c-.1 0-.3 0-.4.2-.1.2-.1.6 0 .8 5 5.1 11.2 7.8 17.7 7.6 6.5-.2 12.6-3.3 17.2-8.6.2-.3.2-.6 0-.9a.5.5 0 0 0-.4-.1zM86.7 43l-7.7.3-3-3.3a.5.5 0 0 0-.3-.2c-.2 0-.3 0-.4.2-.2.2-.2.6 0 .8l3.3 3.6 8.1-.2c.3 0 .5-.3.5-.6s-.2-.6-.5-.6zm-2.3 8h-4l-4.9-5.4a.5.5 0 0 0-.4-.1s-.2 0-.3.2c-.2.2-.2.6 0 .8l5.3 5.8 4.3-.2c.3 0 .5-.3.5-.6s-.3-.5-.5-.5z" fill="#ffd03e"/><path d="m57.2 23 .2-3.4s1-.3 4.7-.3h6.4l.2 3-5.2 1.4-6.3-.8z" fill="#ffe950"/><path d="M52.5 30.4c.7-2.2 4.7-7.5 4.7-7.5l5.3 5.5v5s-10.9-.5-10-3" fill="#ed9f00"/><path d="m62.5 55 11.4-2.7V30.5l-11.4 2.8z" fill="#ffe950"/><path d="M62.5 55S56 53.2 52 50.2C52.2 46 52 31 52 31s-.3-.5.5-.5c1.4.7 10 3 10 3V55z" fill="#ffd03e"/><path d="M62.5 33.3S59 24.4 57.2 23c1.6.1 10-1.4 11.5-.7a47 47 0 0 1 5.2 8.3l-11.4 2.8z" fill="#ffe950"/><path d="M53.6 45.5V49l2.8 1.3v-3.9z" fill="#e19100"/><path d="m63.6 40.7.2-3.3 1-.2.5.5.4-.5.8-.2.5 3.2-1 .2-.2-.5v.5l-1 .3-.2-.3v.3zm3.8-3.7h.8v3l-.7.2zm1.4 0 1-.3v2h.6v1l-1.4.2zm1.9-.5h.8v.7l.6-.7.6.5-.5 1 .8 1-.8.4-.7-.8v.8l-.5.3z" fill="#ed9f00"/><g fill="#fbee90"><path d="M83.5 21H79l-4.8 6a1 1 0 0 0 0 1h.3l.5-.3 4.5-5.5 3.9-.2c.3 0 .5-.2.5-.6 0-.3-.3-.5-.5-.5M83 10.2C77 3.7 69-.3 60.2 0 42.7.5 29 17.6 29.6 38.2A43 43 0 0 0 33.2 54l3-1.9-1.3-3.4-.4.2c-.5-1.4-.9-2.9-1.2-4.4l.5-.1a34 34 0 0 1-.6-4.6h-.5l-.1-1.7h.5l.1-4.6h-.5l.7-4.7.5.2c.3-1.5.7-3 1.2-4.4l-.5-.2 1.8-4.2.4.3c.6-1.3 1.4-2.6 2.2-3.8l-.4-.3c.8-1.3 1.7-2.4 2.6-3.5l.4.4 3-3-.4-.4c1.1-.9 2.2-1.7 3.4-2.4l.2.5c1.2-.8 2.4-1.4 3.6-2l-.2-.4A17 17 0 0 1 55 4.3l.1.5 3.9-.6v-.6a21.3 21.3 0 0 1 4 0l-.1.6c1.3 0 2.6.2 3.9.6v-.6c1.4.3 2.7.7 3.9 1.2l-.2.6a26 26 0 0 1 3.6 1.8l.3-.5c1.2.7 2.3 1.5 3.4 2.4l-.3.5 3 3 .4-.5c1 1 1.9 2.2 2.7 3.4l-.4.4 2.3 3.7.4-.2.4.8 2.6-1.6a37.5 37.5 0 0 0-6-9M47.3 40.7c-.1 0-.3 0-.4.2l-2.7 3.4-7.7.3c-.3 0-.5.2-.5.6 0 .3.2.5.5.5l8.1-.2 3-3.8c.3-.3.2-.6 0-.8a.5.5 0 0 0-.3-.2m-11.7-10c0 .4.2.7.5.7l7.7-.3 3 3.3.3.2.4-.2c.1-.3.1-.6 0-.8L44 29.9l-8.2.3c-.2 0-.5.3-.4.6m2.8-7.3 4-.1 4.9 5.4.3.2c.1 0 .3 0 .4-.2.2-.2.1-.6 0-.8l-5.3-5.8-4.3.1c-.3 0-.5.3-.5.6 0 .4.2.6.5.6M77.8 16l.3-.2c.2-.3.2-.6 0-.9a24 24 0 0 0-17.7-7.5c-6.5.2-12.6 3.3-17.1 8.6-.2.2-.2.6 0 .8l.3.2c.2 0 .3 0 .4-.2 4.4-5.1 10.2-8 16.5-8.2 6.2-.2 12.2 2.3 17 7.2l.3.2M33.6 38c0 .4.2.6.5.6l12.5-.4c.3 0 .5-.3.5-.6s-.2-.6-.5-.5l-12.5.3c-.3 0-.5.3-.5.6"/><path d="m73.1 29-21 13.2V31s-.4-.5.4-.5c.7-2.2 4.7-7.5 4.7-7.5l.4.5-.4-.5.2-3.3s1-.3 4.6-.3h6.5l.2 3 .2.2.2.2a27.6 27.6 0 0 1 4 6.4"/></g></g><g transform="translate(199.8 107.8)"><path d="M57.7 125c16 10.3 31.8 2 41.1-18.3-16.3-6.4-38.4-2.2-41.1 18.4" fill="#15b43c"/><ellipse cx="57.3" cy="192.4" fill="#5c6070" fill-opacity=".1" rx="24.9" ry="8"/><path d="M56.3 73.7h2.5V193h-2.5z" fill="#15b43c"/><path d="M58.3 156c-24.2 11.6-44.9-2.7-54.4-32.7 24-6 54.1 3.5 54.4 32.8" fill="#42d466"/><path d="M11 128.7c7.6 5.1 18 11 27.3 16.3 8 4.5 15.4 8.7 19.7 11.6.2.2.6 0 .8-.2.2-.3.1-.6-.2-.8-4.2-3-11.7-7.2-19.7-11.7a478.7 478.7 0 0 1-28.2-16.8.6.6 0 0 0-.7 1l1 .6" fill="#15b43c"/><path d="M29.6 38.2c-.3-11 3.5-21 9.8-28A28 28 0 0 1 60.2 0l-6.7.2a29 29 0 0 0-20.8 10.1c-6.3 7-10.1 17-9.8 28 .6 20.6 15.3 36.8 32.8 36.3l6.8-.2c-17.6.5-32.3-15.7-32.9-36.2" fill="#ed9f00"/><path d="M60.2 0C77.7-.5 92.4 15.7 93 36.2c.7 20.5-13 37.6-30.5 38.2-17.6.5-32.3-15.7-32.9-36.2C29 17.6 42.7.5 60.2 0" fill="#fcba06"/><path d="m67.2 22.2-.2-3h-6.4c-3.7 0-4.6.4-4.6.4l-.3 3.3.5.5-.5-.5s-4 5.3-4.7 7.5c-.7 0-.4.5-.4.5v19.4c4 3 10.4 4.6 10.4 4.6l11.4-2.6V30.5s-3-6-5.2-8.3" fill="#e19100"/><path d="M43.6 17c.2 0 .3 0 .4-.2 4.4-5.1 10.2-8 16.5-8.2 6.2-.2 12.2 2.3 17 7.2l.3.2.3-.2c.2-.3.2-.6 0-.9a24 24 0 0 0-17.7-7.5c-6.5.2-12.6 3.3-17.1 8.6-.2.2-.2.6 0 .8l.3.2zM36 31.4l7.7-.3 3 3.3.3.2.3-.2c.2-.3.2-.6 0-.8l-3.2-3.7-8.2.3c-.2 0-.5.3-.4.6 0 .3.2.6.5.6zM74.3 28l.3.2.4-.2 4.6-5.7 3.9-.2c.3 0 .5-.2.5-.6 0-.3-.3-.5-.5-.5H79l-4.8 6a1 1 0 0 0 0 1zm.8 4.7c-.2.2-.2.6 0 .8l.4.2c.1 0 .2 0 .3-.2l2.8-3.4 7.7-.3c.3 0 .5-.3.5-.6s-.3-.6-.5-.6L78 29l-3 3.8zm12.5 18.6L87 51c-.5 1.4-1.1 2.8-1.8 4l.4.4c-.7 1.3-1.5 2.5-2.4 3.7l-.3-.4C82 60 81.2 61 80.2 62l.4.4c-1 1-2 2-3.2 2.9l-.2-.5-3.4 2.3.2.5-3.7 1.7-.1-.6c-1.3.5-2.5.9-3.8 1.1v.6l-3.9.5-.2-.6c-1.2 0-2.5 0-3.7-.2v.6l-4-.8.1-.6c-1.2-.4-2.5-.8-3.7-1.4l-.2.5c-1.2-.6-2.4-1.2-3.6-2l.3-.5a21 21 0 0 1-3.3-2.6l-.3.5-3-3.1.4-.4a33 33 0 0 1-2.6-3.5l-.4.3c-.8-1.2-1.5-2.5-2.1-4l.4-.2-1.7-4.2-.4.2c-.5-1.4-.9-2.9-1.2-4.4l.5-.1a34 34 0 0 1-.6-4.6h-.5l-.1-1.7h.5l.1-4.6h-.5l.7-4.7.5.2c.3-1.5.7-3 1.2-4.4l-.5-.2 1.8-4.2.4.3a34 34 0 0 1 2.2-3.8l-.4-.3c.8-1.3 1.7-2.4 2.6-3.5l.4.4 3-3-.4-.4c1.1-.9 2.2-1.7 3.4-2.4l.2.5c1.2-.8 2.4-1.4 3.6-2l-.2-.4A17 17 0 0 1 55 4.3l.1.5 3.9-.6v-.6a21.3 21.3 0 0 1 4 0l-.1.5c1.3.1 2.6.3 3.9.7v-.6c1.4.3 2.7.7 3.9 1.2l-.2.6a26 26 0 0 1 3.6 1.8l.3-.5c1.2.7 2.3 1.5 3.4 2.4l-.3.5 3 3 .4-.5c1 1 1.9 2.2 2.7 3.4l-.4.4 2.3 3.7.4-.2a30 30 0 0 1 1.8 4.1l-.4.2a36 36 0 0 1 1.3 4.4l.4-.2c.4 1.5.7 3 .8 4.6h-.5a38.6 38.6 0 0 1 .3 4.6h.5a36 36 0 0 1-.3 4.7l-.5-.1-.8 4.5.4.1a32 32 0 0 1-1.3 4.4zm5.4-15a40.4 40.4 0 0 0-10-26C77 3.6 69-.4 60.2 0 42.7.5 29 17.6 29.6 38.2a40.5 40.5 0 0 0 10 25.9c6 6.6 14 10.5 22.9 10.3C80 73.8 93.7 56.7 93 36.2zm-4.5-.5-12.4.4c-.3 0-.5.2-.5.6 0 .3.2.5.5.5l12.5-.4c.3 0 .5-.2.5-.6 0-.3-.3-.5-.6-.5zM38.3 23.5l4-.1 4.9 5.4.3.2c.1 0 .3 0 .4-.2.2-.2.1-.6 0-.8l-5.3-5.8-4.3.1c-.3 0-.5.3-.5.6 0 .4.2.6.5.6zm8.8 14.1c0-.3-.2-.6-.5-.5l-12.5.3c-.3 0-.5.3-.5.6 0 .4.2.6.5.6l12.5-.4c.3 0 .5-.3.5-.6zm.5 4c.2-.2.1-.5 0-.7a.5.5 0 0 0-.4-.2c-.1 0-.3 0-.4.2l-2.7 3.4-7.7.3c-.3 0-.5.2-.5.6 0 .3.2.5.5.5l8.1-.2 3-3.8zm.8 4.8a.5.5 0 0 0-.4-.2s-.2 0-.3.2L43 52l-4 .1c-.2 0-.4.3-.4.6 0 .4.2.6.5.6l4.3-.1 5-6.1c.1-.2.1-.6-.1-.8zm30.6 11-.3.1a22.5 22.5 0 0 1-16.5 8.3c-6.2.2-12.3-2.4-17-7.2a.4.4 0 0 0-.3-.2c-.1 0-.3 0-.4.2-.1.2-.1.6 0 .8 5 5.1 11.2 7.8 17.7 7.6 6.5-.2 12.6-3.3 17.2-8.6.2-.3.2-.6 0-.9a.5.5 0 0 0-.4-.1zM86.7 43l-7.7.3-3-3.3a.5.5 0 0 0-.3-.2c-.2 0-.3 0-.4.2-.2.2-.2.6 0 .8l3.3 3.6 8.1-.2c.3 0 .5-.3.5-.6s-.2-.6-.5-.6zm-2.3 8h-4l-4.9-5.4a.5.5 0 0 0-.4-.1s-.2 0-.3.2c-.2.2-.2.6 0 .8l5.3 5.8 4.3-.2c.3 0 .5-.3.5-.6s-.3-.5-.5-.5z" fill="#ffd03e"/><path d="m57.2 23 .2-3.4s1-.3 4.7-.3h6.4l.2 3-5.2 1.4-6.3-.8z" fill="#ffe950"/><path d="M52.5 30.4c.7-2.2 4.7-7.5 4.7-7.5l5.3 5.5v5s-10.9-.5-10-3" fill="#ed9f00"/><path d="m62.5 55 11.4-2.7V30.5l-11.4 2.8z" fill="#ffe950"/><path d="M62.5 55S56 53.2 52 50.2C52.2 46 52 31 52 31s-.3-.5.5-.5c1.4.7 10 3 10 3V55z" fill="#ffd03e"/><path d="M62.5 33.3S59 24.4 57.2 23c1.6.1 10-1.4 11.5-.7a47 47 0 0 1 5.2 8.3l-11.4 2.8z" fill="#ffe950"/><path d="M53.6 45.5V49l2.8 1.3v-3.9z" fill="#e19100"/><path d="m63.6 40.7.2-3.3 1-.2.5.5.4-.5.8-.2.5 3.2-1 .2-.2-.5v.5l-1 .3-.2-.3v.3zm3.8-3.7h.8v3l-.7.2zm1.4 0 1-.3v2h.6v1l-1.4.2zm1.9-.5h.8v.7l.6-.7.6.5-.5 1 .8 1-.8.4-.7-.8v.8l-.5.3z" fill="#ed9f00"/><g fill="#fbee90"><path d="M83.5 21H79l-4.8 6a1 1 0 0 0 0 1h.3l.5-.3 4.5-5.5 3.9-.2c.3 0 .5-.2.5-.6 0-.3-.3-.5-.5-.5M83 10.2C77 3.7 69-.3 60.2 0 42.7.5 29 17.6 29.6 38.2A43 43 0 0 0 33.2 54l3-1.9-1.3-3.4-.4.2c-.5-1.4-.9-2.9-1.2-4.4l.5-.1a34 34 0 0 1-.6-4.6h-.5l-.1-1.7h.5l.1-4.6h-.5l.7-4.7.5.2c.3-1.5.7-3 1.2-4.4l-.5-.2 1.8-4.2.4.3c.6-1.3 1.4-2.6 2.2-3.8l-.4-.3c.8-1.3 1.7-2.4 2.6-3.5l.4.4 3-3-.4-.4c1.1-.9 2.2-1.7 3.4-2.4l.2.5c1.2-.8 2.4-1.4 3.6-2l-.2-.4A17 17 0 0 1 55 4.3l.1.5 3.9-.6v-.6a21.3 21.3 0 0 1 4 0l-.1.6c1.3 0 2.6.2 3.9.6v-.6c1.4.3 2.7.7 3.9 1.2l-.2.6a26 26 0 0 1 3.6 1.8l.3-.5c1.2.7 2.3 1.5 3.4 2.4l-.3.5 3 3 .4-.5c1 1 1.9 2.2 2.7 3.4l-.4.4 2.3 3.7.4-.2.4.8 2.6-1.6a37.5 37.5 0 0 0-6-9M47.3 40.7c-.1 0-.3 0-.4.2l-2.7 3.4-7.7.3c-.3 0-.5.2-.5.6 0 .3.2.5.5.5l8.1-.2 3-3.8c.3-.3.2-.6 0-.8a.5.5 0 0 0-.3-.2m-11.7-10c0 .4.2.7.5.7l7.7-.3 3 3.3.3.2.4-.2c.1-.3.1-.6 0-.8L44 29.9l-8.2.3c-.2 0-.5.3-.4.6m2.8-7.3 4-.1 4.9 5.4.3.2c.1 0 .3 0 .4-.2.2-.2.1-.6 0-.8l-5.3-5.8-4.3.1c-.3 0-.5.3-.5.6 0 .4.2.6.5.6M77.8 16l.3-.2c.2-.3.2-.6 0-.9a24 24 0 0 0-17.7-7.5c-6.5.2-12.6 3.3-17.1 8.6-.2.2-.2.6 0 .8l.3.2c.2 0 .3 0 .4-.2 4.4-5.1 10.2-8 16.5-8.2 6.2-.2 12.2 2.3 17 7.2l.3.2M33.6 38c0 .4.2.6.5.6l12.5-.4c.3 0 .5-.3.5-.6s-.2-.6-.5-.5l-12.5.3c-.3 0-.5.3-.5.6"/><path d="m73.1 29-21 13.2V31s-.4-.5.4-.5c.7-2.2 4.7-7.5 4.7-7.5l.4.5-.4-.5.2-3.3s1-.3 4.6-.3h6.5l.2 3 .2.2.2.2a27.6 27.6 0 0 1 4 6.4"/></g></g><g transform="translate(310.3 60.1)"><path d="M57.7 125c16 10.3 31.8 2 41.1-18.3-16.3-6.4-38.4-2.2-41.1 18.4" fill="#15b43c"/><ellipse cx="57.3" cy="192.4" fill="#5c6070" fill-opacity=".1" rx="24.9" ry="8"/><path d="M56.3 73.7h2.5V193h-2.5z" fill="#15b43c"/><path d="M58.3 156c-24.2 11.6-44.9-2.7-54.4-32.7 24-6 54.1 3.5 54.4 32.8" fill="#42d466"/><path d="M11 128.7c7.6 5.1 18 11 27.3 16.3 8 4.5 15.4 8.7 19.7 11.6.2.2.6 0 .8-.2.2-.3.1-.6-.2-.8-4.2-3-11.7-7.2-19.7-11.7a478.7 478.7 0 0 1-28.2-16.8.6.6 0 0 0-.7 1l1 .6" fill="#15b43c"/><path d="M29.6 38.2c-.3-11 3.5-21 9.8-28A28 28 0 0 1 60.2 0l-6.7.2a29 29 0 0 0-20.8 10.1c-6.3 7-10.1 17-9.8 28 .6 20.6 15.3 36.8 32.8 36.3l6.8-.2c-17.6.5-32.3-15.7-32.9-36.2" fill="#ed9f00"/><path d="M60.2 0C77.7-.5 92.4 15.7 93 36.2c.7 20.5-13 37.6-30.5 38.2-17.6.5-32.3-15.7-32.9-36.2C29 17.6 42.7.5 60.2 0" fill="#fcba06"/><path d="m67.2 22.2-.2-3h-6.4c-3.7 0-4.6.4-4.6.4l-.3 3.3.5.5-.5-.5s-4 5.3-4.7 7.5c-.7 0-.4.5-.4.5v19.4c4 3 10.4 4.6 10.4 4.6l11.4-2.6V30.5s-3-6-5.2-8.3" fill="#e19100"/><path d="M43.6 17c.2 0 .3 0 .4-.2 4.4-5.1 10.2-8 16.5-8.2 6.2-.2 12.2 2.3 17 7.2l.3.2.3-.2c.2-.3.2-.6 0-.9a24 24 0 0 0-17.7-7.5c-6.5.2-12.6 3.3-17.1 8.6-.2.2-.2.6 0 .8l.3.2zM36 31.4l7.7-.3 3 3.3.3.2.3-.2c.2-.3.2-.6 0-.8l-3.2-3.7-8.2.3c-.2 0-.5.3-.4.6 0 .3.2.6.5.6zM74.3 28l.3.2.4-.2 4.6-5.7 3.9-.2c.3 0 .5-.2.5-.6 0-.3-.3-.5-.5-.5H79l-4.8 6a1 1 0 0 0 0 1zm.8 4.7c-.2.2-.2.6 0 .8l.4.2c.1 0 .2 0 .3-.2l2.8-3.4 7.7-.3c.3 0 .5-.3.5-.6s-.3-.6-.5-.6L78 29l-3 3.8zm12.5 18.6L87 51c-.5 1.4-1.1 2.8-1.8 4l.4.4c-.7 1.3-1.5 2.5-2.4 3.7l-.3-.4C82 60 81.2 61 80.2 62l.4.4c-1 1-2 2-3.2 2.9l-.2-.5-3.4 2.3.2.5-3.7 1.7-.1-.6c-1.3.5-2.5.9-3.8 1.1v.6l-3.9.5-.2-.6c-1.2 0-2.5 0-3.7-.2v.6l-4-.8.1-.6c-1.2-.4-2.5-.8-3.7-1.4l-.2.5c-1.2-.6-2.4-1.2-3.6-2l.3-.5a21 21 0 0 1-3.3-2.6l-.3.5-3-3.1.4-.4a33 33 0 0 1-2.6-3.5l-.4.3c-.8-1.2-1.5-2.5-2.1-4l.4-.2-1.7-4.2-.4.2c-.5-1.4-.9-2.9-1.2-4.4l.5-.1a34 34 0 0 1-.6-4.6h-.5l-.1-1.7h.5l.1-4.6h-.5l.7-4.7.5.2c.3-1.5.7-3 1.2-4.4l-.5-.2 1.8-4.2.4.3a34 34 0 0 1 2.2-3.8l-.4-.3c.8-1.3 1.7-2.4 2.6-3.5l.4.4 3-3-.4-.4c1.1-.9 2.2-1.7 3.4-2.4l.2.5c1.2-.8 2.4-1.4 3.6-2l-.2-.4A17 17 0 0 1 55 4.3l.1.5 3.9-.6v-.6a21.3 21.3 0 0 1 4 0l-.1.5c1.3.1 2.6.3 3.9.7v-.6c1.4.3 2.7.7 3.9 1.2l-.2.6a26 26 0 0 1 3.6 1.8l.3-.5c1.2.7 2.3 1.5 3.4 2.4l-.3.5 3 3 .4-.5c1 1 1.9 2.2 2.7 3.4l-.4.4 2.3 3.7.4-.2a30 30 0 0 1 1.8 4.1l-.4.2a36 36 0 0 1 1.3 4.4l.4-.2c.4 1.5.7 3 .8 4.6h-.5a38.6 38.6 0 0 1 .3 4.6h.5a36 36 0 0 1-.3 4.7l-.5-.1-.8 4.5.4.1a32 32 0 0 1-1.3 4.4zm5.4-15a40.4 40.4 0 0 0-10-26C77 3.6 69-.4 60.2 0 42.7.5 29 17.6 29.6 38.2a40.5 40.5 0 0 0 10 25.9c6 6.6 14 10.5 22.9 10.3C80 73.8 93.7 56.7 93 36.2zm-4.5-.5-12.4.4c-.3 0-.5.2-.5.6 0 .3.2.5.5.5l12.5-.4c.3 0 .5-.2.5-.6 0-.3-.3-.5-.6-.5zM38.3 23.5l4-.1 4.9 5.4.3.2c.1 0 .3 0 .4-.2.2-.2.1-.6 0-.8l-5.3-5.8-4.3.1c-.3 0-.5.3-.5.6 0 .4.2.6.5.6zm8.8 14.1c0-.3-.2-.6-.5-.5l-12.5.3c-.3 0-.5.3-.5.6 0 .4.2.6.5.6l12.5-.4c.3 0 .5-.3.5-.6zm.5 4c.2-.2.1-.5 0-.7a.5.5 0 0 0-.4-.2c-.1 0-.3 0-.4.2l-2.7 3.4-7.7.3c-.3 0-.5.2-.5.6 0 .3.2.5.5.5l8.1-.2 3-3.8zm.8 4.8a.5.5 0 0 0-.4-.2s-.2 0-.3.2L43 52l-4 .1c-.2 0-.4.3-.4.6 0 .4.2.6.5.6l4.3-.1 5-6.1c.1-.2.1-.6-.1-.8zm30.6 11-.3.1a22.5 22.5 0 0 1-16.5 8.3c-6.2.2-12.3-2.4-17-7.2a.4.4 0 0 0-.3-.2c-.1 0-.3 0-.4.2-.1.2-.1.6 0 .8 5 5.1 11.2 7.8 17.7 7.6 6.5-.2 12.6-3.3 17.2-8.6.2-.3.2-.6 0-.9a.5.5 0 0 0-.4-.1zM86.7 43l-7.7.3-3-3.3a.5.5 0 0 0-.3-.2c-.2 0-.3 0-.4.2-.2.2-.2.6 0 .8l3.3 3.6 8.1-.2c.3 0 .5-.3.5-.6s-.2-.6-.5-.6zm-2.3 8h-4l-4.9-5.4a.5.5 0 0 0-.4-.1s-.2 0-.3.2c-.2.2-.2.6 0 .8l5.3 5.8 4.3-.2c.3 0 .5-.3.5-.6s-.3-.5-.5-.5z" fill="#ffd03e"/><path d="m57.2 23 .2-3.4s1-.3 4.7-.3h6.4l.2 3-5.2 1.4-6.3-.8z" fill="#ffe950"/><path d="M52.5 30.4c.7-2.2 4.7-7.5 4.7-7.5l5.3 5.5v5s-10.9-.5-10-3" fill="#ed9f00"/><path d="m62.5 55 11.4-2.7V30.5l-11.4 2.8z" fill="#ffe950"/><path d="M62.5 55S56 53.2 52 50.2C52.2 46 52 31 52 31s-.3-.5.5-.5c1.4.7 10 3 10 3V55z" fill="#ffd03e"/><path d="M62.5 33.3S59 24.4 57.2 23c1.6.1 10-1.4 11.5-.7a47 47 0 0 1 5.2 8.3l-11.4 2.8z" fill="#ffe950"/><path d="M53.6 45.5V49l2.8 1.3v-3.9z" fill="#e19100"/><path d="m63.6 40.7.2-3.3 1-.2.5.5.4-.5.8-.2.5 3.2-1 .2-.2-.5v.5l-1 .3-.2-.3v.3zm3.8-3.7h.8v3l-.7.2zm1.4 0 1-.3v2h.6v1l-1.4.2zm1.9-.5h.8v.7l.6-.7.6.5-.5 1 .8 1-.8.4-.7-.8v.8l-.5.3z" fill="#ed9f00"/><g fill="#fbee90"><path d="M83.5 21H79l-4.8 6a1 1 0 0 0 0 1h.3l.5-.3 4.5-5.5 3.9-.2c.3 0 .5-.2.5-.6 0-.3-.3-.5-.5-.5M83 10.2C77 3.7 69-.3 60.2 0 42.7.5 29 17.6 29.6 38.2A43 43 0 0 0 33.2 54l3-1.9-1.3-3.4-.4.2c-.5-1.4-.9-2.9-1.2-4.4l.5-.1a34 34 0 0 1-.6-4.6h-.5l-.1-1.7h.5l.1-4.6h-.5l.7-4.7.5.2c.3-1.5.7-3 1.2-4.4l-.5-.2 1.8-4.2.4.3c.6-1.3 1.4-2.6 2.2-3.8l-.4-.3c.8-1.3 1.7-2.4 2.6-3.5l.4.4 3-3-.4-.4c1.1-.9 2.2-1.7 3.4-2.4l.2.5c1.2-.8 2.4-1.4 3.6-2l-.2-.4A17 17 0 0 1 55 4.3l.1.5 3.9-.6v-.6a21.3 21.3 0 0 1 4 0l-.1.6c1.3 0 2.6.2 3.9.6v-.6c1.4.3 2.7.7 3.9 1.2l-.2.6a26 26 0 0 1 3.6 1.8l.3-.5c1.2.7 2.3 1.5 3.4 2.4l-.3.5 3 3 .4-.5c1 1 1.9 2.2 2.7 3.4l-.4.4 2.3 3.7.4-.2.4.8 2.6-1.6a37.5 37.5 0 0 0-6-9M47.3 40.7c-.1 0-.3 0-.4.2l-2.7 3.4-7.7.3c-.3 0-.5.2-.5.6 0 .3.2.5.5.5l8.1-.2 3-3.8c.3-.3.2-.6 0-.8a.5.5 0 0 0-.3-.2m-11.7-10c0 .4.2.7.5.7l7.7-.3 3 3.3.3.2.4-.2c.1-.3.1-.6 0-.8L44 29.9l-8.2.3c-.2 0-.5.3-.4.6m2.8-7.3 4-.1 4.9 5.4.3.2c.1 0 .3 0 .4-.2.2-.2.1-.6 0-.8l-5.3-5.8-4.3.1c-.3 0-.5.3-.5.6 0 .4.2.6.5.6M77.8 16l.3-.2c.2-.3.2-.6 0-.9a24 24 0 0 0-17.7-7.5c-6.5.2-12.6 3.3-17.1 8.6-.2.2-.2.6 0 .8l.3.2c.2 0 .3 0 .4-.2 4.4-5.1 10.2-8 16.5-8.2 6.2-.2 12.2 2.3 17 7.2l.3.2M33.6 38c0 .4.2.6.5.6l12.5-.4c.3 0 .5-.3.5-.6s-.2-.6-.5-.5l-12.5.3c-.3 0-.5.3-.5.6"/><path d="m73.1 29-21 13.2V31s-.4-.5.4-.5c.7-2.2 4.7-7.5 4.7-7.5l.4.5-.4-.5.2-3.3s1-.3 4.6-.3h6.5l.2 3 .2.2.2.2a27.6 27.6 0 0 1 4 6.4"/></g></g><g transform="translate(153.8 211)"><path d="M57.7 125c16 10.3 31.8 2 41.1-18.3-16.3-6.4-38.4-2.2-41.1 18.4" fill="#15b43c"/><ellipse cx="57.3" cy="192.4" fill="#5c6070" fill-opacity=".1" rx="24.9" ry="8"/><path d="M56.3 73.7h2.5V193h-2.5z" fill="#15b43c"/><path d="M58.3 156c-24.2 11.6-44.9-2.7-54.4-32.7 24-6 54.1 3.5 54.4 32.8" fill="#42d466"/><path d="M11 128.7c7.6 5.1 18 11 27.3 16.3 8 4.5 15.4 8.7 19.7 11.6.2.2.6 0 .8-.2.2-.3.1-.6-.2-.8-4.2-3-11.7-7.2-19.7-11.7a478.7 478.7 0 0 1-28.2-16.8.6.6 0 0 0-.7 1l1 .6" fill="#15b43c"/><path d="M29.6 38.2c-.3-11 3.5-21 9.8-28A28 28 0 0 1 60.2 0l-6.7.2a29 29 0 0 0-20.8 10.1c-6.3 7-10.1 17-9.8 28 .6 20.6 15.3 36.8 32.8 36.3l6.8-.2c-17.6.5-32.3-15.7-32.9-36.2" fill="#ed9f00"/><path d="M60.2 0C77.7-.5 92.4 15.7 93 36.2c.7 20.5-13 37.6-30.5 38.2-17.6.5-32.3-15.7-32.9-36.2C29 17.6 42.7.5 60.2 0" fill="#fcba06"/><path d="m67.2 22.2-.2-3h-6.4c-3.7 0-4.6.4-4.6.4l-.3 3.3.5.5-.5-.5s-4 5.3-4.7 7.5c-.7 0-.4.5-.4.5v19.4c4 3 10.4 4.6 10.4 4.6l11.4-2.6V30.5s-3-6-5.2-8.3" fill="#e19100"/><path d="M43.6 17c.2 0 .3 0 .4-.2 4.4-5.1 10.2-8 16.5-8.2 6.2-.2 12.2 2.3 17 7.2l.3.2.3-.2c.2-.3.2-.6 0-.9a24 24 0 0 0-17.7-7.5c-6.5.2-12.6 3.3-17.1 8.6-.2.2-.2.6 0 .8l.3.2zM36 31.4l7.7-.3 3 3.3.3.2.3-.2c.2-.3.2-.6 0-.8l-3.2-3.7-8.2.3c-.2 0-.5.3-.4.6 0 .3.2.6.5.6zM74.3 28l.3.2.4-.2 4.6-5.7 3.9-.2c.3 0 .5-.2.5-.6 0-.3-.3-.5-.5-.5H79l-4.8 6a1 1 0 0 0 0 1zm.8 4.7c-.2.2-.2.6 0 .8l.4.2c.1 0 .2 0 .3-.2l2.8-3.4 7.7-.3c.3 0 .5-.3.5-.6s-.3-.6-.5-.6L78 29l-3 3.8zm12.5 18.6L87 51c-.5 1.4-1.1 2.8-1.8 4l.4.4c-.7 1.3-1.5 2.5-2.4 3.7l-.3-.4C82 60 81.2 61 80.2 62l.4.4c-1 1-2 2-3.2 2.9l-.2-.5-3.4 2.3.2.5-3.7 1.7-.1-.6c-1.3.5-2.5.9-3.8 1.1v.6l-3.9.5-.2-.6c-1.2 0-2.5 0-3.7-.2v.6l-4-.8.1-.6c-1.2-.4-2.5-.8-3.7-1.4l-.2.5c-1.2-.6-2.4-1.2-3.6-2l.3-.5a21 21 0 0 1-3.3-2.6l-.3.5-3-3.1.4-.4a33 33 0 0 1-2.6-3.5l-.4.3c-.8-1.2-1.5-2.5-2.1-4l.4-.2-1.7-4.2-.4.2c-.5-1.4-.9-2.9-1.2-4.4l.5-.1a34 34 0 0 1-.6-4.6h-.5l-.1-1.7h.5l.1-4.6h-.5l.7-4.7.5.2c.3-1.5.7-3 1.2-4.4l-.5-.2 1.8-4.2.4.3a34 34 0 0 1 2.2-3.8l-.4-.3c.8-1.3 1.7-2.4 2.6-3.5l.4.4 3-3-.4-.4c1.1-.9 2.2-1.7 3.4-2.4l.2.5c1.2-.8 2.4-1.4 3.6-2l-.2-.4A17 17 0 0 1 55 4.3l.1.5 3.9-.6v-.6a21.3 21.3 0 0 1 4 0l-.1.5c1.3.1 2.6.3 3.9.7v-.6c1.4.3 2.7.7 3.9 1.2l-.2.6a26 26 0 0 1 3.6 1.8l.3-.5c1.2.7 2.3 1.5 3.4 2.4l-.3.5 3 3 .4-.5c1 1 1.9 2.2 2.7 3.4l-.4.4 2.3 3.7.4-.2a30 30 0 0 1 1.8 4.1l-.4.2a36 36 0 0 1 1.3 4.4l.4-.2c.4 1.5.7 3 .8 4.6h-.5a38.6 38.6 0 0 1 .3 4.6h.5a36 36 0 0 1-.3 4.7l-.5-.1-.8 4.5.4.1a32 32 0 0 1-1.3 4.4zm5.4-15a40.4 40.4 0 0 0-10-26C77 3.6 69-.4 60.2 0 42.7.5 29 17.6 29.6 38.2a40.5 40.5 0 0 0 10 25.9c6 6.6 14 10.5 22.9 10.3C80 73.8 93.7 56.7 93 36.2zm-4.5-.5-12.4.4c-.3 0-.5.2-.5.6 0 .3.2.5.5.5l12.5-.4c.3 0 .5-.2.5-.6 0-.3-.3-.5-.6-.5zM38.3 23.5l4-.1 4.9 5.4.3.2c.1 0 .3 0 .4-.2.2-.2.1-.6 0-.8l-5.3-5.8-4.3.1c-.3 0-.5.3-.5.6 0 .4.2.6.5.6zm8.8 14.1c0-.3-.2-.6-.5-.5l-12.5.3c-.3 0-.5.3-.5.6 0 .4.2.6.5.6l12.5-.4c.3 0 .5-.3.5-.6zm.5 4c.2-.2.1-.5 0-.7a.5.5 0 0 0-.4-.2c-.1 0-.3 0-.4.2l-2.7 3.4-7.7.3c-.3 0-.5.2-.5.6 0 .3.2.5.5.5l8.1-.2 3-3.8zm.8 4.8a.5.5 0 0 0-.4-.2s-.2 0-.3.2L43 52l-4 .1c-.2 0-.4.3-.4.6 0 .4.2.6.5.6l4.3-.1 5-6.1c.1-.2.1-.6-.1-.8zm30.6 11-.3.1a22.5 22.5 0 0 1-16.5 8.3c-6.2.2-12.3-2.4-17-7.2a.4.4 0 0 0-.3-.2c-.1 0-.3 0-.4.2-.1.2-.1.6 0 .8 5 5.1 11.2 7.8 17.7 7.6 6.5-.2 12.6-3.3 17.2-8.6.2-.3.2-.6 0-.9a.5.5 0 0 0-.4-.1zM86.7 43l-7.7.3-3-3.3a.5.5 0 0 0-.3-.2c-.2 0-.3 0-.4.2-.2.2-.2.6 0 .8l3.3 3.6 8.1-.2c.3 0 .5-.3.5-.6s-.2-.6-.5-.6zm-2.3 8h-4l-4.9-5.4a.5.5 0 0 0-.4-.1s-.2 0-.3.2c-.2.2-.2.6 0 .8l5.3 5.8 4.3-.2c.3 0 .5-.3.5-.6s-.3-.5-.5-.5z" fill="#ffd03e"/><path d="m57.2 23 .2-3.4s1-.3 4.7-.3h6.4l.2 3-5.2 1.4-6.3-.8z" fill="#ffe950"/><path d="M52.5 30.4c.7-2.2 4.7-7.5 4.7-7.5l5.3 5.5v5s-10.9-.5-10-3" fill="#ed9f00"/><path d="m62.5 55 11.4-2.7V30.5l-11.4 2.8z" fill="#ffe950"/><path d="M62.5 55S56 53.2 52 50.2C52.2 46 52 31 52 31s-.3-.5.5-.5c1.4.7 10 3 10 3V55z" fill="#ffd03e"/><path d="M62.5 33.3S59 24.4 57.2 23c1.6.1 10-1.4 11.5-.7a47 47 0 0 1 5.2 8.3l-11.4 2.8z" fill="#ffe950"/><path d="M53.6 45.5V49l2.8 1.3v-3.9z" fill="#e19100"/><path d="m63.6 40.7.2-3.3 1-.2.5.5.4-.5.8-.2.5 3.2-1 .2-.2-.5v.5l-1 .3-.2-.3v.3zm3.8-3.7h.8v3l-.7.2zm1.4 0 1-.3v2h.6v1l-1.4.2zm1.9-.5h.8v.7l.6-.7.6.5-.5 1 .8 1-.8.4-.7-.8v.8l-.5.3z" fill="#ed9f00"/><g fill="#fbee90"><path d="M83.5 21H79l-4.8 6a1 1 0 0 0 0 1h.3l.5-.3 4.5-5.5 3.9-.2c.3 0 .5-.2.5-.6 0-.3-.3-.5-.5-.5M83 10.2C77 3.7 69-.3 60.2 0 42.7.5 29 17.6 29.6 38.2A43 43 0 0 0 33.2 54l3-1.9-1.3-3.4-.4.2c-.5-1.4-.9-2.9-1.2-4.4l.5-.1a34 34 0 0 1-.6-4.6h-.5l-.1-1.7h.5l.1-4.6h-.5l.7-4.7.5.2c.3-1.5.7-3 1.2-4.4l-.5-.2 1.8-4.2.4.3c.6-1.3 1.4-2.6 2.2-3.8l-.4-.3c.8-1.3 1.7-2.4 2.6-3.5l.4.4 3-3-.4-.4c1.1-.9 2.2-1.7 3.4-2.4l.2.5c1.2-.8 2.4-1.4 3.6-2l-.2-.4A17 17 0 0 1 55 4.3l.1.5 3.9-.6v-.6a21.3 21.3 0 0 1 4 0l-.1.6c1.3 0 2.6.2 3.9.6v-.6c1.4.3 2.7.7 3.9 1.2l-.2.6a26 26 0 0 1 3.6 1.8l.3-.5c1.2.7 2.3 1.5 3.4 2.4l-.3.5 3 3 .4-.5c1 1 1.9 2.2 2.7 3.4l-.4.4 2.3 3.7.4-.2.4.8 2.6-1.6a37.5 37.5 0 0 0-6-9M47.3 40.7c-.1 0-.3 0-.4.2l-2.7 3.4-7.7.3c-.3 0-.5.2-.5.6 0 .3.2.5.5.5l8.1-.2 3-3.8c.3-.3.2-.6 0-.8a.5.5 0 0 0-.3-.2m-11.7-10c0 .4.2.7.5.7l7.7-.3 3 3.3.3.2.4-.2c.1-.3.1-.6 0-.8L44 29.9l-8.2.3c-.2 0-.5.3-.4.6m2.8-7.3 4-.1 4.9 5.4.3.2c.1 0 .3 0 .4-.2.2-.2.1-.6 0-.8l-5.3-5.8-4.3.1c-.3 0-.5.3-.5.6 0 .4.2.6.5.6M77.8 16l.3-.2c.2-.3.2-.6 0-.9a24 24 0 0 0-17.7-7.5c-6.5.2-12.6 3.3-17.1 8.6-.2.2-.2.6 0 .8l.3.2c.2 0 .3 0 .4-.2 4.4-5.1 10.2-8 16.5-8.2 6.2-.2 12.2 2.3 17 7.2l.3.2M33.6 38c0 .4.2.6.5.6l12.5-.4c.3 0 .5-.3.5-.6s-.2-.6-.5-.5l-12.5.3c-.3 0-.5.3-.5.6"/><path d="m73.1 29-21 13.2V31s-.4-.5.4-.5c.7-2.2 4.7-7.5 4.7-7.5l.4.5-.4-.5.2-3.3s1-.3 4.6-.3h6.5l.2 3 .2.2.2.2a27.6 27.6 0 0 1 4 6.4"/></g></g><g transform="translate(264.4 163.3)"><path d="M57.7 125c16 10.3 31.8 2 41.1-18.3-16.3-6.4-38.4-2.2-41.1 18.4" fill="#15b43c"/><ellipse cx="57.3" cy="192.4" fill="#5c6070" fill-opacity=".1" rx="24.9" ry="8"/><path d="M56.3 73.7h2.5V193h-2.5z" fill="#15b43c"/><path d="M58.3 156c-24.2 11.6-44.9-2.7-54.4-32.7 24-6 54.1 3.5 54.4 32.8" fill="#42d466"/><path d="M11 128.7c7.6 5.1 18 11 27.3 16.3 8 4.5 15.4 8.7 19.7 11.6.2.2.6 0 .8-.2.2-.3.1-.6-.2-.8-4.2-3-11.7-7.2-19.7-11.7a478.7 478.7 0 0 1-28.2-16.8.6.6 0 0 0-.7 1l1 .6" fill="#15b43c"/><path d="M29.6 38.2c-.3-11 3.5-21 9.8-28A28 28 0 0 1 60.2 0l-6.7.2a29 29 0 0 0-20.8 10.1c-6.3 7-10.1 17-9.8 28 .6 20.6 15.3 36.8 32.8 36.3l6.8-.2c-17.6.5-32.3-15.7-32.9-36.2" fill="#ed9f00"/><path d="M60.2 0C77.7-.5 92.4 15.7 93 36.2c.7 20.5-13 37.6-30.5 38.2-17.6.5-32.3-15.7-32.9-36.2C29 17.6 42.7.5 60.2 0" fill="#fcba06"/><path d="m67.2 22.2-.2-3h-6.4c-3.7 0-4.6.4-4.6.4l-.3 3.3.5.5-.5-.5s-4 5.3-4.7 7.5c-.7 0-.4.5-.4.5v19.4c4 3 10.4 4.6 10.4 4.6l11.4-2.6V30.5s-3-6-5.2-8.3" fill="#e19100"/><path d="M43.6 17c.2 0 .3 0 .4-.2 4.4-5.1 10.2-8 16.5-8.2 6.2-.2 12.2 2.3 17 7.2l.3.2.3-.2c.2-.3.2-.6 0-.9a24 24 0 0 0-17.7-7.5c-6.5.2-12.6 3.3-17.1 8.6-.2.2-.2.6 0 .8l.3.2zM36 31.4l7.7-.3 3 3.3.3.2.3-.2c.2-.3.2-.6 0-.8l-3.2-3.7-8.2.3c-.2 0-.5.3-.4.6 0 .3.2.6.5.6zM74.3 28l.3.2.4-.2 4.6-5.7 3.9-.2c.3 0 .5-.2.5-.6 0-.3-.3-.5-.5-.5H79l-4.8 6a1 1 0 0 0 0 1zm.8 4.7c-.2.2-.2.6 0 .8l.4.2c.1 0 .2 0 .3-.2l2.8-3.4 7.7-.3c.3 0 .5-.3.5-.6s-.3-.6-.5-.6L78 29l-3 3.8zm12.5 18.6L87 51c-.5 1.4-1.1 2.8-1.8 4l.4.4c-.7 1.3-1.5 2.5-2.4 3.7l-.3-.4C82 60 81.2 61 80.2 62l.4.4c-1 1-2 2-3.2 2.9l-.2-.5-3.4 2.3.2.5-3.7 1.7-.1-.6c-1.3.5-2.5.9-3.8 1.1v.6l-3.9.5-.2-.6c-1.2 0-2.5 0-3.7-.2v.6l-4-.8.1-.6c-1.2-.4-2.5-.8-3.7-1.4l-.2.5c-1.2-.6-2.4-1.2-3.6-2l.3-.5a21 21 0 0 1-3.3-2.6l-.3.5-3-3.1.4-.4a33 33 0 0 1-2.6-3.5l-.4.3c-.8-1.2-1.5-2.5-2.1-4l.4-.2-1.7-4.2-.4.2c-.5-1.4-.9-2.9-1.2-4.4l.5-.1a34 34 0 0 1-.6-4.6h-.5l-.1-1.7h.5l.1-4.6h-.5l.7-4.7.5.2c.3-1.5.7-3 1.2-4.4l-.5-.2 1.8-4.2.4.3a34 34 0 0 1 2.2-3.8l-.4-.3c.8-1.3 1.7-2.4 2.6-3.5l.4.4 3-3-.4-.4c1.1-.9 2.2-1.7 3.4-2.4l.2.5c1.2-.8 2.4-1.4 3.6-2l-.2-.4A17 17 0 0 1 55 4.3l.1.5 3.9-.6v-.6a21.3 21.3 0 0 1 4 0l-.1.5c1.3.1 2.6.3 3.9.7v-.6c1.4.3 2.7.7 3.9 1.2l-.2.6a26 26 0 0 1 3.6 1.8l.3-.5c1.2.7 2.3 1.5 3.4 2.4l-.3.5 3 3 .4-.5c1 1 1.9 2.2 2.7 3.4l-.4.4 2.3 3.7.4-.2a30 30 0 0 1 1.8 4.1l-.4.2a36 36 0 0 1 1.3 4.4l.4-.2c.4 1.5.7 3 .8 4.6h-.5a38.6 38.6 0 0 1 .3 4.6h.5a36 36 0 0 1-.3 4.7l-.5-.1-.8 4.5.4.1a32 32 0 0 1-1.3 4.4zm5.4-15a40.4 40.4 0 0 0-10-26C77 3.6 69-.4 60.2 0 42.7.5 29 17.6 29.6 38.2a40.5 40.5 0 0 0 10 25.9c6 6.6 14 10.5 22.9 10.3C80 73.8 93.7 56.7 93 36.2zm-4.5-.5-12.4.4c-.3 0-.5.2-.5.6 0 .3.2.5.5.5l12.5-.4c.3 0 .5-.2.5-.6 0-.3-.3-.5-.6-.5zM38.3 23.5l4-.1 4.9 5.4.3.2c.1 0 .3 0 .4-.2.2-.2.1-.6 0-.8l-5.3-5.8-4.3.1c-.3 0-.5.3-.5.6 0 .4.2.6.5.6zm8.8 14.1c0-.3-.2-.6-.5-.5l-12.5.3c-.3 0-.5.3-.5.6 0 .4.2.6.5.6l12.5-.4c.3 0 .5-.3.5-.6zm.5 4c.2-.2.1-.5 0-.7a.5.5 0 0 0-.4-.2c-.1 0-.3 0-.4.2l-2.7 3.4-7.7.3c-.3 0-.5.2-.5.6 0 .3.2.5.5.5l8.1-.2 3-3.8zm.8 4.8a.5.5 0 0 0-.4-.2s-.2 0-.3.2L43 52l-4 .1c-.2 0-.4.3-.4.6 0 .4.2.6.5.6l4.3-.1 5-6.1c.1-.2.1-.6-.1-.8zm30.6 11-.3.1a22.5 22.5 0 0 1-16.5 8.3c-6.2.2-12.3-2.4-17-7.2a.4.4 0 0 0-.3-.2c-.1 0-.3 0-.4.2-.1.2-.1.6 0 .8 5 5.1 11.2 7.8 17.7 7.6 6.5-.2 12.6-3.3 17.2-8.6.2-.3.2-.6 0-.9a.5.5 0 0 0-.4-.1zM86.7 43l-7.7.3-3-3.3a.5.5 0 0 0-.3-.2c-.2 0-.3 0-.4.2-.2.2-.2.6 0 .8l3.3 3.6 8.1-.2c.3 0 .5-.3.5-.6s-.2-.6-.5-.6zm-2.3 8h-4l-4.9-5.4a.5.5 0 0 0-.4-.1s-.2 0-.3.2c-.2.2-.2.6 0 .8l5.3 5.8 4.3-.2c.3 0 .5-.3.5-.6s-.3-.5-.5-.5z" fill="#ffd03e"/><path d="m57.2 23 .2-3.4s1-.3 4.7-.3h6.4l.2 3-5.2 1.4-6.3-.8z" fill="#ffe950"/><path d="M52.5 30.4c.7-2.2 4.7-7.5 4.7-7.5l5.3 5.5v5s-10.9-.5-10-3" fill="#ed9f00"/><path d="m62.5 55 11.4-2.7V30.5l-11.4 2.8z" fill="#ffe950"/><path d="M62.5 55S56 53.2 52 50.2C52.2 46 52 31 52 31s-.3-.5.5-.5c1.4.7 10 3 10 3V55z" fill="#ffd03e"/><path d="M62.5 33.3S59 24.4 57.2 23c1.6.1 10-1.4 11.5-.7a47 47 0 0 1 5.2 8.3l-11.4 2.8z" fill="#ffe950"/><path d="M53.6 45.5V49l2.8 1.3v-3.9z" fill="#e19100"/><path d="m63.6 40.7.2-3.3 1-.2.5.5.4-.5.8-.2.5 3.2-1 .2-.2-.5v.5l-1 .3-.2-.3v.3zm3.8-3.7h.8v3l-.7.2zm1.4 0 1-.3v2h.6v1l-1.4.2zm1.9-.5h.8v.7l.6-.7.6.5-.5 1 .8 1-.8.4-.7-.8v.8l-.5.3z" fill="#ed9f00"/><g fill="#fbee90"><path d="M83.5 21H79l-4.8 6a1 1 0 0 0 0 1h.3l.5-.3 4.5-5.5 3.9-.2c.3 0 .5-.2.5-.6 0-.3-.3-.5-.5-.5M83 10.2C77 3.7 69-.3 60.2 0 42.7.5 29 17.6 29.6 38.2A43 43 0 0 0 33.2 54l3-1.9-1.3-3.4-.4.2c-.5-1.4-.9-2.9-1.2-4.4l.5-.1a34 34 0 0 1-.6-4.6h-.5l-.1-1.7h.5l.1-4.6h-.5l.7-4.7.5.2c.3-1.5.7-3 1.2-4.4l-.5-.2 1.8-4.2.4.3c.6-1.3 1.4-2.6 2.2-3.8l-.4-.3c.8-1.3 1.7-2.4 2.6-3.5l.4.4 3-3-.4-.4c1.1-.9 2.2-1.7 3.4-2.4l.2.5c1.2-.8 2.4-1.4 3.6-2l-.2-.4A17 17 0 0 1 55 4.3l.1.5 3.9-.6v-.6a21.3 21.3 0 0 1 4 0l-.1.6c1.3 0 2.6.2 3.9.6v-.6c1.4.3 2.7.7 3.9 1.2l-.2.6a26 26 0 0 1 3.6 1.8l.3-.5c1.2.7 2.3 1.5 3.4 2.4l-.3.5 3 3 .4-.5c1 1 1.9 2.2 2.7 3.4l-.4.4 2.3 3.7.4-.2.4.8 2.6-1.6a37.5 37.5 0 0 0-6-9M47.3 40.7c-.1 0-.3 0-.4.2l-2.7 3.4-7.7.3c-.3 0-.5.2-.5.6 0 .3.2.5.5.5l8.1-.2 3-3.8c.3-.3.2-.6 0-.8a.5.5 0 0 0-.3-.2m-11.7-10c0 .4.2.7.5.7l7.7-.3 3 3.3.3.2.4-.2c.1-.3.1-.6 0-.8L44 29.9l-8.2.3c-.2 0-.5.3-.4.6m2.8-7.3 4-.1 4.9 5.4.3.2c.1 0 .3 0 .4-.2.2-.2.1-.6 0-.8l-5.3-5.8-4.3.1c-.3 0-.5.3-.5.6 0 .4.2.6.5.6M77.8 16l.3-.2c.2-.3.2-.6 0-.9a24 24 0 0 0-17.7-7.5c-6.5.2-12.6 3.3-17.1 8.6-.2.2-.2.6 0 .8l.3.2c.2 0 .3 0 .4-.2 4.4-5.1 10.2-8 16.5-8.2 6.2-.2 12.2 2.3 17 7.2l.3.2M33.6 38c0 .4.2.6.5.6l12.5-.4c.3 0 .5-.3.5-.6s-.2-.6-.5-.5l-12.5.3c-.3 0-.5.3-.5.6"/><path d="m73.1 29-21 13.2V31s-.4-.5.4-.5c.7-2.2 4.7-7.5 4.7-7.5l.4.5-.4-.5.2-3.3s1-.3 4.6-.3h6.5l.2 3 .2.2.2.2a27.6 27.6 0 0 1 4 6.4"/></g></g><g transform="translate(375 115.6)"><path d="M57.7 125c16 10.3 31.8 2 41.1-18.3-16.3-6.4-38.4-2.2-41.1 18.4" fill="#15b43c"/><ellipse cx="57.3" cy="192.4" fill="#5c6070" fill-opacity=".1" rx="24.9" ry="8"/><path d="M56.3 73.7h2.5V193h-2.5z" fill="#15b43c"/><path d="M58.3 156c-24.2 11.6-44.9-2.7-54.4-32.7 24-6 54.1 3.5 54.4 32.8" fill="#42d466"/><path d="M11 128.7c7.6 5.1 18 11 27.3 16.3 8 4.5 15.4 8.7 19.7 11.6.2.2.6 0 .8-.2.2-.3.1-.6-.2-.8-4.2-3-11.7-7.2-19.7-11.7a478.7 478.7 0 0 1-28.2-16.8.6.6 0 0 0-.7 1l1 .6" fill="#15b43c"/><path d="M29.6 38.2c-.3-11 3.5-21 9.8-28A28 28 0 0 1 60.2 0l-6.7.2a29 29 0 0 0-20.8 10.1c-6.3 7-10.1 17-9.8 28 .6 20.6 15.3 36.8 32.8 36.3l6.8-.2c-17.6.5-32.3-15.7-32.9-36.2" fill="#ed9f00"/><path d="M60.2 0C77.7-.5 92.4 15.7 93 36.2c.7 20.5-13 37.6-30.5 38.2-17.6.5-32.3-15.7-32.9-36.2C29 17.6 42.7.5 60.2 0" fill="#fcba06"/><path d="m67.2 22.2-.2-3h-6.4c-3.7 0-4.6.4-4.6.4l-.3 3.3.5.5-.5-.5s-4 5.3-4.7 7.5c-.7 0-.4.5-.4.5v19.4c4 3 10.4 4.6 10.4 4.6l11.4-2.6V30.5s-3-6-5.2-8.3" fill="#e19100"/><path d="M43.6 17c.2 0 .3 0 .4-.2 4.4-5.1 10.2-8 16.5-8.2 6.2-.2 12.2 2.3 17 7.2l.3.2.3-.2c.2-.3.2-.6 0-.9a24 24 0 0 0-17.7-7.5c-6.5.2-12.6 3.3-17.1 8.6-.2.2-.2.6 0 .8l.3.2zM36 31.4l7.7-.3 3 3.3.3.2.3-.2c.2-.3.2-.6 0-.8l-3.2-3.7-8.2.3c-.2 0-.5.3-.4.6 0 .3.2.6.5.6zM74.3 28l.3.2.4-.2 4.6-5.7 3.9-.2c.3 0 .5-.2.5-.6 0-.3-.3-.5-.5-.5H79l-4.8 6a1 1 0 0 0 0 1zm.8 4.7c-.2.2-.2.6 0 .8l.4.2c.1 0 .2 0 .3-.2l2.8-3.4 7.7-.3c.3 0 .5-.3.5-.6s-.3-.6-.5-.6L78 29l-3 3.8zm12.5 18.6L87 51c-.5 1.4-1.1 2.8-1.8 4l.4.4c-.7 1.3-1.5 2.5-2.4 3.7l-.3-.4C82 60 81.2 61 80.2 62l.4.4c-1 1-2 2-3.2 2.9l-.2-.5-3.4 2.3.2.5-3.7 1.7-.1-.6c-1.3.5-2.5.9-3.8 1.1v.6l-3.9.5-.2-.6c-1.2 0-2.5 0-3.7-.2v.6l-4-.8.1-.6c-1.2-.4-2.5-.8-3.7-1.4l-.2.5c-1.2-.6-2.4-1.2-3.6-2l.3-.5a21 21 0 0 1-3.3-2.6l-.3.5-3-3.1.4-.4a33 33 0 0 1-2.6-3.5l-.4.3c-.8-1.2-1.5-2.5-2.1-4l.4-.2-1.7-4.2-.4.2c-.5-1.4-.9-2.9-1.2-4.4l.5-.1a34 34 0 0 1-.6-4.6h-.5l-.1-1.7h.5l.1-4.6h-.5l.7-4.7.5.2c.3-1.5.7-3 1.2-4.4l-.5-.2 1.8-4.2.4.3a34 34 0 0 1 2.2-3.8l-.4-.3c.8-1.3 1.7-2.4 2.6-3.5l.4.4 3-3-.4-.4c1.1-.9 2.2-1.7 3.4-2.4l.2.5c1.2-.8 2.4-1.4 3.6-2l-.2-.4A17 17 0 0 1 55 4.3l.1.5 3.9-.6v-.6a21.3 21.3 0 0 1 4 0l-.1.5c1.3.1 2.6.3 3.9.7v-.6c1.4.3 2.7.7 3.9 1.2l-.2.6a26 26 0 0 1 3.6 1.8l.3-.5c1.2.7 2.3 1.5 3.4 2.4l-.3.5 3 3 .4-.5c1 1 1.9 2.2 2.7 3.4l-.4.4 2.3 3.7.4-.2a30 30 0 0 1 1.8 4.1l-.4.2a36 36 0 0 1 1.3 4.4l.4-.2c.4 1.5.7 3 .8 4.6h-.5a38.6 38.6 0 0 1 .3 4.6h.5a36 36 0 0 1-.3 4.7l-.5-.1-.8 4.5.4.1a32 32 0 0 1-1.3 4.4zm5.4-15a40.4 40.4 0 0 0-10-26C77 3.6 69-.4 60.2 0 42.7.5 29 17.6 29.6 38.2a40.5 40.5 0 0 0 10 25.9c6 6.6 14 10.5 22.9 10.3C80 73.8 93.7 56.7 93 36.2zm-4.5-.5-12.4.4c-.3 0-.5.2-.5.6 0 .3.2.5.5.5l12.5-.4c.3 0 .5-.2.5-.6 0-.3-.3-.5-.6-.5zM38.3 23.5l4-.1 4.9 5.4.3.2c.1 0 .3 0 .4-.2.2-.2.1-.6 0-.8l-5.3-5.8-4.3.1c-.3 0-.5.3-.5.6 0 .4.2.6.5.6zm8.8 14.1c0-.3-.2-.6-.5-.5l-12.5.3c-.3 0-.5.3-.5.6 0 .4.2.6.5.6l12.5-.4c.3 0 .5-.3.5-.6zm.5 4c.2-.2.1-.5 0-.7a.5.5 0 0 0-.4-.2c-.1 0-.3 0-.4.2l-2.7 3.4-7.7.3c-.3 0-.5.2-.5.6 0 .3.2.5.5.5l8.1-.2 3-3.8zm.8 4.8a.5.5 0 0 0-.4-.2s-.2 0-.3.2L43 52l-4 .1c-.2 0-.4.3-.4.6 0 .4.2.6.5.6l4.3-.1 5-6.1c.1-.2.1-.6-.1-.8zm30.6 11-.3.1a22.5 22.5 0 0 1-16.5 8.3c-6.2.2-12.3-2.4-17-7.2a.4.4 0 0 0-.3-.2c-.1 0-.3 0-.4.2-.1.2-.1.6 0 .8 5 5.1 11.2 7.8 17.7 7.6 6.5-.2 12.6-3.3 17.2-8.6.2-.3.2-.6 0-.9a.5.5 0 0 0-.4-.1zM86.7 43l-7.7.3-3-3.3a.5.5 0 0 0-.3-.2c-.2 0-.3 0-.4.2-.2.2-.2.6 0 .8l3.3 3.6 8.1-.2c.3 0 .5-.3.5-.6s-.2-.6-.5-.6zm-2.3 8h-4l-4.9-5.4a.5.5 0 0 0-.4-.1s-.2 0-.3.2c-.2.2-.2.6 0 .8l5.3 5.8 4.3-.2c.3 0 .5-.3.5-.6s-.3-.5-.5-.5z" fill="#ffd03e"/><path d="m57.2 23 .2-3.4s1-.3 4.7-.3h6.4l.2 3-5.2 1.4-6.3-.8z" fill="#ffe950"/><path d="M52.5 30.4c.7-2.2 4.7-7.5 4.7-7.5l5.3 5.5v5s-10.9-.5-10-3" fill="#ed9f00"/><path d="m62.5 55 11.4-2.7V30.5l-11.4 2.8z" fill="#ffe950"/><path d="M62.5 55S56 53.2 52 50.2C52.2 46 52 31 52 31s-.3-.5.5-.5c1.4.7 10 3 10 3V55z" fill="#ffd03e"/><path d="M62.5 33.3S59 24.4 57.2 23c1.6.1 10-1.4 11.5-.7a47 47 0 0 1 5.2 8.3l-11.4 2.8z" fill="#ffe950"/><path d="M53.6 45.5V49l2.8 1.3v-3.9z" fill="#e19100"/><path d="m63.6 40.7.2-3.3 1-.2.5.5.4-.5.8-.2.5 3.2-1 .2-.2-.5v.5l-1 .3-.2-.3v.3zm3.8-3.7h.8v3l-.7.2zm1.4 0 1-.3v2h.6v1l-1.4.2zm1.9-.5h.8v.7l.6-.7.6.5-.5 1 .8 1-.8.4-.7-.8v.8l-.5.3z" fill="#ed9f00"/><g fill="#fbee90"><path d="M83.5 21H79l-4.8 6a1 1 0 0 0 0 1h.3l.5-.3 4.5-5.5 3.9-.2c.3 0 .5-.2.5-.6 0-.3-.3-.5-.5-.5M83 10.2C77 3.7 69-.3 60.2 0 42.7.5 29 17.6 29.6 38.2A43 43 0 0 0 33.2 54l3-1.9-1.3-3.4-.4.2c-.5-1.4-.9-2.9-1.2-4.4l.5-.1a34 34 0 0 1-.6-4.6h-.5l-.1-1.7h.5l.1-4.6h-.5l.7-4.7.5.2c.3-1.5.7-3 1.2-4.4l-.5-.2 1.8-4.2.4.3c.6-1.3 1.4-2.6 2.2-3.8l-.4-.3c.8-1.3 1.7-2.4 2.6-3.5l.4.4 3-3-.4-.4c1.1-.9 2.2-1.7 3.4-2.4l.2.5c1.2-.8 2.4-1.4 3.6-2l-.2-.4A17 17 0 0 1 55 4.3l.1.5 3.9-.6v-.6a21.3 21.3 0 0 1 4 0l-.1.6c1.3 0 2.6.2 3.9.6v-.6c1.4.3 2.7.7 3.9 1.2l-.2.6a26 26 0 0 1 3.6 1.8l.3-.5c1.2.7 2.3 1.5 3.4 2.4l-.3.5 3 3 .4-.5c1 1 1.9 2.2 2.7 3.4l-.4.4 2.3 3.7.4-.2.4.8 2.6-1.6a37.5 37.5 0 0 0-6-9M47.3 40.7c-.1 0-.3 0-.4.2l-2.7 3.4-7.7.3c-.3 0-.5.2-.5.6 0 .3.2.5.5.5l8.1-.2 3-3.8c.3-.3.2-.6 0-.8a.5.5 0 0 0-.3-.2m-11.7-10c0 .4.2.7.5.7l7.7-.3 3 3.3.3.2.4-.2c.1-.3.1-.6 0-.8L44 29.9l-8.2.3c-.2 0-.5.3-.4.6m2.8-7.3 4-.1 4.9 5.4.3.2c.1 0 .3 0 .4-.2.2-.2.1-.6 0-.8l-5.3-5.8-4.3.1c-.3 0-.5.3-.5.6 0 .4.2.6.5.6M77.8 16l.3-.2c.2-.3.2-.6 0-.9a24 24 0 0 0-17.7-7.5c-6.5.2-12.6 3.3-17.1 8.6-.2.2-.2.6 0 .8l.3.2c.2 0 .3 0 .4-.2 4.4-5.1 10.2-8 16.5-8.2 6.2-.2 12.2 2.3 17 7.2l.3.2M33.6 38c0 .4.2.6.5.6l12.5-.4c.3 0 .5-.3.5-.6s-.2-.6-.5-.5l-12.5.3c-.3 0-.5.3-.5.6"/><path d="m73.1 29-21 13.2V31s-.4-.5.4-.5c.7-2.2 4.7-7.5 4.7-7.5l.4.5-.4-.5.2-3.3s1-.3 4.6-.3h6.5l.2 3 .2.2.2.2a27.6 27.6 0 0 1 4 6.4"/></g></g></g></svg>