<svg viewBox="0 0 403 364" xmlns="http://www.w3.org/2000/svg"><linearGradient id="a" x1="42.87%" x2="42.87%" y1="100%" y2="0%"><stop offset="0" stop-color="#f3f6fe" stop-opacity="0"/><stop offset=".3" stop-color="#e3eafc" stop-opacity=".96"/><stop offset=".79" stop-color="#ccd5ed"/><stop offset="1" stop-color="#e2e9fc" stop-opacity="0"/></linearGradient><path d="M89.81 299.9a2.12 2.12 0 0 1-2.12-2.12v-4.32a2.12 2.12 0 0 1 4.25 0v4.32c0 1.17-.96 2.13-2.13 2.13zm0-11.03a4.59 4.59 0 0 0-4.58 4.59v4.33a4.59 4.59 0 0 0 4.58 4.58 4.59 4.59 0 0 0 4.59-4.59v-4.32a4.59 4.59 0 0 0-4.59-4.59zm2.18 34v-13.33h-4.35v2.53h1.82v10.8zm224.13-85.16a2.12 2.12 0 0 1-2.12-2.12v-4.33a2.12 2.12 0 0 1 4.24 0v4.33a2.12 2.12 0 0 1-2.12 2.12zm0-11.03a4.59 4.59 0 0 0-4.58 4.58v4.33a4.59 4.59 0 0 0 4.58 4.58 4.59 4.59 0 0 0 4.59-4.58v-4.33a4.59 4.59 0 0 0-4.59-4.58zM89.82 341.09a2.12 2.12 0 0 1-2.13-2.12v-4.33a2.12 2.12 0 0 1 4.25 0v4.33c0 1.17-.96 2.12-2.13 2.12zm0-11.03a4.59 4.59 0 0 0-4.59 4.58v4.33a4.59 4.59 0 0 0 4.58 4.58 4.59 4.59 0 0 0 4.59-4.58v-4.33a4.59 4.59 0 0 0-4.59-4.58zm2.17-48.6v-13.34h-4.35v2.53h1.82v10.8H92zm223.88-9.73v7.88h1.84v-9.72h-3.18v1.84zM89.8 237.7a2.12 2.12 0 0 1-2.12-2.12v-4.33a2.12 2.12 0 0 1 4.25 0v4.33c0 1.17-.96 2.12-2.13 2.12zm0-11.03a4.59 4.59 0 0 0-4.58 4.58v4.33a4.59 4.59 0 0 0 4.58 4.58 4.59 4.59 0 0 0 4.59-4.58v-4.33a4.59 4.59 0 0 0-4.59-4.58zm-20.57-77.25c.62 0 1.13.5 1.13 1.12v2.3a1.13 1.13 0 0 1-2.26 0v-2.3c0-.62.51-1.12 1.13-1.12zm-2.44 3.43a2.44 2.44 0 0 0 2.44 2.43 2.44 2.44 0 0 0 2.44-2.43v-2.3a2.44 2.44 0 0 0-2.44-2.44 2.44 2.44 0 0 0-2.44 2.44zM89.8 361.53a2.12 2.12 0 0 1-2.12-2.12v-4.33a2.12 2.12 0 0 1 4.25 0v4.33c0 1.17-.96 2.12-2.13 2.12zm0-11.03a4.59 4.59 0 0 0-4.58 4.58v4.33a4.59 4.59 0 0 0 4.58 4.58 4.59 4.59 0 0 0 4.59-4.58v-4.33a4.59 4.59 0 0 0-4.59-4.58zM316.13 293c.62 0 1.13.5 1.13 1.13v2.3a1.13 1.13 0 0 1-2.26 0v-2.3c0-.62.51-1.13 1.13-1.13zm-2.44 1.13v2.3a2.44 2.44 0 0 0 2.44 2.44 2.44 2.44 0 0 0 2.44-2.44v-2.3a2.44 2.44 0 0 0-2.44-2.43 2.44 2.44 0 0 0-2.44 2.43zm2.44-97.5a2.12 2.12 0 0 1-2.12-2.11v-4.33a2.12 2.12 0 0 1 4.24 0v4.33a2.12 2.12 0 0 1-2.12 2.12zm0-11.02a4.59 4.59 0 0 0-4.58 4.58v4.33a4.59 4.59 0 0 0 4.58 4.58 4.59 4.59 0 0 0 4.59-4.58v-4.33a4.59 4.59 0 0 0-4.59-4.58zm-244.7 54.61v-13.34h-4.36v2.53h1.83v10.81zm246.88-61.56v-13.34h-4.36v2.53h1.83v10.8zM69.24 210.7a1.13 1.13 0 0 1 1.13 1.13v2.3a1.13 1.13 0 0 1-2.26 0v-2.3c0-.62.5-1.13 1.13-1.13zm-2.44 3.43a2.44 2.44 0 0 0 2.44 2.43 2.44 2.44 0 0 0 2.44-2.43v-2.3a2.44 2.44 0 0 0-2.44-2.44 2.44 2.44 0 0 0-2.44 2.44zm251.5 5.65v-13.33h-4.36v2.52h1.83v10.81zM70.4 168.75h-2.32v1.34h.97v5.74h1.35zm0 27.63v-7.1h-2.32v1.35h.97v5.75zm1.02-141.25V41.79h-4.36v2.53h1.83v10.8h2.53zm-2.18-22.97a2.12 2.12 0 0 1-2.12-2.12V25.7a2.12 2.12 0 0 1 4.24 0v4.33c0 1.17-.95 2.12-2.12 2.12zm0-11.03a4.59 4.59 0 0 0-4.58 4.58v4.33a4.59 4.59 0 0 0 4.58 4.58 4.59 4.59 0 0 0 4.59-4.58V25.7a4.59 4.59 0 0 0-4.59-4.58zm0 52.26a2.12 2.12 0 0 1-2.12-2.12v-4.33a2.12 2.12 0 0 1 4.24 0v4.33c0 1.17-.95 2.12-2.12 2.12zm0-11.03a4.59 4.59 0 0 0-4.58 4.58v4.33a4.59 4.59 0 0 0 4.58 4.58 4.59 4.59 0 0 0 4.59-4.58v-4.33a4.59 4.59 0 0 0-4.59-4.58zm0 31.47a2.12 2.12 0 0 1-2.12-2.12V87.4a2.12 2.12 0 0 1 4.24 0v4.32c0 1.17-.95 2.12-2.12 2.12zm0-11.03a4.59 4.59 0 0 0-4.58 4.59v4.32a4.59 4.59 0 0 0 4.58 4.59 4.59 4.59 0 0 0 4.59-4.59V87.4a4.59 4.59 0 0 0-4.59-4.59zm20.57 134.46a2.12 2.12 0 0 1-2.12-2.12v-4.33a2.12 2.12 0 0 1 4.25 0v4.33c0 1.17-.96 2.12-2.13 2.12zm0-11.03a4.59 4.59 0 0 0-4.58 4.58v4.33a4.59 4.59 0 0 0 4.58 4.58 4.59 4.59 0 0 0 4.59-4.58v-4.33a4.59 4.59 0 0 0-4.59-4.58zm0 52.26a2.12 2.12 0 0 1-2.12-2.12v-4.33a2.12 2.12 0 0 1 4.25 0v4.33c0 1.17-.96 2.12-2.13 2.12zm0-11.03a4.59 4.59 0 0 0-4.58 4.58v4.33a4.59 4.59 0 0 0 4.58 4.58 4.59 4.59 0 0 0 4.59-4.58v-4.33a4.59 4.59 0 0 0-4.59-4.58zm61.72 69.53a.6.6 0 0 1-.6-.6v-1.22a.6.6 0 0 1 1.2 0v1.22a.6.6 0 0 1-.6.6zm0-3.12a1.3 1.3 0 0 0-1.29 1.3v1.22a1.3 1.3 0 0 0 2.59 0v-1.22c0-.71-.58-1.3-1.3-1.3zm.6 23.26a.6.6 0 0 1-1.2 0v-1.22a.6.6 0 0 1 1.2 0v1.22zm-.6-2.52a1.3 1.3 0 0 0-1.29 1.3v1.22a1.3 1.3 0 0 0 2.59 0v-1.22c0-.72-.58-1.3-1.3-1.3zm-18.45-78.28c0 1.17-.95 2.12-2.12 2.12a2.12 2.12 0 0 1-2.12-2.12V252c0-1.17.95-2.12 2.12-2.12a2.12 2.12 0 0 1 2.12 2.12zm-2.12-8.91a4.59 4.59 0 0 0-4.58 4.58v4.33a4.59 4.59 0 0 0 4.58 4.58 4.59 4.59 0 0 0 4.59-4.58V252a4.59 4.59 0 0 0-4.59-4.58zm184.32 107.1v.98h.7v4.19h.98v-5.17h-1.68zm.84-16.34a.82.82 0 0 1-.82-.82v-1.68a.82.82 0 0 1 1.64 0v1.68c0 .45-.37.82-.82.82zm0-4.28c-.98 0-1.78.8-1.78 1.78v1.68a1.78 1.78 0 0 0 1.78 1.77 1.78 1.78 0 0 0 1.78-1.77v-1.68c0-.98-.8-1.78-1.78-1.78zm-165.2 21.32v.71h.51V359h.72v-3.77zm.61-120.13a.82.82 0 0 1-.82-.83v-1.67a.82.82 0 0 1 1.65 0v1.67c0 .46-.37.82-.83.83zm0-4.28c-.98 0-1.77.8-1.77 1.78v1.67a1.78 1.78 0 0 0 3.55 0v-1.67c0-.98-.8-1.78-1.78-1.78zM295.55 11.07a2.12 2.12 0 0 1-2.12-2.12V4.62a2.12 2.12 0 0 1 4.24 0v4.33c0 1.17-.95 2.12-2.12 2.12zm0-11.03a4.59 4.59 0 0 0-4.59 4.59v4.32a4.59 4.59 0 0 0 4.59 4.58 4.59 4.59 0 0 0 4.58-4.58V4.63a4.59 4.59 0 0 0-4.58-4.59zm-143.4 297.31v-3.76h-1.23v.71h.52v3.05h.71zm-.62-23.95a.6.6 0 0 1 .6.6v1.22a.6.6 0 0 1-1.2 0V274a.6.6 0 0 1 .6-.6zm-1.29.6v1.22a1.3 1.3 0 0 0 2.59 0V274a1.3 1.3 0 0 0-2.59 0zm2.14-17.12v-5.16h-1.69v.98h.7v4.18zm-42 20.85a1.55 1.55 0 0 1-1.54-1.54v-3.16a1.55 1.55 0 0 1 3.1 0v3.16c0 .85-.7 1.54-1.55 1.54zm0-8.04a3.35 3.35 0 0 0-3.34 3.34v3.16c0 1.84 1.5 3.34 3.35 3.34a3.35 3.35 0 0 0 3.34-3.34v-3.16c0-1.84-1.5-3.34-3.34-3.34zm206.87 47.2a1.13 1.13 0 0 1-1.13 1.12 1.13 1.13 0 0 1-1.13-1.12v-2.3a1.13 1.13 0 0 1 2.26 0zm-1.13-4.74a2.44 2.44 0 0 0-2.44 2.44v2.3a2.44 2.44 0 0 0 2.44 2.43 2.44 2.44 0 0 0 2.44-2.43v-2.3a2.44 2.44 0 0 0-2.44-2.44zM111.55 299.3v-7.08h-2.32v1.34h.97v5.74h1.35zm-1.16 18.61a.91.91 0 0 1-.92-.91v-1.86a.91.91 0 0 1 1.83 0V317c0 .5-.4.91-.91.91zm0-4.75a1.98 1.98 0 0 0-1.98 1.98V317c0 1.09.89 1.97 1.98 1.97a1.98 1.98 0 0 0 1.97-1.97v-1.86a1.98 1.98 0 0 0-1.97-1.97zm-.76 21.46v.88h.63v3.77h.89v-4.65zm208.08-75.46v-9.72h-3.18v1.84h1.34v7.88zm-187.6 74.91v.98h.71v4.19h.98v-5.17h-1.68zm-19.85 21h-.63v.88h.63v3.77h.89v-4.65h-.89zm18.52-66.21v2.53h1.83v10.8h2.53v-13.33zm.6 22.49v1.84h1.32v7.88h1.85v-9.72zm-.6-43.27v2.53h1.83v10.8h2.53v-13.33h-4.36zm1.34 86.77v.98h.7v4.19h.98v-5.17zm186-199.15a2.12 2.12 0 0 1-2.12-2.12v-4.33a2.12 2.12 0 0 1 4.24 0v4.33a2.13 2.13 0 0 1-2.12 2.12zm0-11.03a4.59 4.59 0 0 0-4.58 4.58v4.33a4.59 4.59 0 0 0 4.58 4.58 4.59 4.59 0 0 0 4.59-4.58v-4.33a4.59 4.59 0 0 0-4.59-4.58zM25.16 251.89c.62 0 1.13.5 1.13 1.12v2.3a1.13 1.13 0 0 1-2.26 0v-2.3c0-.62.5-1.12 1.13-1.12zm-2.44 3.42a2.44 2.44 0 0 0 2.44 2.44 2.44 2.44 0 0 0 2.44-2.44v-2.3a2.44 2.44 0 0 0-2.44-2.43 2.44 2.44 0 0 0-2.44 2.43v2.3zm4.62 46.79v-13.34h-4.36v2.53h1.83v10.8h2.53zm0-134.28v-2.53h-4.36v2.53h1.83v10.8h2.53v-10.8zm-.6 21.66v-1.84h-3.17v1.84h1.33v7.88h1.85v-7.88zm0 90.13v-9.72h-3.17v1.84h1.33v7.88h1.85zm307.78 32.13h1.82v10.8h2.53v-13.33h-4.35v2.53zm-285.17 2.38h-1.37v.79h.58v3.39h.8v-4.19zm0 24.92v-4.19h-1.37v.8h.58v3.39zm-24.2-183.38a2.12 2.12 0 0 1-2.11-2.12v-4.33a2.12 2.12 0 0 1 4.24 0v4.33c0 1.17-.95 2.12-2.12 2.12zm0-11.03a4.59 4.59 0 0 0-4.58 4.58v4.33a4.59 4.59 0 0 0 4.59 4.58 4.59 4.59 0 0 0 4.58-4.58v-4.33a4.59 4.59 0 0 0-4.58-4.58zM48.68 297.9a1.13 1.13 0 0 1-1.13-1.13v-2.3a1.13 1.13 0 0 1 2.26 0v2.3c0 .62-.51 1.13-1.13 1.13zm0-5.86a2.44 2.44 0 0 0-2.44 2.43v2.3a2.44 2.44 0 0 0 2.44 2.44 2.44 2.44 0 0 0 2.43-2.44v-2.3a2.44 2.44 0 0 0-2.43-2.43zm-.69 63.26v.8h.58v3.38h.8v-4.18zm288.71-99.48a.82.82 0 0 1-.82-.82v-1.68a.82.82 0 0 1 1.65 0V255c0 .45-.37.82-.83.82zm1.78-2.5a1.78 1.78 0 0 0-3.55 0V255c0 .98.8 1.77 1.77 1.77a1.78 1.78 0 0 0 1.78-1.77v-1.68zm-1.78-77.22a2.12 2.12 0 0 1-2.12-2.12v-4.32a2.12 2.12 0 0 1 4.25 0v4.32a2.13 2.13 0 0 1-2.13 2.12zm0-11.03a4.59 4.59 0 0 0-4.58 4.59v4.32a4.59 4.59 0 0 0 4.58 4.59 4.59 4.59 0 0 0 4.59-4.59v-4.32a4.59 4.59 0 0 0-4.59-4.59zM4.6 11.03a2.12 2.12 0 0 1-2.13-2.12V4.58a2.12 2.12 0 0 1 4.25 0v4.33c0 1.17-.96 2.12-2.13 2.12zM4.58 0A4.59 4.59 0 0 0 0 4.58v4.33a4.59 4.59 0 0 0 4.59 4.58 4.59 4.59 0 0 0 4.58-4.58V4.58A4.59 4.59 0 0 0 4.59 0zm1.58 156.37v-9.72H3v1.84h1.33v7.88h1.84zM26 210.53h-1.69v.98h.71v4.19H26v-5.17zm330.42 143.95v.98h.71v4.18h.98v-5.16h-1.69zM4.6 127.5c.85 0 1.54.7 1.54 1.55v3.15c0 .85-.7 1.55-1.55 1.55a1.55 1.55 0 0 1-1.54-1.55v-3.15c0-.85.7-1.55 1.55-1.55zm-3.35 4.7c0 1.84 1.5 3.34 3.35 3.34a3.35 3.35 0 0 0 3.34-3.34v-3.15c0-1.84-1.5-3.34-3.34-3.34a3.35 3.35 0 0 0-3.35 3.34zM26 236.15v-5.17h-1.68v.98h.7v4.19zm-.84 83.87a2.12 2.12 0 0 1-2.12-2.12v-4.32a2.12 2.12 0 0 1 4.24 0v4.32c0 1.17-.95 2.12-2.12 2.12zm0-11.03a4.59 4.59 0 0 0-4.59 4.59v4.32a4.59 4.59 0 0 0 4.59 4.58 4.59 4.59 0 0 0 4.58-4.58v-4.32a4.59 4.59 0 0 0-4.58-4.59zM24 353.52v1.34h.97v5.74h1.35v-7.08H24zm1.16-13.92a1.55 1.55 0 0 1-1.55-1.55v-3.15a1.55 1.55 0 0 1 3.1 0v3.15c0 .86-.7 1.55-1.55 1.55zm0-8.04a3.35 3.35 0 0 0-3.34 3.34v3.15a3.34 3.34 0 0 0 3.34 3.34 3.35 3.35 0 0 0 3.34-3.34v-3.15c0-1.84-1.5-3.34-3.34-3.34zm311.18.91v10.81h2.53v-13.34h-4.35v2.53zM48.38 148.5v8.75h2.05v-10.8H46.9v2.05zm289.47 129.8v-7.09h-2.31v1.35h.97v5.74zM71.01 301.16v-10.8h-3.53v2.05h1.48v8.75H71zm-1.77 39.12c-.95 0-1.72-.77-1.72-1.72v-3.5a1.72 1.72 0 0 1 3.44 0v3.5a1.72 1.72 0 0 1-1.72 1.72zm0-8.94a3.72 3.72 0 0 0-3.71 3.72v3.5a3.72 3.72 0 0 0 3.71 3.7 3.72 3.72 0 0 0 3.72-3.7v-3.5a3.72 3.72 0 0 0-3.72-3.72zm268.61-114.68v-7.1h-2.31v1.35h.97v5.75zm.43-27.18v-1.84h-3.17v1.84h1.33v7.88h1.84zM69.24 278.93a2.12 2.12 0 0 1-2.12-2.12v-4.32a2.12 2.12 0 0 1 4.24 0v4.32c0 1.17-.95 2.12-2.12 2.12zm0-11.02a4.59 4.59 0 0 0-4.58 4.58v4.32a4.59 4.59 0 0 0 4.58 4.59 4.59 4.59 0 0 0 4.59-4.59v-4.32a4.59 4.59 0 0 0-4.59-4.58zm2.18-150.59V104h-4.36v2.53h1.83v10.8zm-2.8 238.9h.52v3.06h.72v-3.77h-1.23v.71zm.62-227.53a1.13 1.13 0 0 1 1.13 1.13v2.3a1.13 1.13 0 0 1-1.13 1.12 1.13 1.13 0 0 1-1.13-1.12v-2.3c0-.62.51-1.13 1.13-1.13zm-2.43 3.43a2.44 2.44 0 0 0 2.43 2.43 2.44 2.44 0 0 0 2.44-2.43v-2.3a2.44 2.44 0 0 0-2.44-2.44 2.44 2.44 0 0 0-2.43 2.44zm2.43 126.37a2.12 2.12 0 0 1-2.12-2.12v-4.33a2.12 2.12 0 0 1 4.24 0v4.33c0 1.17-.95 2.12-2.12 2.12zm0-11.03a4.59 4.59 0 0 0-4.58 4.58v4.33a4.59 4.59 0 0 0 4.58 4.58 4.59 4.59 0 0 0 4.59-4.58v-4.33a4.59 4.59 0 0 0-4.59-4.58zM336.7 361.2a2.12 2.12 0 0 1-2.13-2.12v-4.33a2.13 2.13 0 0 1 2.13-2.12c1.16 0 2.12.95 2.12 2.12v4.33c0 1.17-.96 2.12-2.12 2.12zm0-11.03a4.59 4.59 0 0 0-4.6 4.58v4.33a4.6 4.6 0 0 0 4.6 4.58 4.6 4.6 0 0 0 4.58-4.58v-4.33a4.59 4.59 0 0 0-4.58-4.58zM69.24 319.54c-.95 0-1.72-.77-1.72-1.72v-3.5a1.72 1.72 0 0 1 3.44 0v3.5a1.72 1.72 0 0 1-1.72 1.72zm0-8.94a3.72 3.72 0 0 0-3.71 3.72v3.5a3.72 3.72 0 0 0 3.71 3.71 3.72 3.72 0 0 0 3.72-3.7v-3.51a3.72 3.72 0 0 0-3.72-3.71zm-20.8-58.98v7.1h1.66v-8.75h-2.86v1.66h1.2zm0-20.77v7.09h1.66v-8.75h-2.86v1.66h1.2zm1.66-13.36v-8.75h-2.86v1.66h1.2v7.09h1.66zm-1.43 59.44a1.13 1.13 0 0 1-1.13-1.13v-2.3a1.13 1.13 0 0 1 2.26 0v2.3c0 .62-.51 1.13-1.13 1.13zm0-5.86a2.44 2.44 0 0 0-2.44 2.43v2.3a2.44 2.44 0 0 0 2.44 2.44 2.44 2.44 0 0 0 2.43-2.44v-2.3a2.44 2.44 0 0 0-2.43-2.43zm289.61 29.22v-9.73h-3.17v1.85h1.33v7.88zM48.67 196.16a1.72 1.72 0 0 1-1.72-1.71v-3.5a1.72 1.72 0 0 1 3.44 0v3.5a1.72 1.72 0 0 1-1.72 1.71zm0-8.93a3.72 3.72 0 0 0-3.71 3.71v3.5a3.72 3.72 0 0 0 3.7 3.72 3.72 3.72 0 0 0 3.72-3.71v-3.5a3.72 3.72 0 0 0-3.71-3.72zm288.03 44.54c.45 0 .82.36.82.82v1.67a.82.82 0 1 1-1.65 0v-1.67c0-.46.37-.82.83-.82zm-1.78 2.5a1.78 1.78 0 0 0 3.55 0v-1.68a1.78 1.78 0 0 0-3.55 0zM48.38 168.93v8.75h2.05v-10.8H46.9v2.05zm104.31 6.6v-7.08h-2.31v1.34h.97v5.74zM48.67 114.8a2.12 2.12 0 0 1-2.12-2.12v-4.32a2.12 2.12 0 0 1 4.24 0v4.32c0 1.17-.95 2.12-2.12 2.12zm0-11.03a4.59 4.59 0 0 0-4.59 4.59v4.32a4.59 4.59 0 0 0 4.59 4.58 4.59 4.59 0 0 0 4.58-4.58v-4.32a4.59 4.59 0 0 0-4.58-4.59zm1.76 32.73v-10.8H46.9v2.05h1.48v8.76h2.05zm245.12 204.3a2.12 2.12 0 0 1-2.12-2.12v-4.33a2.12 2.12 0 0 1 4.24 0v4.33c0 1.17-.95 2.12-2.12 2.12zm0-11.03a4.59 4.59 0 0 0-4.59 4.58v4.33a4.59 4.59 0 0 0 4.59 4.58 4.59 4.59 0 0 0 4.58-4.58v-4.33a4.59 4.59 0 0 0-4.58-4.58zm-144.2-139.43v5.74h1.34V189h-2.31v1.34h.97zm81.63 164.18v.98h.71v4.18h.98v-5.16zM213.25 155.7a2.12 2.12 0 0 1-2.12-2.12v-4.33a2.12 2.12 0 0 1 4.25 0v4.33c0 1.17-.95 2.12-2.13 2.12zm0-11.03a4.59 4.59 0 0 0-4.58 4.58v4.33a4.59 4.59 0 0 0 4.58 4.58 4.59 4.59 0 0 0 4.59-4.58v-4.33a4.59 4.59 0 0 0-4.59-4.58zm18.99 166.38v1.85h1.33v7.88h1.85v-9.73zm62.71-119.3a.6.6 0 0 1 1.2 0v1.22a.6.6 0 0 1-1.2 0v-1.22zm-.7 1.22a1.3 1.3 0 0 0 2.6 0v-1.22a1.3 1.3 0 0 0-2.6 0zm-42.03 157.46v2.53h1.83v10.81h2.53v-13.34h-4.36zm-18.4-91.98a2.12 2.12 0 0 1-2.11-2.12V252c0-1.17.95-2.12 2.12-2.12a2.13 2.13 0 0 1 2.12 2.12v4.33c0 1.17-.95 2.12-2.12 2.12zm0-11.03a4.59 4.59 0 0 0-4.58 4.58v4.33a4.59 4.59 0 0 0 4.59 4.58 4.59 4.59 0 0 0 4.58-4.58V252a4.59 4.59 0 0 0-4.58-4.58zM5.75 113.87v-7.09H3.43v1.34h.97v5.75zM233.83 299.6a2.12 2.12 0 0 1-2.12-2.12v-4.32a2.12 2.12 0 0 1 4.24 0v4.32c0 1.17-.95 2.12-2.12 2.12zm0-11.02a4.59 4.59 0 0 0-4.59 4.58v4.32a4.59 4.59 0 0 0 4.59 4.59 4.59 4.59 0 0 0 4.58-4.59v-4.32a4.59 4.59 0 0 0-4.58-4.58zm-18.4-109.92v-13.34h-4.35v2.53h1.82v10.8h2.53zm20.58 102.75v-13.34h-4.36v2.53h1.83v10.8H236zm-21.63 15.06a1.13 1.13 0 0 1-2.25 0v-2.3a1.13 1.13 0 0 1 2.25 0zm-1.13-4.73a2.44 2.44 0 0 0-2.43 2.43v2.3a2.44 2.44 0 0 0 2.43 2.44 2.44 2.44 0 0 0 2.44-2.44v-2.3a2.44 2.44 0 0 0-2.44-2.43zm82.3-139.13a.6.6 0 0 1-.6-.6v-1.22a.6.6 0 0 1 1.2 0v1.22a.6.6 0 0 1-.6.6zm1.3-1.82a1.3 1.3 0 0 0-2.6 0v1.22a1.3 1.3 0 0 0 2.6 0zm-.69-18.15v-3.76h-1.23v.71h.52v3.05h.71zm-82 204.8a.91.91 0 0 1-1.82 0v-1.86a.91.91 0 0 1 1.83 0zm-.9-3.84a1.98 1.98 0 0 0-1.98 1.98v1.86c0 1.09.89 1.97 1.97 1.97a1.98 1.98 0 0 0 1.98-1.97v-1.86a1.98 1.98 0 0 0-1.98-1.98zm0-136.92a2.12 2.12 0 0 1-2.13-2.12v-4.33a2.12 2.12 0 0 1 4.25 0v4.33c0 1.17-.95 2.12-2.13 2.12zm0-11.03a4.59 4.59 0 0 0-4.59 4.58v4.33a4.59 4.59 0 0 0 4.58 4.58 4.59 4.59 0 0 0 4.59-4.58v-4.33a4.59 4.59 0 0 0-4.59-4.58zm-.94 168.57v1.1h.78v4.64h1.1v-5.74zm3.11-134.45v-13.33h-4.35v2.52h1.82v10.81zm-2.18 57.95a1.55 1.55 0 0 1-1.54-1.54v-3.16a1.55 1.55 0 0 1 3.09 0v3.16c0 .85-.7 1.54-1.55 1.54zm0-8.04a3.34 3.34 0 0 0-3.34 3.34v3.16a3.34 3.34 0 0 0 6.69 0v-3.16c0-1.84-1.5-3.34-3.35-3.34zm81.7-98.44a.6.6 0 0 1 1.2 0v1.22a.6.6 0 0 1-1.2 0zm.6 2.52c.71 0 1.3-.58 1.3-1.3v-1.22a1.3 1.3 0 0 0-2.6 0v1.22c0 .72.58 1.3 1.3 1.3zM214.8 235a1.55 1.55 0 0 1-3.1 0v-3.15a1.55 1.55 0 0 1 3.1 0zm-1.55-6.5a3.35 3.35 0 0 0-3.34 3.35V235a3.35 3.35 0 0 0 3.34 3.34 3.35 3.35 0 0 0 3.35-3.34v-3.15c0-1.85-1.5-3.34-3.35-3.34zm1.6 30.66v-9.72h-3.18v1.84H213v7.88zm-.44 60.3v-7.09h-2.31v1.35h.97v5.74h1.34zm60.57-81.75a2.12 2.12 0 0 1-2.13-2.12v-4.33a2.12 2.12 0 0 1 4.25 0v4.33c0 1.17-.95 2.12-2.12 2.12zm0-11.03a4.59 4.59 0 0 0-4.59 4.58v4.33a4.59 4.59 0 0 0 4.59 4.58 4.59 4.59 0 0 0 4.58-4.58v-4.33a4.59 4.59 0 0 0-4.58-4.58zm1.15-71.59v-7.08h-2.31v1.34h.97v5.74h1.34zM274.98 52.6a2.12 2.12 0 0 1-2.13-2.12v-4.32a2.12 2.12 0 0 1 4.25 0v4.32c0 1.17-.95 2.12-2.12 2.12zm0-11.03a4.59 4.59 0 0 0-4.59 4.59v4.32a4.59 4.59 0 0 0 4.59 4.59 4.59 4.59 0 0 0 4.58-4.59v-4.32a4.59 4.59 0 0 0-4.58-4.59zm.84 91.78v-5.16h-1.69v.98h.7v4.18zm1.28 122.97c0 1.17-.96 2.12-2.13 2.12a2.12 2.12 0 0 1-2.12-2.12V252c0-1.17.95-2.12 2.12-2.12a2.12 2.12 0 0 1 2.13 2.12v4.32zm-2.13-8.9a4.59 4.59 0 0 0-4.58 4.58v4.32a4.59 4.59 0 0 0 4.58 4.59 4.59 4.59 0 0 0 4.59-4.59V252a4.59 4.59 0 0 0-4.59-4.58zm1.6-160.8v-1.84h-3.18v1.84h1.33v7.88h1.84zm-1.6-14.44a1.55 1.55 0 0 1-1.54-1.55v-3.15a1.55 1.55 0 0 1 3.1 0v3.15c0 .86-.7 1.55-1.55 1.55zm3.35-1.55v-3.15c0-1.84-1.5-3.34-3.34-3.34a3.35 3.35 0 0 0-3.35 3.34v3.15c0 1.85 1.5 3.34 3.35 3.34a3.35 3.35 0 0 0 3.34-3.34zm-1.16 149.15v-13.34h-4.36v2.53h1.82v10.81h2.53zm-4.36 48.3v2.53h1.82v10.8h2.53v-13.33h-4.35zm1.99-161.3h-.97v1.34h.97v5.75h1.34v-7.09zm1.77 90.58v-9.72h-3.17v1.84h1.33v7.88h1.84zm-20.04 120.58a2.12 2.12 0 0 1-4.24 0v-4.33a2.12 2.12 0 0 1 4.24 0v4.33zm-2.12-8.9a4.59 4.59 0 0 0-4.58 4.57v4.33a4.59 4.59 0 0 0 4.58 4.58 4.59 4.59 0 0 0 4.59-4.58v-4.33a4.59 4.59 0 0 0-4.59-4.58zm-.35-38.43v10.8h2.53v-13.33h-4.36v2.53zm0 20.72v10.8h2.53V288.8h-4.36v2.53h1.83zm0-41.17v10.8h2.53v-13.33h-4.36v2.53h1.83zm2.53-9.93v-13.34h-4.36v2.53h1.83v10.8zm-.06 98.45a2.12 2.12 0 0 1-4.24 0v-4.33a2.12 2.12 0 0 1 4.24 0zm-2.12-8.9a4.59 4.59 0 0 0-4.58 4.57v4.33a4.59 4.59 0 0 0 4.58 4.58 4.59 4.59 0 0 0 4.59-4.58v-4.33a4.59 4.59 0 0 0-4.59-4.58zm20.58 28.84a.82.82 0 0 1-.83-.82v-1.67a.82.82 0 0 1 1.65 0v1.67a.82.82 0 0 1-.82.82zm0-4.27a1.78 1.78 0 0 0-1.78 1.78v1.67a1.78 1.78 0 0 0 3.55 0v-1.67c0-.98-.8-1.78-1.77-1.78zm20.57 6.9a2.12 2.12 0 0 1-2.12-2.12v-4.33a2.12 2.12 0 0 1 4.24 0v4.33c0 1.17-.95 2.12-2.12 2.12zm0-11.03a4.59 4.59 0 0 0-4.59 4.58v4.33a4.59 4.59 0 0 0 4.59 4.58 4.59 4.59 0 0 0 4.58-4.58v-4.33a4.59 4.59 0 0 0-4.58-4.58zm-19.73-10.98v-5.17h-1.69v.98h.7v4.19zm.31-25.57v-1.34h-2.31v1.34h.97v5.75h1.34zm.43-21.26v-1.85h-3.17v1.85h1.33v7.88h1.84v-7.88zm-22.16-75.15a2.12 2.12 0 0 1-2.12-2.12v-4.33a2.12 2.12 0 0 1 4.24 0v4.33c0 1.17-.95 2.12-2.12 2.12zm0-11.03a4.59 4.59 0 0 0-4.58 4.58v4.33a4.59 4.59 0 0 0 4.58 4.58 4.59 4.59 0 0 0 4.59-4.58v-4.33a4.59 4.59 0 0 0-4.59-4.58zm-21.73 126.88v1.34h.97v5.75h1.35v-7.09zm62.88-81.22c.62 0 1.13.5 1.13 1.12v2.3a1.13 1.13 0 0 1-2.26 0v-2.3c0-.62.5-1.12 1.13-1.12zm-2.44 3.42a2.44 2.44 0 0 0 2.44 2.44 2.44 2.44 0 0 0 2.44-2.44v-2.3a2.44 2.44 0 0 0-2.44-2.43 2.44 2.44 0 0 0-2.44 2.43v2.3zm-119.41 24.3v-9.72h-3.18v1.84h1.33v7.88zm-1.6 58.57a.82.82 0 0 1-.81-.82v-1.68a.82.82 0 0 1 1.64 0v1.68c0 .45-.37.82-.82.82zm0-4.28c-.97 0-1.77.8-1.77 1.78v1.68a1.78 1.78 0 0 0 1.78 1.77 1.78 1.78 0 0 0 1.77-1.77v-1.68c0-.98-.8-1.78-1.77-1.78zm0-36.3a1.13 1.13 0 0 1-1.12-1.12v-2.3a1.13 1.13 0 0 1 2.25 0v2.3c0 .62-.5 1.13-1.12 1.13zm0-5.85a2.44 2.44 0 0 0-2.43 2.43v2.3a2.44 2.44 0 0 0 2.44 2.44 2.44 2.44 0 0 0 2.43-2.44v-2.3a2.44 2.44 0 0 0-2.43-2.43zm0-34.47a1.55 1.55 0 0 1-1.54-1.54v-3.16a1.55 1.55 0 0 1 3.1 0v3.16c0 .85-.7 1.54-1.55 1.54zm0-8.04a3.35 3.35 0 0 0-3.33 3.34v3.16c0 1.84 1.5 3.34 3.34 3.34a3.35 3.35 0 0 0 3.34-3.34v-3.16c0-1.84-1.5-3.34-3.34-3.34zm1.17 70.22v-7.09h-2.32v1.35h.97v5.74zm1.02-140.8v-13.33h-4.36v2.53h1.83v10.8zm-2.18 18.03a2.12 2.12 0 0 1-2.12-2.12v-4.33a2.12 2.12 0 0 1 4.24 0v4.33a2.13 2.13 0 0 1-2.12 2.12zm0-11.03a4.59 4.59 0 0 0-4.59 4.58v4.33a4.59 4.59 0 0 0 4.59 4.58 4.59 4.59 0 0 0 4.58-4.58v-4.33a4.59 4.59 0 0 0-4.58-4.58zm123.44 25.66c.45 0 .82.37.82.82v1.67a.82.82 0 0 1-1.64 0v-1.67a.82.82 0 0 1 .82-.82zm-1.78 2.5a1.78 1.78 0 0 0 3.55 0v-1.68a1.78 1.78 0 0 0-3.55 0zm2.62 22.32v-5.16h-1.69v.98h.71v4.18zm-122.1-16.36v-13.33h-4.36v2.52h1.83v10.81zm-2.18 17.93a2.12 2.12 0 0 1-2.12-2.12v-4.33a2.12 2.12 0 0 1 4.24 0v4.33a2.12 2.12 0 0 1-2.12 2.12zm0-11.03a4.59 4.59 0 0 0-4.59 4.58v4.33a4.59 4.59 0 0 0 4.59 4.58 4.59 4.59 0 0 0 4.58-4.58v-4.33a4.59 4.59 0 0 0-4.58-4.58zm-20.58-92.88a1.55 1.55 0 0 1-1.54-1.55v-3.15a1.55 1.55 0 0 1 3.1 0v3.15c0 .86-.7 1.55-1.56 1.55zm0-8.04a3.35 3.35 0 0 0-3.34 3.34v3.15c0 1.84 1.5 3.34 3.34 3.34a3.35 3.35 0 0 0 3.35-3.34v-3.15c0-1.84-1.5-3.34-3.35-3.34zm144.02 146.57c.62 0 1.13.5 1.13 1.13v2.3a1.13 1.13 0 0 1-2.26 0v-2.3c0-.62.5-1.13 1.13-1.13zm-2.44 3.43a2.44 2.44 0 0 0 2.44 2.43 2.44 2.44 0 0 0 2.44-2.43v-2.3a2.44 2.44 0 0 0-4.88 0v2.3zm-140.45-123.2a1.13 1.13 0 0 1-2.25 0v-2.3a1.13 1.13 0 0 1 1.12-1.12 1.13 1.13 0 0 1 1.13 1.12zm-1.13-4.73a2.44 2.44 0 0 0-2.43 2.43v2.3a2.44 2.44 0 0 0 2.43 2.44 2.44 2.44 0 0 0 2.44-2.44v-2.3a2.44 2.44 0 0 0-2.44-2.43zm.85 67.87v-5.17h-1.69v.98h.7v4.19zm.74-100.47v-9.73h-3.17v1.85h1.33v7.88zm144.02 205.5v-9.72h-3.18v1.85h1.33v7.87h1.85zm-125.88 33.79v.98h.71v4.18h.98v-5.16h-1.69zm124.29-62.35c.85 0 1.55.7 1.55 1.54v3.16c0 .85-.7 1.54-1.55 1.54a1.55 1.55 0 0 1-1.55-1.54v-3.16c0-.85.7-1.54 1.55-1.54zm-3.34 4.7a3.34 3.34 0 0 0 3.34 3.34 3.35 3.35 0 0 0 3.34-3.34v-3.16c0-1.84-1.5-3.34-3.34-3.34a3.35 3.35 0 0 0-3.34 3.34v3.16zM151.53 52.6a2.12 2.12 0 0 1-2.12-2.12v-4.32a2.12 2.12 0 0 1 4.25 0v4.32c0 1.17-.95 2.12-2.12 2.12zm0-11.03a4.59 4.59 0 0 0-4.58 4.59v4.32a4.59 4.59 0 0 0 4.58 4.59 4.59 4.59 0 0 0 4.59-4.59v-4.32a4.59 4.59 0 0 0-4.59-4.59zm0 52.22a2.12 2.12 0 0 1-2.12-2.12v-4.33a2.12 2.12 0 0 1 4.25 0v4.33c0 1.17-.95 2.12-2.12 2.12zm0-11.03a4.59 4.59 0 0 0-4.58 4.58v4.33a4.59 4.59 0 0 0 4.58 4.58 4.59 4.59 0 0 0 4.59-4.58v-4.33a4.59 4.59 0 0 0-4.59-4.58zm2.18-6.9V62.53h-4.35v2.53h1.82v10.8h2.53zm40.56 10.77v-1.85h-3.18v1.84h1.34v7.88h1.84v-7.88zm.59 71.59v-13.34h-4.36v2.53h1.83v10.8h2.53zm-2.18-92.28c.85 0 1.55.69 1.55 1.54v3.15c0 .86-.7 1.55-1.55 1.55a1.55 1.55 0 0 1-1.55-1.55v-3.15c0-.85.7-1.54 1.55-1.54zm-3.34 1.54v3.15c0 1.85 1.5 3.34 3.34 3.34a3.35 3.35 0 0 0 3.34-3.34v-3.15c0-1.84-1.5-3.34-3.34-3.34a3.35 3.35 0 0 0-3.34 3.34zm3.34 65.47a1.13 1.13 0 0 1-1.13-1.13v-2.3a1.13 1.13 0 0 1 2.26 0v2.3c0 .63-.5 1.13-1.13 1.13zm2.44-3.42a2.44 2.44 0 0 0-4.88 0v2.3a2.44 2.44 0 0 0 2.44 2.43 2.44 2.44 0 0 0 2.44-2.44zm-2.44 46.61a2.12 2.12 0 0 1-2.12-2.12v-4.32a2.12 2.12 0 0 1 4.24 0v4.32c0 1.17-.95 2.12-2.12 2.12zm0-11.03a4.59 4.59 0 0 0-4.58 4.59v4.32a4.59 4.59 0 0 0 4.58 4.59 4.59 4.59 0 0 0 4.59-4.59v-4.32a4.59 4.59 0 0 0-4.59-4.59zm2.18-109.98V41.79h-4.36v2.53h1.83v10.8h2.53zm100.69 12.72a.6.6 0 0 1 .6.6v1.22a.6.6 0 0 1-1.2 0v-1.22a.6.6 0 0 1 .6-.6zm-1.3 1.82a1.3 1.3 0 0 0 2.6 0v-1.22a1.3 1.3 0 0 0-2.6 0v1.22zM172.12 155.7a2.12 2.12 0 0 1-2.12-2.12v-4.33a2.12 2.12 0 0 1 4.24 0v4.33a2.13 2.13 0 0 1-2.12 2.12zm0-11.03a4.59 4.59 0 0 0-4.59 4.58v4.33a4.59 4.59 0 0 0 4.59 4.58 4.59 4.59 0 0 0 4.58-4.58v-4.33a4.59 4.59 0 0 0-4.58-4.58zm20.57-112.51a2.12 2.12 0 0 1-2.12-2.12V25.7a2.12 2.12 0 0 1 4.24 0v4.33c0 1.17-.95 2.12-2.12 2.12zm0-11.03a4.59 4.59 0 0 0-4.58 4.58v4.33a4.59 4.59 0 0 0 4.58 4.58 4.59 4.59 0 0 0 4.59-4.58V25.7a4.59 4.59 0 0 0-4.59-4.58zm0-10.06a2.12 2.12 0 0 1-2.12-2.12V4.62a2.13 2.13 0 0 1 2.12-2.12c1.17 0 2.12.95 2.12 2.12v4.33c0 1.17-.95 2.12-2.12 2.12zm0-11.03a4.6 4.6 0 0 0-4.58 4.58v4.33a4.59 4.59 0 0 0 4.58 4.58 4.59 4.59 0 0 0 4.59-4.58V4.62a4.59 4.59 0 0 0-4.59-4.58zm103.49 50.3v-3.77h-1.24v.72h.52v3.05h.71zm-102.33 63.57v-7.09h-2.31v1.35h.97v5.74zm101.71-84.83a.6.6 0 0 1-.6-.6v-1.22a.6.6 0 0 1 1.2 0v1.22a.6.6 0 0 1-.6.6zm0-3.11c-.71 0-1.3.58-1.3 1.3v1.21a1.3 1.3 0 0 0 2.6 0v-1.22c0-.71-.59-1.3-1.3-1.3zm0 83a.6.6 0 0 1 .6.6v1.23a.6.6 0 0 1-1.2 0v-1.22a.6.6 0 0 1 .6-.6zm-1.3 1.83a1.3 1.3 0 0 0 2.6 0v-1.22a1.3 1.3 0 0 0-2.6 0zM192.69 320.06a2.12 2.12 0 0 1-2.12-2.12v-4.32a2.12 2.12 0 0 1 4.24 0v4.32c0 1.17-.95 2.12-2.12 2.12zm0-11.03a4.59 4.59 0 0 0-4.59 4.59v4.32a4.59 4.59 0 0 0 4.59 4.58 4.59 4.59 0 0 0 4.59-4.58v-4.32a4.59 4.59 0 0 0-4.59-4.59zm2.18 34.3v-13.34h-4.36v2.52h1.83v10.81h2.53zm0-144.12v-13.34h-4.36v2.53h1.83v10.81zm-2.18 162.04a2.12 2.12 0 0 1-2.12-2.12v-4.33a2.12 2.12 0 0 1 4.24 0v4.33c0 1.17-.95 2.12-2.12 2.12zm0-11.03a4.59 4.59 0 0 0-4.58 4.58v4.33a4.59 4.59 0 0 0 4.58 4.58 4.59 4.59 0 0 0 4.59-4.58v-4.33a4.59 4.59 0 0 0-4.59-4.58zm1.59-49.89v-9.72h-3.18v1.84h1.33v7.88h1.85zm-1.59-43.9a1.13 1.13 0 0 1-1.13-1.12v-2.3a1.13 1.13 0 0 1 2.26 0v2.3c0 .62-.5 1.13-1.13 1.13zm2.44-1.12v-2.3a2.44 2.44 0 0 0-2.44-2.43 2.44 2.44 0 0 0-2.44 2.43v2.3a2.44 2.44 0 0 0 4.88 0zm-2.44-45.46c.85 0 1.55.7 1.55 1.55v3.15a1.55 1.55 0 0 1-3.1 0v-3.15c0-.85.7-1.55 1.55-1.55zm-3.34 1.55v3.15c0 1.84 1.5 3.34 3.34 3.34a3.35 3.35 0 0 0 3.34-3.34v-3.15c0-1.84-1.5-3.34-3.34-3.34a3.35 3.35 0 0 0-3.34 3.34zm106.2-123.1c.34 0 .6.27.6.6v1.22a.6.6 0 0 1-1.2 0V88.9a.6.6 0 0 1 .6-.6zm-1.29 1.82a1.3 1.3 0 0 0 2.6 0V88.9a1.3 1.3 0 0 0-2.6 0v1.22zM193.84 278.29v-7.09h-2.32v1.35h.97v5.74zm.43-39.87v-9.72h-3.18v1.84h1.34v7.88h1.84zM69.14 9.1h.72V5.33h-1.23v.72h.51V9.1zm164.69 55.68c1.17 0 2.12.95 2.12 2.12v4.32c0 1.17-.95 2.12-2.12 2.12a2.12 2.12 0 0 1-2.12-2.12V66.9c0-1.17.95-2.12 2.12-2.12zm0 11.03a4.59 4.59 0 0 0 4.58-4.59V66.9a4.59 4.59 0 0 0-4.58-4.59 4.59 4.59 0 0 0-4.59 4.59v4.32a4.59 4.59 0 0 0 4.59 4.59zm0-52.22c1.17 0 2.12.95 2.12 2.12v4.33c0 1.17-.95 2.12-2.12 2.12a2.12 2.12 0 0 1-2.12-2.12V25.7c0-1.17.95-2.12 2.12-2.12zm0 11.03a4.59 4.59 0 0 0 4.58-4.58V25.7a4.59 4.59 0 0 0-4.58-4.58 4.59 4.59 0 0 0-4.59 4.58v4.33a4.59 4.59 0 0 0 4.59 4.58zm144.01 92.9c.86 0 1.55.69 1.55 1.54v3.15c0 .85-.7 1.55-1.55 1.55a1.55 1.55 0 0 1-1.54-1.55v-3.15c0-.85.69-1.55 1.54-1.55zm-3.34 4.7a3.34 3.34 0 0 0 6.68 0v-3.16c0-1.84-1.5-3.34-3.34-3.34a3.34 3.34 0 0 0-3.34 3.34zm-139.08 106.2v-9.72h-3.18v1.84h1.33v7.88zm-1.6-22.32a1.55 1.55 0 0 1-1.54-1.55v-3.15a1.55 1.55 0 0 1 3.1 0v3.15c0 .86-.7 1.55-1.55 1.55zm3.35-1.55v-3.15c0-1.84-1.5-3.34-3.34-3.34a3.35 3.35 0 0 0-3.34 3.34v3.15c0 1.84 1.5 3.34 3.34 3.34a3.35 3.35 0 0 0 3.34-3.34zm-2.18-85.94v-1.34h-2.32v1.34h.97v5.75h1.35zm-.32 20.36h-1.69v.98h.71v4.18h.98zm0 25.61v-5.17h-1.69v.98h.71v4.2zM130.83 9.84h.98V4.67h-1.7v.98h.72zm247.01 1.19a2.12 2.12 0 0 1-2.12-2.12V4.58a2.12 2.12 0 0 1 4.24 0v4.33c0 1.17-.95 2.12-2.12 2.12zm0-11.03a4.59 4.59 0 0 0-4.58 4.58v4.33a4.59 4.59 0 0 0 4.58 4.58 4.59 4.59 0 0 0 4.59-4.58V4.58A4.6 4.6 0 0 0 377.84 0zM236.01 55.13V41.79h-4.36v2.53h1.83v10.8H236zM398.4 339.6a1.55 1.55 0 0 1-1.54-1.55v-3.15a1.55 1.55 0 0 1 3.1 0v3.15c0 .85-.7 1.55-1.56 1.55zm0-8.04a3.35 3.35 0 0 0-3.34 3.34v3.15c0 1.85 1.5 3.34 3.34 3.34a3.35 3.35 0 0 0 3.35-3.34v-3.15c0-1.84-1.5-3.34-3.35-3.34zM253.56 67.59h.7v4.19h.98v-5.17h-1.68zm1.46-17.25v-3.77h-1.23v.72h.51v3.05zM233.69 9.51h.98V4.34h-1.69v.98h.71zm20.71 19.57a.6.6 0 0 1-.6-.6v-1.22a.6.6 0 0 1 1.2 0v1.22a.6.6 0 0 1-.6.6zm1.3-1.82a1.3 1.3 0 0 0-2.6 0v1.22a1.3 1.3 0 0 0 2.6 0zm-.14 58.84h-2.32v1.34h.97v5.75h1.35zm.43 90.76v-9.72h-3.18v1.84h1.34v7.88h1.84zm-1.59-48.46c.62 0 1.13.5 1.13 1.13v2.3a1.13 1.13 0 0 1-2.26 0v-2.3c0-.62.5-1.13 1.13-1.13zm0 5.86a2.44 2.44 0 0 0 2.44-2.43v-2.3a2.44 2.44 0 0 0-4.88 0v2.3a2.44 2.44 0 0 0 2.44 2.43zm2.18 64.95v-13.34h-4.36v2.53h1.83v10.81zm-2.18-50.92c.85 0 1.55.7 1.55 1.55v3.15c0 .85-.7 1.55-1.55 1.55a1.55 1.55 0 0 1-1.55-1.55v-3.15a1.55 1.55 0 0 1 1.55-1.55zm0 8.04a3.35 3.35 0 0 0 3.34-3.34v-3.15c0-1.85-1.5-3.34-3.34-3.34a3.35 3.35 0 0 0-3.34 3.34v3.15c0 1.84 1.5 3.34 3.34 3.34zm142.86 197.18v1.35h.97v5.74h1.34v-7.09h-2.31zM214.4 72.75v-7.09h-2.31V67h.97v5.74zm-42.3-26.08c.45 0 .82.37.82.82v1.68a.82.82 0 0 1-1.64 0v-1.68c0-.45.37-.82.82-.82zm0 4.28c.98 0 1.77-.8 1.77-1.78v-1.68a1.78 1.78 0 0 0-3.55 0v1.68c0 .98.8 1.78 1.78 1.78zm205.73-24.28a.6.6 0 0 1 .6.6v1.23a.6.6 0 0 1-1.2 0v-1.23a.6.6 0 0 1 .6-.6zm0 3.12c.72 0 1.3-.58 1.3-1.3v-1.22a1.3 1.3 0 0 0-2.6 0v1.23c0 .7.59 1.29 1.3 1.29zm.85 42v-5.17h-1.7v.98h.72v4.19zm-206.71-41.2h.98v-5.16h-1.69v.98h.71zm.14 36.2a1.13 1.13 0 0 1 1.12 1.12v2.3c0 .62-.5 1.13-1.12 1.13a1.13 1.13 0 0 1-1.13-1.13v-2.3a1.13 1.13 0 0 1 1.13-1.13zm0 5.85a2.44 2.44 0 0 0 2.43-2.43v-2.3a2.44 2.44 0 0 0-2.43-2.44 2.44 2.44 0 0 0-2.44 2.44v2.3a2.44 2.44 0 0 0 2.44 2.43zm1.59 21.87v-9.73h-3.18v1.85h1.33v7.88h1.85zm-22.52-59.83h2.53V21.34h-4.36v2.53h1.83zm.25-25.87h.72V5.04h-1.23v.72h.51zm20.54.7h.98V4.34h-1.69v.98h.71zm2.32 127.97v-13.34h-4.36v2.53h1.83v10.81h2.53zm-2.18-30.37c.85 0 1.54.69 1.54 1.54v3.16a1.55 1.55 0 0 1-3.09 0v-3.16c0-.85.7-1.54 1.55-1.54zm0 8.04a3.35 3.35 0 0 0 3.34-3.34v-3.16c0-1.84-1.5-3.34-3.34-3.34a3.35 3.35 0 0 0-3.35 3.34v3.16c0 1.84 1.5 3.34 3.35 3.34zM379 113.87v-7.09h-2.32v1.35h.98v5.74zM214.2 30.88v-5.74h-1.88v1.09h.78v4.65zM213.1 9.8h1.1V4.06h-1.88v1.08h.78V9.8zm20.73 103.55a1.55 1.55 0 0 1-1.55-1.54v-3.16a1.55 1.55 0 0 1 3.1 0v3.16c0 .85-.7 1.54-1.55 1.54zm3.34-4.7c0-1.84-1.5-3.34-3.34-3.34a3.35 3.35 0 0 0-3.34 3.34v3.16c0 1.84 1.5 3.34 3.34 3.34a3.35 3.35 0 0 0 3.34-3.34v-3.16zm-3.34 81.48c.62 0 1.13.5 1.13 1.12v2.3a1.13 1.13 0 0 1-2.26 0v-2.3a1.13 1.13 0 0 1 1.13-1.12zm-2.44 1.12v2.3a2.44 2.44 0 0 0 2.44 2.44 2.44 2.44 0 0 0 2.44-2.44v-2.3a2.44 2.44 0 0 0-2.44-2.43 2.44 2.44 0 0 0-2.44 2.44zm4.03-96.75v-9.72h-3.18v1.85h1.33v7.88h1.85zm142.42-7.27c.62 0 1.13.5 1.13 1.13v2.3a1.13 1.13 0 0 1-2.26 0v-2.3a1.13 1.13 0 0 1 1.13-1.13zm-2.44 3.43a2.44 2.44 0 0 0 2.44 2.43 2.44 2.44 0 0 0 2.44-2.43v-2.3a2.44 2.44 0 0 0-2.44-2.44 2.44 2.44 0 0 0-2.44 2.44zm-162.15-4.28c.86 0 1.55.7 1.55 1.55v3.15a1.55 1.55 0 0 1-3.1 0v-3.15c0-.85.7-1.55 1.55-1.55zm0 8.04a3.35 3.35 0 0 0 3.35-3.34v-3.15c0-1.84-1.5-3.34-3.35-3.34a3.35 3.35 0 0 0-3.34 3.34v3.15a3.34 3.34 0 0 0 3.34 3.34zm0-47.94c.5 0 .92.4.92.91v1.86a.91.91 0 0 1-1.83 0V47.4c0-.5.41-.91.91-.91zm0 4.74a1.98 1.98 0 0 0 1.98-1.97V47.4a1.98 1.98 0 0 0-1.98-1.97 1.98 1.98 0 0 0-1.97 1.97v1.86c0 1.1.89 1.97 1.97 1.97zm2.18 86.26v-13.34h-4.35v2.53h1.82v10.81h2.53zm-.63-25.67a1.55 1.55 0 0 1-3.1 0v-3.16a1.55 1.55 0 0 1 3.1 0zm1.8 0v-3.16c0-1.84-1.5-3.34-3.35-3.34a3.34 3.34 0 0 0-3.34 3.34v3.16a3.34 3.34 0 0 0 6.69 0zm38.96 2.1v-7.09h-2.32v1.35h.97v5.74zm123.87 42.46v-9.72h-3.18v1.84h1.33v7.88h1.85zm-22.16-68.52c.45 0 .82.37.82.82v1.67a.82.82 0 0 1-1.64 0v-1.67c0-.45.37-.82.82-.82zm0 4.27c.98 0 1.77-.8 1.77-1.78v-1.67a1.78 1.78 0 0 0-3.55 0v1.68a1.78 1.78 0 0 0 1.78 1.77zm43.32 209.97v-13.33h-4.35v2.53h1.82v10.8zM357.9 50.34v-3.77h-1.24v.72h.52v3.05h.72zm-.76 21.44h.98v-5.17h-1.69v.98h.71zm.75-45.65h-1.23v.71h.52v3.05h.71zM400 279.6v-9.72h-3.17v1.84h1.33v7.88H400zm-40.55-18.64v-13.34h-4.36v2.53h1.83v10.8h2.53zm-2.18-71.73c.85 0 1.54.7 1.54 1.55v3.15a1.55 1.55 0 0 1-3.09 0v-3.15a1.55 1.55 0 0 1 1.55-1.55zm0 8.04a3.35 3.35 0 0 0 3.34-3.34v-3.15c0-1.85-1.5-3.34-3.34-3.34a3.35 3.35 0 0 0-3.35 3.34v3.15a3.35 3.35 0 0 0 3.35 3.34zm0-48.18c.62 0 1.13.5 1.13 1.12v2.3a1.13 1.13 0 0 1-2.26 0v-2.3a1.13 1.13 0 0 1 1.13-1.12zm0 5.86a2.44 2.44 0 0 0 2.43-2.44v-2.3a2.44 2.44 0 0 0-2.43-2.43 2.44 2.44 0 0 0-2.44 2.43v2.3a2.44 2.44 0 0 0 2.44 2.44zm-.35 71.93h-1.83v2.53h1.83v10.81h2.53v-13.34zm41.5 25c.62 0 1.12.5 1.12 1.12v2.3a1.13 1.13 0 0 1-2.25 0V253c0-.62.5-1.12 1.12-1.12zm-2.44 3.42a2.44 2.44 0 0 0 2.43 2.44 2.44 2.44 0 0 0 2.44-2.44V253a2.44 2.44 0 0 0-2.44-2.43 2.44 2.44 0 0 0-2.43 2.43v2.3zm-37.12-78.5v-9.71h-3.18v1.84H357v7.88zM357.13 9.48h.98V4.3h-1.69v.98h.71v4.19zM399.57 52v-7.08h-2.31v1.34h.97V52h1.34zm-1.34-41.57h1.34V3.34h-2.31v1.34h.97zm-144.18 3.16h2.53V.26h-4.36v2.53h1.83v10.8zM400.59 117v-13.33h-4.35v2.53h1.82V117zm-2.18-50.2a1.13 1.13 0 0 1 1.13 1.12v2.3a1.13 1.13 0 0 1-1.13 1.13 1.13 1.13 0 0 1-1.12-1.13v-2.3c0-.62.5-1.13 1.12-1.13zm0 5.85a2.44 2.44 0 0 0 2.44-2.43v-2.3a2.44 2.44 0 0 0-2.44-2.44 2.44 2.44 0 0 0-2.43 2.44v2.3a2.44 2.44 0 0 0 2.43 2.43zm-39.98 61.68v-7.1h-2.32v1.35h.97v5.75zm-1.16-22.47a.82.82 0 0 1-.82-.82v-1.68a.82.82 0 0 1 1.64 0v1.68c0 .45-.37.82-.82.82zm1.77-.82v-1.68a1.78 1.78 0 0 0-3.55 0v1.68a1.78 1.78 0 0 0 3.55 0zm39.37 44.63a2.12 2.12 0 0 1-2.12-2.12v-4.33a2.12 2.12 0 0 1 4.25 0v4.33c0 1.17-.95 2.12-2.13 2.12zm0-11.03a4.59 4.59 0 0 0-4.58 4.58v4.33a4.59 4.59 0 0 0 4.58 4.58 4.59 4.59 0 0 0 4.59-4.58v-4.33a4.59 4.59 0 0 0-4.59-4.58zm2.18-61.65h-4.35v2.53h1.82v10.8h2.53v-10.8zm-2.18 43.37c1.17 0 2.13.95 2.13 2.12v4.33a2.12 2.12 0 0 1-4.25 0v-4.33a2.12 2.12 0 0 1 2.12-2.12zm0 11.03a4.59 4.59 0 0 0 4.59-4.58v-4.33a4.59 4.59 0 0 0-4.59-4.58 4.59 4.59 0 0 0-4.58 4.58v4.33a4.59 4.59 0 0 0 4.58 4.58zm-.25-104.51H400v-9.72h-3.17V25h1.33zm-80.88 32.78h-2.31V67h.97v5.74h1.34v-7.09zm0 27.54v-7.1h-2.31v1.34h.97v5.75h1.34zm81.98 142.95v-5.16h-1.69v.98h.7v4.18h.99zM316.96 30.6v-5.16h-1.68v.98h.7v4.18h.99zm81.32 179.94h-.7v.98h.7v4.19h.98v-5.17zM316.12 46.66c.46 0 .82.37.82.82v1.68a.82.82 0 0 1-1.64 0v-1.68c0-.45.37-.82.82-.82zm0 4.27c.98 0 1.78-.8 1.78-1.77v-1.68a1.78 1.78 0 0 0-3.55 0v1.68c0 .98.8 1.77 1.77 1.77zm-41.14-45.8c.45 0 .82.37.82.82v1.67a.82.82 0 0 1-1.65 0V5.96c0-.45.37-.82.83-.82zm0 4.27c.98 0 1.77-.8 1.77-1.77V5.95a1.78 1.78 0 0 0-3.55 0v1.68c0 .97.8 1.77 1.78 1.77zm81.94 197.04h-1.83v2.53h1.83v10.81h2.53v-13.33zm41.5 113.58a2.12 2.12 0 0 1-2.13-2.12v-4.33a2.12 2.12 0 0 1 4.25 0v4.33c0 1.17-.95 2.12-2.13 2.12zm0-11.03a4.59 4.59 0 0 0-4.59 4.59v4.32a4.59 4.59 0 0 0 4.58 4.58 4.59 4.59 0 0 0 4.59-4.58v-4.32a4.59 4.59 0 0 0-4.59-4.59zm-82.3-181.48c.86 0 1.55.7 1.55 1.55v3.15c0 .85-.7 1.55-1.55 1.55a1.55 1.55 0 0 1-1.54-1.55v-3.15c0-.85.69-1.55 1.54-1.55zm0 8.04a3.35 3.35 0 0 0 3.34-3.34v-3.15c0-1.84-1.5-3.34-3.34-3.34a3.35 3.35 0 0 0-3.34 3.34v3.15c0 1.84 1.5 3.34 3.34 3.34zm0-28.49c.86 0 1.55.7 1.55 1.55v3.15a1.55 1.55 0 0 1-3.1 0v-3.15c0-.85.7-1.55 1.55-1.55zm0 8.04a3.35 3.35 0 0 0 3.34-3.34v-3.15c0-1.84-1.5-3.34-3.34-3.34a3.35 3.35 0 0 0-3.34 3.34v3.15c0 1.85 1.5 3.34 3.34 3.34zm-41.5-80.42h2.54V21.34h-4.36v2.53h1.82v10.81zm61.72 48.3h-1.82v2.53h1.82v10.8h2.53V82.98zm0 20.68h-1.82v2.53h1.82v10.8h2.53v-13.34zm2.53 33.78V124.1h-4.35v2.53h1.82v10.81h2.53zm0 20.74v-13.34h-4.35v2.53h1.82v10.8h2.53zM336.7 2.46c1.17 0 2.13.95 2.13 2.12v4.33a2.12 2.12 0 0 1-4.25 0V4.58a2.12 2.12 0 0 1 2.13-2.12zm0 11.03a4.59 4.59 0 0 0 4.59-4.58V4.58A4.59 4.59 0 0 0 336.7 0a4.59 4.59 0 0 0-4.6 4.58v4.33a4.59 4.59 0 0 0 4.6 4.58zm.85 17.1v-5.16h-1.69v.98h.7v4.18zm-.84 15.45c.62 0 1.12.51 1.12 1.13v2.3a1.13 1.13 0 0 1-2.25 0v-2.3a1.13 1.13 0 0 1 1.13-1.13zm-2.44 1.13v2.3a2.44 2.44 0 0 0 2.44 2.44 2.44 2.44 0 0 0 2.43-2.44v-2.3a2.44 2.44 0 0 0-4.87 0zM400 189.48v-1.84h-3.17v1.84h1.33v7.88H400zM316 9.51h.98V4.34h-1.7v.98h.72zm20.7 62.67a1.55 1.55 0 0 1-1.54-1.54v-3.16a1.55 1.55 0 0 1 3.1 0v3.15c0 .86-.7 1.55-1.55 1.55zm3.35-1.54v-3.16c0-1.84-1.5-3.34-3.34-3.34a3.35 3.35 0 0 0-3.35 3.34v3.16c0 1.84 1.5 3.34 3.35 3.34a3.35 3.35 0 0 0 3.34-3.34zm60.55 97.18v-2.53h-4.35v2.53h1.82v10.8h2.53zM130.96 65.94c.85 0 1.55.69 1.55 1.54v3.15c0 .86-.7 1.55-1.55 1.55a1.55 1.55 0 0 1-1.55-1.54v-3.16c0-.85.7-1.54 1.55-1.54zm0 8.04a3.35 3.35 0 0 0 3.34-3.34v-3.16c0-1.84-1.5-3.34-3.34-3.34a3.35 3.35 0 0 0-3.34 3.34v3.16a3.34 3.34 0 0 0 3.34 3.34zM379 257.84v-7.08h-2.32v1.34h.98v5.74zM90.73 111.45a.91.91 0 0 1-1.83 0v-1.86a.91.91 0 0 1 1.83 0zm1.06 0v-1.86a1.98 1.98 0 0 0-3.95 0v1.86c0 1.09.89 1.97 1.97 1.97a1.98 1.98 0 0 0 1.98-1.97zm-1.04 22.52v-5.74h-1.87v1.1h.78v4.64zm-.94-67.68c.77 0 1.4.62 1.4 1.4v2.83a1.4 1.4 0 0 1-2.79 0v-2.84c0-.77.63-1.39 1.4-1.39zm-3 4.23a3.01 3.01 0 0 0 3 3 3.01 3.01 0 0 0 3.01-3v-2.84a3.01 3.01 0 0 0-3-3 3.01 3.01 0 0 0-3.01 3zM4.59 209.85c.85 0 1.54.7 1.54 1.55v3.15a1.55 1.55 0 0 1-3.1 0v-3.15c0-.85.7-1.55 1.56-1.55zm-3.35 1.55v3.15c0 1.84 1.5 3.34 3.35 3.34a3.35 3.35 0 0 0 3.34-3.34v-3.15c0-1.84-1.5-3.34-3.34-3.34a3.35 3.35 0 0 0-3.35 3.34zm376.6 107.46a1.55 1.55 0 0 1-1.55-1.55v-3.15a1.55 1.55 0 0 1 3.1 0v3.15c0 .86-.7 1.55-1.55 1.55zm3.34-1.55v-3.15c0-1.84-1.5-3.34-3.34-3.34a3.35 3.35 0 0 0-3.34 3.34v3.15a3.34 3.34 0 0 0 3.34 3.35 3.35 3.35 0 0 0 3.34-3.35zm-23.91-38.42a2.12 2.12 0 0 1-2.12-2.12v-4.32a2.12 2.12 0 0 1 4.24 0v4.32c0 1.17-.95 2.12-2.12 2.12zm0-11.03a4.59 4.59 0 0 0-4.59 4.59v4.32a4.59 4.59 0 0 0 4.59 4.59 4.59 4.59 0 0 0 4.58-4.59v-4.32a4.59 4.59 0 0 0-4.58-4.58zM89.8 148.9c.77 0 1.4.63 1.4 1.4v2.83c0 .77-.63 1.4-1.4 1.4a1.4 1.4 0 0 1-1.39-1.4v-2.83c0-.77.63-1.4 1.4-1.4zm-3 4.23a3.01 3.01 0 0 0 3 3.01 3.01 3.01 0 0 0 3.01-3v-2.85a3.01 3.01 0 0 0-3-3 3.01 3.01 0 0 0-3.01 3v2.85zM4.58 230.3c.86 0 1.55.7 1.55 1.55V235a1.55 1.55 0 0 1-3.1 0v-3.15a1.55 1.55 0 0 1 1.55-1.55zM1.24 235a3.35 3.35 0 0 0 3.35 3.34A3.35 3.35 0 0 0 7.93 235v-3.15c0-1.84-1.5-3.34-3.34-3.34a3.35 3.35 0 0 0-3.35 3.34zm90-140.94v-8.75H88.4v1.66h1.2v7.09zM5.75 257.84v-7.08H3.43v1.34h.97v5.74zm373.69 42.45v-9.72h-3.18v1.84h1.34v7.88zm-1.59-253.63c.45 0 .82.37.82.82v1.68a.82.82 0 0 1-1.64 0v-1.68c0-.45.37-.82.82-.82zm-1.78 2.5a1.78 1.78 0 0 0 3.56 0v-1.68a1.78 1.78 0 0 0-3.56 0zM110.18 169.84v6.39h1.5v-7.88h-2.58v1.5h1.08zM5.71 275.76a1.13 1.13 0 0 1-2.25 0v-2.3a1.13 1.13 0 0 1 2.25 0v2.3zm1.31 0v-2.3a2.44 2.44 0 0 0-2.43-2.44 2.44 2.44 0 0 0-2.44 2.44v2.3a2.44 2.44 0 0 0 2.44 2.44 2.44 2.44 0 0 0 2.43-2.44zm-.85 24.53v-9.73H3v1.85h1.33v7.88h1.84zM89.81 45.5c.77 0 1.4.62 1.4 1.4v2.83a1.4 1.4 0 0 1-2.79 0V46.9c0-.77.63-1.39 1.4-1.39zm-3 4.23a3.01 3.01 0 0 0 3 3 3.01 3.01 0 0 0 3.01-3V46.9a3.01 3.01 0 0 0-3-3 3.01 3.01 0 0 0-3.01 3zm1.61-20.45v-2.84a1.4 1.4 0 0 1 2.79 0v2.84c0 .77-.63 1.4-1.4 1.4a1.4 1.4 0 0 1-1.39-1.4zm4.4 0v-2.84a3.01 3.01 0 0 0-3-3 3.01 3.01 0 0 0-3.01 3v2.84a3.01 3.01 0 0 0 3 3 3.01 3.01 0 0 0 3.01-3zm285.02 243.04c.62 0 1.13.5 1.13 1.13v2.3a1.13 1.13 0 0 1-2.26 0v-2.3a1.13 1.13 0 0 1 1.13-1.13zm-2.43 1.13v2.3a2.44 2.44 0 0 0 2.43 2.43 2.44 2.44 0 0 0 2.44-2.43v-2.3a2.44 2.44 0 0 0-2.44-2.44 2.44 2.44 0 0 0-2.43 2.44zM89.8 2.79c1.18 0 2.13.95 2.13 2.12v4.33a2.12 2.12 0 0 1-4.25 0V4.91c0-1.17.96-2.12 2.12-2.12zm0 11.03a4.59 4.59 0 0 0 4.59-4.58V4.91A4.59 4.59 0 0 0 89.81.33a4.59 4.59 0 0 0-4.58 4.58v4.33a4.59 4.59 0 0 0 4.58 4.58zM24.9 32.87h1.84v-9.72h-3.18v1.84h1.33v7.88zm64.9 135.81a1.72 1.72 0 0 1 1.72 1.72v3.5a1.72 1.72 0 0 1-3.43 0v-3.5c0-.95.77-1.72 1.71-1.72zm-3.71 5.22a3.72 3.72 0 0 0 3.71 3.71 3.72 3.72 0 0 0 3.72-3.7v-3.51a3.72 3.72 0 0 0-3.72-3.71 3.72 3.72 0 0 0-3.71 3.71v3.5zM26.32 52v-7.09H24v1.35h.97V52zm22.35 33.26c1.17 0 2.12.95 2.12 2.12v4.33a2.12 2.12 0 0 1-4.24 0v-4.33c0-1.16.95-2.12 2.12-2.12zm0 11.03a4.59 4.59 0 0 0 4.58-4.58v-4.33a4.59 4.59 0 0 0-4.58-4.58 4.59 4.59 0 0 0-4.59 4.58v4.33a4.59 4.59 0 0 0 4.59 4.58zm-23.7-85.86h1.35V3.34H24v1.34h.97zm.19 56.35a1.13 1.13 0 0 1 1.13 1.13v2.3a1.13 1.13 0 0 1-2.26 0v-2.3a1.13 1.13 0 0 1 1.13-1.13zm0 5.86a2.44 2.44 0 0 0 2.43-2.43v-2.3a2.44 2.44 0 0 0-2.43-2.44 2.44 2.44 0 0 0-2.44 2.44v2.3a2.44 2.44 0 0 0 2.44 2.43zm354.86 126.53v-13.34h-4.36v2.53h1.83v10.8h2.53zM27.34 116.99v-13.34h-4.36v2.53h1.83V117h2.53zM24.8 82.97h-1.83v2.53h1.83v10.81h2.53V82.97zm353.03 126.88c.86 0 1.55.7 1.55 1.55v3.15a1.55 1.55 0 0 1-3.1 0v-3.15c0-.85.7-1.55 1.55-1.55zm-3.34 1.55v3.15a3.34 3.34 0 0 0 3.34 3.34 3.35 3.35 0 0 0 3.34-3.34v-3.15c0-1.84-1.5-3.34-3.34-3.34a3.35 3.35 0 0 0-3.34 3.34zM89.81 189.22c.95 0 1.72.77 1.72 1.72v3.5a1.72 1.72 0 0 1-1.72 1.72 1.72 1.72 0 0 1-1.71-1.71v-3.5c0-.96.77-1.73 1.71-1.73zm-3.7 5.23a3.72 3.72 0 0 0 3.7 3.7 3.72 3.72 0 0 0 3.72-3.7v-3.5a3.72 3.72 0 0 0-3.72-3.72 3.72 3.72 0 0 0-3.7 3.71zm-79.35 4.72v-13.34H2.41v2.53h1.82v10.8h2.53zm373.26 144.11v-13.34h-4.36v2.53h1.83v10.81zM274.98 168.74c.85 0 1.54.7 1.54 1.54v3.16a1.55 1.55 0 0 1-3.1 0v-3.16c0-.85.7-1.54 1.56-1.54zm-3.35 4.7c0 1.84 1.5 3.34 3.35 3.34a3.35 3.35 0 0 0 3.34-3.34v-3.16c0-1.84-1.5-3.34-3.34-3.34a3.35 3.35 0 0 0-3.35 3.34zM377.84 361.2a2.12 2.12 0 0 1-2.12-2.12v-4.33a2.12 2.12 0 0 1 4.24 0v4.33a2.12 2.12 0 0 1-2.12 2.12zm0-11.03a4.59 4.59 0 0 0-4.58 4.58v4.33a4.59 4.59 0 0 0 4.58 4.58 4.6 4.6 0 0 0 4.59-4.58v-4.33a4.59 4.59 0 0 0-4.59-4.58zM48.32 55.13h2.53V41.79h-4.36v2.53h1.83v10.8zm.24-45.82h.79V5.12h-1.37v.8h.58zm-.24 66.6h2.53V62.57h-4.36v2.53h1.83zm-23.16 50.44c1.17 0 2.12.95 2.12 2.12v4.33c0 1.17-.95 2.12-2.12 2.12a2.12 2.12 0 0 1-2.12-2.12v-4.33c0-1.17.95-2.12 2.12-2.12zm0 11.03a4.59 4.59 0 0 0 4.58-4.58v-4.33a4.59 4.59 0 0 0-4.58-4.58 4.59 4.59 0 0 0-4.59 4.58v4.33a4.59 4.59 0 0 0 4.59 4.58zM4.58 361.21a2.12 2.12 0 0 1-2.12-2.12v-4.33a2.12 2.12 0 0 1 4.25 0v4.33c0 1.17-.96 2.12-2.13 2.12zm0-11.03A4.59 4.59 0 0 0 0 354.76v4.33a4.59 4.59 0 0 0 4.59 4.58 4.59 4.59 0 0 0 4.58-4.59v-4.32a4.59 4.59 0 0 0-4.58-4.58zm43.74-315.5h2.53V21.34h-4.36v2.53h1.83zm82.29 89.75h-1.83v2.53h1.83v10.81h2.53v-13.33zm2.53 22.98v-2.53h-4.36v2.53h1.83v10.81h2.53zm-.59 21.9v-1.84h-3.18v1.84h1.33v7.88h1.85v-7.88zM4.59 46.66c.45 0 .82.37.82.83v1.67a.82.82 0 0 1-1.65 0v-1.67c0-.46.37-.83.83-.83zm-1.78 2.5a1.78 1.78 0 0 0 3.55 0v-1.67a1.78 1.78 0 0 0-3.55 0zm108.34-18.82v-4.65h-1.52v.88h.64v3.77h.88zm247.7 290.4V311h-3.17v1.85H357v7.88h1.85zM130.62 103.76h-1.83v2.53h1.83v10.8h2.53v-13.33h-2.53zM110.27 9.54h.88V4.89h-1.52v.88h.64zm247 328.6a.82.82 0 0 1-.82-.83v-1.67a.82.82 0 0 1 1.64 0v1.67a.82.82 0 0 1-.82.82zm0-4.28c-.98 0-1.78.8-1.78 1.78v1.67a1.78 1.78 0 0 0 3.55 0v-1.67c0-.98-.8-1.78-1.77-1.78zM130.6 82.98h-1.83v2.53h1.83v10.8h2.53V82.98h-2.53zM5.43 71.78v-5.17H3.74v.98h.7v4.19h.99zm125.53-45.57c.45 0 .82.37.82.83v1.67a.82.82 0 0 1-1.64 0v-1.67c0-.46.37-.83.82-.83zm0 4.28c.98 0 1.78-.8 1.78-1.78v-1.67a1.78 1.78 0 0 0-3.56 0v1.67c0 .98.8 1.78 1.78 1.78zM132.12 52v-7.08h-2.32v1.34h.97V52zM3.99 27.26a.6.6 0 0 1 1.2 0v1.23a.6.6 0 0 1-1.2 0v-1.23zm.6 2.52a1.3 1.3 0 0 0 1.29-1.3v-1.22a1.3 1.3 0 0 0-2.59 0v1.23c0 .7.58 1.29 1.3 1.29zm354.23 267.09c0 .85-.7 1.54-1.55 1.54a1.55 1.55 0 0 1-1.55-1.54v-3.16a1.55 1.55 0 0 1 3.1 0v3.16zm-1.55-6.5a3.35 3.35 0 0 0-3.34 3.34v3.16a3.35 3.35 0 0 0 3.34 3.34 3.35 3.35 0 0 0 3.34-3.34v-3.16c0-1.84-1.5-3.34-3.34-3.34zm-225.49-76.55c0 .45-.37.82-.82.82a.82.82 0 0 1-.82-.82v-1.68a.82.82 0 0 1 1.64 0zm.96-1.68a1.78 1.78 0 0 0-3.55 0v1.68a1.78 1.78 0 0 0 3.55 0zm-.19 26.28v-9.72h-3.18v1.84h1.33v7.88zM4.59 87.23c.62 0 1.12.5 1.12 1.13v2.3a1.13 1.13 0 0 1-2.25 0v-2.3c0-.62.5-1.13 1.13-1.13zm-2.44 3.43a2.44 2.44 0 0 0 2.44 2.43 2.44 2.44 0 0 0 2.43-2.43v-2.3a2.44 2.44 0 0 0-2.43-2.44 2.44 2.44 0 0 0-2.44 2.44zm377.81 83.32c0 1.17-.95 2.12-2.12 2.12a2.12 2.12 0 0 1-2.12-2.12v-4.32a2.12 2.12 0 0 1 4.24 0zm-2.12-8.9a4.59 4.59 0 0 0-4.58 4.58v4.32a4.59 4.59 0 0 0 4.58 4.59 4.59 4.59 0 0 0 4.59-4.59v-4.32a4.6 4.6 0 0 0-4.59-4.59zm-246.03 30.1v-5.16h-1.7v.98h.72v4.18zm-19.83 63.98v-9.72h-3.18v1.84h1.33v7.88h1.85zm.59-29.74v-2.53h-4.36v2.53h1.83v10.81h2.53zM6.77 343.28v-13.34H2.4v2.53h1.82v10.81h2.53zm103.62-214.84c.69 0 1.25.56 1.25 1.25v2.55a1.25 1.25 0 0 1-2.5 0v-2.55c0-.7.56-1.25 1.25-1.25zm0 6.5a2.71 2.71 0 0 0 2.7-2.7v-2.55a2.71 2.71 0 0 0-2.7-2.7 2.71 2.71 0 0 0-2.71 2.7v2.55a2.71 2.71 0 0 0 2.7 2.7zm-.35 51.22h-1.83v2.53h1.83v10.81h2.53v-13.34h-2.53zm0 20.29h-1.83v2.52h1.83v10.81h2.53v-13.33h-2.53zM4.59 312.62c.85 0 1.54.69 1.54 1.54v3.15a1.55 1.55 0 0 1-3.1 0v-3.15c0-.85.7-1.54 1.56-1.54zm-3.35 4.7c0 1.84 1.5 3.34 3.35 3.34a3.35 3.35 0 0 0 3.34-3.34v-3.16c0-1.84-1.5-3.34-3.34-3.34a3.35 3.35 0 0 0-3.35 3.34v3.15zm376.6-87.02c.85 0 1.55.7 1.55 1.55V235a1.55 1.55 0 0 1-3.1 0v-3.15c0-.86.7-1.55 1.55-1.55zm-3.34 4.7a3.35 3.35 0 0 0 3.34 3.34 3.35 3.35 0 0 0 3.34-3.34v-3.15c0-1.84-1.5-3.34-3.34-3.34a3.35 3.35 0 0 0-3.34 3.34zm-262.82-79.22v-7.88h-2.58v1.5h1.08v6.38h1.5zm-1.41-105h.88v-4.65h-1.52v.88h.64zM4.59 176.1a2.12 2.12 0 0 1-2.13-2.12v-4.32a2.12 2.12 0 0 1 4.25 0v4.32c0 1.17-.96 2.12-2.13 2.12zm0-11.03A4.59 4.59 0 0 0 0 169.66v4.32a4.59 4.59 0 0 0 4.59 4.59 4.59 4.59 0 0 0 4.58-4.59v-4.32a4.59 4.59 0 0 0-4.58-4.59zm104.98-76.4a.82.82 0 0 1 1.64 0v1.68a.82.82 0 0 1-1.64 0v-1.68zm.82 3.45c.98 0 1.77-.8 1.77-1.77v-1.68a1.78 1.78 0 0 0-3.55 0v1.68a1.78 1.78 0 0 0 1.78 1.77zm-.12-20.6h.88v-4.65h-1.52v.88h.64v3.77zm.96 41.72v-5.17h-1.69v.98h.71v4.19z" fill="url(#a)" fill-rule="evenodd"/></svg>