<svg width="119" viewBox="0 0 119 121" xmlns="http://www.w3.org/2000/svg"><g fill="none" fill-rule="evenodd"><path d="M92.2 6.8c14.5 6.1 32.4 26.3 25.1 63-4.7 23.7-20 53.4-62 51C25.9 119.3-17.5 76.3 7.6 44 17.5 31 28 35 42 22.9 56.9 10 72-1.5 92.2 6.9zM33 20.9c6-4.2 11.6-12.7 9.6-18C40.5-2.4 28.6.2 21 5.7c-7.5 5.6-9.6 13.9-6.8 17.4s12.7 1.9 18.7-2.2z" fill="currentColor"/><g fill-rule="nonzero"><path d="M75.7 80h-34c-1 0-1.7.8-1.7 1.7v13.6c0 1 .8 1.7 1.7 1.7h34c1 0 1.7-.8 1.7-1.7V81.7c0-1-.8-1.7-1.7-1.7z" fill="#FFD562"/><path d="M82.5 59.5h-34c-1 0-1.7.8-1.7 1.7v13.6c0 1 .8 1.7 1.7 1.7h34c1 0 1.7-.8 1.7-1.7V61.2c0-1-.8-1.7-1.7-1.7z" fill="#FF8B8B"/><path d="M84.2 74.8V61.2c0-1-.8-1.7-1.7-1.7h-17v17h17c1 0 1.7-.8 1.7-1.7z" fill="#FF5A5A"/><path d="M77.4 95.3V81.7c0-1-.8-1.7-1.7-1.7h-17v17h17c1 0 1.7-.8 1.7-1.7z" fill="#FCBA06"/><path d="M41.7 56h34c1 0 1.7-.8 1.7-1.7V40.7c0-1-.8-1.7-1.7-1.7h-34c-1 0-1.7.8-1.7 1.7v13.6c0 1 .8 1.7 1.7 1.7z" fill="#9189FF"/><path d="M77.4 54.3V40.7c0-1-.8-1.7-1.7-1.7h-17v17h17c1 0 1.7-.8 1.7-1.7z" fill="#5346FF"/><path d="M92.9 46h-6.3l.5-.6a1.7 1.7 0 1 0-2.4-2.4l-3.4 3.4c-.7.7-.7 1.8 0 2.4l3.4 3.4a1.7 1.7 0 0 0 2.4 0c.6-.7.6-1.7 0-2.4l-.5-.5h6.3c1 0 1.7.8 1.7 1.7v13.6c0 1-.8 1.7-1.7 1.7h-3.6a1.7 1.7 0 0 0 0 3.4h3.6c2.8 0 5.1-2.3 5.1-5.1V51a5 5 0 0 0-5.1-5z" fill="#3C4555"/><g transform="translate(46.8 45.8)" fill="#fff"><circle cx="1.7" cy="1.7" r="1.7"/><circle cx="8.5" cy="22.2" r="1.7"/><circle cx="1.7" cy="42.7" r="1.7"/></g></g></g></svg>