<svg width="129" viewBox="0 0 129 116" xmlns="http://www.w3.org/2000/svg"><g fill="none" fill-rule="evenodd"><path d="M73.19 20.23c7.79 15.44 16.52 17.66 28.4 23.83 19.09 9.92 11.14 50.3-14.22 63.89-17.03 9.11-35.9 11.88-61.95.92-25.68-10.8-39.25-71.04-4.59-99.43C34.38-1.66 58.9-8.11 73.2 20.23zm44.34 31.32c5.16 8.82 14.66-6.65 10.3-17.5-3.98-9.85-22.86-9.86-25.31-2.18-2.55 7.97 7.1 6.17 15.01 19.68" fill="currentColor"/><g fill-rule="nonzero"><path d="M43.4 48.2a2.22 2.22 0 0 0-3.17.57c-.65 1-.37 2.33.58 3.04 4.62 3.42 5.15 5.85 5.32 8.46.22 3.23 0 13.22 0 13.32a2.22 2.22 0 0 0 2.21 2.27l1.48-14.05-1.48-8.74a20.76 20.76 0 0 0-4.93-4.87z" fill="#02BF30"/><path d="M59.86 38.63c-4.7.96-8.44 5.37-11.1 13.12l-.42 1.32v22.8h.01c1.2 0 2.2-.97 2.22-2.18.01-.27.1-4.29.1-8.08.03-4.42.9-8.12 2.33-12.48 2.62-7.6 5.65-9.71 7.73-10.14a2.2 2.2 0 0 0 1.79-1.95 2.23 2.23 0 0 0-2.66-2.41z" fill="#17D746"/><path d="M67.37 48.91a7.06 7.06 0 0 1-3.98-1.23l-5.55-3.78a2.96 2.96 0 0 1 0-4.9l5.55-3.77a7.03 7.03 0 0 1 7.96 0l5.55 3.78a2.96 2.96 0 0 1 0 4.9l-5.55 3.77a7.06 7.06 0 0 1-3.98 1.23z" fill="#02BF30"/><path d="M42 53.44a3.3 3.3 0 0 1-.82-.11l-6.44-1.86a7.04 7.04 0 0 1-5.09-6.12l-.64-6.69a2.96 2.96 0 0 1 3.77-3.12l6.45 1.86c2.8.8 4.8 3.2 5.08 6.12l.64 6.68A2.96 2.96 0 0 1 42 53.44z" fill="#17D746"/><path d="m86.64 89.63-3.4-3.4c-.4-.4.2-2.1.2-2.1s-2.67-.37-3.32-1.02l-9.3-9.3c-.47-.47-.06-2.21-.06-2.21s-2.51-.36-3.08-.93l-4.58-4.58a2.22 2.22 0 0 1 0-3.14l4.57-4.57a2.22 2.22 0 0 1 3.14 0l4.58 4.57-.19 2.94 3.33.21 9.28 9.28-.07 2.9 3.21.24 3.4 3.4c.87.87.87 2.27 0 3.14l-4.57 4.57c-.87.87-2.27.87-3.14 0z" fill="#FFBE40"/><path d="M32.44 69.66c-1.23 0-2.23 1-2.23 2.22v6.46c0 1.23 1 2.23 2.23 2.23h3.04c.7 0 2.23-1.64 2.23-1.64s1.45 1.64 2.22 1.64h8.41l4.45-5.46-4.45-5.45h-8.4l-2.23 3.11-2.23-3.1h-3.04z" fill="#FFDF40"/><path d="M65.72 69.66h-7.67l-2.23 1.63-2.22-1.63h-5.26v10.9h5.26c.75 0 2.22-1.63 2.22-1.63s1.5 1.63 2.23 1.63h7.68c1.22 0 2.22-1 2.22-2.22v-6.46c0-1.22-1-2.22-2.23-2.22zm-30.24 0v10.91h4.45V69.66z" fill="#FFBE40"/><path fill="#FF9F40" d="M53.6 69.66v10.91h4.45V69.66z"/><path d="M32.44 80.56c-1.23 0-2.23 1-2.23 2.23v6.46c0 1.22 1 2.22 2.23 2.22h9.07l2.22-3.26 2.22 3.26h2.39l1.48-5.45-1.48-5.45h-2.39l-2.22 3.4-2.22-3.4h-9.07z" fill="#FFBE40"/><path d="M65.73 80.56h-4.79l-2.22 3.41-2.23-3.4h-8.15v10.9h8.15l2.4-3.26 2.05 3.26h4.79c1.22 0 2.22-1 2.22-2.22v-6.46c0-1.23-1-2.23-2.22-2.23zm9.66-17.61-7.71 7.71 3.14 3.16 7.71-7.71zm12.42 12.43-7.71 7.7 3.14 3.16 7.71-7.71z" fill="#FF9F40"/><path fill="#FFDF40" d="M41.51 80.57h4.44v10.9h-4.44z"/><path fill="#FFBE40" d="M56.49 80.57h4.45v10.9h-4.45z"/></g></g></svg>