<svg width="129" viewBox="0 0 129 116" xmlns="http://www.w3.org/2000/svg"><g fill="none" fill-rule="evenodd"><path d="M73.2 20.2C81 35.7 89.7 38 101.6 44.1c19 9.9 11.1 50.3-14.2 63.8-17 9.2-36 12-62 1C-.3 98-13.8 37.9 20.8 9.4 34.4-1.6 59-8 73.2 20.2z" fill="currentColor"/><path d="M51 35a8 8 0 0 1 8 8v20a8 8 0 0 1-8 8H37.4a17 17 0 0 1-6.4 7.3c-1.8.7-3.4-1.2-2.6-2.9.5-1 .7-3.6.8-4.6A8 8 0 0 1 23 63V43a8 8 0 0 1 8-8h20z" fill="#FF5A5A" fill-rule="nonzero"/><path d="M44.5 45.5c.6-.6 1.5-.7 2.1-.1h.2l1.7 1.8c.6.6.7 1.5.1 2.1v.2L45 53l3.5 3.5c.7.7.7 1.7 0 2.3l-1.7 1.7c-.6.7-1.6.7-2.3 0L41 57l-3.5 3.5c-.6.6-1.5.7-2.1.1h-.2l-1.7-1.8c-.6-.6-.7-1.5-.1-2.1v-.2L37 53l-3.5-3.5c-.7-.7-.7-1.7 0-2.3l1.7-1.7c.6-.7 1.6-.7 2.3 0L41 49l3.5-3.5z" fill="#fff"/><g fill-rule="nonzero"><path d="M58 51a8 8 0 0 0-8 8v20a8 8 0 0 0 8 8h13.6a17 17 0 0 0 6.4 7.3c1.8.7 3.4-1.2 2.6-2.9-.5-1-.7-3.6-.8-4.6A8 8 0 0 0 86 79V59a8 8 0 0 0-8-8H58z" fill="#17D746"/><path d="M76.4 64.3c.8.7.8 1.9 0 2.6l-8.3 8.9a2.8 2.8 0 0 1-4 0l-4.6-4.5c-.7-.7-.7-1.9 0-2.6l1.3-1.3c.8-.8 2-.8 2.7 0l2.5 2.4 6.4-6.8c.8-.7 2-.7 2.7 0l1.3 1.3z" fill="#fff"/></g><path d="M117.5 51.6c5.2 8.8 14.7-6.7 10.3-17.6-4-9.8-22.8-9.8-25.3-2.1-2.5 8 7.1 6.1 15 19.7" fill="currentColor"/></g></svg>